<?xml version="1.0" standalone="no"?>
<!DOCTYPE svg PUBLIC "-//W3C//DTD SVG 1.1//EN" "http://www.w3.org/Graphics/SVG/1.1/DTD/svg11.dtd" >
<svg xmlns="http://www.w3.org/2000/svg">
<metadata></metadata>
<defs>
<font id="sq_marketbold_italic" horiz-adv-x="1179" >
<font-face units-per-em="2048" ascent="1638" descent="-410" />
<missing-glyph horiz-adv-x="552" />
<glyph unicode="&#xfb01;" horiz-adv-x="1300" d="M78 0l182 860h-172l49 234h172l21 88q36 156 134.5 231.5t283.5 75.5q119 0 196 -29l-80 -235q-48 24 -116 24q-95 0 -113 -80l-19 -75h213l-49 -234h-215l-180 -860h-307zM750 0l231 1094h307l-231 -1094h-307zM1008 1214l53 248h305l-53 -248h-305z" />
<glyph unicode="&#xfb02;" horiz-adv-x="1302" d="M78 0l182 860h-172l49 234h172l21 88q36 156 134.5 231.5t283.5 75.5q119 0 196 -29l-80 -235q-48 24 -116 24q-95 0 -113 -80l-19 -75h213l-49 -234h-215l-180 -860h-307zM750 0l311 1462h305l-309 -1462h-307z" />
<glyph horiz-adv-x="0" />
<glyph horiz-adv-x="682" />
<glyph horiz-adv-x="0" />
<glyph horiz-adv-x="0" />
<glyph horiz-adv-x="552" />
<glyph unicode="&#xd;" horiz-adv-x="552" />
<glyph unicode=" "  horiz-adv-x="552" />
<glyph unicode="&#x09;" horiz-adv-x="552" />
<glyph unicode="&#xa0;" horiz-adv-x="552" />
<glyph unicode="!" horiz-adv-x="626" d="M8 0l72 330h334l-72 -330h-334zM219 471l12 553l91 438h327l-78 -364l-235 -627h-117z" />
<glyph unicode="&#x22;" horiz-adv-x="901" d="M172 856l129 606h246l-129 -606h-246zM582 856l129 606h245l-129 -606h-245z" />
<glyph unicode="#" horiz-adv-x="1288" d="M61 0l154 397h-143l37 176h176l123 318h-232l37 174h264l154 397h194l-151 -397h237l158 397h195l-156 -397h147l-36 -174h-179l-122 -318h233l-37 -176h-266l-152 -397h-194l153 397h-239l-158 -397h-197zM483 573h242l121 318h-242z" />
<glyph unicode="$" d="M-41 311l229 123q31 -79 94 -130t144 -73l84 390q-195 77 -285 169.5t-90 249.5q0 200 135.5 320.5t362.5 120.5q39 0 59 -2l17 82h120l-20 -103q114 -27 206.5 -93.5t151.5 -166.5l-223 -125q-63 104 -186 146l-74 -355q96 -40 162 -78.5t119.5 -90t79.5 -118t26 -151.5 q0 -94 -35.5 -175t-103 -142.5t-172.5 -96.5t-236 -35h-30l-21 -96h-121l23 109q-142 28 -249.5 109.5t-166.5 211.5zM426 1077q0 -59 34.5 -96t110.5 -74l70 328q-2 0 -4.5 1t-3.5 1q-95 0 -151 -40.5t-56 -119.5zM545 217q109 0 173 48t64 138q0 59 -37.5 98t-119.5 81z " />
<glyph unicode="%" horiz-adv-x="1757" d="M164 0l1233 1462h231l-1233 -1462h-231zM188 1096q0 157 105 270t270 113q142 0 231 -94t89 -232q0 -160 -105 -272.5t-268 -112.5q-146 0 -234 93.5t-88 234.5zM395 1108q0 -64 32 -103.5t93 -39.5q70 0 113 50.5t43 123.5q0 62 -33 101.5t-94 39.5q-70 0 -112 -50 t-42 -122zM911 309q0 160 105 272.5t268 112.5q146 0 234 -93t88 -234q0 -157 -105 -270t-270 -113q-142 0 -231 93.5t-89 231.5zM1118 324q0 -63 33 -103.5t94 -40.5q70 0 113 51t43 123q0 64 -33 104t-94 40q-70 0 -113 -51t-43 -123z" />
<glyph unicode="&#x26;" horiz-adv-x="1394" d="M41 393q0 160 95 270t278 187q-78 131 -78 260q0 162 114 270.5t298 108.5q156 0 259 -82t103 -233q0 -136 -86 -231t-252 -175l209 -322q57 62 109 150l202 -131q-73 -118 -178 -223l160 -242h-332l-47 72q-183 -99 -371 -99q-137 0 -245 47.5t-173 144t-65 228.5z M348 416q0 -87 56.5 -142t158.5 -55q101 0 205 55l-238 375q-182 -77 -182 -233zM604 1124q0 -80 60 -166q102 51 141 101t39 102q0 50 -27.5 83.5t-79.5 33.5q-63 0 -98 -45.5t-35 -108.5z" />
<glyph unicode="'" horiz-adv-x="491" d="M172 856l129 606h246l-129 -606h-246z" />
<glyph unicode="(" horiz-adv-x="677" d="M57 539q0 365 175 651.5t493 458.5l94 -185q-249 -158 -379.5 -407.5t-130.5 -548.5q0 -201 60.5 -366t152.5 -277l-160 -148q-134 148 -219.5 358t-85.5 464z" />
<glyph unicode=")" horiz-adv-x="686" d="M-145 -98q263 156 396.5 405t133.5 551q0 201 -65.5 365.5t-165.5 277.5l159 148q91 -96 161 -211.5t117.5 -277t47.5 -333.5q0 -367 -179.5 -653t-512.5 -457z" />
<glyph unicode="*" horiz-adv-x="942" d="M193 1106l38 184q76 -19 129 -43t140 -80q-66 81 -94.5 131t-51.5 125l178 58q24 -75 29.5 -134t-0.5 -159q38 98 66.5 148.5t81.5 105.5l139 -125q-50 -58 -97 -91t-141 -81q98 15 158 15t135 -17l-39 -185q-77 19 -130 43t-138 80q65 -80 93.5 -130t51.5 -126l-178 -57 q-24 73 -29.5 133.5t1.5 159.5q-40 -99 -68.5 -149t-79.5 -105l-139 125q51 58 97 91.5t138 80.5q-97 -15 -156.5 -15t-133.5 17z" />
<glyph unicode="+" d="M-4 418l55 256h418l88 420h256l-88 -420h420l-55 -256h-420l-88 -418h-256l88 418h-418z" />
<glyph unicode="," horiz-adv-x="512" d="M-90 -217q77 33 130 86.5t66 116.5l5 14h-146l72 330h334l-60 -281q-28 -138 -105 -233t-224 -168z" />
<glyph unicode="-" horiz-adv-x="792" d="M68 418l53 256h594l-53 -256h-594z" />
<glyph unicode="." horiz-adv-x="512" d="M-35 0l72 330h334l-72 -330h-334z" />
<glyph unicode="/" horiz-adv-x="745" d="M-111 0l750 1462h256l-752 -1462h-254z" />
<glyph unicode="0" d="M41 547q0 94 16 195.5t48.5 209t87 202.5t125.5 170.5t171.5 120t217.5 44.5q98 0 176.5 -31.5t130 -85t86 -128t49 -156t14.5 -173.5q0 -80 -11 -166t-36 -178.5t-61.5 -178t-91.5 -162.5t-121 -133.5t-154.5 -90t-189.5 -33.5q-98 0 -176.5 31.5t-130 85t-86 127.5 t-49.5 156t-15 174zM350 500q0 -125 41 -197t127 -72q62 0 114.5 39.5t87.5 105t62.5 143.5t42 161.5t22 153t7.5 124.5q0 126 -41 199.5t-127 73.5q-73 0 -133.5 -57.5t-97 -142t-61.5 -188.5t-34.5 -190t-9.5 -153z" />
<glyph unicode="1" horiz-adv-x="983" d="M119 1165l522 297h270l-309 -1462h-317l231 1083l-283 -163z" />
<glyph unicode="2" d="M-61 0l12 53q19 82 67 160t110.5 139t138 123t149.5 112.5t144 106t123.5 105.5t85.5 109t32 118q0 84 -56.5 134t-140.5 50q-75 0 -144.5 -45t-115.5 -145l-240 141q201 328 553 328q215 0 347.5 -120t132.5 -327q0 -70 -17 -132.5t-45 -112t-72.5 -98t-90.5 -86 t-108 -80.5t-116 -77t-124 -80.5t-124 -86.5h602l-61 -289h-1042z" />
<glyph unicode="3" d="M-41 330l254 125q76 -205 274 -205q118 0 191.5 74t73.5 182q0 86 -47 136t-125 50q-67 0 -127 -37l-105 127l385 392h-549l64 288h944l-43 -200l-350 -357q126 -25 206 -129.5t80 -253.5q0 -104 -42.5 -202.5t-117.5 -175.5t-189 -124t-247 -47q-187 0 -326 91t-204 266 z" />
<glyph unicode="4" d="M-35 305l51 238l764 919h363l-189 -893h187l-58 -264h-184l-65 -305h-316l66 305h-619zM346 569h299l100 486z" />
<glyph unicode="5" d="M-39 350l264 115q34 -105 107 -160t168 -55q109 0 185.5 69t76.5 183q0 103 -63.5 168t-176.5 65q-142 0 -241 -106q-28 16 -170 104l198 729h901q-54 -256 -61 -288h-645l-90 -277q39 33 102.5 52.5t130.5 19.5q182 0 311 -132t129 -331q0 -107 -41.5 -204t-114.5 -170 t-181 -116t-234 -43q-192 0 -341 98t-214 279z" />
<glyph unicode="6" d="M61 563q0 132 26.5 260t86 249.5t146 213.5t217 147.5t288.5 55.5q243 0 383 -121l-147 -235q-104 84 -258 84q-146 0 -240.5 -85.5t-132.5 -240.5q38 35 105.5 59.5t158.5 24.5q196 0 317.5 -123t121.5 -326q0 -108 -37.5 -206.5t-107 -176.5t-179 -124t-244.5 -46 q-235 0 -369.5 145t-134.5 445zM375 461q0 -89 46.5 -153t145.5 -64q59 0 106 25.5t74 67t40.5 88.5t13.5 95q0 93 -49 150t-140 57q-109 0 -173 -78.5t-64 -187.5z" />
<glyph unicode="7" d="M47 0l774 1174h-694l61 288h1080l-49 -225l-818 -1237h-354z" />
<glyph unicode="8" d="M16 418q0 153 88.5 250.5t235.5 142.5q-63 41 -109.5 115t-46.5 174q0 171 138.5 280t349.5 109q215 0 348 -113t133 -284q0 -122 -69 -209t-181 -135q189 -119 189 -334q0 -191 -145 -316t-394 -125q-245 0 -391 123t-146 322zM334 430q0 -103 63.5 -157t157.5 -54 q97 0 157 56t60 157q0 106 -64 158.5t-159 52.5q-97 0 -156 -56.5t-59 -156.5zM492 1059q0 -83 48.5 -128.5t123.5 -45.5q76 0 128 45.5t52 132.5q0 85 -49.5 131.5t-122.5 46.5q-76 0 -128 -47t-52 -135z" />
<glyph unicode="9" d="M0 94l147 236q104 -84 259 -84q146 0 240 85t132 240q-38 -35 -105.5 -59.5t-158.5 -24.5q-196 0 -317 123t-121 326q0 108 37 206.5t106.5 176.5t179 124t244.5 46q235 0 369.5 -145t134.5 -445q0 -132 -26.5 -260t-86 -249.5t-146 -213.5t-217 -147.5t-288.5 -55.5 q-243 0 -383 121zM408 942q0 -93 48.5 -150t139.5 -57q109 0 173.5 78.5t64.5 187.5q0 89 -47 153.5t-146 64.5q-48 0 -88 -17t-66 -45t-44.5 -64.5t-26.5 -74.5t-8 -76z" />
<glyph unicode=":" horiz-adv-x="641" d="M27 0l69 330h334l-70 -330h-333zM188 762l70 332h334l-70 -332h-334z" />
<glyph unicode=";" horiz-adv-x="614" d="M-29 -217q77 33 130.5 86.5t66.5 116.5l4 14h-145l69 330h336l-59 -281q-30 -139 -107 -234t-225 -167zM188 764l70 330h334l-68 -330h-336z" />
<glyph unicode="&#x3c;" d="M150 580l669 538l156 -192l-475 -383l301 -414l-205 -156z" />
<glyph unicode="=" d="M-10 199l53 258h1014l-56 -258h-1011zM82 637l55 258h1014l-55 -258h-1014z" />
<glyph unicode="&#x3e;" d="M164 166l475 383l-301 414l205 155l446 -606l-670 -539z" />
<glyph unicode="?" horiz-adv-x="1181" d="M199 0l71 330h334l-72 -330h-333zM209 1313q221 174 475 174q202 0 323 -106.5t121 -280.5q0 -75 -25.5 -137t-67 -105.5t-91.5 -80.5t-103 -68.5t-98 -62t-78.5 -70t-43.5 -84.5l-5 -21h-309l10 47q14 62 48 115.5t76.5 91.5t91 72t94 64t82.5 60t59.5 66.5t22.5 77.5 q0 66 -47.5 110t-135.5 44q-139 0 -272 -115z" />
<glyph unicode="@" horiz-adv-x="1830" d="M127 639q0 169 67 324t184 271t286.5 185.5t363.5 69.5q164 0 298.5 -50.5t224.5 -139.5t139 -210.5t49 -263.5q0 -233 -118.5 -383.5t-307.5 -150.5q-174 0 -228 131q-105 -133 -268 -133q-147 0 -229 102t-82 264q0 197 116.5 336t286.5 139q75 0 135 -29t91 -77l20 90 h236l-119 -561q-6 -24 -6 -47q0 -36 20 -58t62 -22q105 0 175 120t70 285q0 236 -152.5 380.5t-416.5 144.5q-132 0 -248.5 -38.5t-202 -106t-148 -157t-93.5 -195t-31 -216.5q0 -122 38 -225t109.5 -179.5t182 -119.5t248.5 -43q210 0 356 92l53 -119q-196 -106 -422 -106 q-162 0 -300 52t-234 143.5t-150.5 220.5t-54.5 280zM750 676q0 -82 36 -136.5t103 -54.5q84 0 134 80t50 189q0 43 -9.5 80.5t-41 69.5t-82.5 32q-86 0 -138 -78.5t-52 -181.5z" />
<glyph unicode="A" horiz-adv-x="1392" d="M-131 0l827 1462h383l205 -1462h-348l-29 332h-508l-170 -332h-360zM528 592h359l-49 598z" />
<glyph unicode="B" horiz-adv-x="1411" d="M6 0l311 1462h582q134 0 242 -42.5t172.5 -127.5t64.5 -198q0 -128 -78 -218t-198 -124q92 -45 145 -129.5t53 -190.5q0 -187 -155 -309.5t-408 -122.5h-731zM385 276h344q112 0 176 51t64 134q0 79 -60.5 122.5t-167.5 43.5h-280zM516 885h334q91 0 145 40.5t54 116.5 q0 66 -49 104t-136 38h-286z" />
<glyph unicode="C" horiz-adv-x="1443" d="M84 674q0 167 58 316.5t160 259.5t248.5 174.5t315.5 64.5q214 0 368.5 -101.5t223.5 -273.5l-274 -127q-44 100 -127 160.5t-199 60.5q-131 0 -233.5 -76t-155.5 -197.5t-53 -264.5q0 -183 92 -300.5t256 -117.5q106 0 191 53t143 146l231 -183q-224 -295 -588 -295 q-153 0 -278.5 55t-207.5 150.5t-126.5 222.5t-44.5 273z" />
<glyph unicode="D" horiz-adv-x="1519" d="M6 0l309 1462h486q131 0 241.5 -33.5t188.5 -93t132.5 -141.5t80.5 -177.5t26 -201.5q0 -225 -94.5 -409.5t-275.5 -295t-416 -110.5h-678zM387 289h309q104 0 189 42t140 113.5t84.5 165.5t29.5 199q0 166 -84 265.5t-258 99.5h-222z" />
<glyph unicode="E" horiz-adv-x="1286" d="M6 0l311 1462h1045l-62 -288h-725l-63 -295h647l-55 -258h-645l-72 -332h743l-59 -289h-1065z" />
<glyph unicode="F" horiz-adv-x="1243" d="M6 0l311 1462h1041l-60 -288h-723l-65 -310h643l-53 -260h-645l-129 -604h-320z" />
<glyph unicode="G" horiz-adv-x="1548" d="M82 674q0 166 60 315.5t164 259.5t254 175t321 65q209 0 360.5 -91.5t233.5 -254.5l-261 -148q-51 104 -138.5 158.5t-203.5 54.5q-138 0 -244 -75t-160 -195.5t-54 -263.5q0 -190 95.5 -308t270.5 -118q138 0 244 78t129 200h-362l53 258h637q14 -54 14 -125 q0 -95 -29 -191.5t-90 -185.5t-145.5 -157.5t-205.5 -110t-261 -41.5q-162 0 -293 56.5t-215 153t-129 222.5t-45 269z" />
<glyph unicode="H" horiz-adv-x="1533" d="M6 0l311 1462h320l-117 -551h598l117 551h324l-312 -1462h-321l131 625h-598l-133 -625h-320z" />
<glyph unicode="I" horiz-adv-x="608" d="M6 0l311 1462h318l-309 -1462h-320z" />
<glyph unicode="J" horiz-adv-x="1124" d="M-76 262l258 135q24 -73 81.5 -112t135.5 -39q102 0 156.5 66t81.5 194l205 956h319l-217 -1016q-21 -100 -61.5 -182.5t-105 -149.5t-161 -104t-217.5 -37q-178 0 -300 78t-175 211z" />
<glyph unicode="K" horiz-adv-x="1445" d="M6 0l311 1462h318l-139 -649l684 649h385l-652 -616l402 -846h-346l-297 639l-266 -260l-82 -379h-318z" />
<glyph unicode="L" horiz-adv-x="1183" d="M6 0l311 1462h318l-248 -1173h719l-64 -289h-1036z" />
<glyph unicode="M" horiz-adv-x="1855" d="M6 0l311 1462h431l122 -1013l560 1013h452l-311 -1462h-314l228 1069l-592 -1069h-213l-137 1063l-228 -1063h-309z" />
<glyph unicode="N" horiz-adv-x="1531" d="M6 0l311 1462h367l354 -997l213 997h305l-311 -1462h-354l-361 1020l-217 -1020h-307z" />
<glyph unicode="O" horiz-adv-x="1591" d="M84 678v11q0 153 56 296q58 148 158.5 258.5t247 177.5t312.5 68h5q149 0 277 -56q130 -57 216 -154.5t134 -225t50 -269.5v-11q0 -153 -56 -296q-58 -148 -158.5 -258.5t-247 -177.5t-312.5 -68h-5q-149 0 -277 56q-130 57 -216 154.5t-134 225t-50 269.5zM418 643 q3 -182 104 -285q98 -100 240 -100h8q102 2 187.5 54t139.5 133q55 81 83 179q27 92 26 182v13q-3 182 -104 285q-98 100 -238 100h-8q-102 -2 -188 -54t-140 -133t-83 -179q-27 -92 -27 -182v-13z" />
<glyph unicode="P" horiz-adv-x="1372" d="M6 0l311 1462h584q231 0 365.5 -121.5t134.5 -328.5q0 -227 -160 -371.5t-438 -144.5h-371l-104 -496h-322zM494 784h342q108 0 170.5 58t62.5 155q0 88 -51.5 132.5t-145.5 44.5h-294z" />
<glyph unicode="Q" horiz-adv-x="1591" d="M84 678v7q0 124 36 243q36 122 106 222.5t164.5 177t216 119t253.5 42.5q153 0 282 -57t214.5 -154t133.5 -224.5t50 -269.5q1 -181 -71.5 -344t-202.5 -278l114 -160l-233 -162l-123 178q-124 -45 -260 -45q-153 0 -282 57t-214.5 154t-133.5 224.5t-50 269.5zM418 643 q1 -181 102 -286q100 -103 244 -103h6q48 0 92 12l-123 187l213 143l123 -182q64 84 99 192q32 103 32 202v11q-3 182 -102.5 283.5t-247.5 101.5q-82 -1 -153.5 -34.5t-123 -89.5t-89 -128t-55.5 -151q-17 -75 -17 -150v-8z" />
<glyph unicode="R" horiz-adv-x="1425" d="M6 0l311 1462h607q219 0 352 -119.5t133 -316.5q0 -175 -108.5 -296.5t-301.5 -164.5l238 -565h-348l-209 524h-242l-112 -524h-320zM494 784h346q101 0 168 60t67 157q0 82 -49.5 127.5t-132.5 45.5h-315z" />
<glyph unicode="S" horiz-adv-x="1320" d="M-16 336l258 135q53 -116 167 -174.5t250 -58.5q107 0 173.5 45t66.5 125q0 28 -11.5 50t-30 39t-51.5 33.5t-66 30t-84 32.5q-8 3 -13 5t-13 5t-14 5q-90 31 -153.5 60t-120 67.5t-90.5 82t-52 101.5q-18 55 -18 123v7q0 199 152 319.5t391 120.5q188 0 344 -79 t248 -228l-250 -140q-50 83 -142 131t-204 48q-95 0 -155 -37.5t-60 -106.5q0 -44 34.5 -78t71.5 -50.5t127 -49.5q14 -5 21 -8q116 -42 194 -82t141.5 -93.5t93.5 -123.5t30 -160q0 -96 -38.5 -179t-111 -145.5t-185 -98.5t-251.5 -36q-223 0 -393.5 93.5t-255.5 269.5z " />
<glyph unicode="T" horiz-adv-x="1273" d="M131 1174l62 288h1200l-62 -288h-440l-250 -1174h-322l252 1174h-440z" />
<glyph unicode="U" horiz-adv-x="1472" d="M92 418q0 67 21 174l188 870h324l-193 -897q-14 -61 -14 -96q0 -99 64.5 -154t183.5 -55q273 0 335 297l189 905h321l-200 -946q-55 -265 -227.5 -404t-446.5 -139q-245 0 -395 117t-150 328z" />
<glyph unicode="V" horiz-adv-x="1306" d="M131 1462h336l96 -1069l545 1069h365l-807 -1462h-351z" />
<glyph unicode="W" horiz-adv-x="1972" d="M195 1462h342l-13 -985l477 985h263l57 -987l414 987h366l-688 -1462h-334l-47 946l-450 -946h-334z" />
<glyph unicode="X" horiz-adv-x="1429" d="M-119 0l668 784l-311 678h346l200 -473l375 473h395l-608 -714l346 -748h-350l-227 516l-434 -516h-400z" />
<glyph unicode="Y" horiz-adv-x="1320" d="M123 1462h358l187 -594l440 594h387l-715 -884l-123 -578h-319l123 582z" />
<glyph unicode="Z" horiz-adv-x="1345" d="M-55 0l53 252l897 922h-670l60 288h1126l-51 -237l-909 -936h729l-60 -289h-1175z" />
<glyph unicode="[" horiz-adv-x="624" d="M-76 -274l408 1912h479l-41 -198h-221l-324 -1516h219l-41 -198h-479z" />
<glyph unicode="\" horiz-adv-x="665" d="M158 1462h252l133 -1462h-252z" />
<glyph unicode="]" horiz-adv-x="630" d="M-170 -274l41 198h221l324 1516h-219l41 198h479l-408 -1912h-479z" />
<glyph unicode="^" d="M96 1006l547 456h211l383 -497l-201 -156l-303 395l-473 -395z" />
<glyph unicode="_" horiz-adv-x="1189" d="M-188 -154h1222v-102h-1222v102z" />
<glyph unicode="`" horiz-adv-x="776" d="M283 1509l245 97l119 -400h-203z" />
<glyph unicode="a" horiz-adv-x="1116" d="M-4 291q0 61 16 111t40 84t62 61t73.5 42.5t83.5 27t82 16.5t79 10q57 6 90 10t73 11t61 15.5t41 20.5t28 29t8 39q0 98 -153 98q-164 0 -338 -100l-95 215q221 137 484 137q191 0 303.5 -72.5t112.5 -220.5q0 -43 -13 -114l-151 -711h-310l19 88q-102 -113 -275 -113 q-144 0 -232.5 81.5t-88.5 234.5zM305 322q0 -63 36 -92t97 -29q88 0 145.5 56.5t78.5 154.5l22 108q-23 -20 -64.5 -33.5t-69 -18t-85.5 -11.5q-76 -11 -118 -39t-42 -96z" />
<glyph unicode="b" horiz-adv-x="1277" d="M-12 0l309 1462h307l-102 -479q115 133 301 133q185 0 298 -142.5t113 -359.5q0 -172 -72.5 -318t-203.5 -233.5t-291 -87.5q-213 0 -323 162l-29 -137h-307zM406 494q0 -110 53 -181t153 -71q85 0 150 53t96 133.5t31 171.5q0 109 -50.5 180.5t-150.5 71.5 q-86 0 -152 -53.5t-98 -134t-32 -170.5z" />
<glyph unicode="c" horiz-adv-x="1099" d="M47 502q0 169 75.5 309.5t213 223.5t307.5 83q306 0 463 -276l-240 -133q-71 149 -215 149q-124 0 -201 -106.5t-77 -253.5q0 -117 52 -189.5t150 -72.5q128 0 228 131l198 -166q-179 -226 -448 -226q-227 0 -366.5 148t-139.5 379z" />
<glyph unicode="d" horiz-adv-x="1284" d="M41 477q0 172 73 318.5t204.5 234.5t291.5 88q214 0 322 -164l108 508h308l-310 -1462h-307l25 109q-57 -64 -135 -99t-164 -35q-187 0 -301.5 142t-114.5 360zM369 492q0 -111 50 -181.5t150 -70.5q128 0 205.5 107.5t77.5 248.5q0 112 -53.5 184t-153.5 72 q-85 0 -149.5 -53.5t-95.5 -134t-31 -172.5z" />
<glyph unicode="e" horiz-adv-x="1208" d="M45 485q0 172 78.5 316t223.5 230.5t327 86.5q223 0 348 -125t125 -323q0 -106 -37 -199h-737q-4 -16 -4 -41q0 -91 55 -145t149 -54q75 0 140 34.5t112 94.5l207 -159q-91 -110 -215.5 -168t-269.5 -58q-236 0 -369 143t-133 367zM406 666h442q8 20 8 49q0 80 -51 127 t-141 47q-97 0 -164 -56t-94 -167z" />
<glyph unicode="f" horiz-adv-x="761" d="M78 0l182 860h-172l49 234h172l21 88q36 156 134.5 231.5t283.5 75.5q119 0 196 -29l-80 -235q-48 24 -116 24q-95 0 -113 -80l-19 -75h213l-49 -234h-215l-180 -860h-307z" />
<glyph unicode="g" horiz-adv-x="1271" d="M-49 -223l158 215q55 -48 143.5 -80.5t185.5 -32.5q264 0 316 260l10 51q-45 -59 -124 -90.5t-173 -31.5q-131 0 -230.5 63t-151.5 169.5t-52 238.5q0 155 70 287.5t196 212t279 79.5q108 0 198.5 -42t147.5 -130l32 148h306l-187 -885q-28 -133 -67.5 -234t-108.5 -176 q-163 -176 -475 -176q-289 0 -473 154zM360 561q0 -107 55 -175.5t158 -68.5q120 0 194.5 90.5t74.5 217.5q0 107 -55.5 173t-159.5 66q-122 0 -194.5 -88t-72.5 -215z" />
<glyph unicode="h" horiz-adv-x="1189" d="M-12 0l311 1462h307l-102 -485q138 141 319 141q140 0 218.5 -88t78.5 -209q0 -55 -16 -129l-148 -692h-307l137 643q11 53 11 80q0 56 -34 90.5t-99 34.5q-86 0 -150.5 -60t-85.5 -165l-131 -623h-309z" />
<glyph unicode="i" horiz-adv-x="538" d="M-12 0l231 1094h307l-231 -1094h-307zM246 1214l53 248h305l-53 -248h-305z" />
<glyph unicode="j" horiz-adv-x="542" d="M-309 -322l94 213q35 -28 84 -28q96 0 127 147l227 1084h307l-237 -1129q-39 -181 -132.5 -261.5t-246.5 -80.5q-132 0 -223 55zM250 1214l53 248h305l-53 -248h-305z" />
<glyph unicode="k" horiz-adv-x="1198" d="M-12 0l311 1462h305l-170 -813l479 445h361l-492 -455l305 -639h-329l-211 451l-197 -185l-55 -266h-307z" />
<glyph unicode="l" horiz-adv-x="540" d="M-12 0l311 1462h305l-309 -1462h-307z" />
<glyph unicode="m" horiz-adv-x="1802" d="M-12 0l233 1094h307l-24 -119q119 143 295 143q93 0 163 -44t101 -113q80 85 172 121t178 36q81 0 144.5 -25t100.5 -67.5t56 -94t19 -108.5q0 -52 -17 -131l-149 -692h-307l137 641q12 43 12 80q0 56 -35 90.5t-100 34.5q-79 0 -133.5 -57.5t-77.5 -167.5l-131 -621 h-309l139 641q12 58 12 80q0 56 -35 90.5t-100 34.5q-79 0 -133.5 -57.5t-77.5 -167.5l-131 -621h-309z" />
<glyph unicode="n" horiz-adv-x="1189" d="M-12 0l233 1094h307l-24 -117q138 141 319 141q140 0 218.5 -88t78.5 -209q0 -55 -16 -129l-148 -692h-307l137 643q11 53 11 80q0 56 -34 90.5t-99 34.5q-86 0 -150.5 -60t-85.5 -165l-131 -623h-309z" />
<glyph unicode="o" horiz-adv-x="1243" d="M45 506q0 173 74 311.5t212.5 219.5t317.5 81q243 0 387 -145.5t144 -384.5q0 -173 -74.5 -312.5t-213 -220t-317.5 -80.5q-243 0 -386.5 145t-143.5 386zM371 496q0 -115 54 -189t155 -74q85 0 149 55.5t94.5 137t30.5 172.5q0 115 -54 188.5t-155 73.5q-85 0 -149 -55 t-94.5 -136.5t-30.5 -172.5z" />
<glyph unicode="p" horiz-adv-x="1280" d="M-86 -356l307 1450h307l-24 -111q115 133 301 133q185 0 298.5 -142.5t113.5 -359.5q0 -172 -72.5 -318t-204 -233.5t-291.5 -87.5q-213 0 -323 162l-105 -493h-307zM408 494q0 -110 53 -181t153 -71q85 0 150 53t96 133.5t31 171.5q0 109 -50.5 180.5t-150.5 71.5 q-86 0 -152 -53.5t-98 -134t-32 -170.5z" />
<glyph unicode="q" horiz-adv-x="1282" d="M41 477q0 172 73 318t204.5 233.5t291.5 87.5q215 0 322 -162l31 140h309l-309 -1450h-308l101 465q-57 -64 -135 -99t-166 -35q-185 0 -299.5 142.5t-114.5 359.5zM369 492q0 -111 50 -181.5t150 -70.5q128 0 205.5 107.5t77.5 248.5q0 111 -53.5 182.5t-153.5 71.5 q-85 0 -149.5 -53t-95.5 -133t-31 -172z" />
<glyph unicode="r" horiz-adv-x="800" d="M-12 0l231 1094h307l-24 -115q58 61 137.5 96t161.5 35q56 0 96 -16l-94 -291q-37 16 -92 16q-103 0 -189 -80.5t-121 -238.5l-108 -500h-305z" />
<glyph unicode="s" horiz-adv-x="1056" d="M-39 178l172 174q65 -75 151 -110t175 -35q76 0 122 26.5t46 73.5q0 14 -4 25.5t-15 21.5t-21.5 16.5t-32 15t-38 14.5t-47.5 16t-53 18q-68 23 -118.5 49t-99 64.5t-74.5 94.5t-26 126q0 116 63 196.5t162.5 117t225.5 36.5q157 0 279.5 -56.5t205.5 -139.5l-168 -172 q-47 60 -133 98.5t-180 38.5q-64 0 -105.5 -21.5t-41.5 -64.5q0 -15 4.5 -27t16 -22t21.5 -17.5t31.5 -16t35 -13.5t42 -14.5l43.5 -14.5q82 -27 140 -55t106.5 -66.5t73 -90.5t24.5 -118q0 -171 -130.5 -271t-350.5 -100q-317 0 -502 203z" />
<glyph unicode="t" horiz-adv-x="894" d="M82 860l49 234h207l80 368h305l-80 -368h277l-50 -234h-276l-107 -500q-6 -42 -6 -49q0 -75 92 -75q86 0 140 45l51 -234q-107 -72 -275 -72q-146 0 -234.5 69.5t-88.5 201.5q0 48 14 116l109 498h-207z" />
<glyph unicode="u" horiz-adv-x="1189" d="M47 272q0 68 14 129l148 693h309l-137 -641q-12 -62 -12 -80q0 -56 34.5 -90.5t98.5 -34.5q87 0 151.5 59.5t85.5 165.5l131 621h310l-234 -1094h-307l25 117q-65 -68 -148.5 -105t-171.5 -37q-140 0 -218.5 88t-78.5 209z" />
<glyph unicode="v" horiz-adv-x="1089" d="M82 1094h328l65 -738l373 738h352l-633 -1094h-315z" />
<glyph unicode="w" horiz-adv-x="1619" d="M137 1094h301l23 -674l319 674h267l22 -674l293 674h334l-529 -1094h-315l-23 692l-325 -692h-307z" />
<glyph unicode="x" horiz-adv-x="1146" d="M-125 0l496 580l-232 514h338l125 -336l248 336h375l-461 -531l260 -563h-348l-137 367l-279 -367h-385z" />
<glyph unicode="y" horiz-adv-x="1075" d="M-133 -311l133 205q30 -23 66 -23q49 0 85 28t72 83l39 55l-205 1057h336l90 -693l357 693h344l-647 -1127q-52 -90 -94.5 -148t-95 -105.5t-114 -69t-137.5 -21.5q-138 0 -229 66z" />
<glyph unicode="z" horiz-adv-x="1042" d="M-66 0l48 221l604 608h-453l57 265h879l-45 -211l-606 -619h493l-57 -264h-920z" />
<glyph unicode="{" horiz-adv-x="665" d="M8 586l41 192h60q38 0 67 12t47 29.5t31.5 47t20.5 54.5t14 62l67 344q18 89 58.5 151.5t100.5 96.5t128 48.5t154 14.5h55l-41 -192h-23q-93 0 -130 -45.5t-66 -181.5l-51 -256q-24 -114 -81.5 -183.5t-166.5 -105.5q131 -58 131 -201q0 -44 -40 -225.5t-40 -222.5 q0 -58 29 -82.5t94 -24.5h22l-43 -192h-57q-309 0 -309 243q0 56 20 146l70 311q8 36 8 61q0 48 -24 73.5t-84 25.5h-62z" />
<glyph unicode="|" horiz-adv-x="507" d="M-10 -98l352 1659h236l-355 -1659h-233z" />
<glyph unicode="}" horiz-adv-x="669" d="M-174 -274l41 192h22q93 0 130.5 45.5t66.5 181.5l51 256q24 114 81.5 183.5t166.5 105.5q-131 58 -131 201q0 45 40 226t40 222q0 58 -29 82.5t-94 24.5h-23l43 192h58q309 0 309 -243q0 -56 -20 -146l-70 -311q-8 -36 -8 -61q0 -48 24 -73.5t84 -25.5h62l-41 -192h-60 q-38 0 -67 -12t-47 -29.5t-31.5 -47t-20.5 -54.5t-14 -62l-67 -344q-18 -89 -58.5 -151.5t-100.5 -96.5t-128 -48.5t-154 -14.5h-55z" />
<glyph unicode="~" d="M51 557q196 211 371 211q49 0 91 -15t124 -55q125 -61 188 -61q105 0 238 88l74 -129q-42 -44 -76 -74.5t-82.5 -66t-102 -54t-108.5 -18.5q-38 0 -77 11t-64.5 23t-75.5 38q-112 59 -182 59q-109 0 -242 -86z" />
<glyph unicode="&#xa1;" horiz-adv-x="655" d="M-31 -354l78 364l238 633h116l-22 -616l-82 -381h-328zM213 784l66 310h325l-65 -310h-326z" />
<glyph unicode="&#xa2;" d="M70 502q0 169 75.5 309.5t213 223.5t307.5 83h16l35 164h119l-39 -180q211 -49 331 -260l-239 -133q-53 110 -146 137l-129 -610q115 8 211 131l197 -166q-30 -39 -66 -73t-91 -71.5t-131 -59.5t-161 -22h-14l-35 -168h-121l39 183q-171 40 -271.5 179t-100.5 333z M379 492q0 -82 31.5 -143.5t89.5 -90.5l125 592q-109 -20 -177.5 -122t-68.5 -236z" />
<glyph unicode="&#xa3;" d="M-49 0l51 238q134 35 227 121t93 184q0 29 -7 57h-237l41 193h153q-28 123 -28 208q0 148 73.5 260.5t194 170t266.5 57.5q307 0 479 -285l-239 -174q-85 170 -232 170q-94 0 -155.5 -63t-61.5 -183q0 -74 23 -161h377l-41 -193h-301q0 -80 -39.5 -167.5t-104.5 -143.5 h604l-61 -289h-1075z" />
<glyph unicode="&#xa4;" horiz-adv-x="1226" d="M29 293l194 164q-20 56 -20 127q0 146 82 264l-111 143l201 156l108 -141q91 32 166 32q113 0 205 -53l197 164l163 -197l-200 -166q22 -68 22 -135q0 -142 -80 -258l109 -141l-201 -156l-106 140q-81 -35 -174 -35q-115 0 -203 53l-191 -158zM418 598q0 -85 46.5 -138.5 t131.5 -53.5q100 0 162.5 69.5t62.5 167.5q0 83 -46.5 137t-131.5 54q-100 0 -162.5 -69t-62.5 -167z" />
<glyph unicode="&#xa5;" d="M-57 340l30 139h365l20 101l-14 59h-336l27 139h268l-172 684h361l92 -577l334 577h364l-467 -684h266l-30 -139h-336l-37 -55l-23 -105h363l-31 -139h-360l-74 -340h-315l69 340h-364z" />
<glyph unicode="&#xa6;" horiz-adv-x="475" d="M-10 -123l139 655h188l-137 -655h-190zM207 905l141 656h189l-140 -656h-190z" />
<glyph unicode="&#xa7;" horiz-adv-x="1302" d="M16 37l168 192q136 -139 320 -139q126 0 209 70l-135 96q-198 138 -303 286.5t-105 338.5q0 166 76 304.5t220.5 222t328.5 83.5q277 0 477 -197l-168 -194q-133 139 -318 139q-126 0 -211 -72l136 -94q96 -67 166 -131t126.5 -140.5t85.5 -165t29 -187.5 q0 -123 -44.5 -234.5t-124 -195t-198 -132.5t-257.5 -49q-279 0 -478 199zM434 891q0 -74 24 -140.5t71 -125t94 -102t114 -95.5l107 -82q10 48 10 92q0 74 -24 141t-71.5 125.5t-93.5 102t-114 96.5l-105 78q-12 -43 -12 -90z" />
<glyph unicode="&#xa8;" horiz-adv-x="638" d="M111 1217l51 245h246l-52 -245h-245zM541 1217l51 245h246l-52 -245h-245z" />
<glyph unicode="&#xa9;" horiz-adv-x="1796" d="M145 731q0 157 61 299.5t164 245.5t245.5 164t299.5 61t299.5 -61t246 -164t164.5 -245.5t61 -299.5t-61 -299.5t-164.5 -245.5t-246 -164t-299.5 -61t-299.5 61t-245.5 164t-164 245.5t-61 299.5zM262 731q0 -133 51.5 -254t139 -208.5t208.5 -139t254 -51.5 q177 0 327.5 87t238.5 237.5t88 328.5q0 177 -88 327.5t-238.5 238t-327.5 87.5q-133 0 -254 -52t-208.5 -139.5t-139 -208t-51.5 -253.5zM479 731q0 184 128.5 312t310.5 128q244 0 391 -237l-191 -123q-72 127 -198 127q-85 0 -144 -60.5t-59 -146.5t59.5 -148.5 t143.5 -62.5q123 0 198 135l193 -125q-69 -118 -171.5 -177.5t-221.5 -59.5t-220 58t-160 159t-59 221z" />
<glyph unicode="&#xaa;" horiz-adv-x="835" d="M133 948q0 46 12.5 82t37.5 59t50.5 38.5t63.5 25t63 13.5t62 8q117 14 141 22q37 14 37 47q0 60 -100 60q-98 0 -205 -64l-66 158q141 88 303 88q132 0 211.5 -55t79.5 -156q0 -38 -8 -78l-92 -440h-225l16 63q-64 -78 -176 -78q-90 0 -147.5 53t-57.5 154zM356 971 q0 -35 21 -52.5t57 -17.5q92 0 117 117l18 78q-14 -14 -32.5 -22.5t-28.5 -11t-33 -5.5t-26 -4q-93 -13 -93 -82z" />
<glyph unicode="&#xab;" horiz-adv-x="1079" d="M18 532l23 113l399 440l144 -127l-305 -403l178 -383l-174 -82zM487 532l23 113l430 440l143 -127l-335 -403l155 -383l-174 -82z" />
<glyph unicode="&#xac;" horiz-adv-x="1331" d="M111 494l53 256h1042l-141 -656h-252l84 400h-786z" />
<glyph unicode="&#xad;" horiz-adv-x="739" d="M82 496l53 256h531l-54 -256h-530z" />
<glyph unicode="&#xae;" horiz-adv-x="974" d="M203 1128q0 149 105.5 254t254.5 105q147 0 252 -105t105 -254q0 -148 -105 -253t-252 -105q-149 0 -254.5 105t-105.5 253zM262 1128q0 -123 88.5 -211t212.5 -88q123 0 210 88t87 211q0 124 -87 211.5t-210 87.5q-125 0 -213 -87.5t-88 -211.5zM397 932v399h195 q72 0 111.5 -36t39.5 -95q0 -84 -63 -113l70 -155h-125l-47 127h-68v-127h-113zM510 1149h72q45 0 45 43q0 22 -12.5 35.5t-32.5 13.5h-72v-92z" />
<glyph unicode="&#xaf;" horiz-adv-x="628" d="M127 1229l43 205h612l-43 -205h-612z" />
<glyph unicode="&#xb0;" horiz-adv-x="804" d="M164 1155q0 137 97 234.5t233 97.5q135 0 232 -98t97 -234q0 -135 -97 -232.5t-232 -97.5q-136 0 -233 97.5t-97 232.5zM348 1155q0 -59 43 -101t103 -42t101.5 42t41.5 101q0 60 -41.5 102.5t-101.5 42.5t-103 -42.5t-43 -102.5z" />
<glyph unicode="&#xb1;" d="M-55 0l55 256h1012l-56 -256h-1011zM104 745l56 256h377l79 379h256l-79 -379h378l-55 -256h-379l-80 -376h-256l80 376h-377z" />
<glyph unicode="&#xb2;" horiz-adv-x="925" d="M119 778l8 35q9 38 36 78t58.5 72t77.5 67.5t79 58t77 50.5q14 9 44.5 28t43.5 27.5t37.5 24.5t35.5 25t28.5 23.5t25 25.5t16.5 25t12.5 27.5t3.5 28.5q0 48 -37 74.5t-92 26.5q-115 0 -170 -111l-172 98q140 209 383 209q147 0 238.5 -75t91.5 -203q0 -143 -121 -236 q-45 -35 -162 -93t-147 -81h367l-45 -205h-717z" />
<glyph unicode="&#xb3;" horiz-adv-x="925" d="M137 983l182 88q49 -113 181 -113q75 0 121.5 37.5t46.5 89.5q0 41 -30 66t-81 25q-40 0 -84 -21l-74 88l252 207h-362l45 205h647l-31 -139l-231 -193q85 -21 137.5 -82t52.5 -147q0 -134 -113.5 -233t-293.5 -99q-130 0 -225.5 54t-139.5 167z" />
<glyph unicode="&#xb4;" horiz-adv-x="737" d="M283 1206l280 400l236 -117l-293 -283h-223z" />
<glyph unicode="&#xb6;" horiz-adv-x="1236" d="M160 971q0 143 70.5 257t185.5 174t250 60h542l-350 -1648h-108l311 1462h-117l-311 -1462h-201l160 751h-39q-172 0 -282.5 112t-110.5 294z" />
<glyph unicode="&#xb7;" horiz-adv-x="522" d="M55 545q0 80 57 137t136 57t135.5 -57t56.5 -137t-56.5 -136.5t-135.5 -56.5q-80 0 -136.5 57t-56.5 136z" />
<glyph unicode="&#xb8;" horiz-adv-x="651" d="M10 -354l29 131q49 -51 131 -51q36 0 57 15.5t21 39.5q0 16 -4 20h-99l29 138q2 0 10.5 2.5t16.5 4.5t22 3.5t29 1.5q93 0 165 -53.5t72 -133.5t-74.5 -127t-195.5 -47q-120 0 -209 56z" />
<glyph unicode="&#xb9;" horiz-adv-x="802" d="M260 1473l361 182h194l-209 -877h-229l153 608l-188 -90z" />
<glyph unicode="&#xba;" horiz-adv-x="894" d="M152 1087q0 172 109.5 284t289.5 112q161 0 257.5 -95t96.5 -253q0 -171 -110 -283.5t-289 -112.5q-161 0 -257.5 95t-96.5 253zM389 1081q0 -68 30 -110.5t89 -42.5q74 0 116 66t42 149q0 68 -30 110.5t-89 42.5q-73 0 -115.5 -66.5t-42.5 -148.5z" />
<glyph unicode="&#xbb;" horiz-adv-x="1077" d="M-29 219l336 404l-157 383l176 81l241 -444l-24 -111l-430 -442zM469 217l307 406l-180 383l176 81l264 -444l-24 -111l-400 -442z" />
<glyph unicode="&#xbc;" horiz-adv-x="2138" d="M223 1280l361 182h194l-209 -876h-229l154 608l-189 -90zM309 0l1282 1462h234l-1284 -1462h-232zM1245 170l37 166l512 541h260l-125 -521h123l-41 -186h-123l-43 -170h-227l43 170h-416zM1520 356h186l82 299z" />
<glyph unicode="&#xbd;" horiz-adv-x="2220" d="M223 1280l361 182h194l-209 -876h-229l154 608l-189 -90zM309 0l1282 1462h234l-1284 -1462h-232zM1307 0l8 35q11 46 45.5 93.5t88 92t95.5 74t98 65.5q14 9 44.5 28t43.5 27t37.5 24.5t35.5 25.5t28.5 24t25.5 26t17 25t12.5 27.5t3.5 28.5q0 48 -37 74t-92 26 q-115 0 -170 -110l-172 98q140 209 383 209q147 0 238.5 -75t91.5 -204q0 -142 -121 -235q-45 -35 -162 -93t-147 -81h366l-45 -205h-716z" />
<glyph unicode="&#xbe;" horiz-adv-x="2265" d="M100 791l183 88q49 -113 180 -113q75 0 121.5 37.5t46.5 89.5q0 41 -30 65.5t-81 24.5q-42 0 -84 -20l-74 88l252 206h-362l45 205h647l-31 -139l-231 -193q85 -21 137.5 -82t52.5 -147q0 -134 -113.5 -233t-293.5 -99q-130 0 -225.5 54t-139.5 168zM477 0l1282 1462h234 l-1284 -1462h-232zM1372 170l37 166l512 541h260l-125 -521h123l-41 -186h-123l-43 -170h-227l43 170h-416zM1647 356h186l82 299z" />
<glyph unicode="&#xbf;" horiz-adv-x="1222" d="M80 10q0 77 25.5 141t67.5 108t93 81.5t104 69t99 63t79.5 72t43.5 86.5l6 28h309l-12 -55q-16 -74 -59.5 -136.5t-95.5 -102.5t-109.5 -80t-104.5 -72t-77.5 -75.5t-30.5 -92.5q0 -66 47 -110t135 -44q139 0 272 115l127 -209q-221 -174 -475 -174q-202 0 -323 106.5 t-121 280.5zM610 791l66 303h325l-63 -303h-328z" />
<glyph unicode="&#xc0;" horiz-adv-x="1392" d="M-131 0l827 1462h383l205 -1462h-348l-29 332h-508l-170 -332h-360zM528 592h359l-49 598zM664 1853l245 97l119 -400h-203z" />
<glyph unicode="&#xc1;" horiz-adv-x="1392" d="M-131 0l827 1462h383l205 -1462h-348l-29 332h-508l-170 -332h-360zM528 592h359l-49 598zM764 1550l280 400l236 -117l-293 -283h-223z" />
<glyph unicode="&#xc2;" horiz-adv-x="1392" d="M-131 0l827 1462h383l205 -1462h-348l-29 332h-508l-170 -332h-360zM487 1568l342 379h297l182 -379h-196l-168 189l-244 -189h-213zM528 592h359l-49 598z" />
<glyph unicode="&#xc3;" horiz-adv-x="1392" d="M-131 0l827 1462h383l205 -1462h-348l-29 332h-508l-170 -332h-360zM528 592h359l-49 598zM548 1618q40 114 107.5 178t175.5 64q74 0 176 -54q89 -47 142 -47q49 0 78 29.5t42 71.5l134 -74q-40 -114 -107.5 -178t-175.5 -64q-71 0 -172 53q-89 47 -141 47 q-49 0 -81 -30t-44 -70z" />
<glyph unicode="&#xc4;" horiz-adv-x="1392" d="M-131 0l827 1462h383l205 -1462h-348l-29 332h-508l-170 -332h-360zM528 592h359l-49 598zM561 1561l51 245h246l-51 -245h-246zM991 1561l51 245h246l-51 -245h-246z" />
<glyph unicode="&#xc5;" horiz-adv-x="1392" d="M-131 0l817 1444q-31 54 -31 119q0 101 72 173t172 72t172 -72t72 -173q0 -86 -58 -154l199 -1409h-348l-29 332h-508l-170 -332h-360zM528 592h359l-49 598zM801 1563q0 -40 29.5 -70.5t68.5 -30.5q40 0 70 30.5t30 70.5q0 41 -30 70.5t-70 29.5t-69 -29.5t-29 -70.5z " />
<glyph unicode="&#xc6;" horiz-adv-x="1994" d="M-176 0l1106 1462h1141l-62 -288h-635l-59 -283h557l-55 -258h-557l-74 -344h653l-59 -289h-975l72 332h-451l-248 -332h-354zM621 592h311l131 614z" />
<glyph unicode="&#xc7;" horiz-adv-x="1443" d="M84 674q0 167 58 316.5t160 259.5t248.5 174.5t315.5 64.5q214 0 368.5 -101.5t223.5 -273.5l-274 -127q-44 100 -127 160.5t-199 60.5q-131 0 -233.5 -76t-155.5 -197.5t-53 -264.5q0 -183 92 -300.5t256 -117.5q106 0 191 53t143 146l231 -183q-224 -295 -588 -295 q-153 0 -278.5 55t-207.5 150.5t-126.5 222.5t-44.5 273zM368 -354l29 131q49 -51 131 -51q36 0 57 15.5t21 39.5q0 16 -4 20h-99l29 138q2 0 10.5 2.5t16.5 4.5t22 3.5t29 1.5q93 0 165 -53.5t72 -133.5t-74.5 -127t-195.5 -47q-120 0 -209 56z" />
<glyph unicode="&#xc8;" horiz-adv-x="1286" d="M6 0l311 1462h1045l-62 -288h-725l-63 -295h647l-55 -258h-645l-72 -332h743l-59 -289h-1065zM572 1853l245 97l119 -400h-203z" />
<glyph unicode="&#xc9;" horiz-adv-x="1286" d="M6 0l311 1462h1045l-62 -288h-725l-63 -295h647l-55 -258h-645l-72 -332h743l-59 -289h-1065zM656 1550l280 400l236 -117l-293 -283h-223z" />
<glyph unicode="&#xca;" horiz-adv-x="1286" d="M6 0l311 1462h1045l-62 -288h-725l-63 -295h647l-55 -258h-645l-72 -332h743l-59 -289h-1065zM434 1569l342 379h297l182 -379h-196l-168 188l-244 -188h-213z" />
<glyph unicode="&#xcb;" horiz-adv-x="1286" d="M6 0l311 1462h1045l-62 -288h-725l-63 -295h647l-55 -258h-645l-72 -332h743l-59 -289h-1065zM517 1561l51 245h246l-52 -245h-245zM947 1561l51 245h246l-52 -245h-245z" />
<glyph unicode="&#xcc;" horiz-adv-x="608" d="M6 0l311 1462h318l-309 -1462h-320zM228 1853l245 97l119 -400h-203z" />
<glyph unicode="&#xcd;" horiz-adv-x="608" d="M6 0l311 1462h318l-309 -1462h-320zM363 1540l280 400l236 -117l-293 -283h-223z" />
<glyph unicode="&#xce;" horiz-adv-x="608" d="M6 0l311 1462h318l-309 -1462h-320zM82 1550l342 379h297l182 -379h-196l-168 189l-244 -189h-213z" />
<glyph unicode="&#xcf;" horiz-adv-x="608" d="M6 0l311 1462h318l-309 -1462h-320zM152 1561l51 245h246l-52 -245h-245zM582 1561l51 245h246l-52 -245h-245z" />
<glyph unicode="&#xd0;" horiz-adv-x="1562" d="M45 614l55 254h131l127 594h486q131 0 241.5 -33.5t188.5 -93t132.5 -141.5t80.5 -177.5t26 -201.5q0 -225 -94.5 -409.5t-275.5 -295t-416 -110.5h-678l129 614h-133zM430 289h309q104 0 189 41.5t140 113t84.5 165t29.5 198.5q0 166 -84 266.5t-258 100.5h-222 l-65 -306h326l-54 -254h-327z" />
<glyph unicode="&#xd1;" horiz-adv-x="1531" d="M6 0l311 1462h367l354 -997l213 997h305l-311 -1462h-354l-361 1020l-217 -1020h-307zM555 1618q40 114 107.5 178t175.5 64q74 0 176 -54q89 -47 141 -47q49 0 78.5 30t42.5 71l133 -74q-40 -114 -107.5 -178t-175.5 -64q-71 0 -172 53q-91 48 -141 48 q-49 0 -80.5 -30.5t-44.5 -70.5z" />
<glyph unicode="&#xd2;" horiz-adv-x="1591" d="M84 678q-2 159 55.5 307t158.5 258.5t247.5 177.5t312.5 68q153 1 282.5 -56t215.5 -154.5t134 -225t50 -269.5q2 -159 -55.5 -307t-158.5 -258.5t-247.5 -177.5t-312.5 -68q-153 -1 -282.5 56t-215.5 154.5t-134 225t-50 269.5zM418 643q3 -182 104 -285t248 -100 q102 2 187.5 54t139.5 133t82.5 179t26.5 195q-3 182 -104 285t-246 100q-102 -2 -188 -54t-140 -133t-83 -179t-27 -195zM670 1853l245 97l119 -400h-203z" />
<glyph unicode="&#xd3;" horiz-adv-x="1591" d="M84 678q-2 159 55.5 307t158.5 258.5t247.5 177.5t312.5 68q153 1 282.5 -56t215.5 -154.5t134 -225t50 -269.5q2 -159 -55.5 -307t-158.5 -258.5t-247.5 -177.5t-312.5 -68q-153 -1 -282.5 56t-215.5 154.5t-134 225t-50 269.5zM418 643q3 -182 104 -285t248 -100 q102 2 187.5 54t139.5 133t82.5 179t26.5 195q-3 182 -104 285t-246 100q-102 -2 -188 -54t-140 -133t-83 -179t-27 -195zM723 1550l280 400l236 -117l-293 -283h-223z" />
<glyph unicode="&#xd4;" horiz-adv-x="1591" d="M84 678q-2 159 55.5 307t158.5 258.5t247.5 177.5t312.5 68q153 1 282.5 -56t215.5 -154.5t134 -225t50 -269.5q2 -159 -55.5 -307t-158.5 -258.5t-247.5 -177.5t-312.5 -68q-153 -1 -282.5 56t-215.5 154.5t-134 225t-50 269.5zM418 643q3 -182 104 -285t248 -100 q102 2 187.5 54t139.5 133t82.5 179t26.5 195q-3 182 -104 285t-246 100q-102 -2 -188 -54t-140 -133t-83 -179t-27 -195zM504 1568l342 379h297l182 -379h-196l-168 189l-244 -189h-213z" />
<glyph unicode="&#xd5;" horiz-adv-x="1591" d="M84 678q-2 159 55.5 307t158.5 258.5t247.5 177.5t312.5 68q153 1 282.5 -56t215.5 -154.5t134 -225t50 -269.5q2 -159 -55.5 -307t-158.5 -258.5t-247.5 -177.5t-312.5 -68q-153 -1 -282.5 56t-215.5 154.5t-134 225t-50 269.5zM418 643q3 -182 104 -285t248 -100 q102 2 187.5 54t139.5 133t82.5 179t26.5 195q-3 182 -104 285t-246 100q-102 -2 -188 -54t-140 -133t-83 -179t-27 -195zM518 1618q40 114 107.5 178t175.5 64q74 0 176 -54q89 -47 141 -47q49 0 78.5 30t42.5 71l133 -74q-40 -115 -107 -178.5t-175 -63.5q-71 0 -172 53 q-91 48 -142 48q-49 0 -80.5 -30.5t-44.5 -70.5z" />
<glyph unicode="&#xd6;" horiz-adv-x="1591" d="M84 678q-2 159 55.5 307t158.5 258.5t247.5 177.5t312.5 68q153 1 282.5 -56t215.5 -154.5t134 -225t50 -269.5q2 -159 -55.5 -307t-158.5 -258.5t-247.5 -177.5t-312.5 -68q-153 -1 -282.5 56t-215.5 154.5t-134 225t-50 269.5zM418 643q3 -182 104 -285t248 -100 q102 2 187.5 54t139.5 133t82.5 179t26.5 195q-3 182 -104 285t-246 100q-102 -2 -188 -54t-140 -133t-83 -179t-27 -195zM569 1561l52 245h245l-51 -245h-246zM999 1561l52 245h245l-51 -245h-246z" />
<glyph unicode="&#xd7;" d="M-61 186l452 377l-295 383l201 156l289 -373l448 373l164 -197l-457 -379l293 -381l-200 -155l-287 372l-447 -372z" />
<glyph unicode="&#xd8;" horiz-adv-x="1591" d="M96 676q0 223 99 408.5t278 295t401 109.5q216 0 381 -111l82 105l105 -86l-84 -105q91 -96 138.5 -226.5t47.5 -281.5q0 -221 -99.5 -406.5t-279 -295t-401.5 -109.5q-228 0 -379 109l-82 -102l-104 86l84 102q-91 94 -139 225.5t-48 282.5zM428 668q0 -152 61 -250 l574 729q-80 55 -195 55q-130 0 -232 -74t-155 -195t-53 -265zM578 313q80 -55 194 -55q99 0 182.5 43t139.5 116.5t87 170t31 203.5q0 152 -61 253z" />
<glyph unicode="&#xd9;" horiz-adv-x="1472" d="M92 418q0 67 21 174l188 870h324l-193 -897q-14 -61 -14 -96q0 -99 64.5 -154t183.5 -55q273 0 335 297l189 905h321l-200 -946q-55 -265 -227.5 -404t-446.5 -139q-245 0 -395 117t-150 328zM658 1853l245 97l119 -400h-203z" />
<glyph unicode="&#xda;" horiz-adv-x="1472" d="M92 418q0 67 21 174l188 870h324l-193 -897q-14 -61 -14 -96q0 -99 64.5 -154t183.5 -55q273 0 335 297l189 905h321l-200 -946q-55 -265 -227.5 -404t-446.5 -139q-245 0 -395 117t-150 328zM746 1550l280 400l236 -117l-293 -283h-223z" />
<glyph unicode="&#xdb;" horiz-adv-x="1472" d="M92 418q0 67 21 174l188 870h324l-193 -897q-14 -61 -14 -96q0 -99 64.5 -154t183.5 -55q273 0 335 297l189 905h321l-200 -946q-55 -265 -227.5 -404t-446.5 -139q-245 0 -395 117t-150 328zM508 1568l342 379h297l182 -379h-196l-168 189l-244 -189h-213z" />
<glyph unicode="&#xdc;" horiz-adv-x="1472" d="M92 418q0 67 21 174l188 870h324l-193 -897q-14 -61 -14 -96q0 -99 64.5 -154t183.5 -55q273 0 335 297l189 905h321l-200 -946q-55 -265 -227.5 -404t-446.5 -139q-245 0 -395 117t-150 328zM588 1561l51 245h246l-51 -245h-246zM1018 1561l51 245h246l-51 -245h-246z " />
<glyph unicode="&#xdd;" horiz-adv-x="1320" d="M123 1462h358l187 -594l440 594h387l-715 -884l-123 -578h-319l123 582zM684 1550l280 400l236 -117l-293 -283h-223z" />
<glyph unicode="&#xde;" horiz-adv-x="1339" d="M6 0l311 1462h320l-35 -162h266q231 0 365.5 -121.5t134.5 -328.5q0 -227 -160 -371.5t-438 -144.5h-375l-69 -334h-320zM461 623h342q108 0 170.5 58t62.5 155q0 88 -51 132t-145 44h-299z" />
<glyph unicode="&#xdf;" horiz-adv-x="1341" d="M6 0l227 1075q41 194 182 304t382 110q221 0 362 -107.5t141 -287.5q0 -131 -79 -221.5t-207 -122.5q87 -42 140.5 -131.5t53.5 -200.5q0 -192 -153.5 -318.5t-395.5 -126.5q-139 0 -249 52l77 258q70 -43 164 -43q114 0 178 56t64 148q0 88 -57 142.5t-160 54.5h-88 l53 248h147q87 0 143 49.5t56 126.5t-55 122.5t-150 45.5q-206 0 -250 -197l-219 -1036h-307z" />
<glyph unicode="&#xe0;" horiz-adv-x="1116" d="M-4 291q0 61 16 111t40 84t62 61t73.5 42.5t83.5 27t82 16.5t79 10q57 6 90 10t73 11t61 15.5t41 20.5t28 29t8 39q0 98 -153 98q-164 0 -338 -100l-95 215q221 137 484 137q191 0 303.5 -72.5t112.5 -220.5q0 -43 -13 -114l-151 -711h-310l19 88q-102 -113 -275 -113 q-144 0 -232.5 81.5t-88.5 234.5zM305 322q0 -63 36 -92t97 -29q88 0 145.5 56.5t78.5 154.5l22 108q-23 -20 -64.5 -33.5t-69 -18t-85.5 -11.5q-76 -11 -118 -39t-42 -96zM389 1509l245 97l119 -400h-203z" />
<glyph unicode="&#xe1;" horiz-adv-x="1116" d="M-4 291q0 61 16 111t40 84t62 61t73.5 42.5t83.5 27t82 16.5t79 10q57 6 90 10t73 11t61 15.5t41 20.5t28 29t8 39q0 98 -153 98q-164 0 -338 -100l-95 215q221 137 484 137q191 0 303.5 -72.5t112.5 -220.5q0 -43 -13 -114l-151 -711h-310l19 88q-102 -113 -275 -113 q-144 0 -232.5 81.5t-88.5 234.5zM305 322q0 -63 36 -92t97 -29q88 0 145.5 56.5t78.5 154.5l22 108q-23 -20 -64.5 -33.5t-69 -18t-85.5 -11.5q-76 -11 -118 -39t-42 -96zM525 1206l280 400l236 -117l-293 -283h-223z" />
<glyph unicode="&#xe2;" horiz-adv-x="1116" d="M-4 291q0 61 16 111t40 84t62 61t73.5 42.5t83.5 27t82 16.5t79 10q57 6 90 10t73 11t61 15.5t41 20.5t28 29t8 39q0 98 -153 98q-164 0 -338 -100l-95 215q221 137 484 137q191 0 303.5 -72.5t112.5 -220.5q0 -43 -13 -114l-151 -711h-310l19 88q-102 -113 -275 -113 q-144 0 -232.5 81.5t-88.5 234.5zM250 1206l342 379h297l182 -379h-196l-168 189l-244 -189h-213zM305 322q0 -63 36 -92t97 -29q88 0 145.5 56.5t78.5 154.5l22 108q-23 -20 -64.5 -33.5t-69 -18t-85.5 -11.5q-76 -11 -118 -39t-42 -96z" />
<glyph unicode="&#xe3;" horiz-adv-x="1116" d="M-4 291q0 61 16 111t40 84t62 61t73.5 42.5t83.5 27t82 16.5t79 10q57 6 90 10t73 11t61 15.5t41 20.5t28 29t8 39q0 98 -153 98q-164 0 -338 -100l-95 215q221 137 484 137q191 0 303.5 -72.5t112.5 -220.5q0 -43 -13 -114l-151 -711h-310l19 88q-102 -113 -275 -113 q-144 0 -232.5 81.5t-88.5 234.5zM266 1274q40 114 107.5 178t175.5 64q74 0 176 -54q89 -47 141 -47q49 0 78.5 30t42.5 71l133 -74q-40 -115 -107 -178.5t-175 -63.5q-71 0 -172 53q-89 47 -142 47q-49 0 -81 -30t-44 -70zM305 322q0 -63 36 -92t97 -29q88 0 145.5 56.5 t78.5 154.5l22 108q-23 -20 -64.5 -33.5t-69 -18t-85.5 -11.5q-76 -11 -118 -39t-42 -96z" />
<glyph unicode="&#xe4;" horiz-adv-x="1116" d="M-4 291q0 61 16 111t40 84t62 61t73.5 42.5t83.5 27t82 16.5t79 10q57 6 90 10t73 11t61 15.5t41 20.5t28 29t8 39q0 98 -153 98q-164 0 -338 -100l-95 215q221 137 484 137q191 0 303.5 -72.5t112.5 -220.5q0 -43 -13 -114l-151 -711h-310l19 88q-102 -113 -275 -113 q-144 0 -232.5 81.5t-88.5 234.5zM305 322q0 -63 36 -92t97 -29q88 0 145.5 56.5t78.5 154.5l22 108q-23 -20 -64.5 -33.5t-69 -18t-85.5 -11.5q-76 -11 -118 -39t-42 -96zM317 1217l52 245h245l-51 -245h-246zM748 1217l51 245h245l-51 -245h-245z" />
<glyph unicode="&#xe5;" horiz-adv-x="1116" d="M-4 291q0 61 16 111t40 84t62 61t73.5 42.5t83.5 27t82 16.5t79 10q57 6 90 10t73 11t61 15.5t41 20.5t28 29t8 39q0 98 -153 98q-164 0 -338 -100l-95 215q221 137 484 137q191 0 303.5 -72.5t112.5 -220.5q0 -43 -13 -114l-151 -711h-310l19 88q-102 -113 -275 -113 q-144 0 -232.5 81.5t-88.5 234.5zM305 322q0 -63 36 -92t97 -29q88 0 145.5 56.5t78.5 154.5l22 108q-23 -20 -64.5 -33.5t-69 -18t-85.5 -11.5q-76 -11 -118 -39t-42 -96zM426 1384q0 101 72 173.5t172 72.5t171.5 -72.5t71.5 -173.5q0 -100 -71.5 -171.5t-171.5 -71.5 t-172 71.5t-72 171.5zM571 1384q0 -40 29.5 -70t69.5 -30t70 30t30 70q0 41 -30 71t-70 30t-69.5 -30t-29.5 -71z" />
<glyph unicode="&#xe6;" horiz-adv-x="1816" d="M-4 293q0 61 16 111t40 83.5t62.5 60.5t73 42t83.5 27t82 16.5t79 9.5q57 6 90 10t73 11t61 15.5t41 20.5t28 29t8 39q0 98 -153 98q-164 0 -338 -100l-95 215q212 137 459 137q227 0 324 -123q153 123 352 123q223 0 348 -125t125 -323q0 -106 -37 -199h-737 q-4 -16 -4 -41q0 -91 55.5 -145t149.5 -54q75 0 140 34.5t112 94.5l206 -159q-91 -110 -215.5 -168t-269.5 -58q-125 0 -224.5 50.5t-152.5 140.5q-153 -191 -422 -191q-163 0 -261.5 81.5t-98.5 236.5zM305 322q0 -63 36 -92t97 -29q88 0 145.5 56.5t78.5 154.5l22 108 q-23 -20 -64.5 -33.5t-69 -18t-85.5 -11.5q-76 -11 -118 -39t-42 -96zM1014 666h442q8 20 8 49q0 80 -51 127t-141 47q-97 0 -164 -56t-94 -167z" />
<glyph unicode="&#xe7;" horiz-adv-x="1099" d="M47 502q0 169 75.5 309.5t213 223.5t307.5 83q306 0 463 -276l-240 -133q-71 149 -215 149q-124 0 -201 -106.5t-77 -253.5q0 -117 52 -189.5t150 -72.5q128 0 228 131l198 -166q-179 -226 -448 -226q-227 0 -366.5 148t-139.5 379zM178 -354l29 131q49 -51 131 -51 q36 0 57 15.5t21 39.5q0 16 -4 20h-99l29 138q2 0 10.5 2.5t16.5 4.5t22 3.5t29 1.5q93 0 165 -53.5t72 -133.5t-74.5 -127t-195.5 -47q-120 0 -209 56z" />
<glyph unicode="&#xe8;" horiz-adv-x="1208" d="M45 485q0 172 78.5 316t223.5 230.5t327 86.5q223 0 348 -125t125 -323q0 -106 -37 -199h-737q-4 -16 -4 -41q0 -91 55 -145t149 -54q75 0 140 34.5t112 94.5l207 -159q-91 -110 -215.5 -168t-269.5 -58q-236 0 -369 143t-133 367zM406 666h442q8 20 8 49q0 80 -51 127 t-141 47q-97 0 -164 -56t-94 -167zM467 1509l245 97l119 -400h-203z" />
<glyph unicode="&#xe9;" horiz-adv-x="1208" d="M45 485q0 172 78.5 316t223.5 230.5t327 86.5q223 0 348 -125t125 -323q0 -106 -37 -199h-737q-4 -16 -4 -41q0 -91 55 -145t149 -54q75 0 140 34.5t112 94.5l207 -159q-91 -110 -215.5 -168t-269.5 -58q-236 0 -369 143t-133 367zM406 666h442q8 20 8 49q0 80 -51 127 t-141 47q-97 0 -164 -56t-94 -167zM533 1206l280 400l236 -117l-293 -283h-223z" />
<glyph unicode="&#xea;" horiz-adv-x="1208" d="M45 485q0 172 78.5 316t223.5 230.5t327 86.5q223 0 348 -125t125 -323q0 -106 -37 -199h-737q-4 -16 -4 -41q0 -91 55 -145t149 -54q75 0 140 34.5t112 94.5l207 -159q-91 -110 -215.5 -168t-269.5 -58q-236 0 -369 143t-133 367zM276 1206l342 379h297l183 -379h-197 l-168 189l-244 -189h-213zM406 666h442q8 20 8 49q0 80 -51 127t-141 47q-97 0 -164 -56t-94 -167z" />
<glyph unicode="&#xeb;" horiz-adv-x="1208" d="M45 485q0 172 78.5 316t223.5 230.5t327 86.5q223 0 348 -125t125 -323q0 -106 -37 -199h-737q-4 -16 -4 -41q0 -91 55 -145t149 -54q75 0 140 34.5t112 94.5l207 -159q-91 -110 -215.5 -168t-269.5 -58q-236 0 -369 143t-133 367zM342 1217l51 245h246l-52 -245h-245z M406 666h442q8 20 8 49q0 80 -51 127t-141 47q-97 0 -164 -56t-94 -167zM772 1217l51 245h246l-52 -245h-245z" />
<glyph unicode="&#xec;" horiz-adv-x="538" d="M6 0l232 1094h307l-232 -1094h-307zM152 1509l245 97l119 -400h-203z" />
<glyph unicode="&#xed;" horiz-adv-x="538" d="M6 0l232 1094h307l-232 -1094h-307zM285 1206l280 400l236 -117l-293 -283h-223z" />
<glyph unicode="&#xee;" horiz-adv-x="538" d="M-2 1206l342 379h297l182 -379h-196l-168 189l-244 -189h-213zM6 0l232 1094h307l-232 -1094h-307z" />
<glyph unicode="&#xef;" horiz-adv-x="538" d="M6 0l232 1094h307l-232 -1094h-307zM78 1217l51 245h246l-51 -245h-246zM508 1217l51 245h246l-51 -245h-246z" />
<glyph unicode="&#xf0;" horiz-adv-x="1284" d="M57 479q0 142 61 256t175.5 180t261.5 66q69 0 128.5 -14.5t100 -38.5t65 -44.5t42.5 -43.5q10 52 10 114q0 101 -41 172l-299 -110v131l187 70q-95 26 -160 26q-126 0 -232 -67l-80 254q143 67 312 67q135 0 258 -46.5t196 -125.5q38 13 115 42.5t115 43.5v-135 l-154 -53q86 -155 86 -385q0 -96 -12 -187q-52 -323 -208.5 -500.5t-410.5 -177.5q-158 0 -276.5 68t-179 182t-60.5 256zM385 457q0 -95 52.5 -155t148.5 -60q106 0 171 70.5t77 166.5q2 14 2 31q0 106 -60 159.5t-149 53.5q-113 0 -177.5 -79t-64.5 -187z" />
<glyph unicode="&#xf1;" horiz-adv-x="1189" d="M-12 0l233 1094h307l-24 -117q138 141 319 141q140 0 218.5 -88t78.5 -209q0 -55 -16 -129l-148 -692h-307l137 643q11 53 11 80q0 56 -34 90.5t-99 34.5q-86 0 -150.5 -60t-85.5 -165l-131 -623h-309zM311 1274q40 114 107.5 178t175.5 64q74 0 176 -54q89 -47 141 -47 q49 0 78.5 30t42.5 71l133 -74q-40 -115 -107 -178.5t-175 -63.5q-71 0 -172 53q-89 47 -142 47q-49 0 -81 -30t-44 -70z" />
<glyph unicode="&#xf2;" horiz-adv-x="1243" d="M45 506q0 173 74 311.5t212.5 219.5t317.5 81q243 0 387 -145.5t144 -384.5q0 -173 -74.5 -312.5t-213 -220t-317.5 -80.5q-243 0 -386.5 145t-143.5 386zM371 496q0 -115 54 -189t155 -74q85 0 149 55.5t94.5 137t30.5 172.5q0 115 -54 188.5t-155 73.5q-85 0 -149 -55 t-94.5 -136.5t-30.5 -172.5zM478 1509l245 97l119 -400h-203z" />
<glyph unicode="&#xf3;" horiz-adv-x="1243" d="M45 506q0 173 74 311.5t212.5 219.5t317.5 81q243 0 387 -145.5t144 -384.5q0 -173 -74.5 -312.5t-213 -220t-317.5 -80.5q-243 0 -386.5 145t-143.5 386zM371 496q0 -115 54 -189t155 -74q85 0 149 55.5t94.5 137t30.5 172.5q0 115 -54 188.5t-155 73.5q-85 0 -149 -55 t-94.5 -136.5t-30.5 -172.5zM549 1206l280 400l236 -117l-293 -283h-223z" />
<glyph unicode="&#xf4;" horiz-adv-x="1243" d="M45 506q0 173 74 311.5t212.5 219.5t317.5 81q243 0 387 -145.5t144 -384.5q0 -173 -74.5 -312.5t-213 -220t-317.5 -80.5q-243 0 -386.5 145t-143.5 386zM285 1206l342 379h297l182 -379h-196l-168 189l-244 -189h-213zM371 496q0 -115 54 -189t155 -74q85 0 149 55.5 t94.5 137t30.5 172.5q0 115 -54 188.5t-155 73.5q-85 0 -149 -55t-94.5 -136.5t-30.5 -172.5z" />
<glyph unicode="&#xf5;" horiz-adv-x="1243" d="M45 506q0 173 74 311.5t212.5 219.5t317.5 81q243 0 387 -145.5t144 -384.5q0 -173 -74.5 -312.5t-213 -220t-317.5 -80.5q-243 0 -386.5 145t-143.5 386zM307 1274q40 114 107.5 178t175.5 64q74 0 176 -54q89 -47 141 -47q49 0 78.5 30t42.5 71l133 -74 q-40 -115 -107 -178.5t-175 -63.5q-71 0 -172 53q-89 47 -142 47q-49 0 -81 -30t-44 -70zM371 496q0 -115 54 -189t155 -74q85 0 149 55.5t94.5 137t30.5 172.5q0 115 -54 188.5t-155 73.5q-85 0 -149 -55t-94.5 -136.5t-30.5 -172.5z" />
<glyph unicode="&#xf6;" horiz-adv-x="1243" d="M45 506q0 173 74 311.5t212.5 219.5t317.5 81q243 0 387 -145.5t144 -384.5q0 -173 -74.5 -312.5t-213 -220t-317.5 -80.5q-243 0 -386.5 145t-143.5 386zM332 1217l51 245h246l-51 -245h-246zM371 496q0 -115 54 -189t155 -74q85 0 149 55.5t94.5 137t30.5 172.5 q0 115 -54 188.5t-155 73.5q-85 0 -149 -55t-94.5 -136.5t-30.5 -172.5zM762 1217l51 245h246l-51 -245h-246z" />
<glyph unicode="&#xf7;" d="M-4 418l55 256h1094l-55 -256h-1094zM307 150q0 74 51.5 126t124.5 52t124.5 -52t51.5 -126q0 -72 -51.5 -124.5t-124.5 -52.5t-124.5 52.5t-51.5 124.5zM475 940q0 74 51.5 126t124.5 52t124.5 -52t51.5 -126q0 -72 -51.5 -124t-124.5 -52t-124.5 52t-51.5 124z" />
<glyph unicode="&#xf8;" horiz-adv-x="1243" d="M45 506q0 173 74 311.5t212.5 219.5t317.5 81q168 0 299 -78l62 72l96 -82l-59 -72q133 -139 133 -370q0 -173 -74.5 -312.5t-213 -220t-317.5 -80.5q-172 0 -299 76l-59 -71l-98 83l57 70q-131 143 -131 373zM371 496q0 -58 20 -113l371 442q-54 35 -117 35 q-85 0 -149 -55t-94.5 -136.5t-30.5 -172.5zM463 268q47 -35 117 -35q85 0 149 55.5t94.5 137t30.5 172.5q0 58 -20 113z" />
<glyph unicode="&#xf9;" horiz-adv-x="1189" d="M47 272q0 68 14 129l148 693h309l-137 -641q-12 -62 -12 -80q0 -56 34.5 -90.5t98.5 -34.5q87 0 151.5 59.5t85.5 165.5l131 621h310l-234 -1094h-307l25 117q-65 -68 -148.5 -105t-171.5 -37q-140 0 -218.5 88t-78.5 209zM441 1509l245 97l119 -400h-203z" />
<glyph unicode="&#xfa;" horiz-adv-x="1189" d="M47 272q0 68 14 129l148 693h309l-137 -641q-12 -62 -12 -80q0 -56 34.5 -90.5t98.5 -34.5q87 0 151.5 59.5t85.5 165.5l131 621h310l-234 -1094h-307l25 117q-65 -68 -148.5 -105t-171.5 -37q-140 0 -218.5 88t-78.5 209zM602 1206l280 400l236 -117l-293 -283h-223z " />
<glyph unicode="&#xfb;" horiz-adv-x="1189" d="M47 272q0 68 14 129l148 693h309l-137 -641q-12 -62 -12 -80q0 -56 34.5 -90.5t98.5 -34.5q87 0 151.5 59.5t85.5 165.5l131 621h310l-234 -1094h-307l25 117q-65 -68 -148.5 -105t-171.5 -37q-140 0 -218.5 88t-78.5 209zM305 1206l342 379h297l182 -379h-196l-168 189 l-244 -189h-213z" />
<glyph unicode="&#xfc;" horiz-adv-x="1189" d="M47 272q0 68 14 129l148 693h309l-137 -641q-12 -62 -12 -80q0 -56 34.5 -90.5t98.5 -34.5q87 0 151.5 59.5t85.5 165.5l131 621h310l-234 -1094h-307l25 117q-65 -68 -148.5 -105t-171.5 -37q-140 0 -218.5 88t-78.5 209zM362 1217l52 245h245l-51 -245h-246zM793 1217 l51 245h246l-52 -245h-245z" />
<glyph unicode="&#xfd;" horiz-adv-x="1064" d="M-143 -311l133 205q30 -23 65 -23q49 0 85.5 28t72.5 83l39 55l-205 1057h336l90 -693l356 693h345l-648 -1127q-104 -182 -199 -263t-241 -81q-138 0 -229 66zM475 1206l281 400l235 -117l-293 -283h-223z" />
<glyph unicode="&#xfe;" horiz-adv-x="1280" d="M-86 -356l385 1818h309l-104 -479q115 133 301 133q185 0 298.5 -142.5t113.5 -359.5q0 -172 -72.5 -318t-204 -233.5t-291.5 -87.5q-213 0 -323 162l-105 -493h-307zM408 494q0 -110 53 -181t153 -71q85 0 150 53t96 133.5t31 171.5q0 109 -50.5 180.5t-150.5 71.5 q-86 0 -152 -53.5t-98 -134t-32 -170.5z" />
<glyph unicode="&#xff;" horiz-adv-x="1064" d="M-143 -311l133 205q30 -23 65 -23q49 0 85.5 28t72.5 83l39 55l-205 1057h336l90 -693l356 693h345l-648 -1127q-104 -182 -199 -263t-241 -81q-138 0 -229 66zM258 1217l51 245h246l-51 -245h-246zM688 1217l51 245h246l-51 -245h-246z" />
<glyph unicode="&#x152;" horiz-adv-x="2254" d="M96 670q0 169 59 319.5t161.5 260.5t249.5 174.5t315 64.5q96 0 196 -27h1247l-61 -288h-827q83 -128 98 -295h588l-54 -258h-546q-30 -190 -150 -332h723l-61 -289h-1069q-111 -27 -207 -27q-153 0 -279.5 55.5t-209 151t-128 221.5t-45.5 269zM430 666 q0 -179 88.5 -293.5t253.5 -114.5q99 0 182.5 43.5t139.5 117t87 170.5t31 204q0 116 -36.5 207t-115 146.5t-190.5 55.5q-130 0 -232 -74t-155 -195.5t-53 -266.5z" />
<glyph unicode="&#x153;" horiz-adv-x="2033" d="M45 506q0 173 74 311.5t212.5 219.5t317.5 81q125 0 225 -44t168 -124q171 168 424 168q236 0 371 -131t135 -334q0 -89 -30 -182h-762v-18q0 -101 61.5 -161.5t165.5 -60.5q80 0 150 34.5t118 94.5l207 -159q-92 -110 -221.5 -168t-280.5 -58q-253 0 -393 160 q-150 -140 -377 -155q-96 -4 -153 8q-192 32 -302 171t-110 347zM371 496q0 -115 54 -189t155 -74q85 0 149 55.5t94.5 137t30.5 172.5q0 115 -54 188.5t-155 73.5q-85 0 -149 -55t-94.5 -136.5t-30.5 -172.5zM1202 666h465q4 33 -2 55q-8 76 -63 122t-144 46 q-97 0 -165 -58t-91 -165z" />
<glyph unicode="&#x178;" horiz-adv-x="1320" d="M123 1462h358l187 -594l440 594h387l-715 -884l-123 -578h-319l123 582zM459 1561l51 245h246l-52 -245h-245zM889 1561l51 245h246l-52 -245h-245z" />
<glyph unicode="&#x2c6;" horiz-adv-x="712" d="M0 1206l342 379h297l182 -379h-196l-168 189l-244 -189h-213z" />
<glyph unicode="&#x2dc;" horiz-adv-x="661" d="M106 1274q40 114 107.5 178t175.5 64q74 0 176 -54q89 -47 142 -47q49 0 78 29.5t42 71.5l134 -74q-40 -114 -107.5 -178t-175.5 -64q-71 0 -172 53q-89 47 -141 47q-49 0 -81 -30t-44 -70z" />
<glyph unicode="&#x2000;" horiz-adv-x="975" />
<glyph unicode="&#x2001;" horiz-adv-x="1950" />
<glyph unicode="&#x2002;" horiz-adv-x="975" />
<glyph unicode="&#x2003;" horiz-adv-x="1950" />
<glyph unicode="&#x2004;" horiz-adv-x="650" />
<glyph unicode="&#x2005;" horiz-adv-x="487" />
<glyph unicode="&#x2006;" horiz-adv-x="325" />
<glyph unicode="&#x2007;" horiz-adv-x="325" />
<glyph unicode="&#x2008;" horiz-adv-x="243" />
<glyph unicode="&#x2009;" horiz-adv-x="390" />
<glyph unicode="&#x200a;" horiz-adv-x="108" />
<glyph unicode="&#x2010;" horiz-adv-x="792" d="M68 418l53 256h594l-53 -256h-594z" />
<glyph unicode="&#x2011;" horiz-adv-x="792" d="M68 418l53 256h594l-53 -256h-594z" />
<glyph unicode="&#x2012;" horiz-adv-x="792" d="M68 418l53 256h594l-53 -256h-594z" />
<glyph unicode="&#x2013;" d="M-4 418l55 256h1094l-55 -256h-1094z" />
<glyph unicode="&#x2014;" horiz-adv-x="1884" d="M49 418l53 256h1694l-53 -256h-1694z" />
<glyph unicode="&#x2018;" horiz-adv-x="518" d="M133 807l57 278q30 143 108 239.5t226 164.5l66 -137q-75 -28 -128.5 -81.5t-68.5 -117.5l-10 -51h145l-63 -295h-332z" />
<glyph unicode="&#x2019;" horiz-adv-x="481" d="M139 915q74 28 128 82.5t67 116.5l12 53h-145l61 295h334l-57 -278q-30 -144 -108 -241t-226 -165z" />
<glyph unicode="&#x201a;" horiz-adv-x="542" d="M-74 -211q77 33 130.5 86.5t66.5 116.5l8 35h-145l63 299h332l-55 -271q-30 -139 -107 -234t-225 -167z" />
<glyph unicode="&#x201c;" horiz-adv-x="1003" d="M133 807l57 278q30 143 108 239.5t226 164.5l66 -137q-75 -28 -128.5 -82t-66.5 -117l-12 -51h145l-61 -295h-334zM618 807l58 278q30 143 108 239.5t226 164.5l65 -137q-74 -28 -127.5 -81.5t-68.5 -117.5l-11 -51h146l-64 -295h-332z" />
<glyph unicode="&#x201d;" horiz-adv-x="964" d="M139 915q74 28 128 82.5t67 116.5l12 53h-145l61 295h334l-57 -278q-30 -144 -108 -241t-226 -165zM623 915q74 28 128.5 82.5t67.5 116.5l12 53h-145l62 295h331l-57 -278q-30 -145 -107.5 -242t-226.5 -164z" />
<glyph unicode="&#x201e;" horiz-adv-x="987" d="M-74 -211q78 33 131 86.5t68 116.5l6 35h-145l63 299h332l-55 -271q-30 -139 -107 -234t-225 -167zM371 -211q77 33 130 86.5t66 116.5l8 35h-145l64 299h331l-55 -271q-30 -138 -107.5 -233t-224.5 -168z" />
<glyph unicode="&#x2022;" horiz-adv-x="821" d="M74 731q0 146 101.5 249t246.5 103q146 0 249 -103t103 -249t-103 -248t-249 -102q-145 0 -246.5 102t-101.5 248z" />
<glyph unicode="&#x2026;" horiz-adv-x="1599" d="M-35 0l70 326h332l-70 -326h-332zM512 0l68 326h333l-69 -326h-332zM1057 0l69 326h332l-69 -326h-332z" />
<glyph unicode="&#x202f;" horiz-adv-x="390" />
<glyph unicode="&#x2039;" horiz-adv-x="610" d="M18 532l23 113l430 440l143 -127l-335 -403l155 -383l-174 -82z" />
<glyph unicode="&#x203a;" horiz-adv-x="610" d="M-29 219l336 404l-157 383l176 81l241 -444l-24 -111l-430 -442z" />
<glyph unicode="&#x205f;" horiz-adv-x="487" />
<glyph unicode="&#x20ac;" d="M-61 532l28 134h142q0 81 6 122h-123l28 134h121q65 253 256 410t445 157q243 0 407 -141l-188 -226q-88 88 -219 88q-129 0 -221.5 -72.5t-137.5 -215.5h406l-29 -134h-409q-11 -54 -11 -122h396l-29 -134h-361q12 -130 83.5 -206t177.5 -76q134 0 229 104l156 -221 q-163 -160 -404 -160q-245 0 -395.5 148t-179.5 411h-174z" />
<glyph unicode="&#x2122;" horiz-adv-x="1552" d="M254 1311l31 151h532l-33 -151h-190l-96 -453h-156l96 453h-184zM756 858l127 604h211l39 -415l217 415h209l-129 -604h-150l88 418l-221 -418h-111l-43 418l-90 -418h-147z" />
<glyph unicode="&#xe000;" horiz-adv-x="1095" d="M0 0v1096h1096v-1096h-1096z" />
</font>
</defs>
</svg>
