<?xml version="1.0" standalone="no"?>
<!DOCTYPE svg PUBLIC "-//W3C//DTD SVG 1.1//EN" "http://www.w3.org/Graphics/SVG/1.1/DTD/svg11.dtd" >
<svg xmlns="http://www.w3.org/2000/svg">
<metadata></metadata>
<defs>
<font id="sq_market_lightregular" horiz-adv-x="1179" >
<font-face units-per-em="2048" ascent="1638" descent="-410" />
<missing-glyph horiz-adv-x="552" />
<glyph unicode="&#xfb01;" horiz-adv-x="1118" d="M51 934v121h187v209q0 69 26.5 116.5t70 68.5t80.5 28.5t77 7.5q74 0 141 -23l-23 -116q-40 20 -110 20q-59 0 -95 -24t-36 -91v-196h249v-121h-249v-934h-131v934h-187zM817 0v1055h131v-1055h-131zM817 1298v164h131v-164h-131z" />
<glyph unicode="&#xfb02;" horiz-adv-x="1124" d="M51 934v121h187v209q0 69 26.5 116.5t70 68.5t80.5 28.5t77 7.5q74 0 141 -23l-23 -116q-40 20 -110 20q-59 0 -95 -24t-36 -91v-196h249v-121h-249v-934h-131v934h-187zM823 0v1462h131v-1462h-131z" />
<glyph horiz-adv-x="0" />
<glyph horiz-adv-x="682" />
<glyph horiz-adv-x="0" />
<glyph horiz-adv-x="0" />
<glyph horiz-adv-x="552" />
<glyph unicode="&#xd;" horiz-adv-x="0" />
<glyph unicode=" "  horiz-adv-x="552" />
<glyph unicode="&#x09;" horiz-adv-x="552" />
<glyph unicode="&#xa0;" horiz-adv-x="552" />
<glyph unicode="!" horiz-adv-x="518" d="M170 0v180h178v-180h-178zM186 1149v313h146v-313l-37 -727h-70z" />
<glyph unicode="&#x22;" horiz-adv-x="768" d="M164 934v528h112v-528h-112zM492 934v528h112v-528h-112z" />
<glyph unicode="#" d="M88 422v92h178l74 434h-252v90h266l74 424h96l-71 -424h376l74 424h96l-73 -424h164v-90h-179l-73 -434h252v-92h-267l-73 -422h-97l74 422h-377l-74 -422h-98l74 422h-164zM365 514h376l74 434h-377z" />
<glyph unicode="$" d="M94 227l117 78q115 -173 332 -196v583q-69 19 -119.5 36.5t-109 49.5t-95 71t-61.5 99.5t-25 134.5q0 173 118 276t292 114v94h106v-97q248 -21 395 -210l-104 -82q-109 137 -291 161v-530q73 -21 124.5 -40t112 -53.5t98.5 -75t63.5 -103.5t25.5 -140q0 -174 -115 -291 t-309 -129v-100h-106v103q-145 12 -262 77t-187 170zM272 1092q0 -56 22 -99.5t64 -73t85 -47.5t100 -34v505q-119 -8 -195 -74t-76 -177zM649 106q131 9 209 86t78 201q0 47 -13 84.5t-35.5 64t-60.5 49.5t-78.5 39t-99.5 34v-558z" />
<glyph unicode="%" horiz-adv-x="1572" d="M113 1165q0 139 86 231.5t223 92.5q139 0 225 -92.5t86 -231.5q0 -144 -86 -237.5t-225 -93.5q-138 0 -223.5 93.5t-85.5 237.5zM211 1165q0 -101 57.5 -167t153.5 -66t153.5 66t57.5 167q0 97 -58 161.5t-153 64.5q-96 0 -153.5 -64t-57.5 -162zM258 0l948 1462h109 l-948 -1462h-109zM840 303q0 140 86.5 233t224.5 93q139 0 224 -92.5t85 -233.5q0 -143 -85 -236.5t-224 -93.5q-138 0 -224.5 93.5t-86.5 236.5zM940 303q0 -99 58 -165t153 -66q96 0 153.5 66t57.5 165q0 97 -58 162t-153 65t-153 -65t-58 -162z" />
<glyph unicode="&#x26;" horiz-adv-x="1331" d="M102 377q0 60 14 110t37 90t67.5 83.5t91.5 80t124 90.5q-84 104 -123 179t-39 166q0 144 92 228.5t230 84.5q136 0 217.5 -81.5t81.5 -203.5q0 -107 -70.5 -199.5t-206.5 -191.5l390 -463q72 83 114 176l109 -59q-52 -110 -144 -213l213 -254h-178l-129 158 q-208 -185 -452 -185q-108 0 -193.5 33.5t-138 90.5t-80 128.5t-27.5 151.5zM246 385q0 -124 77.5 -204.5t229.5 -80.5q192 0 360 152l-401 487q-72 -50 -112.5 -82t-80 -75.5t-56.5 -91t-17 -105.5zM410 1178q0 -66 30.5 -125t102.5 -148q125 89 172 147.5t47 137.5 t-44 126.5t-126 47.5q-79 0 -130.5 -47t-51.5 -139z" />
<glyph unicode="'" horiz-adv-x="440" d="M164 934v528h112v-528h-112z" />
<glyph unicode="(" horiz-adv-x="577" d="M92 682q0 573 354 965l91 -80q-318 -351 -318 -885t318 -885l-91 -80q-179 196 -266.5 442.5t-87.5 522.5z" />
<glyph unicode=")" horiz-adv-x="577" d="M41 -203q317 350 317 885t-317 885l90 80q354 -392 354 -965q0 -276 -87.5 -522.5t-266.5 -442.5z" />
<glyph unicode="*" horiz-adv-x="708" d="M94 1090q54 32 94.5 50.5t116.5 45.5q-76 29 -116.5 47.5t-94.5 50.5l45 80q59 -33 95.5 -58.5t95.5 -76.5q-23 139 -23 233h92q0 -112 -20 -233q93 80 190 135l45 -80q-93 -53 -213 -98q118 -42 213 -96l-45 -80q-97 55 -190 135q20 -121 20 -234h-92q0 95 23 234 q-59 -51 -95.5 -76.5t-95.5 -58.5z" />
<glyph unicode="+" d="M61 467v119h467v469h121v-469h467v-119h-467v-467h-121v467h-467z" />
<glyph unicode="," horiz-adv-x="512" d="M154 -207q102 96 102 203v4h-92v180h180v-141q0 -159 -137 -293z" />
<glyph unicode="-" horiz-adv-x="792" d="M135 467v119h522v-119h-522z" />
<glyph unicode="." horiz-adv-x="512" d="M166 0v180h178v-180h-178z" />
<glyph unicode="/" horiz-adv-x="688" d="M68 0l450 1462h107l-451 -1462h-106z" />
<glyph unicode="0" d="M102 731q0 118 15 224t51 205.5t91 171t140 114.5t193 43q107 0 191.5 -43t139 -114.5t90 -171t50 -205.5t14.5 -224t-14.5 -224t-50 -205.5t-90 -171t-139 -114.5t-191.5 -43q-108 0 -193 43t-140 114.5t-91 171t-51 205.5t-15 224zM254 731q0 -106 11 -197.5t36 -171.5 t63.5 -136.5t96.5 -89t131 -32.5t130 32.5t95 89t63 136.5t35.5 171t10.5 198q0 134 -18 243.5t-55.5 197t-104 136t-156.5 48.5q-91 0 -158 -48.5t-105.5 -136t-56.5 -197t-18 -243.5z" />
<glyph unicode="1" horiz-adv-x="880" d="M106 1186l392 276h116v-1462h-143v1282l-295 -201z" />
<glyph unicode="2" d="M96 1221q84 128 206 198t276 70q199 0 326.5 -112t127.5 -296q0 -122 -55.5 -221.5t-155.5 -193.5q-46 -43 -140 -120.5t-166.5 -137.5t-143.5 -136t-99 -135h799v-137h-958v20q0 45 13.5 91t33 85.5t56.5 86.5t68.5 82t84.5 85t89.5 81.5t98.5 84.5q57 48 80.5 68t67 60 t61.5 61.5t45 57t38 64t19.5 65t8.5 75.5q0 136 -84.5 208.5t-219.5 72.5q-235 0 -360 -209z" />
<glyph unicode="3" horiz-adv-x="1220" d="M111 225l127 80q52 -97 143 -144.5t203 -47.5q161 0 265.5 92.5t104.5 253.5q0 139 -78.5 227t-209.5 88q-86 0 -138 -45l-75 72l405 524h-694v137h880v-106l-356 -451q182 0 302 -121t120 -313q0 -74 -18.5 -143.5t-60 -134.5t-101.5 -113.5t-149.5 -77.5t-198.5 -29 q-323 0 -471 252z" />
<glyph unicode="4" d="M68 362v134l655 966h162v-964h213v-136h-213v-362h-146v362h-671zM211 498h528v776z" />
<glyph unicode="5" d="M90 225l129 80q53 -99 144 -145.5t200 -46.5q154 0 252 87.5t98 254.5q0 161 -92.5 250.5t-253.5 89.5q-207 0 -323 -146l-90 47l45 766h790v-137h-665l-33 -489q125 98 309 98q206 0 337.5 -132t131.5 -339q0 -74 -17.5 -143t-57.5 -133t-97.5 -111t-144 -75t-191.5 -28 q-324 0 -471 252z" />
<glyph unicode="6" d="M106 694q0 355 136 563q150 232 450 232q197 0 326 -94l-62 -119q-114 80 -262 80q-97 0 -173.5 -33t-126 -89t-82 -135t-46.5 -165.5t-14 -185.5q57 96 159 151t226 55q195 0 327 -132t132 -347q0 -216 -134.5 -359t-349.5 -143q-237 0 -371.5 187.5t-134.5 533.5z M287 483q0 -158 89.5 -265t244.5 -107q146 0 233.5 98t87.5 258q0 154 -84 252t-244 98q-150 0 -238.5 -89t-88.5 -245z" />
<glyph unicode="7" d="M96 1325v137h987v-123l-690 -1339h-157l688 1325h-828z" />
<glyph unicode="8" d="M94 406q0 124 64.5 226.5t201.5 160.5q-102 44 -158.5 129.5t-56.5 193.5q0 169 126 271t319 102t318.5 -102t125.5 -271q0 -108 -56.5 -193.5t-158.5 -129.5q137 -58 201.5 -160.5t64.5 -226.5q0 -191 -135 -312t-360 -121t-360.5 121.5t-135.5 311.5zM248 416 q0 -140 88.5 -220.5t253.5 -80.5q166 0 254 82.5t88 224.5q0 134 -83.5 212.5t-258.5 78.5q-174 0 -258 -81t-84 -216zM297 1096q0 -67 25 -116.5t68 -76.5t92.5 -40t107.5 -13t107.5 13t92.5 40t68 76.5t25 116.5q0 86 -42.5 144.5t-106.5 83t-144 24.5t-144 -24.5 t-106.5 -83t-42.5 -144.5z" />
<glyph unicode="9" d="M84 985q0 218 134 361t349 143q238 0 372 -188.5t134 -544.5q0 -351 -133 -553q-152 -230 -448 -230q-105 0 -192 27t-144 66l73 122q109 -82 263 -82q96 0 171 33.5t124.5 91t81.5 138t45.5 169.5t13.5 191q-57 -101 -161 -161t-232 -60q-193 0 -322 131.5t-129 345.5z M238 993q0 -155 84.5 -251.5t240.5 -96.5q152 0 241 93.5t89 248.5q0 158 -89.5 261.5t-242.5 103.5q-148 0 -235.5 -100t-87.5 -259z" />
<glyph unicode=":" horiz-adv-x="602" d="M213 0v180h178v-180h-178zM213 874v181h178v-181h-178z" />
<glyph unicode=";" horiz-adv-x="602" d="M201 -207q102 96 102 203v4h-92v180h180v-141q0 -159 -137 -293zM211 874v181h180v-181h-180z" />
<glyph unicode="&#x3c;" d="M270 528l555 555l82 -82l-471 -473l471 -471l-82 -82z" />
<glyph unicode="=" d="M61 272v119h1055v-119h-1055zM61 662v118h1055v-118h-1055z" />
<glyph unicode="&#x3e;" d="M270 57l473 471l-473 473l80 82l557 -555l-557 -553z" />
<glyph unicode="?" horiz-adv-x="976" d="M63 1307q189 182 420 182q177 0 290.5 -101.5t113.5 -269.5q0 -73 -23 -134.5t-60 -105t-82 -82t-90 -74.5t-82 -74t-60 -89.5t-23 -112.5v-49h-131v31q0 77 22.5 143t58 113t79 89t86.5 80t78.5 76.5t58 87.5t22.5 105q0 100 -67 166t-197 66q-182 0 -332 -150zM315 0 v180h179v-180h-179z" />
<glyph unicode="@" horiz-adv-x="1714" d="M90 715q0 212 98.5 388.5t276.5 281t399 104.5q166 0 312 -61.5t246.5 -164.5t158 -240t57.5 -286q0 -188 -86.5 -298.5t-228.5 -110.5q-164 0 -223 139q-101 -145 -281 -145q-154 0 -249 111t-95 280q0 168 95.5 278.5t254.5 110.5q154 0 252 -117v100h121v-528 q0 -129 123 -129q98 0 148.5 78t50.5 213q0 134 -49 255t-134.5 209.5t-208 140.5t-262.5 52q-188 0 -339 -90.5t-233.5 -241.5t-82.5 -329q0 -179 83 -329.5t233.5 -239.5t336.5 -89q176 0 322 82l55 -98q-184 -96 -383 -96q-217 0 -393.5 103t-275.5 279t-99 388zM604 713 q0 -122 60 -199.5t174 -77.5t176.5 78.5t62.5 198.5t-63 197t-178 77q-113 0 -172.5 -76.5t-59.5 -197.5z" />
<glyph unicode="A" horiz-adv-x="1374" d="M29 0l577 1462h164l576 -1462h-164l-170 446h-660l-172 -446h-151zM406 584h550l-268 729z" />
<glyph unicode="B" horiz-adv-x="1400" d="M195 0v1462h553q223 0 343.5 -90.5t120.5 -255.5q0 -110 -50 -190t-136 -127q123 -52 186.5 -150t63.5 -227q0 -87 -29.5 -162t-87 -134t-152.5 -92.5t-216 -33.5h-596zM338 137h453q160 0 246.5 76t86.5 213q0 128 -76 205.5t-227 77.5h-483v-572zM338 844h436 q146 0 219.5 67t73.5 185q0 119 -77.5 174t-239.5 55h-412v-481z" />
<glyph unicode="C" horiz-adv-x="1415" d="M106 731q0 216 84 388t241.5 271t361.5 99q172 0 308 -70t228 -196l-115 -88q-69 102 -177.5 158.5t-245.5 56.5q-243 0 -387 -169t-144 -450q0 -283 146 -450.5t395 -167.5q135 0 237 53t185 162l112 -90q-203 -265 -532 -265q-208 0 -367.5 98t-244.5 270t-85 390z" />
<glyph unicode="D" horiz-adv-x="1521" d="M195 0v1462h538q211 0 366 -95.5t233.5 -260t78.5 -375.5q0 -157 -45.5 -290.5t-130.5 -231.5t-214 -153.5t-288 -55.5h-538zM338 137h395q250 0 387 161t137 433q0 274 -136.5 434t-387.5 160h-395v-1188z" />
<glyph unicode="E" horiz-adv-x="1294" d="M195 0v1462h964v-137h-821v-481h731v-135h-731v-572h842v-137h-985z" />
<glyph unicode="F" horiz-adv-x="1220" d="M195 0v1462h960v-137h-817v-481h729v-135h-729v-709h-143z" />
<glyph unicode="G" horiz-adv-x="1533" d="M106 733q0 216 85.5 387.5t245 270t366.5 98.5q172 0 308 -70t228 -196l-114 -88q-69 102 -177.5 158.5t-248.5 56.5q-247 0 -393 -169t-146 -448t144 -449.5t387 -170.5q215 0 353.5 136.5t147.5 373.5h-403v137h545q10 -42 10 -94q0 -141 -44.5 -266.5t-126 -220.5 t-206 -150.5t-274.5 -55.5q-205 0 -362.5 100.5t-241 272.5t-83.5 387z" />
<glyph unicode="H" horiz-adv-x="1529" d="M195 0v1462h143v-618h854v618h143v-1462h-143v709h-854v-709h-143z" />
<glyph unicode="I" horiz-adv-x="532" d="M195 0v1462h143v-1462h-143z" />
<glyph unicode="J" horiz-adv-x="980" d="M31 147l110 89q93 -127 252 -127q85 0 144 36t88 99q32 68 32 202v1016h144v-975q0 -113 -13.5 -192t-50.5 -141q-108 -181 -352 -181q-110 0 -203.5 44.5t-150.5 129.5z" />
<glyph unicode="K" horiz-adv-x="1331" d="M195 0v1462h143v-841l747 841h185l-555 -612l612 -850h-186l-527 743l-276 -315v-428h-143z" />
<glyph unicode="L" horiz-adv-x="1155" d="M195 0v1462h143v-1325h788v-137h-931z" />
<glyph unicode="M" horiz-adv-x="1812" d="M195 0v1462h225l487 -1284l494 1284h217v-1462h-143v1307l-502 -1307h-133l-506 1311v-1311h-139z" />
<glyph unicode="N" horiz-adv-x="1517" d="M195 0v1462h180l805 -1231v1231h143v-1462h-158l-827 1266v-1266h-143z" />
<glyph unicode="O" horiz-adv-x="1585" d="M106 731q0 217 84 389t241.5 270.5t361.5 98.5t361 -98.5t241 -270.5t84 -389q0 -215 -84 -387t-241 -271.5t-361 -99.5t-361.5 99.5t-241.5 271.5t-84 387zM260 731q0 -279 144 -448.5t389 -169.5q244 0 388 169.5t144 448.5q0 280 -144 449.5t-388 169.5 q-246 0 -389.5 -169.5t-143.5 -449.5z" />
<glyph unicode="P" horiz-adv-x="1296" d="M195 0v1462h546q236 0 363 -114t127 -306t-127 -304.5t-363 -112.5h-403v-625h-143zM338 762h405q168 0 252 74.5t84 205.5t-84 207t-252 76h-405v-563z" />
<glyph unicode="Q" horiz-adv-x="1585" d="M106 731q0 216 84 388t241.5 271t361.5 99t361 -99t241 -271t84 -388q0 -185 -63 -339t-179 -257l109 -135l-101 -84l-117 143q-145 -86 -335 -86q-204 0 -361.5 99.5t-241.5 271.5t-84 387zM260 731q0 -279 144 -448.5t389 -169.5q136 0 245 53l-178 223l105 86 l182 -231q178 172 178 487q0 280 -144 449.5t-388 169.5q-246 0 -389.5 -169.5t-143.5 -449.5z" />
<glyph unicode="R" horiz-adv-x="1363" d="M195 0v1462h608q206 0 331.5 -111t125.5 -298q0 -153 -82 -258.5t-238 -147.5l338 -647h-166l-328 625h-446v-625h-143zM338 762h455q148 0 231.5 76.5t83.5 203.5q0 129 -84 206t-225 77h-461v-563z" />
<glyph unicode="S" horiz-adv-x="1230" d="M80 242l119 86q76 -115 189.5 -166t236.5 -51q163 0 259.5 77.5t96.5 208.5q0 52 -18 92.5t-45.5 67.5t-80 51t-99.5 38.5t-126 35.5q-54 14 -87.5 23.5t-85 26t-84 33t-73 40t-66 51.5t-48.5 63t-34 79.5t-11 95.5q0 95 40 171.5t107.5 124.5t154 73.5t183.5 25.5 q151 0 275.5 -60t210.5 -169l-113 -89q-67 86 -165 133.5t-216 47.5q-142 0 -236 -66.5t-94 -183.5q0 -135 152 -203q37 -17 94.5 -34.5t111 -31t116.5 -33.5t116 -41.5t103.5 -55t86 -74t57 -98.5t21.5 -128q0 -189 -140.5 -309.5t-373.5 -120.5q-173 0 -311.5 71 t-222.5 198z" />
<glyph unicode="T" horiz-adv-x="1253" d="M49 1325v137h1155v-137h-506v-1325h-143v1325h-506z" />
<glyph unicode="U" horiz-adv-x="1460" d="M178 522v940h144v-940q0 -185 109.5 -297t295.5 -112q187 0 299.5 112.5t112.5 296.5v940h143v-940q0 -162 -73 -288t-199 -193.5t-283 -67.5q-240 0 -394.5 152t-154.5 397z" />
<glyph unicode="V" horiz-adv-x="1273" d="M31 1462h157l449 -1310l461 1310h145l-524 -1462h-164z" />
<glyph unicode="W" horiz-adv-x="1939" d="M59 1462h150l315 -1245l375 1245h145l375 -1247l316 1247h145l-381 -1462h-153l-377 1255l-375 -1255h-154z" />
<glyph unicode="X" horiz-adv-x="1312" d="M20 0l547 760l-506 702h181l415 -585l418 585h176l-506 -702l547 -760h-178l-459 649l-460 -649h-175z" />
<glyph unicode="Y" horiz-adv-x="1228" d="M20 1462h173l428 -708l423 708h166l-520 -852v-610h-149v610z" />
<glyph unicode="Z" horiz-adv-x="1251" d="M84 0v139l879 1186h-844v137h1022v-139l-879 -1186h897v-137h-1075z" />
<glyph unicode="[" horiz-adv-x="565" d="M174 -274v1912h373v-125h-244v-1663h244v-124h-373z" />
<glyph unicode="\" horiz-adv-x="688" d="M63 1462h107l451 -1462h-107z" />
<glyph unicode="]" horiz-adv-x="567" d="M20 -150h244v1663h-244v125h373v-1912h-373v124z" />
<glyph unicode="^" d="M59 995l467 467h125l467 -467l-82 -84l-444 449l-451 -449z" />
<glyph unicode="_" horiz-adv-x="1189" d="M-16 -154h1222v-102h-1222v102z" />
<glyph unicode="`" horiz-adv-x="663" d="M72 1507l100 64l252 -352h-127z" />
<glyph unicode="a" horiz-adv-x="1091" d="M96 295q0 59 15.5 106t45 79t61 54t76 37t75 22.5t73.5 14.5q17 3 53.5 8.5t56.5 9t53 10t52 13t45 16.5t40.5 22t29 28t21 36t6.5 44q0 57 -38.5 94.5t-91 51t-116.5 13.5q-89 0 -180 -28t-156 -84l-67 102q80 63 185.5 99t221.5 36q172 0 272.5 -79.5t100.5 -229.5 v-770h-131v139q-112 -164 -338 -164q-167 0 -266 86t-99 234zM233 303q0 -103 68.5 -152t173.5 -49q64 0 120.5 18.5t103 55t73.5 99.5t27 145v174q-20 -15 -48 -27.5t-49 -20.5t-60.5 -17t-56 -12t-63 -11t-55.5 -10q-58 -11 -95 -22.5t-71.5 -32.5t-51 -55t-16.5 -83z" />
<glyph unicode="b" horiz-adv-x="1255" d="M170 0v1462h131v-588q64 104 163.5 154.5t213.5 50.5q143 0 252.5 -73t167 -197.5t57.5 -280.5t-58 -281.5t-167.5 -198.5t-251.5 -73q-114 0 -213 51t-164 154v-180h-131zM301 526q0 -185 96.5 -304.5t266.5 -119.5t261 118.5t91 305.5q0 121 -37.5 215.5t-118.5 152.5 t-196 58q-114 0 -198 -58t-124.5 -153t-40.5 -215z" />
<glyph unicode="c" horiz-adv-x="1081" d="M100 528q0 156 60.5 281t175.5 197.5t264 72.5q128 0 231 -54t170 -151l-102 -75q-105 153 -295 153q-165 0 -264.5 -118t-99.5 -306q0 -189 98.5 -307.5t263.5 -118.5q193 0 299 158l103 -76q-68 -98 -172.5 -153.5t-233.5 -55.5q-148 0 -262.5 73t-175 198.5 t-60.5 281.5z" />
<glyph unicode="d" horiz-adv-x="1255" d="M100 526q0 157 57.5 282t167.5 198t253 73q114 0 211.5 -51t164.5 -154v588h131v-1462h-131v180q-66 -104 -164.5 -154.5t-211.5 -50.5q-144 0 -254 73t-167 197.5t-57 280.5zM240 528q0 -121 37.5 -215.5t118 -152.5t194.5 -58q172 0 268 120.5t96 305.5t-96.5 304.5 t-267.5 119.5q-168 0 -259 -118.5t-91 -305.5z" />
<glyph unicode="e" horiz-adv-x="1161" d="M100 524q0 156 58 281.5t171.5 199.5t264.5 74q214 0 344.5 -138.5t130.5 -352.5q0 -40 -4 -76h-825q0 -188 103.5 -299t270.5 -111q93 0 175 37.5t139 110.5l94 -84q-156 -191 -416 -191q-156 0 -272 72.5t-175 196t-59 280.5zM244 625h686q-10 163 -105.5 246 t-234.5 83q-148 0 -241 -91t-105 -238z" />
<glyph unicode="f" horiz-adv-x="675" d="M51 934v121h187v209q0 69 26.5 116.5t70 68.5t80.5 28.5t77 7.5q74 0 141 -23l-23 -116q-40 20 -110 20q-59 0 -95 -24t-36 -91v-196h249v-121h-249v-934h-131v934h-187z" />
<glyph unicode="g" horiz-adv-x="1257" d="M104 553q0 230 136 378t340 148q119 0 221.5 -53.5t156.5 -151.5v181h132v-924q0 -211 -105 -338q-140 -170 -405 -170q-118 0 -227.5 33t-188.5 94l80 109q61 -52 149.5 -80.5t186.5 -28.5q180 0 279 95.5t99 267.5v129q-54 -98 -160 -151.5t-227 -53.5 q-204 0 -335.5 145.5t-131.5 370.5zM244 561q0 -171 91 -284t261 -113q114 0 197.5 54t124 143t40.5 200q0 110 -39.5 197t-123 140.5t-199.5 53.5q-171 0 -261.5 -111t-90.5 -280z" />
<glyph unicode="h" horiz-adv-x="1189" d="M170 0v1462h131v-579q60 92 154.5 144t212.5 52q167 0 265.5 -104.5t98.5 -296.5v-678h-131v647q0 305 -252 305q-150 0 -249 -103t-99 -265v-584h-131z" />
<glyph unicode="i" horiz-adv-x="471" d="M170 0v1055h131v-1055h-131zM170 1298v164h131v-164h-131z" />
<glyph unicode="j" horiz-adv-x="471" d="M-59 -350l28 114q27 -18 82 -18t87 32t32 124v1153h131v-1172q0 -66 -18 -115.5t-43 -75.5t-61 -41.5t-63 -19.5t-57 -4q-71 0 -118 23zM170 1298v164h131v-164h-131z" />
<glyph unicode="k" horiz-adv-x="1101" d="M170 0v1462h131v-991l557 584h172l-426 -439l483 -616h-172l-405 530l-209 -217v-313h-131z" />
<glyph unicode="l" horiz-adv-x="483" d="M176 0v1462h131v-1462h-131z" />
<glyph unicode="m" horiz-adv-x="1826" d="M170 0v1055h131v-164q56 88 143.5 138t196.5 50q111 0 193 -54.5t120 -156.5q57 89 153.5 150t213.5 61q158 0 253 -100.5t95 -286.5v-692h-131v659q0 293 -235 293q-136 0 -227 -99t-91 -253v-600h-131v659q0 293 -236 293q-136 0 -226.5 -99t-90.5 -253v-600h-131z" />
<glyph unicode="n" horiz-adv-x="1189" d="M170 0v1055h131v-172q60 92 154.5 144t212.5 52q167 0 265.5 -104.5t98.5 -296.5v-678h-131v647q0 305 -252 305q-150 0 -249 -103t-99 -265v-584h-131z" />
<glyph unicode="o" horiz-adv-x="1183" d="M100 526q0 157 59 282.5t171.5 198t259.5 72.5q223 0 358 -156t135 -397q0 -156 -59.5 -280.5t-172.5 -197.5t-261 -73q-221 0 -355.5 156.5t-134.5 394.5zM240 526q0 -183 94.5 -304.5t255.5 -121.5q162 0 257 121.5t95 304.5q0 186 -94.5 307t-257.5 121 q-161 0 -255.5 -121t-94.5 -307z" />
<glyph unicode="p" horiz-adv-x="1255" d="M170 -356v1411h131v-181q64 104 163.5 154.5t213.5 50.5q143 0 252.5 -73t167 -197.5t57.5 -280.5t-58 -281.5t-167.5 -198.5t-251.5 -73q-114 0 -213 51t-164 154v-536h-131zM301 526q0 -185 96.5 -304.5t266.5 -119.5t261 118.5t91 305.5q0 121 -37.5 215.5 t-118.5 152.5t-196 58q-114 0 -198 -58t-124.5 -153t-40.5 -215z" />
<glyph unicode="q" horiz-adv-x="1255" d="M100 526q0 157 57.5 282t167.5 198t253 73q114 0 211.5 -51t164.5 -154v181h131v-1411h-131v536q-66 -104 -164.5 -154.5t-211.5 -50.5q-144 0 -254 73t-167 197.5t-57 280.5zM240 528q0 -121 37.5 -215.5t118 -152.5t194.5 -58q172 0 268 120.5t96 305.5t-96.5 304.5 t-267.5 119.5q-168 0 -259 -118.5t-91 -305.5z" />
<glyph unicode="r" horiz-adv-x="761" d="M170 0v1055h131v-162q42 79 129 130.5t186 51.5q89 0 146 -39l-41 -118q-50 26 -125 26q-125 0 -210 -99.5t-85 -279.5v-565h-131z" />
<glyph unicode="s" horiz-adv-x="995" d="M96 131l90 90q115 -121 310 -121q126 0 198 50.5t72 146.5q0 29 -6.5 51t-25.5 39.5t-38 29t-61 24.5t-75 21t-99 23q-60 14 -102.5 27t-90.5 36.5t-77.5 53t-49.5 75t-20 103.5q0 76 31 134.5t84.5 93.5t120 53t141.5 18q237 0 387 -164l-88 -88q-110 127 -303 127 q-65 0 -117.5 -14t-90.5 -52t-38 -95q0 -34 15 -61.5t35.5 -44.5t59.5 -32.5t67 -23t79 -19.5q42 -9 64.5 -14.5t61.5 -16.5t61.5 -20t55 -23.5t51 -30t40.5 -37t33.5 -46t19.5 -56t8 -67.5q0 -144 -107 -235t-294 -91q-243 0 -402 156z" />
<glyph unicode="t" horiz-adv-x="716" d="M43 934v121h201v407h131v-407h284v-121h-284v-649q0 -96 35.5 -140.5t109.5 -44.5q79 0 123 35l37 -117q-61 -41 -170 -41q-266 0 -266 291v666h-201z" />
<glyph unicode="u" horiz-adv-x="1187" d="M156 377v678h131v-647q0 -306 252 -306q150 0 249 103.5t99 265.5v584h131v-1055h-131v172q-60 -92 -154.5 -144.5t-212.5 -52.5q-167 0 -265.5 104.5t-98.5 297.5z" />
<glyph unicode="v" horiz-adv-x="1038" d="M37 1055h147l338 -901l336 901h143l-409 -1055h-146z" />
<glyph unicode="w" horiz-adv-x="1536" d="M61 1055h136l235 -893l273 893h135l270 -891l233 891h132l-283 -1055h-154l-270 881l-272 -881h-152z" />
<glyph unicode="x" horiz-adv-x="1036" d="M37 0l405 551l-370 504h164l288 -406l283 406h158l-367 -504l401 -551h-161l-320 455l-321 -455h-160z" />
<glyph unicode="y" horiz-adv-x="1040" d="M35 1055h147l340 -889l336 889h143l-434 -1088q-39 -98 -68.5 -157t-66 -104.5t-78.5 -64t-98 -18.5q-64 0 -111 21l33 112q25 -14 64 -14q62 0 107.5 53.5t103.5 204.5z" />
<glyph unicode="z" horiz-adv-x="995" d="M86 0v117l639 817h-612v121h772v-125l-629 -811h649v-119h-819z" />
<glyph unicode="{" horiz-adv-x="606" d="M51 623v118h25q170 0 170 222v323q0 166 80 259t211 93h55v-120h-47q-172 0 -172 -220v-331q0 -219 -160 -285q160 -66 160 -285v-331q0 -220 172 -220h47v-120h-55q-131 0 -211 93t-80 259v323q0 222 -170 222h-25z" />
<glyph unicode="|" horiz-adv-x="448" d="M174 -98v1659h100v-1659h-100z" />
<glyph unicode="}" horiz-adv-x="608" d="M14 -154h29q182 0 182 220v331q0 219 164 285q-164 66 -164 285v331q0 220 -182 220h-29v120h33q138 0 221.5 -92.5t83.5 -259.5v-323q0 -222 180 -222h25v-118h-25q-180 0 -180 -222v-323q0 -167 -83.5 -259.5t-221.5 -92.5h-33v120z" />
<glyph unicode="~" d="M78 483q132 176 274 176q51 0 100.5 -15.5t137.5 -53.5q67 -28 94 -38.5t67.5 -21t75.5 -10.5q115 0 213 105l62 -54q-130 -178 -275 -178q-35 0 -75.5 10.5t-67.5 21t-94 38.5q-88 38 -137.5 53.5t-100.5 15.5q-113 0 -213 -104z" />
<glyph unicode="&#xa1;" horiz-adv-x="501" d="M162 874v181h178v-181h-178zM178 -43l39 688h70l37 -688v-313h-146v313z" />
<glyph unicode="&#xa2;" d="M137 528q0 223 121 375t324 172v170h106v-168q223 -21 350 -203l-106 -77q-93 136 -244 153v-848q154 19 246 160l106 -78q-130 -187 -352 -207v-170h-106v173q-202 19 -323.5 171.5t-121.5 376.5zM276 528q0 -172 82.5 -287t223.5 -137v846q-140 -22 -223 -137t-83 -285 z" />
<glyph unicode="&#xa3;" d="M82 0v109q90 47 154.5 141.5t64.5 198.5q0 13 -1 26t-4 28.5t-5.5 27t-7.5 30t-7.5 27.5t-9 30.5t-8.5 28.5h-176v115h135q-63 177 -63 278q0 207 128.5 328t340.5 121q285 0 456 -248l-121 -82q-117 189 -340 189q-144 0 -230.5 -79.5t-86.5 -238.5q0 -103 64 -268h469 v-115h-433q2 -6 9 -32t10.5 -40t8.5 -37.5t7 -45t2 -43.5q0 -58 -13.5 -110.5t-37.5 -92t-41.5 -61.5t-39.5 -47l-7 -7h762v-131h-979z" />
<glyph unicode="&#xa4;" d="M141 262l142 139q-70 99 -70 222q0 120 70 219l-142 143l86 86l142 -143q96 71 221 71q123 0 219 -71l141 143l86 -86l-141 -141q72 -101 72 -221q0 -124 -72 -222l141 -139l-86 -88l-141 141q-98 -69 -219 -69q-123 0 -221 69l-142 -141zM326 623q0 -110 77 -187.5 t187 -77.5t187 77.5t77 187.5t-77 187t-187 77t-187 -77t-77 -187z" />
<glyph unicode="&#xa5;" d="M66 1464h167l361 -737l354 737h166l-369 -706h310v-103h-363l-33 -55v-147h396v-103h-396v-350h-143v350h-395v103h395v147l-33 55h-362v103h311z" />
<glyph unicode="&#xa6;" horiz-adv-x="661" d="M279 -123v639h100v-639h-100zM279 922v639h100v-639h-100z" />
<glyph unicode="&#xa7;" horiz-adv-x="1034" d="M76 979q0 220 141.5 365t374.5 145q189 0 315 -94l-82 -107q-87 78 -237 78q-225 0 -326 -176l195 -121q73 -45 116 -73.5t102 -71.5t93.5 -76.5t73 -80.5t59 -92t34 -102.5t13.5 -121.5q0 -147 -61 -263.5t-178.5 -185t-272.5 -68.5q-187 0 -315 95l78 106 q97 -78 241 -78q222 0 326 179q-34 22 -101.5 62t-93.5 56q-178 109 -253 170q-206 167 -236 374q-6 40 -6 81zM211 977q0 -51 10 -95.5t26 -81.5t46.5 -74t61.5 -67t81.5 -68.5t96 -69.5t115.5 -78q41 -27 63 -42l94 -63q12 66 12 108q0 48 -9.5 91t-24.5 78.5t-45 73 t-57.5 66t-76.5 67t-87.5 66.5t-104.5 73l-187 129q-9 -47 -12 -70q-2 -16 -2 -43z" />
<glyph unicode="&#xa8;" horiz-adv-x="716" d="M102 1280v137h134v-137h-134zM481 1280v137h133v-137h-133z" />
<glyph unicode="&#xa9;" horiz-adv-x="1708" d="M84 731q0 157 61 299.5t164 245.5t245.5 164t299.5 61t299.5 -61t245.5 -164t164 -245.5t61 -299.5t-61 -299.5t-164 -245.5t-245.5 -164t-299.5 -61t-299.5 61t-245.5 164t-164 245.5t-61 299.5zM182 731q0 -182 90 -337t245 -245t337 -90t337 90t245 245t90 337 t-90 337t-245 245t-337 90t-337 -90t-245 -245t-90 -337zM430 731q0 179 123.5 304.5t300.5 125.5q111 0 205 -53t149 -145l-82 -56q-42 72 -114.5 115t-157.5 43q-135 0 -230.5 -98.5t-95.5 -235.5q0 -135 95.5 -232.5t230.5 -97.5q84 0 157 42.5t117 113.5l82 -53 q-55 -92 -149.5 -146.5t-206.5 -54.5q-177 0 -300.5 125.5t-123.5 302.5z" />
<glyph unicode="&#xaa;" horiz-adv-x="815" d="M104 991q0 60 26 100t67.5 58.5t92 28.5t100.5 15t91.5 13t67.5 28t26 54q0 98 -169 98q-119 0 -209 -69l-62 72q127 94 275 94q115 0 188.5 -53t73.5 -154v-481h-92v96q-84 -109 -238 -109q-109 0 -173.5 55.5t-64.5 153.5zM205 993q0 -59 43 -87.5t110 -28.5 q56 0 103.5 18.5t80.5 62t33 105.5v106q-32 -32 -70.5 -43.5t-121.5 -19.5q-34 -4 -55 -7t-47.5 -11t-41 -19t-24.5 -30.5t-10 -45.5z" />
<glyph unicode="&#xab;" horiz-adv-x="978" d="M111 567v41l292 412l93 -74l-271 -358l271 -359l-93 -71zM483 567v41l293 412l92 -74l-270 -358l270 -359l-92 -71z" />
<glyph unicode="&#xac;" d="M111 563v119h944v-530h-119v411h-825z" />
<glyph unicode="&#xad;" horiz-adv-x="792" d="M135 467v119h522v-119h-522z" />
<glyph unicode="&#xae;" horiz-adv-x="776" d="M90 1188q0 124 87 211.5t212 87.5q123 0 210 -87.5t87 -211.5q0 -123 -87 -210t-210 -87q-124 0 -211.5 87t-87.5 210zM129 1188q0 -107 75.5 -182.5t184.5 -75.5q106 0 182 75.5t76 182.5q0 108 -76 184t-182 76q-109 0 -184.5 -75.5t-75.5 -184.5zM270 1026v328h146 q44 0 74 -28t30 -73q0 -33 -18 -58t-49 -36l79 -133h-55l-74 127h-86v-127h-47zM317 1196h101q22 0 37.5 16.5t15.5 40.5t-15.5 40t-37.5 16h-101v-113z" />
<glyph unicode="&#xaf;" horiz-adv-x="710" d="M88 1300v103h533v-103h-533z" />
<glyph unicode="&#xb0;" horiz-adv-x="784" d="M92 1186q0 124 88 212.5t213 88.5q123 0 211 -88.5t88 -212.5q0 -123 -88 -211t-211 -88q-124 0 -212.5 88t-88.5 211zM188 1186q0 -82 61 -142.5t144 -60.5t143 60.5t60 142.5q0 83 -60 144t-143 61t-144 -61t-61 -144z" />
<glyph unicode="&#xb1;" d="M61 0v119h1055v-119h-1055zM61 686v119h467v469h121v-469h467v-119h-467v-467h-121v467h-467z" />
<glyph unicode="&#xb2;" horiz-adv-x="925" d="M119 1479q118 192 344 192q135 0 221 -69.5t86 -184.5q0 -76 -38 -135.5t-109 -116.5q-46 -37 -129.5 -92.5t-139 -99t-78.5 -84.5h519v-111h-664v17q0 45 21 89t68.5 92t91 84.5t118.5 94.5q118 91 149 123q64 66 64 135q0 71 -52.5 110.5t-133.5 39.5t-143.5 -38 t-98.5 -106z" />
<glyph unicode="&#xb3;" horiz-adv-x="925" d="M115 948l100 60q35 -66 99.5 -102t144.5 -36q96 0 158.5 50.5t62.5 136.5q0 76 -50 124t-134 48q-54 0 -93 -27l-57 53l264 291h-456v109h608v-80l-232 -252q120 -5 198.5 -76.5t78.5 -185.5q0 -56 -21 -108t-61.5 -95.5t-109.5 -69.5t-156 -26q-237 0 -344 186z" />
<glyph unicode="&#xb4;" horiz-adv-x="663" d="M240 1219l252 352l100 -64l-225 -288h-127z" />
<glyph unicode="&#xb6;" horiz-adv-x="1124" d="M74 1055q0 183 117.5 295t289.5 112h475v-1648h-100v1562h-137v-1562h-103v833h-135q-176 0 -291.5 112.5t-115.5 295.5z" />
<glyph unicode="&#xb7;" horiz-adv-x="522" d="M154 526q0 45 32 78t76 33q43 0 75 -33.5t32 -77.5t-32 -75t-75 -31q-44 0 -76 31t-32 75z" />
<glyph unicode="&#xb8;" horiz-adv-x="663" d="M135 -262q48 -27 135 -27q63 0 94 24.5t31 61.5q0 35 -28 49h-97v103q29 16 80 16q64 0 113 -42.5t49 -117.5q0 -83 -61.5 -132.5t-163.5 -49.5q-76 0 -152 21v94z" />
<glyph unicode="&#xb9;" horiz-adv-x="737" d="M129 1487l272 168h99v-877h-119v735l-195 -114z" />
<glyph unicode="&#xba;" horiz-adv-x="856" d="M94 1135q0 154 90.5 252t243.5 98q151 0 242.5 -98.5t91.5 -251.5q0 -151 -91.5 -251t-242.5 -100q-152 0 -243 100t-91 251zM197 1135q0 -108 62.5 -180t168.5 -72t167.5 72t61.5 180q0 109 -61.5 180t-167.5 71t-168.5 -71t-62.5 -180z" />
<glyph unicode="&#xbb;" horiz-adv-x="978" d="M111 229l270 359l-270 358l92 74l293 -412v-41l-293 -409zM483 229l271 359l-271 358l92 74l293 -412v-41l-293 -409z" />
<glyph unicode="&#xbc;" horiz-adv-x="2138" d="M129 1294l272 168h99v-876h-119v735l-195 -115zM492 0l1007 1462h103l-1008 -1462h-102zM1319 207v98l438 572h131v-566h137v-104h-137v-207h-121v207h-448zM1434 311h335v418z" />
<glyph unicode="&#xbd;" horiz-adv-x="2220" d="M129 1294l272 168h99v-876h-119v735l-195 -115zM492 0l1007 1462h103l-1008 -1462h-102zM1413 700q119 193 344 193q135 0 221 -69.5t86 -184.5q0 -76 -38 -135.5t-109 -116.5q-45 -37 -129 -92.5t-138.5 -99t-78.5 -84.5h518v-111h-664v16q0 45 21.5 89.5t68 92.5 t90.5 85t119 94q118 91 149 123q64 65 64 135q0 71 -52.5 110t-133.5 39q-82 0 -144 -38t-98 -105z" />
<glyph unicode="&#xbe;" horiz-adv-x="2265" d="M115 756l100 59q35 -65 99.5 -101t144.5 -36q96 0 158.5 50t62.5 136q0 76 -50 124t-134 48q-56 0 -93 -26l-57 53l264 291h-456v108h608v-80l-232 -252q120 -5 198.5 -76.5t78.5 -185.5q0 -56 -21 -108t-61.5 -95.5t-109.5 -69.5t-156 -26q-237 0 -344 187zM598 0 l1008 1462h102l-1008 -1462h-102zM1446 207v98l438 572h131v-566h137v-104h-137v-207h-121v207h-448zM1561 311h335v418z" />
<glyph unicode="&#xbf;" horiz-adv-x="978" d="M113 -6q0 65 18.5 121t48.5 96t69 78.5t79 68t79 64.5t69 68.5t48.5 79.5t18.5 98v43h121v-31q0 -77 -22.5 -142.5t-58 -112.5t-79 -88.5t-87 -79t-79 -75.5t-58 -87t-22.5 -105q0 -100 67 -166t197 -66q182 0 332 150l82 -103q-189 -182 -420 -182q-177 0 -290 101.5 t-113 269.5zM483 856v199h197v-199h-197z" />
<glyph unicode="&#xc0;" horiz-adv-x="1374" d="M29 0l577 1462h164l576 -1462h-164l-170 446h-660l-172 -446h-151zM406 584h550l-268 729zM408 1851l100 64l252 -352h-127z" />
<glyph unicode="&#xc1;" horiz-adv-x="1374" d="M29 0l577 1462h164l576 -1462h-164l-170 446h-660l-172 -446h-151zM406 584h550l-268 729zM602 1563l252 352l100 -64l-225 -288h-127z" />
<glyph unicode="&#xc2;" horiz-adv-x="1374" d="M29 0l577 1462h164l576 -1462h-164l-170 446h-660l-172 -446h-151zM387 1581l246 337h113l245 -337h-127l-176 223l-174 -223h-127zM406 584h550l-268 729z" />
<glyph unicode="&#xc3;" horiz-adv-x="1374" d="M29 0l577 1462h164l576 -1462h-164l-170 446h-660l-172 -446h-151zM336 1651q29 67 88.5 111t142.5 44q65 0 146 -45q1 0 12 -6.5t12.5 -7t11.5 -5.5t13.5 -6.5t12 -5t13 -4.5t12.5 -3t14.5 -2.5t13.5 -0.5q76 0 127 86l88 -41q-25 -66 -85.5 -110.5t-142.5 -44.5 q-69 0 -149 45q-70 41 -113 41q-46 0 -78 -26t-49 -60zM406 584h550l-268 729z" />
<glyph unicode="&#xc4;" horiz-adv-x="1374" d="M29 0l577 1462h164l576 -1462h-164l-170 446h-660l-172 -446h-151zM406 584h550l-268 729zM432 1624v137h133v-137h-133zM811 1624v137h133v-137h-133z" />
<glyph unicode="&#xc5;" horiz-adv-x="1374" d="M29 0l557 1411q-82 55 -82 154q0 77 54 130.5t130 53.5t130 -53.5t54 -130.5q0 -99 -81 -154l555 -1411h-164l-170 446h-660l-172 -446h-151zM406 584h550l-268 729zM586 1565q0 -43 29.5 -73t72.5 -30t73 30t30 73t-30 72.5t-73 29.5t-72.5 -29.5t-29.5 -72.5z" />
<glyph unicode="&#xc6;" horiz-adv-x="1880" d="M-20 0l868 1462h897v-137h-678v-481h592v-135h-592v-572h698v-137h-845v446h-525l-262 -446h-153zM479 584h441v745z" />
<glyph unicode="&#xc7;" horiz-adv-x="1415" d="M106 731q0 216 84 388t241.5 271t361.5 99q172 0 308 -70t228 -196l-115 -88q-69 102 -177.5 158.5t-245.5 56.5q-243 0 -387 -169t-144 -450q0 -283 146 -450.5t395 -167.5q135 0 237 53t185 162l112 -90q-203 -265 -532 -265q-208 0 -367.5 98t-244.5 270t-85 390z M557 -262q48 -27 135 -27q63 0 94 24.5t31 61.5q0 35 -28 49h-97v103q29 16 80 16q64 0 113 -42.5t49 -117.5q0 -83 -61.5 -132.5t-163.5 -49.5q-76 0 -152 21v94z" />
<glyph unicode="&#xc8;" horiz-adv-x="1294" d="M195 0v1462h964v-137h-821v-481h731v-135h-731v-572h842v-137h-985zM449 1851l100 64l252 -352h-127z" />
<glyph unicode="&#xc9;" horiz-adv-x="1294" d="M195 0v1462h964v-137h-821v-481h731v-135h-731v-572h842v-137h-985zM582 1563l252 352l100 -64l-225 -288h-127z" />
<glyph unicode="&#xca;" horiz-adv-x="1294" d="M195 0v1462h964v-137h-821v-481h731v-135h-731v-572h842v-137h-985zM365 1581l245 338h113l246 -338h-127l-176 223l-174 -223h-127z" />
<glyph unicode="&#xcb;" horiz-adv-x="1294" d="M195 0v1462h964v-137h-821v-481h731v-135h-731v-572h842v-137h-985zM409 1624v137h134v-137h-134zM788 1624v137h133v-137h-133z" />
<glyph unicode="&#xcc;" horiz-adv-x="532" d="M-14 1851l100 64l252 -352h-127zM195 0v1462h143v-1462h-143z" />
<glyph unicode="&#xcd;" horiz-adv-x="532" d="M195 0v1462h143v-1462h-143zM195 1553l252 352l100 -64l-225 -288h-127z" />
<glyph unicode="&#xce;" horiz-adv-x="532" d="M-35 1563l246 337h113l245 -337h-127l-176 223l-174 -223h-127zM195 0v1462h143v-1462h-143z" />
<glyph unicode="&#xcf;" horiz-adv-x="532" d="M10 1624v137h133v-137h-133zM195 0v1462h143v-1462h-143zM389 1624v137h133v-137h-133z" />
<glyph unicode="&#xd0;" horiz-adv-x="1554" d="M102 692v121h123v649h553q211 0 363 -93.5t227.5 -257t75.5 -380.5q0 -216 -75.5 -379.5t-227.5 -257.5t-363 -94h-553v692h-123zM371 137h405q240 0 376 156.5t136 437.5q0 283 -135.5 438.5t-376.5 155.5h-405v-512h424v-121h-424v-555z" />
<glyph unicode="&#xd1;" horiz-adv-x="1517" d="M195 0v1462h180l805 -1231v1231h143v-1462h-158l-827 1266v-1266h-143zM412 1651q29 67 88.5 111t142.5 44q64 0 145 -45q1 0 12 -6.5t12.5 -7t11.5 -5.5t13.5 -6.5t12 -5t13 -4.5t12.5 -3t14.5 -2.5t13.5 -0.5q76 0 127 86l88 -41q-25 -66 -85 -110.5t-142 -44.5 q-70 0 -150 45q-70 41 -112 41q-46 0 -78 -26t-49 -60z" />
<glyph unicode="&#xd2;" horiz-adv-x="1585" d="M106 731q0 217 84 389t241.5 270.5t361.5 98.5t361 -98.5t241 -270.5t84 -389q0 -215 -84 -387t-241 -271.5t-361 -99.5t-361.5 99.5t-241.5 271.5t-84 387zM260 731q0 -279 144 -448.5t389 -169.5q244 0 388 169.5t144 448.5q0 280 -144 449.5t-388 169.5 q-246 0 -389.5 -169.5t-143.5 -449.5zM541 1851l100 64l252 -352h-127z" />
<glyph unicode="&#xd3;" horiz-adv-x="1585" d="M106 731q0 217 84 389t241.5 270.5t361.5 98.5t361 -98.5t241 -270.5t84 -389q0 -215 -84 -387t-241 -271.5t-361 -99.5t-361.5 99.5t-241.5 271.5t-84 387zM260 731q0 -279 144 -448.5t389 -169.5q244 0 388 169.5t144 448.5q0 280 -144 449.5t-388 169.5 q-246 0 -389.5 -169.5t-143.5 -449.5zM664 1563l252 352l100 -64l-225 -288h-127z" />
<glyph unicode="&#xd4;" horiz-adv-x="1585" d="M106 731q0 217 84 389t241.5 270.5t361.5 98.5t361 -98.5t241 -270.5t84 -389q0 -215 -84 -387t-241 -271.5t-361 -99.5t-361.5 99.5t-241.5 271.5t-84 387zM260 731q0 -279 144 -448.5t389 -169.5q244 0 388 169.5t144 448.5q0 280 -144 449.5t-388 169.5 q-246 0 -389.5 -169.5t-143.5 -449.5zM491 1581l246 337h113l245 -337h-127l-176 223l-174 -223h-127z" />
<glyph unicode="&#xd5;" horiz-adv-x="1585" d="M106 731q0 217 84 389t241.5 270.5t361.5 98.5t361 -98.5t241 -270.5t84 -389q0 -215 -84 -387t-241 -271.5t-361 -99.5t-361.5 99.5t-241.5 271.5t-84 387zM260 731q0 -279 144 -448.5t389 -169.5q244 0 388 169.5t144 448.5q0 280 -144 449.5t-388 169.5 q-246 0 -389.5 -169.5t-143.5 -449.5zM440 1651q29 67 89 111t143 44q64 0 145 -45q1 0 12 -6.5t12.5 -7t11.5 -5.5t13.5 -6.5t12 -5t13 -4.5t12.5 -3t14.5 -2.5t13.5 -0.5q76 0 127 86l88 -41q-25 -66 -85 -110.5t-142 -44.5q-70 0 -150 45q-70 41 -113 41q-46 0 -78 -26 t-49 -60z" />
<glyph unicode="&#xd6;" horiz-adv-x="1585" d="M106 731q0 217 84 389t241.5 270.5t361.5 98.5t361 -98.5t241 -270.5t84 -389q0 -215 -84 -387t-241 -271.5t-361 -99.5t-361.5 99.5t-241.5 271.5t-84 387zM260 731q0 -279 144 -448.5t389 -169.5q244 0 388 169.5t144 448.5q0 280 -144 449.5t-388 169.5 q-246 0 -389.5 -169.5t-143.5 -449.5zM537 1624v137h133v-137h-133zM915 1624v137h134v-137h-134z" />
<glyph unicode="&#xd7;" d="M59 84l447 442l-447 445l86 86l445 -447l442 447l86 -86l-444 -445l444 -442l-86 -88l-442 446l-445 -446z" />
<glyph unicode="&#xd8;" horiz-adv-x="1585" d="M106 731q0 217 84 389t241.5 270.5t361.5 98.5q219 0 387 -117l73 107l82 -58l-78 -112q106 -102 164 -251.5t58 -326.5q0 -215 -84 -387t-241 -271.5t-361 -99.5q-222 0 -390 117l-73 -106l-82 57l80 113q-106 103 -164 252t-58 325zM260 731q0 -289 150 -459l688 983 q-135 95 -305 95q-246 0 -389.5 -169.5t-143.5 -449.5zM485 207q126 -94 308 -94q244 0 388 169.5t144 448.5q0 286 -154 457z" />
<glyph unicode="&#xd9;" horiz-adv-x="1460" d="M178 522v940h144v-940q0 -185 109.5 -297t295.5 -112q187 0 299.5 112.5t112.5 296.5v940h143v-940q0 -162 -73 -288t-199 -193.5t-283 -67.5q-240 0 -394.5 152t-154.5 397zM459 1851l100 64l252 -352h-127z" />
<glyph unicode="&#xda;" horiz-adv-x="1460" d="M178 522v940h144v-940q0 -185 109.5 -297t295.5 -112q187 0 299.5 112.5t112.5 296.5v940h143v-940q0 -162 -73 -288t-199 -193.5t-283 -67.5q-240 0 -394.5 152t-154.5 397zM623 1563l252 352l100 -64l-225 -288h-127z" />
<glyph unicode="&#xdb;" horiz-adv-x="1460" d="M178 522v940h144v-940q0 -185 109.5 -297t295.5 -112q187 0 299.5 112.5t112.5 296.5v940h143v-940q0 -162 -73 -288t-199 -193.5t-283 -67.5q-240 0 -394.5 152t-154.5 397zM428 1581l246 337h113l245 -337h-127l-176 223l-174 -223h-127z" />
<glyph unicode="&#xdc;" horiz-adv-x="1460" d="M178 522v940h144v-940q0 -185 109.5 -297t295.5 -112q187 0 299.5 112.5t112.5 296.5v940h143v-940q0 -162 -73 -288t-199 -193.5t-283 -67.5q-240 0 -394.5 152t-154.5 397zM473 1624v137h133v-137h-133zM852 1624v137h133v-137h-133z" />
<glyph unicode="&#xdd;" horiz-adv-x="1228" d="M20 1462h173l428 -708l423 708h166l-520 -852v-610h-149v610zM514 1563l252 352l100 -64l-225 -288h-127z" />
<glyph unicode="&#xde;" horiz-adv-x="1296" d="M195 0v1462h143v-205h403q236 0 363 -113.5t127 -305.5t-127 -305t-363 -113h-403v-420h-143zM338 557h405q168 0 252 75t84 206t-84 206.5t-252 75.5h-405v-563z" />
<glyph unicode="&#xdf;" horiz-adv-x="1218" d="M176 0v1069q0 190 124 303t316 113q115 0 211 -41.5t155.5 -125.5t59.5 -196q0 -206 -206 -321q55 -18 100 -46.5t85 -73t62.5 -111t22.5 -148.5q0 -199 -126 -320.5t-335 -121.5q-146 0 -225 45l51 114q71 -41 180 -41q147 0 233.5 90.5t86.5 237.5q0 153 -96.5 228 t-266.5 75h-108v119h110q127 0 213 69t86 195q0 66 -25.5 117t-68.5 79.5t-94 43t-107 14.5q-135 0 -221 -77.5t-86 -219.5v-1069h-131z" />
<glyph unicode="&#xe0;" horiz-adv-x="1091" d="M96 295q0 59 15.5 106t45 79t61 54t76 37t75 22.5t73.5 14.5q17 3 53.5 8.5t56.5 9t53 10t52 13t45 16.5t40.5 22t29 28t21 36t6.5 44q0 57 -38.5 94.5t-91 51t-116.5 13.5q-89 0 -180 -28t-156 -84l-67 102q80 63 185.5 99t221.5 36q172 0 272.5 -79.5t100.5 -229.5 v-770h-131v139q-112 -164 -338 -164q-167 0 -266 86t-99 234zM233 303q0 -103 68.5 -152t173.5 -49q64 0 120.5 18.5t103 55t73.5 99.5t27 145v174q-20 -15 -48 -27.5t-49 -20.5t-60.5 -17t-56 -12t-63 -11t-55.5 -10q-58 -11 -95 -22.5t-71.5 -32.5t-51 -55t-16.5 -83z M269 1507l100 64l252 -352h-127z" />
<glyph unicode="&#xe1;" horiz-adv-x="1091" d="M96 295q0 59 15.5 106t45 79t61 54t76 37t75 22.5t73.5 14.5q17 3 53.5 8.5t56.5 9t53 10t52 13t45 16.5t40.5 22t29 28t21 36t6.5 44q0 57 -38.5 94.5t-91 51t-116.5 13.5q-89 0 -180 -28t-156 -84l-67 102q80 63 185.5 99t221.5 36q172 0 272.5 -79.5t100.5 -229.5 v-770h-131v139q-112 -164 -338 -164q-167 0 -266 86t-99 234zM233 303q0 -103 68.5 -152t173.5 -49q64 0 120.5 18.5t103 55t73.5 99.5t27 145v174q-20 -15 -48 -27.5t-49 -20.5t-60.5 -17t-56 -12t-63 -11t-55.5 -10q-58 -11 -95 -22.5t-71.5 -32.5t-51 -55t-16.5 -83z M418 1219l252 352l100 -64l-225 -288h-127z" />
<glyph unicode="&#xe2;" horiz-adv-x="1091" d="M96 295q0 59 15.5 106t45 79t61 54t76 37t75 22.5t73.5 14.5q17 3 53.5 8.5t56.5 9t53 10t52 13t45 16.5t40.5 22t29 28t21 36t6.5 44q0 57 -38.5 94.5t-91 51t-116.5 13.5q-89 0 -180 -28t-156 -84l-67 102q80 63 185.5 99t221.5 36q172 0 272.5 -79.5t100.5 -229.5 v-770h-131v139q-112 -164 -338 -164q-167 0 -266 86t-99 234zM233 303q0 -103 68.5 -152t173.5 -49q64 0 120.5 18.5t103 55t73.5 99.5t27 145v174q-20 -15 -48 -27.5t-49 -20.5t-60.5 -17t-56 -12t-63 -11t-55.5 -10q-58 -11 -95 -22.5t-71.5 -32.5t-51 -55t-16.5 -83z M237 1219l246 337h113l245 -337h-127l-176 223l-174 -223h-127z" />
<glyph unicode="&#xe3;" horiz-adv-x="1091" d="M96 295q0 59 15.5 106t45 79t61 54t76 37t75 22.5t73.5 14.5q17 3 53.5 8.5t56.5 9t53 10t52 13t45 16.5t40.5 22t29 28t21 36t6.5 44q0 57 -38.5 94.5t-91 51t-116.5 13.5q-89 0 -180 -28t-156 -84l-67 102q80 63 185.5 99t221.5 36q172 0 272.5 -79.5t100.5 -229.5 v-770h-131v139q-112 -164 -338 -164q-167 0 -266 86t-99 234zM182 1307q29 67 89 111t143 44q64 0 145 -45q1 0 12 -6.5t12.5 -7t11.5 -5.5t13.5 -6.5t12 -5t13 -4.5t12.5 -3t14.5 -2.5t13.5 -0.5q76 0 127 86l88 -41q-25 -66 -85 -110.5t-142 -44.5q-70 0 -150 45 q-70 41 -113 41q-46 0 -78 -26t-49 -60zM233 303q0 -103 68.5 -152t173.5 -49q64 0 120.5 18.5t103 55t73.5 99.5t27 145v174q-20 -15 -48 -27.5t-49 -20.5t-60.5 -17t-56 -12t-63 -11t-55.5 -10q-58 -11 -95 -22.5t-71.5 -32.5t-51 -55t-16.5 -83z" />
<glyph unicode="&#xe4;" horiz-adv-x="1091" d="M96 295q0 59 15.5 106t45 79t61 54t76 37t75 22.5t73.5 14.5q17 3 53.5 8.5t56.5 9t53 10t52 13t45 16.5t40.5 22t29 28t21 36t6.5 44q0 57 -38.5 94.5t-91 51t-116.5 13.5q-89 0 -180 -28t-156 -84l-67 102q80 63 185.5 99t221.5 36q172 0 272.5 -79.5t100.5 -229.5 v-770h-131v139q-112 -164 -338 -164q-167 0 -266 86t-99 234zM233 303q0 -103 68.5 -152t173.5 -49q64 0 120.5 18.5t103 55t73.5 99.5t27 145v174q-20 -15 -48 -27.5t-49 -20.5t-60.5 -17t-56 -12t-63 -11t-55.5 -10q-58 -11 -95 -22.5t-71.5 -32.5t-51 -55t-16.5 -83z M281 1280v137h133v-137h-133zM659 1280v137h134v-137h-134z" />
<glyph unicode="&#xe5;" horiz-adv-x="1091" d="M96 295q0 59 15.5 106t45 79t61 54t76 37t75 22.5t73.5 14.5q17 3 53.5 8.5t56.5 9t53 10t52 13t45 16.5t40.5 22t29 28t21 36t6.5 44q0 57 -38.5 94.5t-91 51t-116.5 13.5q-89 0 -180 -28t-156 -84l-67 102q80 63 185.5 99t221.5 36q172 0 272.5 -79.5t100.5 -229.5 v-770h-131v139q-112 -164 -338 -164q-167 0 -266 86t-99 234zM233 303q0 -103 68.5 -152t173.5 -49q64 0 120.5 18.5t103 55t73.5 99.5t27 145v174q-20 -15 -48 -27.5t-49 -20.5t-60.5 -17t-56 -12t-63 -11t-55.5 -10q-58 -11 -95 -22.5t-71.5 -32.5t-51 -55t-16.5 -83z M366 1305q0 76 54 130t131 54t130.5 -53.5t53.5 -130.5t-54 -131t-130 -54q-77 0 -131 54t-54 131zM448 1305q0 -43 30 -73t73 -30t72.5 30t29.5 73t-29.5 72.5t-72.5 29.5t-73 -29.5t-30 -72.5z" />
<glyph unicode="&#xe6;" horiz-adv-x="1845" d="M96 295q0 59 15.5 106t45 79t61 54t76 37t75 22.5t73.5 14.5q17 3 53.5 8.5t56.5 9t53 10t52 13t45 16.5t40.5 22t29 28t21 36t6.5 44q0 57 -38.5 94.5t-91 51t-116.5 13.5q-89 0 -180 -28t-156 -84l-67 102q80 63 185.5 99t221.5 36q130 0 221 -47t129 -137 q134 184 377 184q214 0 344.5 -138.5t130.5 -352.5q0 -40 -4 -76h-825q0 -188 104 -299t271 -111q93 0 174.5 37.5t138.5 110.5l94 -84q-156 -191 -416 -191q-145 0 -252.5 62t-169.5 172q-119 -234 -401 -234q-175 0 -276 85.5t-101 234.5zM233 303q0 -103 68.5 -152 t173.5 -49q64 0 120.5 18.5t103 55t73.5 99.5t27 145v174q-20 -15 -48 -27.5t-49 -20.5t-60.5 -17t-56 -12t-63 -11t-55.5 -10q-58 -11 -95 -22.5t-71.5 -32.5t-51 -55t-16.5 -83zM934 625h686q-10 163 -105.5 246t-234.5 83q-148 0 -241 -91t-105 -238z" />
<glyph unicode="&#xe7;" horiz-adv-x="1081" d="M100 528q0 156 60.5 281t175.5 197.5t264 72.5q128 0 231 -54t170 -151l-102 -75q-105 153 -295 153q-165 0 -264.5 -118t-99.5 -306q0 -189 98.5 -307.5t263.5 -118.5q193 0 299 158l103 -76q-68 -98 -172.5 -153.5t-233.5 -55.5q-148 0 -262.5 73t-175 198.5 t-60.5 281.5zM344 -262q48 -27 135 -27q63 0 94 24.5t31 61.5q0 35 -28 49h-97v103q29 16 80 16q64 0 113 -42.5t49 -117.5q0 -83 -61.5 -132.5t-163.5 -49.5q-76 0 -152 21v94z" />
<glyph unicode="&#xe8;" horiz-adv-x="1187" d="M100 524q0 156 58 281.5t171.5 199.5t264.5 74q214 0 344.5 -138.5t130.5 -352.5q0 -40 -4 -76h-825q0 -188 103.5 -299t270.5 -111q93 0 175 37.5t139 110.5l94 -84q-156 -191 -416 -191q-156 0 -272 72.5t-175 196t-59 280.5zM244 625h686q-10 163 -105.5 246 t-234.5 83q-148 0 -241 -91t-105 -238zM328 1507l100 64l252 -352h-127z" />
<glyph unicode="&#xe9;" horiz-adv-x="1187" d="M100 524q0 156 58 281.5t171.5 199.5t264.5 74q214 0 344.5 -138.5t130.5 -352.5q0 -40 -4 -76h-825q0 -188 103.5 -299t270.5 -111q93 0 175 37.5t139 110.5l94 -84q-156 -191 -416 -191q-156 0 -272 72.5t-175 196t-59 280.5zM244 625h686q-10 163 -105.5 246 t-234.5 83q-148 0 -241 -91t-105 -238zM467 1219l252 352l100 -64l-225 -288h-127z" />
<glyph unicode="&#xea;" horiz-adv-x="1161" d="M100 524q0 156 58 281.5t171.5 199.5t264.5 74q214 0 344.5 -138.5t130.5 -352.5q0 -40 -4 -76h-825q0 -188 103.5 -299t270.5 -111q93 0 175 37.5t139 110.5l94 -84q-156 -191 -416 -191q-156 0 -272 72.5t-175 196t-59 280.5zM244 625h686q-10 163 -105.5 246 t-234.5 83q-148 0 -241 -91t-105 -238zM283 1219l246 337h113l245 -337h-127l-176 223l-174 -223h-127z" />
<glyph unicode="&#xeb;" horiz-adv-x="1161" d="M100 524q0 156 58 281.5t171.5 199.5t264.5 74q214 0 344.5 -138.5t130.5 -352.5q0 -40 -4 -76h-825q0 -188 103.5 -299t270.5 -111q93 0 175 37.5t139 110.5l94 -84q-156 -191 -416 -191q-156 0 -272 72.5t-175 196t-59 280.5zM244 625h686q-10 163 -105.5 246 t-234.5 83q-148 0 -241 -91t-105 -238zM328 1280v137h133v-137h-133zM707 1280v137h133v-137h-133z" />
<glyph unicode="&#xec;" horiz-adv-x="471" d="M-32 1507l100 64l252 -352h-127zM170 0v1055h131v-1055h-131z" />
<glyph unicode="&#xed;" horiz-adv-x="471" d="M152 1219l252 352l100 -64l-225 -288h-127zM170 0v1055h131v-1055h-131z" />
<glyph unicode="&#xee;" horiz-adv-x="471" d="M-66 1219l246 337h113l245 -337h-127l-176 223l-174 -223h-127zM170 0v1055h131v-1055h-131z" />
<glyph unicode="&#xef;" horiz-adv-x="471" d="M-20 1280v137h133v-137h-133zM170 0v1055h131v-1055h-131zM358 1280v137h134v-137h-134z" />
<glyph unicode="&#xf0;" horiz-adv-x="1200" d="M100 475q0 215 132 347t327 132q125 0 232.5 -55.5t164.5 -150.5q0 145 -37 272t-112 211l-315 -176v102l245 137q-100 68 -233 68q-147 0 -264 -82l-62 113q132 96 328 96q214 0 356 -125l223 125v-103l-159 -90l28 -39q136 -208 136 -563q0 -346 -134.5 -533.5 t-371.5 -187.5q-215 0 -349.5 143t-134.5 359zM242 467q0 -164 90.5 -263.5t242.5 -99.5q161 0 254 109t93 270q0 159 -92 249.5t-248 90.5q-166 0 -253 -99.5t-87 -256.5z" />
<glyph unicode="&#xf1;" horiz-adv-x="1189" d="M170 0v1055h131v-172q60 92 154.5 144t212.5 52q167 0 265.5 -104.5t98.5 -296.5v-678h-131v647q0 305 -252 305q-150 0 -249 -103t-99 -265v-584h-131zM262 1307q29 67 89 111t143 44q64 0 145 -45q1 0 12 -6.5t12.5 -7t11.5 -5.5t13.5 -6.5t12 -5t13 -4.5t12.5 -3 t14.5 -2.5t13.5 -0.5q76 0 127 86l88 -41q-25 -66 -85.5 -110.5t-142.5 -44.5q-69 0 -149 45q-70 41 -113 41q-46 0 -78 -26t-49 -60z" />
<glyph unicode="&#xf2;" horiz-adv-x="1183" d="M100 526q0 157 59 282.5t171.5 198t259.5 72.5q223 0 358 -156t135 -397q0 -156 -59.5 -280.5t-172.5 -197.5t-261 -73q-221 0 -355.5 156.5t-134.5 394.5zM240 526q0 -183 94.5 -304.5t255.5 -121.5q162 0 257 121.5t95 304.5q0 186 -94.5 307t-257.5 121 q-161 0 -255.5 -121t-94.5 -307zM318 1507l100 64l252 -352h-127z" />
<glyph unicode="&#xf3;" horiz-adv-x="1183" d="M100 526q0 157 59 282.5t171.5 198t259.5 72.5q223 0 358 -156t135 -397q0 -156 -59.5 -280.5t-172.5 -197.5t-261 -73q-221 0 -355.5 156.5t-134.5 394.5zM240 526q0 -183 94.5 -304.5t255.5 -121.5q162 0 257 121.5t95 304.5q0 186 -94.5 307t-257.5 121 q-161 0 -255.5 -121t-94.5 -307zM459 1219l252 352l100 -64l-225 -288h-127z" />
<glyph unicode="&#xf4;" horiz-adv-x="1183" d="M100 526q0 157 59 282.5t171.5 198t259.5 72.5q223 0 358 -156t135 -397q0 -156 -59.5 -280.5t-172.5 -197.5t-261 -73q-221 0 -355.5 156.5t-134.5 394.5zM240 526q0 -183 94.5 -304.5t255.5 -121.5q162 0 257 121.5t95 304.5q0 186 -94.5 307t-257.5 121 q-161 0 -255.5 -121t-94.5 -307zM291 1219l246 337h113l245 -337h-127l-176 223l-174 -223h-127z" />
<glyph unicode="&#xf5;" horiz-adv-x="1183" d="M100 526q0 157 59 282.5t171.5 198t259.5 72.5q223 0 358 -156t135 -397q0 -156 -59.5 -280.5t-172.5 -197.5t-261 -73q-221 0 -355.5 156.5t-134.5 394.5zM240 526q0 -183 94.5 -304.5t255.5 -121.5q162 0 257 121.5t95 304.5q0 186 -94.5 307t-257.5 121 q-161 0 -255.5 -121t-94.5 -307zM240 1307q29 67 88.5 111t142.5 44q64 0 145 -45q1 0 12 -6.5t12.5 -7t11.5 -5.5t13.5 -6.5t12 -5t13 -4.5t12.5 -3t14.5 -2.5t13.5 -0.5q76 0 127 86l88 -41q-25 -66 -85 -110.5t-142 -44.5q-70 0 -150 45q-70 41 -112 41q-46 0 -78 -26 t-49 -60z" />
<glyph unicode="&#xf6;" horiz-adv-x="1183" d="M100 526q0 157 59 282.5t171.5 198t259.5 72.5q223 0 358 -156t135 -397q0 -156 -59.5 -280.5t-172.5 -197.5t-261 -73q-221 0 -355.5 156.5t-134.5 394.5zM240 526q0 -183 94.5 -304.5t255.5 -121.5q162 0 257 121.5t95 304.5q0 186 -94.5 307t-257.5 121 q-161 0 -255.5 -121t-94.5 -307zM336 1280v137h133v-137h-133zM715 1280v137h133v-137h-133z" />
<glyph unicode="&#xf7;" d="M61 467v119h1055v-119h-1055zM479 109q0 45 33 78.5t78 33.5q44 0 76 -33.5t32 -78.5q0 -43 -32 -76t-76 -33q-45 0 -78 33t-33 76zM479 946q0 43 33 76t78 33q44 0 76 -33t32 -76q0 -46 -32 -78t-76 -32q-46 0 -78.5 32t-32.5 78z" />
<glyph unicode="&#xf8;" horiz-adv-x="1183" d="M100 526q0 157 59 282.5t171.5 198t259.5 72.5q151 0 270 -80l51 74l84 -57l-57 -82q145 -158 145 -408q0 -156 -59.5 -280.5t-172.5 -197.5t-261 -73q-150 0 -268 78l-52 -71l-84 57l58 82q-69 74 -106.5 178.5t-37.5 226.5zM240 526q0 -174 84 -290l460 657 q-83 61 -194 61q-161 0 -255.5 -121t-94.5 -307zM395 162q84 -62 195 -62q162 0 257 121.5t95 304.5q0 177 -84 293z" />
<glyph unicode="&#xf9;" horiz-adv-x="1187" d="M156 377v678h131v-647q0 -306 252 -306q150 0 249 103.5t99 265.5v584h131v-1055h-131v172q-60 -92 -154.5 -144.5t-212.5 -52.5q-167 0 -265.5 104.5t-98.5 297.5zM316 1507l100 64l252 -352h-127z" />
<glyph unicode="&#xfa;" horiz-adv-x="1187" d="M156 377v678h131v-647q0 -306 252 -306q150 0 249 103.5t99 265.5v584h131v-1055h-131v172q-60 -92 -154.5 -144.5t-212.5 -52.5q-167 0 -265.5 104.5t-98.5 297.5zM480 1219l252 352l100 -64l-225 -288h-127z" />
<glyph unicode="&#xfb;" horiz-adv-x="1187" d="M156 377v678h131v-647q0 -306 252 -306q150 0 249 103.5t99 265.5v584h131v-1055h-131v172q-60 -92 -154.5 -144.5t-212.5 -52.5q-167 0 -265.5 104.5t-98.5 297.5zM285 1219l246 337h113l245 -337h-127l-176 223l-174 -223h-127z" />
<glyph unicode="&#xfc;" horiz-adv-x="1187" d="M156 377v678h131v-647q0 -306 252 -306q150 0 249 103.5t99 265.5v584h131v-1055h-131v172q-60 -92 -154.5 -144.5t-212.5 -52.5q-167 0 -265.5 104.5t-98.5 297.5zM330 1280v137h133v-137h-133zM709 1280v137h133v-137h-133z" />
<glyph unicode="&#xfd;" horiz-adv-x="1040" d="M35 1055h147l340 -889l336 889h143l-434 -1088q-39 -98 -68.5 -157t-66 -104.5t-78.5 -64t-98 -18.5q-64 0 -111 21l33 112q25 -14 64 -14q62 0 107.5 53.5t103.5 204.5zM430 1219l252 352l100 -64l-225 -288h-127z" />
<glyph unicode="&#xfe;" horiz-adv-x="1255" d="M170 -356v1818h131v-588q64 104 163.5 154.5t213.5 50.5q143 0 252.5 -73t167 -197.5t57.5 -280.5t-58 -281.5t-167.5 -198.5t-251.5 -73q-114 0 -213 51t-164 154v-536h-131zM301 526q0 -185 96.5 -304.5t266.5 -119.5t261 118.5t91 305.5q0 121 -37.5 215.5 t-118.5 152.5t-196 58q-114 0 -198 -58t-124.5 -153t-40.5 -215z" />
<glyph unicode="&#xff;" horiz-adv-x="1040" d="M35 1055h147l340 -889l336 889h143l-434 -1088q-39 -98 -68.5 -157t-66 -104.5t-78.5 -64t-98 -18.5q-64 0 -111 21l33 112q25 -14 64 -14q62 0 107.5 53.5t103.5 204.5zM262 1280v137h134v-137h-134zM641 1280v137h133v-137h-133z" />
<glyph unicode="&#x152;" horiz-adv-x="2201" d="M106 731q0 217 84 389t241.5 270.5t361.5 98.5q93 0 196 -27h1077v-137h-827q199 -177 234 -481h503v-135h-497q-4 -177 -67.5 -325t-174.5 -247h850v-137h-1098q-103 -27 -196 -27q-204 0 -361.5 99.5t-241.5 271.5t-84 387zM260 731q0 -279 144 -448.5t389 -169.5 q244 0 388 169.5t144 448.5q0 280 -144 449.5t-388 169.5q-246 0 -389.5 -169.5t-143.5 -449.5z" />
<glyph unicode="&#x153;" horiz-adv-x="2002" d="M100 526q0 157 59 282.5t171.5 198t259.5 72.5q142 0 251 -72t169 -196q59 125 167.5 196.5t258.5 71.5q214 0 344.5 -138.5t130.5 -352.5q0 -40 -4 -76h-826q0 -188 104 -299t271 -111q93 0 174.5 37.5t138.5 110.5l95 -84q-156 -191 -416 -191q-156 0 -267.5 70 t-170.5 195q-60 -122 -170 -193.5t-250 -71.5q-221 0 -355.5 156.5t-134.5 394.5zM240 526q0 -183 94.5 -304.5t255.5 -121.5q162 0 257 121.5t95 304.5q0 186 -94.5 307t-257.5 121q-161 0 -255.5 -121t-94.5 -307zM1085 625h687q-10 163 -105.5 246t-234.5 83 q-148 0 -241.5 -91t-105.5 -238z" />
<glyph unicode="&#x178;" horiz-adv-x="1228" d="M20 1462h173l428 -708l423 708h166l-520 -852v-610h-149v610zM358 1624v137h134v-137h-134zM737 1624v137h133v-137h-133z" />
<glyph unicode="&#x2c6;" horiz-adv-x="710" d="M47 1219l246 337h113l245 -337h-127l-176 223l-174 -223h-127z" />
<glyph unicode="&#x2dc;" horiz-adv-x="792" d="M43 1307q29 67 88.5 111t142.5 44q65 0 146 -45q1 0 12 -6.5t12.5 -7t11.5 -5.5t13.5 -6.5t12 -5t13 -4.5t12.5 -3t14.5 -2.5t13.5 -0.5q76 0 127 86l88 -41q-25 -66 -85.5 -110.5t-142.5 -44.5q-69 0 -149 45q-70 41 -113 41q-46 0 -78 -26t-49 -60z" />
<glyph unicode="&#x2000;" horiz-adv-x="959" />
<glyph unicode="&#x2001;" horiz-adv-x="1919" />
<glyph unicode="&#x2002;" horiz-adv-x="959" />
<glyph unicode="&#x2003;" horiz-adv-x="1919" />
<glyph unicode="&#x2004;" horiz-adv-x="639" />
<glyph unicode="&#x2005;" horiz-adv-x="479" />
<glyph unicode="&#x2006;" horiz-adv-x="319" />
<glyph unicode="&#x2007;" horiz-adv-x="319" />
<glyph unicode="&#x2008;" horiz-adv-x="239" />
<glyph unicode="&#x2009;" horiz-adv-x="383" />
<glyph unicode="&#x200a;" horiz-adv-x="106" />
<glyph unicode="&#x2010;" horiz-adv-x="792" d="M135 467v119h522v-119h-522z" />
<glyph unicode="&#x2011;" horiz-adv-x="792" d="M135 467v119h522v-119h-522z" />
<glyph unicode="&#x2012;" horiz-adv-x="792" d="M135 467v119h522v-119h-522z" />
<glyph unicode="&#x2013;" d="M61 467v119h1055v-119h-1055z" />
<glyph unicode="&#x2014;" horiz-adv-x="1884" d="M127 467v119h1630v-119h-1630z" />
<glyph unicode="&#x2018;" horiz-adv-x="438" d="M127 1014v141q0 181 137 334l53 -47q-102 -113 -102 -244v-27h92v-157h-180z" />
<glyph unicode="&#x2019;" horiz-adv-x="409" d="M115 1034q102 113 102 244v27h-92v157h180v-141q0 -181 -137 -334z" />
<glyph unicode="&#x201a;" horiz-adv-x="491" d="M145 -207q103 97 103 203v4h-92v168h180v-129q0 -159 -137 -293z" />
<glyph unicode="&#x201c;" horiz-adv-x="790" d="M127 1014v141q0 181 137 334l53 -47q-102 -113 -102 -244v-27h92v-157h-180zM479 1014v141q0 181 137 334l54 -47q-103 -114 -103 -244v-27h92v-157h-180z" />
<glyph unicode="&#x201d;" horiz-adv-x="761" d="M115 1034q102 113 102 244v27h-92v157h180v-141q0 -181 -137 -334zM467 1034q102 113 102 244v27h-92v157h180v-141q0 -181 -137 -334z" />
<glyph unicode="&#x201e;" horiz-adv-x="780" d="M145 -207q103 97 103 203v4h-92v168h180v-129q0 -159 -137 -293zM434 -207q105 96 105 203v4h-93v168h179v-129q0 -157 -136 -293z" />
<glyph unicode="&#x2022;" horiz-adv-x="745" d="M113 731q0 110 76 187t184 77t184 -77t76 -187q0 -109 -76.5 -185.5t-183.5 -76.5t-183.5 76.5t-76.5 185.5z" />
<glyph unicode="&#x2026;" horiz-adv-x="1341" d="M152 0v176h176v-176h-176zM582 0v176h176v-176h-176zM1014 0v176h176v-176h-176z" />
<glyph unicode="&#x202f;" horiz-adv-x="383" />
<glyph unicode="&#x2039;" horiz-adv-x="606" d="M111 567v41l292 412l93 -74l-271 -358l271 -359l-93 -71z" />
<glyph unicode="&#x203a;" horiz-adv-x="606" d="M111 229l270 359l-270 358l92 74l293 -412v-41l-293 -409z" />
<glyph unicode="&#x205f;" horiz-adv-x="479" />
<glyph unicode="&#x20ac;" d="M0 549v96h137q-4 32 -4 78q0 59 6 94h-139v96h152q50 262 211.5 419t394.5 157q213 0 354 -115l-78 -110q-117 88 -270 88q-176 0 -297.5 -117.5t-163.5 -321.5h578v-96h-592q-6 -43 -6 -90q0 -46 4 -82h594v-96h-580q41 -208 160 -323t284 -115q182 0 287 116l94 -94 q-139 -160 -381 -160q-233 0 -391.5 156.5t-203.5 419.5h-150z" />
<glyph unicode="&#x2122;" horiz-adv-x="1296" d="M92 1384v78h451v-78h-187v-450h-84v450h-180zM598 934v528h131l154 -452l155 452h127v-528h-82v438l-149 -438h-107l-149 438v-438h-80z" />
<glyph unicode="&#xe000;" horiz-adv-x="1054" d="M0 0v1055h1055v-1055h-1055z" />
</font>
</defs>
</svg>
