<?xml version="1.0" standalone="no"?>
<!DOCTYPE svg PUBLIC "-//W3C//DTD SVG 1.1//EN" "http://www.w3.org/Graphics/SVG/1.1/DTD/svg11.dtd" >
<svg xmlns="http://www.w3.org/2000/svg">
<metadata></metadata>
<defs>
<font id="sq_market_lightbold_italic" horiz-adv-x="1179" >
<font-face units-per-em="2048" ascent="1638" descent="-410" />
<missing-glyph horiz-adv-x="552" />
<glyph unicode="&#xfb01;" horiz-adv-x="1245" d="M86 0l188 883h-174l41 198h174l27 121q33 145 122.5 215t254.5 70q109 0 186 -29l-69 -196q-46 24 -115 24q-57 0 -86.5 -23.5t-40.5 -74.5l-25 -107h222l-41 -198h-226l-184 -883h-254zM733 0l230 1081h251l-227 -1081h-254zM995 1237l49 225h252l-49 -225h-252z" />
<glyph unicode="&#xfb02;" horiz-adv-x="1245" d="M86 0l188 883h-174l41 198h174l27 121q33 145 122.5 215t254.5 70q109 0 186 -29l-69 -196q-46 24 -115 24q-57 0 -86.5 -23.5t-40.5 -74.5l-25 -107h222l-41 -198h-226l-184 -883h-254zM733 0l311 1462h250l-309 -1462h-252z" />
<glyph horiz-adv-x="0" />
<glyph horiz-adv-x="682" />
<glyph horiz-adv-x="0" />
<glyph horiz-adv-x="0" />
<glyph horiz-adv-x="552" />
<glyph unicode="&#xd;" horiz-adv-x="387" />
<glyph unicode=" "  horiz-adv-x="552" />
<glyph unicode="&#x09;" horiz-adv-x="552" />
<glyph unicode="&#xa0;" horiz-adv-x="552" />
<glyph unicode="!" horiz-adv-x="602" d="M23 0l61 283h285l-62 -283h-284zM213 457l29 518q74 382 98 487h270l-73 -348l-224 -657h-100z" />
<glyph unicode="&#x22;" horiz-adv-x="860" d="M182 881l125 581h205l-123 -581h-207zM567 881l125 581h205l-123 -581h-207z" />
<glyph unicode="#" horiz-adv-x="1263" d="M63 0l156 406h-149l32 149h174l138 354h-238l33 148h262l156 405h166l-156 -405h278l160 405h164l-158 -405h152l-33 -148h-176l-135 -354h237l-32 -149h-265l-155 -406h-164l158 406h-281l-158 -406h-166zM444 555h281l135 354h-280z" />
<glyph unicode="$" d="M-20 293l196 106q66 -155 250 -202l96 448q-93 40 -155 77t-110.5 85t-70.5 108.5t-22 139.5q0 196 132.5 311t348.5 115q35 0 55 -2l17 86h117l-23 -105q110 -26 199 -91t143 -159l-188 -110q-65 110 -197 155l-86 -409q92 -40 154.5 -77.5t115 -88t78 -115.5t25.5 -147 q0 -192 -141.5 -316.5t-387.5 -124.5h-30l-21 -96h-115l23 109q-139 26 -243.5 104t-159.5 199zM408 1085q0 -66 39 -108.5t126 -85.5l82 381q-10 0 -14 2q-104 0 -168.5 -48.5t-64.5 -140.5zM539 182q125 0 199.5 57t74.5 162q0 67 -41.5 110.5t-140.5 94.5z" />
<glyph unicode="%" horiz-adv-x="1701" d="M166 0l1233 1462h194l-1233 -1462h-194zM203 1104q0 155 101.5 265t260.5 110q137 0 222 -91t85 -227q0 -156 -101.5 -265.5t-258.5 -109.5q-140 0 -224.5 90.5t-84.5 227.5zM379 1114q0 -73 36.5 -118.5t104.5 -45.5q78 0 127 58.5t49 142.5q0 73 -37 117.5t-106 44.5 q-77 0 -125.5 -58.5t-48.5 -140.5zM891 301q0 157 101.5 266t258.5 109q140 0 224 -91t84 -229q0 -154 -101 -263t-260 -109q-137 0 -222 91t-85 226zM1067 311q0 -72 36.5 -118t104.5 -46q80 0 129 58.5t49 142.5q0 73 -37.5 118.5t-105.5 45.5q-79 0 -127.5 -59 t-48.5 -142z" />
<glyph unicode="&#x26;" horiz-adv-x="1355" d="M47 385q0 160 97.5 273.5t285.5 193.5q-84 139 -84 272q0 157 107 261t278 104q147 0 240.5 -81t93.5 -222q0 -132 -85 -228t-249 -176l242 -370q62 67 112 159l175 -110q-73 -123 -173 -223l158 -238h-280l-60 92q-183 -119 -391 -119q-207 0 -337 110.5t-130 301.5z M305 406q0 -99 64.5 -161.5t177.5 -62.5q125 0 250 82l-267 418q-225 -101 -225 -276zM573 1133q0 -95 66 -191q113 59 157 115.5t44 118.5q0 59 -30 94t-87 35q-69 0 -109.5 -50t-40.5 -122z" />
<glyph unicode="'" horiz-adv-x="475" d="M182 881l125 581h205l-123 -581h-207z" />
<glyph unicode="(" horiz-adv-x="659" d="M68 541q0 363 174 650.5t489 457.5l82 -160q-258 -157 -395 -410t-137 -561q0 -209 63.5 -381.5t161.5 -292.5l-137 -127q-133 149 -217 359.5t-84 464.5z" />
<glyph unicode=")" horiz-adv-x="669" d="M-150 -123q268 156 408.5 408.5t140.5 562.5q0 209 -67.5 381t-171.5 293l137 127q139 -151 227 -360t88 -464q0 -365 -177 -651t-503 -457z" />
<glyph unicode="*" horiz-adv-x="897" d="M197 1141l32 155q74 -18 124.5 -39t131.5 -69q-57 78 -82 125.5t-47 118.5l152 49q22 -72 28.5 -125t4.5 -148q42 91 70 136.5t77 95.5l117 -107q-48 -54 -90 -85.5t-129 -80.5q95 9 149 7t125 -17l-33 -158q-70 17 -119.5 38.5t-134.5 70.5q56 -77 80.5 -124t46.5 -120 l-149 -49q-23 70 -30 124t-5 151q-41 -90 -69 -135.5t-76 -98.5l-119 107q48 54 90.5 86t126.5 81q-97 -10 -147.5 -7.5t-124.5 18.5z" />
<glyph unicode="+" d="M8 432l45 215h434l91 434h215l-91 -434h435l-47 -215h-435l-90 -432h-217l92 432h-432z" />
<glyph unicode="," horiz-adv-x="505" d="M-70 -213q154 74 181 201l4 12h-129l61 283h287l-51 -244q-27 -123 -95 -209t-198 -154z" />
<glyph unicode="-" horiz-adv-x="792" d="M84 432l45 215h569l-45 -215h-569z" />
<glyph unicode="." horiz-adv-x="505" d="M-12 0l61 283h285l-62 -283h-284z" />
<glyph unicode="/" horiz-adv-x="712" d="M-104 0l749 1462h211l-750 -1462h-210z" />
<glyph unicode="0" d="M61 535q0 79 10.5 164.5t34.5 179t59 180.5t88.5 166t118 137t152 92.5t187.5 34.5q95 0 171 -31.5t124.5 -84t81 -125.5t46 -152t13.5 -168q0 -79 -10.5 -165t-34.5 -180t-59.5 -180.5t-88.5 -165.5t-117.5 -137t-152 -92.5t-186.5 -34.5q-118 0 -205.5 47t-136.5 128.5 t-72 177.5t-23 209zM322 489q0 -135 45.5 -215.5t146.5 -80.5q84 0 151.5 61.5t107.5 151.5t67 201.5t37 202t10 161.5q0 137 -46 218t-147 81q-84 0 -151.5 -62t-107.5 -153t-66.5 -203t-36.5 -202.5t-10 -160.5z" />
<glyph unicode="1" horiz-adv-x="940" d="M152 1174l501 288h224l-310 -1462h-264l244 1143l-297 -176z" />
<glyph unicode="2" d="M-35 0l12 49q15 69 52.5 136t95 128t115.5 111t135 108q29 22 89 65.5t88.5 65t76.5 60t72 62.5t56.5 60t47.5 65t26 65t11 72q0 96 -62 151t-159 55q-83 0 -160 -47t-129 -147l-203 123q95 147 229.5 227t303.5 80q207 0 334.5 -116.5t127.5 -311.5q0 -211 -180 -385 q-82 -79 -284.5 -218t-284.5 -216h651l-53 -242h-1008z" />
<glyph unicode="3" d="M-29 319l219 105q38 -109 116 -163t179 -54q134 0 223 84t89 211q0 100 -54 158.5t-145 58.5q-70 0 -133 -39l-90 111l422 430h-592l53 241h926l-37 -172l-383 -387q138 -17 225.5 -123.5t87.5 -261.5q0 -101 -41 -197.5t-114 -174.5t-187 -125.5t-248 -47.5 q-187 0 -321 91.5t-195 254.5z" />
<glyph unicode="4" d="M-18 324l43 204l794 934h305l-196 -915h196l-49 -223h-194l-70 -324h-262l69 324h-636zM301 547h369q4 18 51.5 244.5t71.5 334.5z" />
<glyph unicode="5" d="M-16 338l225 98q36 -113 114.5 -171t182.5 -58q123 0 209 78t86 209q0 117 -69.5 189.5t-194.5 72.5q-160 0 -265 -117q-57 38 -143 92l197 731h868q-30 -133 -51 -241h-651l-103 -340q41 35 108.5 56t139.5 21q185 0 311.5 -131.5t126.5 -328.5q0 -106 -41 -202 t-113 -167.5t-177.5 -113.5t-227.5 -42q-190 0 -331.5 98t-200.5 267z" />
<glyph unicode="6" d="M76 547q0 207 69 410.5t207 340.5q188 191 475 191q234 0 365 -121l-127 -197q-99 86 -256 86q-167 0 -272.5 -107.5t-149.5 -291.5q46 49 122 80t173 31q192 0 312 -123t120 -326q0 -108 -37.5 -206.5t-106.5 -174.5t-175 -121t-234 -45q-227 0 -356 143t-129 431z M340 453q0 -103 57 -176.5t168 -73.5q85 0 149 46.5t94 116.5t30 150q0 108 -57 173t-163 65q-127 0 -202.5 -88.5t-75.5 -212.5z" />
<glyph unicode="7" d="M66 0l819 1221h-742l54 241h1054l-43 -198l-848 -1264h-294z" />
<glyph unicode="8" d="M33 414q0 155 89 256t236 143q-66 42 -111.5 117t-45.5 174q0 169 133.5 277t337.5 108q210 0 339.5 -112t129.5 -281q0 -121 -70 -210t-184 -132q92 -56 143 -144.5t51 -197.5q0 -91 -35.5 -170.5t-101 -139.5t-166 -94.5t-223.5 -34.5q-237 0 -379.5 121.5 t-142.5 319.5zM299 426q0 -117 73.5 -178.5t184.5 -61.5q114 0 184 62.5t70 177.5q0 118 -74 178t-186 60q-115 0 -183.5 -63t-68.5 -175zM461 1073q0 -96 59 -147.5t150 -51.5q90 0 149.5 51t59.5 148t-60.5 149t-148.5 52q-91 0 -150 -52.5t-59 -148.5z" />
<glyph unicode="9" d="M18 94l129 197q99 -86 256 -86q167 0 272.5 108t147.5 291q-46 -49 -121.5 -79.5t-171.5 -30.5q-193 0 -313.5 122.5t-120.5 325.5q0 108 38 206.5t107 174.5t175.5 121t234.5 45q225 0 354.5 -143.5t129.5 -430.5q0 -206 -69 -411t-206 -342q-189 -189 -475 -189 q-233 0 -367 121zM375 944q0 -107 56 -172t161 -65q127 0 203.5 89.5t76.5 213.5q0 104 -57.5 177t-169.5 73q-125 0 -197.5 -94.5t-72.5 -221.5z" />
<glyph unicode=":" horiz-adv-x="630" d="M47 0l59 283h285l-59 -283h-285zM215 797l59 284h287l-61 -284h-285z" />
<glyph unicode=";" horiz-adv-x="610" d="M-12 -213q155 73 182 201l4 12h-129l59 283h289l-53 -244q-27 -123 -95 -209.5t-198 -153.5zM215 799l59 282h287l-59 -282h-287z" />
<glyph unicode="&#x3c;" d="M184 567l662 541l131 -162l-500 -409l320 -431l-172 -131z" />
<glyph unicode="=" d="M-8 221l43 215h1026l-45 -215h-1024zM80 645l47 215h1026l-47 -215h-1026z" />
<glyph unicode="&#x3e;" horiz-adv-x="1177" d="M170 137l500 408l-320 432l170 129l443 -592l-662 -539z" />
<glyph unicode="?" horiz-adv-x="1148" d="M211 0l61 283h287l-61 -283h-287zM213 1315q222 172 461 172q192 0 310 -104t118 -269q0 -76 -26.5 -139.5t-70 -109t-96.5 -85t-108 -73.5t-102.5 -67.5t-82 -75.5t-43.5 -89l-4 -26h-256l9 43q14 65 49.5 121t80.5 96.5t96.5 78t99.5 70.5t87.5 66.5t63.5 75t24 87.5 q0 74 -52 123.5t-150 49.5q-155 0 -295 -119z" />
<glyph unicode="@" horiz-adv-x="1814" d="M127 639q0 169 66.5 324t181.5 271t282 185.5t357 69.5q162 0 296.5 -51.5t224 -141t138.5 -211.5t49 -262q0 -228 -115 -375t-298 -147q-172 0 -219 133q-105 -135 -273 -135q-145 0 -226 100.5t-81 259.5q0 126 51.5 232t143 168.5t202.5 62.5q80 0 141 -32t95 -86 l24 102h201l-119 -551q-6 -24 -6 -47q0 -37 22.5 -59.5t67.5 -22.5q74 0 132 56t89 146.5t31 196.5q0 239 -155.5 388t-419.5 149q-162 0 -300 -60t-230 -160t-143.5 -230t-51.5 -271q0 -163 65.5 -291t198 -204t313.5 -76q212 0 352 90l52 -113q-194 -104 -414 -104 q-160 0 -296 52.5t-230 144.5t-146.5 220.5t-52.5 278.5zM717 678q0 -90 41 -149.5t119 -59.5q95 0 152.5 86.5t57.5 200.5q0 50 -13.5 91.5t-50.5 73t-93 31.5q-97 0 -155 -81.5t-58 -192.5z" />
<glyph unicode="A" horiz-adv-x="1376" d="M-119 0l842 1462h315l219 -1462h-288l-41 367h-549l-199 -367h-299zM494 590h413l-67 639z" />
<glyph unicode="B" horiz-adv-x="1411" d="M27 0l311 1462h557q206 0 336.5 -101t130.5 -265q0 -127 -78.5 -217.5t-198.5 -124.5q89 -42 145 -128.5t56 -197.5q0 -186 -151.5 -307t-395.5 -121h-712zM342 233h395q124 0 198.5 59.5t74.5 158.5q0 96 -71 148t-194 52h-313zM479 872h379q101 0 164 48.5t63 138.5 q0 80 -57.5 124t-155.5 44h-319z" />
<glyph unicode="C" horiz-adv-x="1433" d="M98 666q0 168 58.5 319.5t160 262.5t247.5 176t313 65q203 0 351.5 -94t217.5 -256l-229 -113q-48 104 -136 164.5t-211 60.5q-146 0 -260.5 -81t-174.5 -214t-60 -292q0 -202 101 -328.5t280 -126.5q227 0 360 205l195 -154q-222 -287 -574 -287q-195 0 -342 93 t-222 249t-75 351z" />
<glyph unicode="D" horiz-adv-x="1525" d="M27 0l309 1462h473q160 0 286.5 -51t206 -139.5t121 -204t41.5 -248.5q0 -135 -34.5 -258t-102 -225t-161 -177.5t-218 -117t-266.5 -41.5h-655zM344 242h350q115 0 209.5 45.5t156 123.5t95 181t33.5 219q0 189 -95 299.5t-288 110.5h-252z" />
<glyph unicode="E" horiz-adv-x="1284" d="M27 0l311 1462h1014l-52 -241h-747l-76 -353h668l-47 -221h-668l-86 -405h768l-51 -242h-1034z" />
<glyph unicode="F" horiz-adv-x="1241" d="M27 0l311 1462h1010l-50 -241h-745l-78 -363h666l-47 -221h-666l-135 -637h-266z" />
<glyph unicode="G" horiz-adv-x="1546" d="M96 670q0 225 101 412t282.5 297t405.5 110q201 0 347.5 -88t225.5 -244l-221 -125q-107 219 -358 219q-150 0 -267 -79.5t-178 -210.5t-61 -289q0 -208 105.5 -336.5t293.5 -128.5q165 0 283 101t139 249h-387l45 219h612q15 -50 15 -114q0 -96 -29 -193t-89.5 -186.5 t-144 -158.5t-202 -110t-254.5 -41q-157 0 -284.5 55.5t-209.5 151t-126 221.5t-44 269z" />
<glyph unicode="H" horiz-adv-x="1536" d="M27 0l311 1462h264l-121 -571h672l121 571h268l-311 -1462h-266l137 651h-672l-137 -651h-266z" />
<glyph unicode="I" horiz-adv-x="593" d="M27 0l311 1462h264l-309 -1462h-266z" />
<glyph unicode="J" horiz-adv-x="1083" d="M-70 233l217 121q28 -71 86.5 -110t137.5 -39q59 0 103.5 21t74 61.5t48.5 88.5t32 113l209 973h266l-219 -1024q-17 -82 -45 -151t-72 -127.5t-100.5 -99.5t-132.5 -64t-166 -23q-162 0 -275 69.5t-164 190.5z" />
<glyph unicode="K" horiz-adv-x="1406" d="M27 0l311 1462h264l-151 -702l753 702h322l-660 -616l410 -846h-293l-319 672l-289 -279l-84 -393h-264z" />
<glyph unicode="L" d="M27 0l311 1462h264l-258 -1220h746l-54 -242h-1009z" />
<glyph unicode="M" horiz-adv-x="1843" d="M27 0l311 1462h362l148 -1097l620 1097h383l-311 -1462h-260l242 1143l-645 -1143h-189l-162 1139l-241 -1139h-258z" />
<glyph unicode="N" horiz-adv-x="1529" d="M27 0l311 1462h307l408 -1079l229 1079h254l-311 -1462h-293l-416 1104l-233 -1104h-256z" />
<glyph unicode="O" horiz-adv-x="1591" d="M98 670v6q0 160 56 306q58 150 158.5 261.5t246 178t309.5 67.5h5q146 0 269 -54q125 -55 208.5 -150t130 -222t47.5 -270v-6q0 -161 -56 -307q-58 -150 -158.5 -261t-246 -178t-309.5 -68h-4q-196 0 -346 95q-152 96 -230 253.5t-80 348.5zM377 643q3 -201 110 -317 q105 -114 271 -113h6q110 1 203.5 53.5t154.5 138t95 193.5q32 102 32 208v13q-1 200 -108 316q-105 114 -269 114h-6q-110 -1 -204 -54t-156 -138t-96 -193q-33 -102 -33 -209v-12z" />
<glyph unicode="P" horiz-adv-x="1361" d="M27 0l311 1462h561q228 0 356.5 -116.5t128.5 -313.5q0 -105 -37.5 -195.5t-109 -157.5t-182.5 -105.5t-250 -38.5h-397l-115 -535h-266zM459 776h377q131 0 201.5 67t70.5 177q0 201 -234 201h-321z" />
<glyph unicode="Q" horiz-adv-x="1591" d="M98 670q-1 220 97.5 407t276.5 299.5t396 112.5q149 0 274 -55t208.5 -150t129.5 -222q48 -129 48 -274q0 -188 -75 -354q-76 -168 -212 -284l105 -152l-195 -135l-113 166q-130 -56 -280 -56q-149 0 -274 55.5t-208 151t-129.5 222t-48.5 268.5zM377 643 q1 -200 109 -317q106 -115 272 -115h6q72 0 139 25l-131 200l182 123l131 -199q79 89 123 210q41 116 41 238v11q-1 200 -107.5 315t-275.5 115q-110 -1 -203.5 -52.5t-155 -137t-96 -193.5t-34.5 -223z" />
<glyph unicode="R" horiz-adv-x="1421" d="M27 0l311 1462h594q210 0 335.5 -115t125.5 -305q0 -172 -107.5 -292.5t-302.5 -161.5l242 -588h-289l-219 555h-305l-119 -555h-266zM459 776h370q125 0 205 69t80 179q0 92 -56.5 144.5t-154.5 52.5h-350z" />
<glyph unicode="S" horiz-adv-x="1296" d="M-2 313l221 119q56 -115 171 -174t249 -59q121 0 197.5 54.5t76.5 149.5q0 27 -6.5 49t-26 42t-36.5 33.5t-56.5 32.5t-66 30t-84.5 35q-17 7 -25 10q-86 33 -146 62t-113.5 66.5t-85 79.5t-49.5 97q-17 52 -17 116v7q0 195 146.5 310.5t371.5 115.5q181 0 328.5 -77.5 t230.5 -215.5l-211 -121q-52 86 -144.5 135.5t-209.5 49.5q-107 0 -175.5 -44.5t-68.5 -128.5q0 -31 12 -56t30 -43t53 -37.5t65.5 -33t83.5 -35.5q13 -5 20 -8q113 -44 186.5 -82.5t137 -91.5t93.5 -121.5t30 -156.5q0 -195 -152 -322t-412 -127q-212 0 -376 90t-242 250z " />
<glyph unicode="T" horiz-adv-x="1257" d="M145 1221l52 241h1179l-51 -241h-457l-260 -1221h-268l262 1221h-457z" />
<glyph unicode="U" horiz-adv-x="1472" d="M111 412q0 68 20 170l191 880h268l-193 -905q-16 -62 -16 -104q0 -113 74 -175.5t207 -62.5q306 0 374 330l191 917h266l-199 -952q-55 -262 -223 -399.5t-434 -137.5q-233 0 -379.5 116.5t-146.5 322.5z" />
<glyph unicode="V" horiz-adv-x="1286" d="M147 1462h277l117 -1143l600 1143h301l-811 -1462h-295z" />
<glyph unicode="W" horiz-adv-x="1957" d="M207 1462h280l5 -1065l524 1065h225l72 -1067l463 1067h301l-686 -1462h-279l-63 1040l-508 -1040h-277z" />
<glyph unicode="X" horiz-adv-x="1388" d="M-117 0l678 780l-321 682h290l226 -510l424 510h329l-618 -712l354 -750h-293l-254 555l-481 -555h-334z" />
<glyph unicode="Y" horiz-adv-x="1277" d="M135 1462h297l211 -628l479 628h322l-707 -874l-125 -588h-268l125 590z" />
<glyph unicode="Z" horiz-adv-x="1316" d="M-51 0l45 217l962 1004h-716l51 241h1087l-43 -207l-970 -1013h774l-52 -242h-1138z" />
<glyph unicode="[" horiz-adv-x="602" d="M-63 -274l407 1912h447l-37 -176h-228l-333 -1560h227l-37 -176h-446z" />
<glyph unicode="\" horiz-adv-x="632" d="M164 1462h205l135 -1462h-205z" />
<glyph unicode="]" horiz-adv-x="606" d="M-174 -274l37 176h227l334 1560h-227l36 176h447l-408 -1912h-446z" />
<glyph unicode="^" d="M109 1004l548 458h183l379 -491l-168 -131l-316 411l-491 -411z" />
<glyph unicode="_" horiz-adv-x="1189" d="M-188 -154h1222v-102h-1222v102z" />
<glyph unicode="`" horiz-adv-x="741" d="M283 1511l202 84l140 -385h-176z" />
<glyph unicode="a" horiz-adv-x="1110" d="M6 287q0 59 15.5 107.5t39 82t60.5 59.5t72 42t80.5 27.5t79 16.5t75.5 9q185 21 244 42q91 33 92 105q0 33 -15.5 56.5t-42.5 35.5t-56.5 17.5t-63.5 5.5q-171 0 -338 -107l-86 181q212 139 463 139q182 0 289.5 -71.5t107.5 -213.5q0 -46 -12 -108l-152 -713h-256 l23 100q-106 -125 -293 -125q-147 0 -236.5 81t-89.5 231zM264 311q0 -74 43 -107.5t115 -33.5q104 0 174 65.5t96 184.5l27 123q-12 -11 -26.5 -19.5t-35.5 -15.5t-35 -11.5t-42.5 -10t-39.5 -7t-45 -6.5t-40 -6q-92 -12 -141.5 -45t-49.5 -111z" />
<glyph unicode="b" horiz-adv-x="1271" d="M6 0l309 1462h254l-108 -501q126 145 317 145q186 0 300 -141.5t114 -358.5q0 -169 -71.5 -313.5t-199.5 -231t-284 -86.5q-233 0 -344 189l-33 -164h-254zM367 481q0 -124 62 -203t179 -79q96 0 169.5 58t109 147t35.5 192q0 126 -58 206.5t-174 80.5q-98 0 -173.5 -60 t-112.5 -150.5t-37 -191.5z" />
<glyph unicode="c" horiz-adv-x="1091" d="M59 489q0 125 44 238.5t120.5 197t186 132.5t233.5 49q85 0 157.5 -22t125 -61t89.5 -82t66 -95l-202 -115q-78 156 -232 156q-95 0 -169 -56t-112 -146t-38 -196q0 -131 61 -212.5t174 -81.5q142 0 250 137l166 -137q-173 -220 -434 -220q-219 0 -352.5 144.5 t-133.5 369.5z" />
<glyph unicode="d" horiz-adv-x="1275" d="M55 473q0 170 72 315t200.5 231.5t284.5 86.5q109 0 198 -46.5t144 -141.5l117 544h252l-309 -1462h-252l26 119q-128 -144 -315 -144q-189 0 -303.5 141t-114.5 357zM328 483q0 -126 57.5 -206t173.5 -80q98 0 174 60t113 150t37 191q0 125 -62.5 205t-179.5 80 q-96 0 -169 -58.5t-108.5 -148t-35.5 -193.5z" />
<glyph unicode="e" horiz-adv-x="1191" d="M57 477q0 169 76 312t216.5 230t314.5 87q214 0 336 -124.5t122 -315.5q0 -106 -32 -183h-760q-4 -24 -4 -51q0 -107 65 -173t176 -66q162 0 269 133l170 -140q-180 -211 -459 -211q-229 0 -359.5 140.5t-130.5 361.5zM358 653h514q5 25 5 39q0 102 -60 159.5t-164 57.5 q-110 0 -188 -67t-107 -189z" />
<glyph unicode="f" horiz-adv-x="727" d="M86 0l188 883h-174l41 198h174l27 121q33 145 122.5 215t254.5 70q109 0 186 -29l-69 -196q-46 24 -115 24q-57 0 -86.5 -23.5t-40.5 -74.5l-25 -107h222l-41 -198h-226l-184 -883h-254z" />
<glyph unicode="g" horiz-adv-x="1265" d="M-23 -221l138 180q54 -54 142 -87.5t185 -33.5q283 0 342 299l13 62q-52 -66 -135.5 -102t-180.5 -36q-194 0 -312 132t-118 335q0 156 70.5 288.5t195.5 211t275 78.5q112 0 206 -48t150 -145l37 168h252l-190 -897q-27 -129 -66 -226t-107 -169q-158 -166 -444 -166 q-281 0 -453 156zM322 547q0 -121 61.5 -198t179.5 -77q139 0 225 105t86 248q0 119 -63 192.5t-182 73.5q-142 0 -224.5 -101t-82.5 -243z" />
<glyph unicode="h" horiz-adv-x="1185" d="M6 0l311 1462h252l-106 -508q146 152 334 152q142 0 221.5 -87.5t79.5 -213.5q0 -46 -17 -125l-145 -680h-252l137 643q10 52 10 88q0 68 -40 109t-115 41q-104 0 -183 -75t-104 -198l-129 -608h-254z" />
<glyph unicode="i" horiz-adv-x="520" d="M6 0l230 1081h251l-227 -1081h-254zM268 1237l49 225h252l-49 -225h-252z" />
<glyph unicode="j" horiz-adv-x="507" d="M-305 -328l82 181q33 -29 82 -29q56 0 87.5 41.5t47.5 120.5l231 1095h252l-239 -1140q-37 -169 -124 -243.5t-223 -74.5q-119 0 -196 49zM258 1237l47 225h252l-47 -225h-252z" />
<glyph unicode="k" horiz-adv-x="1161" d="M6 0l311 1462h252l-182 -862l533 481h307l-506 -452l326 -629h-277l-242 473l-211 -192l-57 -281h-254z" />
<glyph unicode="l" horiz-adv-x="518" d="M6 0l311 1462h250l-309 -1462h-252z" />
<glyph unicode="m" horiz-adv-x="1804" d="M6 0l230 1081h253l-26 -129q129 154 307 154q98 0 169.5 -48t100.5 -126q158 174 361 174q153 0 234 -86.5t81 -212.5q0 -53 -16 -127l-146 -680h-254l138 641q12 47 12 88q0 69 -40.5 109.5t-115.5 40.5q-96 0 -165 -72.5t-95 -198.5l-127 -608h-254l138 641 q14 54 14 88q0 69 -41.5 109.5t-116.5 40.5q-95 0 -164.5 -73t-95.5 -198l-127 -608h-254z" />
<glyph unicode="n" horiz-adv-x="1185" d="M6 0l230 1081h253l-26 -127q146 152 334 152q142 0 221.5 -87.5t79.5 -213.5q0 -46 -17 -125l-145 -680h-252l137 643q10 52 10 88q0 68 -40 109t-115 41q-104 0 -183 -75t-104 -198l-129 -608h-254z" />
<glyph unicode="o" horiz-adv-x="1226" d="M59 496q0 127 42.5 239t118 194t185 129.5t238.5 47.5q232 0 368 -142.5t136 -375.5q0 -171 -72 -310.5t-206.5 -221t-305.5 -81.5q-231 0 -367.5 143.5t-136.5 377.5zM328 487q0 -129 62 -211.5t177 -82.5q95 0 167.5 59t108.5 149t36 193q0 129 -61.5 212t-176.5 83 q-71 0 -131.5 -34.5t-99.5 -91.5t-60.5 -128.5t-21.5 -147.5z" />
<glyph unicode="p" horiz-adv-x="1271" d="M-68 -356l304 1437h253l-26 -120q126 145 317 145q185 0 299.5 -141.5t114.5 -358.5q0 -169 -72 -313.5t-200.5 -231t-284.5 -86.5q-108 0 -197 46.5t-145 142.5l-111 -520h-252zM369 481q0 -124 62 -203t177 -79q97 0 171 58t109.5 147t35.5 192q0 126 -58.5 206.5 t-173.5 80.5q-98 0 -173.5 -60t-112.5 -150.5t-37 -191.5z" />
<glyph unicode="q" horiz-adv-x="1273" d="M55 473q0 170 72 315t200.5 231.5t284.5 86.5q109 0 198 -46.5t144 -141.5l35 163h256l-307 -1437h-252l102 475q-128 -144 -317 -144q-186 0 -301 141t-115 357zM328 483q0 -126 57.5 -206t173.5 -80q98 0 174 60t113 150t37 191q0 125 -62.5 205t-179.5 80 q-96 0 -169 -58.5t-108.5 -148t-35.5 -193.5z" />
<glyph unicode="r" horiz-adv-x="792" d="M6 0l230 1081h251l-26 -123q133 142 307 142q56 0 109 -23l-82 -237q-38 18 -95 18q-69 0 -133 -34t-118.5 -112.5t-79.5 -191.5l-111 -520h-252z" />
<glyph unicode="s" horiz-adv-x="1036" d="M-23 174l150 148q63 -76 149 -113t179 -37q87 0 139.5 34t52.5 93q0 49 -40 74.5t-147 65.5q-8 3 -12.5 4.5t-12 4.5t-13.5 5q-66 23 -114.5 48t-94.5 62.5t-70 90.5t-24 120q0 82 34.5 147t93.5 104.5t134.5 60t161.5 20.5q146 0 262 -54t194 -132l-143 -146 q-51 59 -136 97t-177 38q-72 0 -122 -26.5t-50 -81.5q0 -35 28.5 -62.5t54 -39t92.5 -35.5q15 -6 23 -9q62 -21 107.5 -40.5t92 -48t75.5 -61t47 -77t18 -98.5q0 -161 -122.5 -258t-331.5 -97q-147 0 -270.5 51.5t-207.5 147.5z" />
<glyph unicode="t" horiz-adv-x="847" d="M84 883l43 198h209l82 381h252l-82 -381h286l-43 -198h-284l-117 -545q-8 -36 -8 -62q0 -83 100 -83q87 0 146 47l45 -197q-97 -68 -254 -68q-136 0 -216.5 64t-80.5 184q0 49 14 117l119 543h-211z" />
<glyph unicode="u" horiz-adv-x="1185" d="M66 276q0 64 14 125l145 680h254l-137 -641q-12 -66 -12 -88q0 -68 41 -108.5t114 -40.5q105 0 184.5 74t104.5 198l129 606h254l-231 -1081h-252l26 129q-142 -154 -333 -154q-142 0 -221.5 87.5t-79.5 213.5z" />
<glyph unicode="v" horiz-adv-x="1067" d="M96 1081h269l88 -788l417 788h291l-631 -1081h-262z" />
<glyph unicode="w" horiz-adv-x="1591" d="M147 1081h248l27 -741l362 741h226l37 -739l331 739h275l-520 -1081h-267l-39 752l-364 -752h-258z" />
<glyph unicode="x" horiz-adv-x="1107" d="M-115 0l502 573l-240 508h279l149 -358l283 358h311l-464 -524l268 -557h-287l-164 393l-317 -393h-320z" />
<glyph unicode="y" horiz-adv-x="1056" d="M-119 -315l113 172q25 -25 67 -25q56 0 99 34.5t84 98.5l41 64l-207 1052h274l115 -749l399 749h283l-645 -1120q-50 -87 -90 -143.5t-90 -104t-108 -69t-130 -21.5q-123 0 -205 62z" />
<glyph unicode="z" horiz-adv-x="1021" d="M-57 0l41 188l659 674h-493l47 219h841l-39 -184l-659 -678h534l-49 -219h-882z" />
<glyph unicode="{" horiz-adv-x="638" d="M14 598l37 170h25q55 0 93 14.5t61.5 45t36.5 64.5t24 87l67 338q66 321 414 321h57l-36 -170h-29q-92 0 -134.5 -50.5t-68.5 -176.5l-51 -246q-28 -133 -82.5 -207.5t-163.5 -111.5q125 -57 125 -197q0 -53 -38.5 -227t-41.5 -217q-4 -10 -4 -27q0 -59 28.5 -85.5 t94.5 -26.5h33l-39 -170h-55q-138 0 -210.5 61.5t-72.5 183.5q0 54 18 135l70 314q8 46 8 69q0 53 -26.5 81t-87.5 28h-52z" />
<glyph unicode="|" horiz-adv-x="489" d="M-2 -98l352 1659h195l-355 -1659h-192z" />
<glyph unicode="}" horiz-adv-x="638" d="M-180 -274l37 170h22q94 0 137 50t70 177q7 33 16.5 84t15 79.5t15 71.5t17.5 68t20.5 59t26 55t32.5 46t41 42t50.5 32.5t62.5 27.5q-125 57 -125 199q0 51 42 233.5t42 233.5q0 60 -30.5 87t-98.5 27h-25l37 170h47q141 0 215 -62.5t74 -184.5q0 -57 -18 -134l-70 -313 q-8 -46 -8 -70q0 -52 27 -79t92 -27h51l-37 -170h-47q-48 0 -83 -16.5t-56.5 -48.5t-33.5 -66t-22 -82l-69 -338q-63 -321 -418 -321h-49z" />
<glyph unicode="~" d="M53 537q37 38 69.5 67.5t79 62t99 50.5t105.5 18q51 0 95.5 -15.5t125.5 -55.5q127 -62 196 -62q102 0 236 94l67 -108q-189 -203 -352 -203q-36 0 -75.5 11.5t-61 22t-82.5 40.5q-67 33 -107.5 47t-80.5 14q-110 0 -244 -94z" />
<glyph unicode="&#xa1;" horiz-adv-x="614" d="M-25 -354l74 348l221 645h101l-47 -635l-78 -358h-271zM219 813l57 268h281l-59 -268h-279z" />
<glyph unicode="&#xa2;" d="M84 489q0 125 44 238.5t120.5 197t186 132.5t233.5 49h14l35 166h112l-38 -180q204 -47 315 -246l-203 -115q-60 117 -158 146l-145 -682q129 5 238 137l163 -137q-169 -220 -432 -220h-14l-35 -168h-114l38 183q-166 38 -263 173.5t-97 325.5zM342 485q0 -99 39 -171 t111 -101l141 670q-129 -15 -210 -130t-81 -268z" />
<glyph unicode="&#xa3;" d="M-47 0l41 197q151 53 236 145.5t85 196.5q0 35 -6 69h-229l35 168h157q-30 133 -30 230q0 219 149.5 351t374.5 132q291 0 459 -266l-203 -148q-93 172 -254 172q-114 0 -185 -69.5t-71 -202.5q0 -88 27 -199h401l-37 -168h-264q-20 -5 -68 -26q0 -90 -41.5 -185.5 t-113.5 -154.5h631l-52 -242h-1042z" />
<glyph unicode="&#xa4;" horiz-adv-x="1212" d="M43 285l190 159q-26 59 -26 142q0 148 90 268l-104 137l165 129l105 -135q98 41 178 41q119 0 213 -61l190 157l138 -161l-195 -162q29 -73 29 -148q0 -147 -90 -264l104 -135l-168 -131l-102 135q-84 -41 -185 -41q-122 0 -210 59l-185 -153zM389 596q0 -91 52 -149 t145 -58q108 0 178 75.5t70 180.5q0 89 -52.5 147t-144.5 58q-108 0 -178 -74.5t-70 -179.5z" />
<glyph unicode="&#xa5;" d="M-27 342l29 129h371l22 115l-16 57h-340l24 129h279l-182 690h297l125 -626l385 626h305l-479 -690h276l-27 -129h-342l-38 -55l-27 -117h371l-29 -129h-367l-75 -342h-263l72 342h-371z" />
<glyph unicode="&#xa6;" horiz-adv-x="471" d="M2 -123l137 651h162l-137 -651h-162zM221 909l139 652h160l-137 -652h-162z" />
<glyph unicode="&#xa7;" horiz-adv-x="1247" d="M10 25l142 163q139 -139 319 -139q153 0 244 98l-131 99q-205 154 -308.5 310.5t-103.5 340.5q0 121 43 229.5t119.5 189t190 128t247.5 47.5q266 0 451 -188l-142 -164q-139 139 -317 139q-155 0 -248 -100l133 -97q206 -155 309 -310.5t103 -340.5q0 -162 -72.5 -296.5 t-211 -216t-316.5 -81.5q-265 0 -451 189zM395 903q0 -82 26.5 -156t79.5 -140t101 -112t123 -108l96 -78q17 59 17 115q0 66 -20 129.5t-48 111.5t-76 102t-87.5 89.5t-98.5 85.5l-96 74q-17 -60 -17 -113z" />
<glyph unicode="&#xa8;" horiz-adv-x="624" d="M135 1235l45 213h211l-45 -213h-211zM549 1235l45 213h213l-45 -213h-213z" />
<glyph unicode="&#xa9;" horiz-adv-x="1792" d="M145 731q0 157 61 299.5t164 245.5t245.5 164t299.5 61t299.5 -61t246 -164t164.5 -245.5t61 -299.5t-61 -299.5t-164.5 -245.5t-246 -164t-299.5 -61t-299.5 61t-245.5 164t-164 245.5t-61 299.5zM256 731q0 -135 52 -257t139.5 -210t210 -140t257.5 -52q178 0 329.5 88 t240 240t88.5 331q0 178 -88.5 330t-240 241t-329.5 89q-180 0 -332 -89t-239.5 -241t-87.5 -330zM481 731q0 120 58 220.5t158 158t218 57.5q242 0 381 -225l-157 -102q-79 137 -221 137q-100 0 -170 -72.5t-70 -173.5q0 -100 70.5 -173t169.5 -73q139 0 221 142l159 -105 q-65 -111 -165 -169t-218 -58q-180 0 -307 127.5t-127 308.5z" />
<glyph unicode="&#xaa;" horiz-adv-x="825" d="M143 956q0 52 19 91.5t45.5 61.5t68.5 37t71.5 20t72.5 10q11 1 33 4q32 4 47 6t38.5 6t34.5 9t23.5 13t17 19.5t4.5 26.5q0 69 -110 69q-106 0 -207 -67l-61 133q141 90 292 90q125 0 200 -52.5t75 -148.5q0 -34 -8 -74l-94 -442h-189l19 72q-64 -86 -187 -86 q-92 0 -148.5 52t-56.5 150zM330 973q0 -41 25.5 -60.5t66.5 -19.5q60 0 97.5 38t51.5 103l19 84q-9 -9 -19 -15.5t-22.5 -11t-20.5 -8t-23 -6l-21 -3.5t-23.5 -3t-20.5 -2q-50 -7 -80 -28t-30 -68z" />
<glyph unicode="&#xab;" horiz-adv-x="1044" d="M37 543l18 92l379 430l125 -113l-305 -391l184 -377l-153 -73zM475 543l19 92l411 430l125 -115l-340 -389l166 -377l-154 -73z" />
<glyph unicode="&#xac;" horiz-adv-x="1286" d="M119 514l45 215h1014l-134 -618h-210l84 403h-799z" />
<glyph unicode="&#xad;" horiz-adv-x="741" d="M94 487l45 213h525l-43 -213h-527z" />
<glyph unicode="&#xae;" horiz-adv-x="915" d="M199 1147q0 141 100.5 240.5t241.5 99.5q140 0 240 -99.5t100 -240.5t-100 -240.5t-240 -99.5q-141 0 -241.5 99.5t-100.5 240.5zM252 1147q0 -119 84.5 -203t204.5 -84q118 0 202 84t84 203q0 120 -83.5 203.5t-202.5 83.5q-120 0 -204.5 -83.5t-84.5 -203.5zM389 961 v376h180q64 0 101 -32.5t37 -87.5q0 -81 -64 -109l72 -147h-105l-55 126h-72v-126h-94zM483 1163h80q21 0 34 12t13 35t-13.5 37.5t-33.5 14.5h-80v-99z" />
<glyph unicode="&#xaf;" horiz-adv-x="616" d="M145 1249l37 174h590l-37 -174h-590z" />
<glyph unicode="&#xb0;" horiz-adv-x="804" d="M174 1163q0 133 95 228.5t227 95.5t226.5 -95.5t94.5 -228.5q0 -131 -94.5 -225t-226.5 -94t-227 94t-95 225zM332 1163q0 -64 49 -111.5t115 -47.5q67 0 114 47t47 112q0 68 -47 116t-114 48q-66 0 -115 -48.5t-49 -115.5z" />
<glyph unicode="&#xb1;" d="M-61 0l47 215h1024l-47 -215h-1024zM94 727l47 215h404l86 406h215l-86 -406h405l-47 -215h-403l-86 -403h-217l86 403h-404z" />
<glyph unicode="&#xb2;" horiz-adv-x="925" d="M135 778l8 33q10 44 42 88.5t80.5 86t91 72.5t98.5 66q14 9 44.5 28t43.5 27.5t38.5 25.5t37 25.5t31 24t28 25.5t21 25t17.5 27t9 27t4 30q0 53 -41.5 82.5t-103.5 29.5q-124 0 -187 -112l-149 86q135 196 368 196q143 0 231.5 -72.5t88.5 -195.5q0 -138 -125 -236 q-48 -37 -179 -107.5t-169 -105.5h407l-39 -176h-696z" />
<glyph unicode="&#xb3;" horiz-adv-x="925" d="M145 977l160 76q25 -61 76.5 -91t118.5 -30q85 0 140.5 43.5t55.5 105.5q0 51 -34.5 81t-92.5 30q-47 0 -88 -23l-65 78l274 232h-389l39 176h635l-27 -121l-250 -213q91 -15 148 -77.5t57 -151.5q0 -132 -111 -231t-290 -99q-130 0 -223 55t-134 160z" />
<glyph unicode="&#xb4;" horiz-adv-x="714" d="M285 1210l288 385l195 -104l-289 -281h-194z" />
<glyph unicode="&#xb6;" horiz-adv-x="1216" d="M164 983q0 140 68 250.5t179.5 169.5t243.5 59h533l-352 -1648h-105l318 1493h-121l-320 -1493h-170l166 776h-57q-165 0 -274 108.5t-109 284.5z" />
<glyph unicode="&#xb7;" horiz-adv-x="522" d="M82 537q0 70 49 120t119 50q67 0 116.5 -50.5t49.5 -119.5t-49 -117.5t-117 -48.5q-70 0 -119 48.5t-49 117.5z" />
<glyph unicode="&#xb8;" horiz-adv-x="647" d="M33 -350l26 121q28 -27 67.5 -38.5t68.5 -11.5q41 0 64.5 19t23.5 47q0 20 -11 27h-96l27 129q50 10 69 10q86 0 150.5 -48t64.5 -126q0 -82 -71.5 -130t-184.5 -48q-115 0 -198 49z" />
<glyph unicode="&#xb9;" horiz-adv-x="712" d="M225 1477l348 178h164l-209 -877h-196l162 645l-199 -98z" />
<glyph unicode="&#xba;" horiz-adv-x="878" d="M162 1092q0 169 106.5 280t278.5 111q153 0 243.5 -92.5t90.5 -245.5q0 -168 -106 -279.5t-277 -111.5q-153 0 -244.5 92.5t-91.5 245.5zM360 1087q0 -77 36 -125.5t104 -48.5q83 0 131.5 72t48.5 166q0 78 -34.5 126t-102.5 48q-83 0 -133 -73t-50 -165z" />
<glyph unicode="&#xbb;" horiz-adv-x="1042" d="M-10 227l340 389l-168 375l155 76l228 -434l-19 -90l-413 -432zM459 223l307 393l-184 375l153 76l248 -434l-18 -90l-381 -432z" />
<glyph unicode="&#xbc;" horiz-adv-x="2138" d="M188 1284l349 178h163l-208 -876h-197l162 645l-199 -98zM324 0l1288 1462h198l-1290 -1462h-196zM1255 180l33 146l531 551h223l-129 -535h129l-35 -162h-129l-47 -180h-193l45 180h-428zM1491 342h229q26 88 90 336z" />
<glyph unicode="&#xbd;" horiz-adv-x="2220" d="M188 1284l349 178h163l-208 -876h-197l162 645l-199 -98zM324 0l1288 1462h198l-1290 -1462h-196zM1323 0l8 33q10 44 42 88.5t80 86t91 72.5t98 66q16 10 49.5 31t48 30.5t41.5 27.5t39.5 28.5t32 26.5t28 28.5t18.5 28t14 31t4 32.5q0 53 -41.5 83t-103.5 30 q-124 0 -187 -113l-149 86q136 197 368 197q143 0 231.5 -72.5t88.5 -195.5q0 -138 -125 -236q-48 -37 -179 -107.5t-169 -105.5h407l-39 -176h-696z" />
<glyph unicode="&#xbe;" horiz-adv-x="2265" d="M109 784l159 76q25 -61 76.5 -91t118.5 -30q85 0 140.5 43.5t55.5 106.5q0 51 -34 80.5t-93 29.5q-49 0 -88 -22l-65 78l274 231h-389l39 176h635l-27 -121l-249 -213q91 -15 147.5 -77.5t56.5 -151.5q0 -132 -111 -231t-290 -99q-130 0 -222.5 54.5t-133.5 160.5zM492 0 l1288 1462h198l-1290 -1462h-196zM1382 180l33 146l531 551h223l-129 -535h129l-35 -162h-129l-47 -180h-193l45 180h-428zM1618 342h229q26 88 90 336z" />
<glyph unicode="&#xbf;" d="M74 -4q0 77 26.5 141.5t70.5 110t97 84.5t108.5 73t102.5 67.5t82 76t45 90.5l6 33h254l-10 -49q-14 -66 -49.5 -123.5t-81 -98t-97 -77.5t-100 -69.5t-88.5 -66t-64 -75.5t-24 -90q0 -74 52.5 -123.5t150.5 -49.5q155 0 295 119l113 -176q-219 -170 -461 -170 q-192 0 -310 104t-118 269zM621 817l57 264h278l-55 -264h-280z" />
<glyph unicode="&#xc0;" horiz-adv-x="1376" d="M-119 0l842 1462h315l219 -1462h-288l-41 367h-549l-199 -367h-299zM494 590h413l-67 639zM660 1855l202 84l140 -385h-176z" />
<glyph unicode="&#xc1;" horiz-adv-x="1376" d="M-119 0l842 1462h315l219 -1462h-288l-41 367h-549l-199 -367h-299zM494 590h413l-67 639zM781 1554l288 385l195 -104l-289 -281h-194z" />
<glyph unicode="&#xc2;" horiz-adv-x="1376" d="M-119 0l842 1462h315l219 -1462h-288l-41 367h-549l-199 -367h-299zM494 590h413l-67 639zM508 1566l336 367h242l180 -367h-176l-156 199l-237 -199h-189z" />
<glyph unicode="&#xc3;" horiz-adv-x="1376" d="M-119 0l842 1462h315l219 -1462h-288l-41 367h-549l-199 -367h-299zM494 590h413l-67 639zM549 1628q80 215 266 215q74 0 168 -51q82 -45 133 -45q87 0 123 96l117 -63q-75 -215 -267 -215q-76 0 -164 51q-85 45 -133 45q-49 0 -80.5 -29t-46.5 -67z" />
<glyph unicode="&#xc4;" horiz-adv-x="1376" d="M-119 0l842 1462h315l219 -1462h-288l-41 367h-549l-199 -367h-299zM494 590h413l-67 639zM582 1579l45 213h211l-45 -213h-211zM995 1579l45 213h213l-45 -213h-213z" />
<glyph unicode="&#xc5;" horiz-adv-x="1376" d="M-119 0l826 1436q-43 56 -43 127q0 94 66.5 160.5t158.5 66.5q94 0 160.5 -66.5t66.5 -160.5t-69 -156l210 -1407h-288l-41 367h-549l-199 -367h-299zM494 590h413l-67 639zM791 1563q0 -40 29.5 -70.5t68.5 -30.5q41 0 71.5 30.5t30.5 70.5q0 42 -30 72t-72 30 q-40 0 -69 -30t-29 -72z" />
<glyph unicode="&#xc6;" horiz-adv-x="1949" d="M-158 0l1112 1462h1063l-51 -241h-645l-72 -344h563l-47 -222h-563l-88 -413h662l-50 -242h-929l77 367h-458l-275 -367h-299zM584 590h338l139 653z" />
<glyph unicode="&#xc7;" horiz-adv-x="1433" d="M98 666q0 168 58.5 319.5t160 262.5t247.5 176t313 65q203 0 351.5 -94t217.5 -256l-229 -113q-48 104 -136 164.5t-211 60.5q-146 0 -260.5 -81t-174.5 -214t-60 -292q0 -202 101 -328.5t280 -126.5q227 0 360 205l195 -154q-222 -287 -574 -287q-195 0 -342 93 t-222 249t-75 351zM383 -350l26 121q28 -27 67.5 -38.5t68.5 -11.5q41 0 64.5 19t23.5 47q0 20 -11 27h-96l27 129q50 10 69 10q86 0 150.5 -48t64.5 -126q0 -82 -71.5 -130t-184.5 -48q-115 0 -198 49z" />
<glyph unicode="&#xc8;" horiz-adv-x="1284" d="M27 0l311 1462h1014l-52 -241h-747l-76 -353h668l-47 -221h-668l-86 -405h768l-51 -242h-1034zM600 1855l202 84l140 -385h-176z" />
<glyph unicode="&#xc9;" horiz-adv-x="1284" d="M27 0l311 1462h1014l-52 -241h-747l-76 -353h668l-47 -221h-668l-86 -405h768l-51 -242h-1034zM686 1554l288 385l195 -104l-289 -281h-194z" />
<glyph unicode="&#xca;" horiz-adv-x="1284" d="M27 0l311 1462h1014l-52 -241h-747l-76 -353h668l-47 -221h-668l-86 -405h768l-51 -242h-1034zM473 1567l336 366h242l180 -366h-176l-156 198l-237 -198h-189z" />
<glyph unicode="&#xcb;" horiz-adv-x="1284" d="M27 0l311 1462h1014l-52 -241h-747l-76 -353h668l-47 -221h-668l-86 -405h768l-51 -242h-1034zM549 1579l45 213h211l-45 -213h-211zM963 1579l45 213h213l-45 -213h-213z" />
<glyph unicode="&#xcc;" horiz-adv-x="593" d="M27 0l311 1462h264l-309 -1462h-266zM236 1855l202 84l140 -385h-176z" />
<glyph unicode="&#xcd;" horiz-adv-x="593" d="M27 0l311 1462h264l-309 -1462h-266zM377 1544l288 385l195 -104l-289 -281h-194z" />
<glyph unicode="&#xce;" horiz-adv-x="593" d="M27 0l311 1462h264l-309 -1462h-266zM106 1554l336 367h242l180 -367h-176l-156 199l-237 -199h-189z" />
<glyph unicode="&#xcf;" horiz-adv-x="593" d="M27 0l311 1462h264l-309 -1462h-266zM174 1579l45 213h211l-45 -213h-211zM588 1579l45 213h213l-45 -213h-213z" />
<glyph unicode="&#xd0;" horiz-adv-x="1564" d="M66 0l133 639h-129l47 213h127l131 610h471q160 0 286.5 -51t206 -139.5t121 -204t41.5 -248.5q0 -135 -34.5 -258t-101.5 -225t-160.5 -177.5t-218 -117t-267.5 -41.5h-653zM383 242h350q152 0 265.5 78t170 206t56.5 285q0 188 -95 299t-288 111h-252l-78 -369h352 l-45 -213h-354z" />
<glyph unicode="&#xd1;" horiz-adv-x="1529" d="M27 0l311 1462h307l408 -1079l229 1079h254l-311 -1462h-293l-416 1104l-233 -1104h-256zM582 1628q80 215 266 215q74 0 168 -51q82 -45 133 -45q87 0 123 96l117 -63q-75 -215 -267 -215q-76 0 -164 51q-85 45 -133 45q-49 0 -80.5 -29t-46.5 -67z" />
<glyph unicode="&#xd2;" horiz-adv-x="1591" d="M98 670q-1 163 56.5 312.5t158 261t246 178t309.5 67.5q149 1 274 -54t208.5 -150t130 -222t47.5 -270q1 -163 -56.5 -312.5t-158 -261t-246 -178.5t-309.5 -68q-198 -1 -349.5 95t-230 253.5t-80.5 348.5zM377 643q3 -201 110 -316.5t277 -113.5q110 1 203.5 53.5 t154.5 138t95 193.5t32 221q-1 200 -108 316t-275 114q-110 -1 -204 -54t-156 -138t-96.5 -193t-32.5 -221zM672 1855l202 84l140 -385h-176z" />
<glyph unicode="&#xd3;" horiz-adv-x="1591" d="M98 670q-1 163 56.5 312.5t158 261t246 178t309.5 67.5q149 1 274 -54t208.5 -150t130 -222t47.5 -270q1 -163 -56.5 -312.5t-158 -261t-246 -178.5t-309.5 -68q-198 -1 -349.5 95t-230 253.5t-80.5 348.5zM377 643q3 -201 110 -316.5t277 -113.5q110 1 203.5 53.5 t154.5 138t95 193.5t32 221q-1 200 -108 316t-275 114q-110 -1 -204 -54t-156 -138t-96.5 -193t-32.5 -221zM750 1554l288 385l195 -104l-289 -281h-194z" />
<glyph unicode="&#xd4;" horiz-adv-x="1591" d="M98 670q-1 163 56.5 312.5t158 261t246 178t309.5 67.5q149 1 274 -54t208.5 -150t130 -222t47.5 -270q1 -163 -56.5 -312.5t-158 -261t-246 -178.5t-309.5 -68q-198 -1 -349.5 95t-230 253.5t-80.5 348.5zM377 643q3 -201 110 -316.5t277 -113.5q110 1 203.5 53.5 t154.5 138t95 193.5t32 221q-1 200 -108 316t-275 114q-110 -1 -204 -54t-156 -138t-96.5 -193t-32.5 -221zM536 1566l336 367h242l180 -367h-176l-156 199l-237 -199h-189z" />
<glyph unicode="&#xd5;" horiz-adv-x="1591" d="M98 670q-1 163 56.5 312.5t158 261t246 178t309.5 67.5q149 1 274 -54t208.5 -150t130 -222t47.5 -270q1 -163 -56.5 -312.5t-158 -261t-246 -178.5t-309.5 -68q-198 -1 -349.5 95t-230 253.5t-80.5 348.5zM377 643q3 -201 110 -316.5t277 -113.5q110 1 203.5 53.5 t154.5 138t95 193.5t32 221q-1 200 -108 316t-275 114q-110 -1 -204 -54t-156 -138t-96.5 -193t-32.5 -221zM535 1628q80 215 266 215q74 0 168 -51q82 -45 133 -45q87 0 123 96l116 -63q-75 -215 -266 -215q-76 0 -164 51q-85 45 -133 45q-49 0 -80.5 -29t-46.5 -67z" />
<glyph unicode="&#xd6;" horiz-adv-x="1591" d="M98 670q-1 163 56.5 312.5t158 261t246 178t309.5 67.5q149 1 274 -54t208.5 -150t130 -222t47.5 -270q1 -163 -56.5 -312.5t-158 -261t-246 -178.5t-309.5 -68q-198 -1 -349.5 95t-230 253.5t-80.5 348.5zM377 643q3 -201 110 -316.5t277 -113.5q110 1 203.5 53.5 t154.5 138t95 193.5t32 221q-1 200 -108 316t-275 114q-110 -1 -204 -54t-156 -138t-96.5 -193t-32.5 -221zM596 1579l45 213h211l-45 -213h-211zM1010 1579l45 213h213l-45 -213h-213z" />
<glyph unicode="&#xd7;" d="M-55 156l479 399l-311 403l168 129l305 -395l475 395l137 -161l-483 -402l311 -403l-168 -129l-305 395l-473 -395z" />
<glyph unicode="&#xd8;" horiz-adv-x="1591" d="M106 670q0 167 58.5 318t159.5 261t245 175t308 65q215 0 374 -111l82 105l97 -78l-84 -107q90 -95 137 -225t47 -282q0 -167 -58 -317.5t-159 -261t-245 -175t-308 -64.5q-228 0 -375 111l-82 -104l-96 77l84 107q-90 93 -137.5 223.5t-47.5 282.5zM385 664 q0 -175 76 -293l631 813q-88 63 -220 63q-143 0 -255 -79.5t-172 -211.5t-60 -292zM545 276q88 -63 219 -63q145 0 257.5 79.5t172 212t59.5 292.5q0 180 -77 295z" />
<glyph unicode="&#xd9;" horiz-adv-x="1472" d="M111 412q0 68 20 170l191 880h268l-193 -905q-16 -62 -16 -104q0 -113 74 -175.5t207 -62.5q306 0 374 330l191 917h266l-199 -952q-55 -262 -223 -399.5t-434 -137.5q-233 0 -379.5 116.5t-146.5 322.5zM668 1855l202 84l140 -385h-176z" />
<glyph unicode="&#xda;" horiz-adv-x="1472" d="M111 412q0 68 20 170l191 880h268l-193 -905q-16 -62 -16 -104q0 -113 74 -175.5t207 -62.5q306 0 374 330l191 917h266l-199 -952q-55 -262 -223 -399.5t-434 -137.5q-233 0 -379.5 116.5t-146.5 322.5zM770 1554l288 385l195 -104l-289 -281h-194z" />
<glyph unicode="&#xdb;" horiz-adv-x="1472" d="M111 412q0 68 20 170l191 880h268l-193 -905q-16 -62 -16 -104q0 -113 74 -175.5t207 -62.5q306 0 374 330l191 917h266l-199 -952q-55 -262 -223 -399.5t-434 -137.5q-233 0 -379.5 116.5t-146.5 322.5zM542 1566l336 367h242l180 -367h-176l-156 199l-237 -199h-189z " />
<glyph unicode="&#xdc;" horiz-adv-x="1472" d="M111 412q0 68 20 170l191 880h268l-193 -905q-16 -62 -16 -104q0 -113 74 -175.5t207 -62.5q306 0 374 330l191 917h266l-199 -952q-55 -262 -223 -399.5t-434 -137.5q-233 0 -379.5 116.5t-146.5 322.5zM614 1579l45 213h211l-45 -213h-211zM1028 1579l45 213h213 l-45 -213h-213z" />
<glyph unicode="&#xdd;" horiz-adv-x="1277" d="M135 1462h297l211 -628l479 628h322l-707 -874l-125 -588h-268l125 590zM672 1554l288 385l195 -104l-289 -281h-194z" />
<glyph unicode="&#xde;" horiz-adv-x="1325" d="M27 0l311 1462h266l-39 -176h299q228 0 357 -116t129 -314q0 -105 -38 -195t-110 -157.5t-183 -105.5t-249 -38h-403l-74 -360h-266zM422 600h377q132 0 202 67t70 177q0 200 -233 200h-324z" />
<glyph unicode="&#xdf;" horiz-adv-x="1306" d="M20 0l230 1092q41 190 174 293.5t350 103.5q213 0 346 -107.5t133 -281.5q0 -128 -79 -219.5t-205 -124.5q85 -41 140.5 -132.5t55.5 -207.5q0 -192 -150.5 -317.5t-385.5 -125.5q-134 0 -244 52l70 217q74 -45 172 -45q126 0 201 65t75 174q0 105 -68 168.5t-184 63.5 h-76l43 209h146q102 0 166.5 54t64.5 146q0 93 -64.5 145t-166.5 52q-221 0 -268 -215l-224 -1059h-252z" />
<glyph unicode="&#xe0;" horiz-adv-x="1110" d="M6 287q0 59 15.5 107.5t39 82t60.5 59.5t72 42t80.5 27.5t79 16.5t75.5 9q185 21 244 42q91 33 92 105q0 33 -15.5 56.5t-42.5 35.5t-56.5 17.5t-63.5 5.5q-171 0 -338 -107l-86 181q212 139 463 139q182 0 289.5 -71.5t107.5 -213.5q0 -46 -12 -108l-152 -713h-256 l23 100q-106 -125 -293 -125q-147 0 -236.5 81t-89.5 231zM264 311q0 -74 43 -107.5t115 -33.5q104 0 174 65.5t96 184.5l27 123q-12 -11 -26.5 -19.5t-35.5 -15.5t-35 -11.5t-42.5 -10t-39.5 -7t-45 -6.5t-40 -6q-92 -12 -141.5 -45t-49.5 -111zM402 1511l202 84l140 -385 h-176z" />
<glyph unicode="&#xe1;" horiz-adv-x="1110" d="M6 287q0 59 15.5 107.5t39 82t60.5 59.5t72 42t80.5 27.5t79 16.5t75.5 9q185 21 244 42q91 33 92 105q0 33 -15.5 56.5t-42.5 35.5t-56.5 17.5t-63.5 5.5q-171 0 -338 -107l-86 181q212 139 463 139q182 0 289.5 -71.5t107.5 -213.5q0 -46 -12 -108l-152 -713h-256 l23 100q-106 -125 -293 -125q-147 0 -236.5 81t-89.5 231zM264 311q0 -74 43 -107.5t115 -33.5q104 0 174 65.5t96 184.5l27 123q-12 -11 -26.5 -19.5t-35.5 -15.5t-35 -11.5t-42.5 -10t-39.5 -7t-45 -6.5t-40 -6q-92 -12 -141.5 -45t-49.5 -111zM531 1210l288 385l195 -104 l-289 -281h-194z" />
<glyph unicode="&#xe2;" horiz-adv-x="1110" d="M6 287q0 59 15.5 107.5t39 82t60.5 59.5t72 42t80.5 27.5t79 16.5t75.5 9q185 21 244 42q91 33 92 105q0 33 -15.5 56.5t-42.5 35.5t-56.5 17.5t-63.5 5.5q-171 0 -338 -107l-86 181q212 139 463 139q182 0 289.5 -71.5t107.5 -213.5q0 -46 -12 -108l-152 -713h-256 l23 100q-106 -125 -293 -125q-147 0 -236.5 81t-89.5 231zM264 311q0 -74 43 -107.5t115 -33.5q104 0 174 65.5t96 184.5l27 123q-12 -11 -26.5 -19.5t-35.5 -15.5t-35 -11.5t-42.5 -10t-39.5 -7t-45 -6.5t-40 -6q-92 -12 -141.5 -45t-49.5 -111zM278 1210l336 367h242 l180 -367h-176l-156 199l-237 -199h-189z" />
<glyph unicode="&#xe3;" horiz-adv-x="1110" d="M6 287q0 59 15.5 107.5t39 82t60.5 59.5t72 42t80.5 27.5t79 16.5t75.5 9q185 21 244 42q91 33 92 105q0 33 -15.5 56.5t-42.5 35.5t-56.5 17.5t-63.5 5.5q-171 0 -338 -107l-86 181q212 139 463 139q182 0 289.5 -71.5t107.5 -213.5q0 -46 -12 -108l-152 -713h-256 l23 100q-106 -125 -293 -125q-147 0 -236.5 81t-89.5 231zM264 311q0 -74 43 -107.5t115 -33.5q104 0 174 65.5t96 184.5l27 123q-12 -11 -26.5 -19.5t-35.5 -15.5t-35 -11.5t-42.5 -10t-39.5 -7t-45 -6.5t-40 -6q-92 -12 -141.5 -45t-49.5 -111zM279 1284q80 215 266 215 q74 0 168 -51q82 -45 133 -45q87 0 123 96l116 -63q-75 -215 -266 -215q-76 0 -164 51q-85 45 -133 45q-49 0 -80.5 -29t-46.5 -67z" />
<glyph unicode="&#xe4;" horiz-adv-x="1110" d="M6 287q0 59 15.5 107.5t39 82t60.5 59.5t72 42t80.5 27.5t79 16.5t75.5 9q185 21 244 42q91 33 92 105q0 33 -15.5 56.5t-42.5 35.5t-56.5 17.5t-63.5 5.5q-171 0 -338 -107l-86 181q212 139 463 139q182 0 289.5 -71.5t107.5 -213.5q0 -46 -12 -108l-152 -713h-256 l23 100q-106 -125 -293 -125q-147 0 -236.5 81t-89.5 231zM264 311q0 -74 43 -107.5t115 -33.5q104 0 174 65.5t96 184.5l27 123q-12 -11 -26.5 -19.5t-35.5 -15.5t-35 -11.5t-42.5 -10t-39.5 -7t-45 -6.5t-40 -6q-92 -12 -141.5 -45t-49.5 -111zM334 1235l45 213h211 l-45 -213h-211zM748 1235l45 213h213l-45 -213h-213z" />
<glyph unicode="&#xe5;" horiz-adv-x="1110" d="M6 287q0 59 15.5 107.5t39 82t60.5 59.5t72 42t80.5 27.5t79 16.5t75.5 9q185 21 244 42q91 33 92 105q0 33 -15.5 56.5t-42.5 35.5t-56.5 17.5t-63.5 5.5q-171 0 -338 -107l-86 181q212 139 463 139q182 0 289.5 -71.5t107.5 -213.5q0 -46 -12 -108l-152 -713h-256 l23 100q-106 -125 -293 -125q-147 0 -236.5 81t-89.5 231zM264 311q0 -74 43 -107.5t115 -33.5q104 0 174 65.5t96 184.5l27 123q-12 -11 -26.5 -19.5t-35.5 -15.5t-35 -11.5t-42.5 -10t-39.5 -7t-45 -6.5t-40 -6q-92 -12 -141.5 -45t-49.5 -111zM438 1360q0 94 67 160.5 t159 66.5q94 0 160.5 -66.5t66.5 -160.5q0 -92 -66.5 -158.5t-160.5 -66.5q-92 0 -159 66.5t-67 158.5zM565 1360q0 -40 29.5 -70t69.5 -30q41 0 71.5 30t30.5 70q0 42 -30 72t-72 30q-40 0 -69.5 -30t-29.5 -72z" />
<glyph unicode="&#xe6;" horiz-adv-x="1822" d="M6 289q0 58 15.5 106.5t39 81.5t60.5 59.5t72 42t80.5 27t79 16.5t75.5 9q185 21 244 42q91 33 92 105q0 33 -15.5 56.5t-42.5 35.5t-56.5 17.5t-63.5 5.5q-171 0 -338 -107l-86 181q205 139 444 139q117 0 202 -35.5t126 -103.5q156 139 362 139q213 0 334 -124.5 t121 -315.5q0 -98 -31 -183h-759q-5 -30 -5 -51q0 -107 65.5 -173t176.5 -66q161 0 268 133l170 -140q-180 -211 -458 -211q-132 0 -233.5 58t-151.5 160q-150 -218 -431 -218q-162 0 -259 81.5t-97 232.5zM264 311q0 -74 43 -107.5t115 -33.5q104 0 174 65.5t96 184.5 l27 123q-12 -11 -26.5 -19.5t-35.5 -15.5t-35 -11.5t-42.5 -10t-39.5 -7t-45 -6.5t-40 -6q-92 -12 -141.5 -45t-49.5 -111zM989 653h512q6 12 6 39q0 102 -60 159.5t-163 57.5q-110 0 -188 -67t-107 -189z" />
<glyph unicode="&#xe7;" horiz-adv-x="1091" d="M59 489q0 125 44 238.5t120.5 197t186 132.5t233.5 49q85 0 157.5 -22t125 -61t89.5 -82t66 -95l-202 -115q-78 156 -232 156q-95 0 -169 -56t-112 -146t-38 -196q0 -131 61 -212.5t174 -81.5q142 0 250 137l166 -137q-173 -220 -434 -220q-219 0 -352.5 144.5 t-133.5 369.5zM191 -350l26 121q28 -27 67.5 -38.5t68.5 -11.5q41 0 64.5 19t23.5 47q0 20 -11 27h-96l27 129q50 10 69 10q86 0 150.5 -48t64.5 -126q0 -82 -71.5 -130t-184.5 -48q-115 0 -198 49z" />
<glyph unicode="&#xe8;" horiz-adv-x="1191" d="M57 477q0 169 76 312t216.5 230t314.5 87q214 0 336 -124.5t122 -315.5q0 -106 -32 -183h-760q-4 -24 -4 -51q0 -107 65 -173t176 -66q162 0 269 133l170 -140q-180 -211 -459 -211q-229 0 -359.5 140.5t-130.5 361.5zM358 653h514q5 25 5 39q0 102 -60 159.5t-164 57.5 q-110 0 -188 -67t-107 -189zM461 1505l202 84l140 -385h-176z" />
<glyph unicode="&#xe9;" horiz-adv-x="1191" d="M57 477q0 169 76 312t216.5 230t314.5 87q214 0 336 -124.5t122 -315.5q0 -106 -32 -183h-760q-4 -24 -4 -51q0 -107 65 -173t176 -66q162 0 269 133l170 -140q-180 -211 -459 -211q-229 0 -359.5 140.5t-130.5 361.5zM358 653h514q5 25 5 39q0 102 -60 159.5t-164 57.5 q-110 0 -188 -67t-107 -189zM537 1210l288 385l195 -104l-289 -281h-194z" />
<glyph unicode="&#xea;" horiz-adv-x="1191" d="M57 477q0 169 76 312t216.5 230t314.5 87q214 0 336 -124.5t122 -315.5q0 -106 -32 -183h-760q-4 -24 -4 -51q0 -107 65 -173t176 -66q162 0 269 133l170 -140q-180 -211 -459 -211q-229 0 -359.5 140.5t-130.5 361.5zM295 1210l336 367h241l181 -367h-176l-156 199 l-238 -199h-188zM358 653h514q5 25 5 39q0 102 -60 159.5t-164 57.5q-110 0 -188 -67t-107 -189z" />
<glyph unicode="&#xeb;" horiz-adv-x="1191" d="M57 477q0 169 76 312t216.5 230t314.5 87q214 0 336 -124.5t122 -315.5q0 -106 -32 -183h-760q-4 -24 -4 -51q0 -107 65 -173t176 -66q162 0 269 133l170 -140q-180 -211 -459 -211q-229 0 -359.5 140.5t-130.5 361.5zM358 653h514q5 25 5 39q0 102 -60 159.5t-164 57.5 q-110 0 -188 -67t-107 -189zM358 1235l45 213h211l-45 -213h-211zM772 1235l45 213h213l-45 -213h-213z" />
<glyph unicode="&#xec;" horiz-adv-x="520" d="M18 0l230 1081h254l-230 -1081h-254zM152 1511l202 84l140 -385h-176z" />
<glyph unicode="&#xed;" horiz-adv-x="520" d="M18 0l230 1081h254l-230 -1081h-254zM287 1210l288 385l195 -104l-289 -281h-194z" />
<glyph unicode="&#xee;" horiz-adv-x="520" d="M18 0l230 1081h254l-230 -1081h-254zM24 1210l336 367h242l180 -367h-176l-156 199l-237 -199h-189z" />
<glyph unicode="&#xef;" horiz-adv-x="520" d="M18 0l230 1081h254l-230 -1081h-254zM90 1235l45 213h211l-45 -213h-211zM504 1235l45 213h213l-45 -213h-213z" />
<glyph unicode="&#xf0;" horiz-adv-x="1267" d="M66 459q0 219 140.5 365.5t356.5 146.5q133 0 224 -53.5t128 -120.5q11 72 11 129q0 141 -62 233l-307 -133v123l209 92q-93 39 -182 39q-126 0 -234 -66l-69 213q139 68 303 68q125 0 238.5 -42.5t185.5 -115.5q38 15 113.5 48t113.5 49v-125l-156 -64q99 -156 99 -399 q0 -141 -25.5 -270.5t-78 -239.5t-126 -191t-174.5 -126.5t-219 -45.5q-223 0 -356 138t-133 348zM336 442q0 -108 60 -175.5t169 -67.5q88 0 155.5 46.5t100.5 116t33 146.5q0 116 -69 181t-171 65q-87 0 -152 -47t-95.5 -116.5t-30.5 -148.5z" />
<glyph unicode="&#xf1;" horiz-adv-x="1185" d="M6 0l230 1081h253l-26 -127q146 152 334 152q142 0 221.5 -87.5t79.5 -213.5q0 -46 -17 -125l-145 -680h-252l137 643q10 52 10 88q0 68 -40 109t-115 41q-104 0 -183 -75t-104 -198l-129 -608h-254zM340 1284q80 215 266 215q74 0 168 -51q82 -45 133 -45q87 0 123 96 l117 -63q-75 -215 -266 -215q-76 0 -164 51q-85 45 -133 45q-49 0 -80.5 -29t-46.5 -67z" />
<glyph unicode="&#xf2;" horiz-adv-x="1226" d="M59 496q0 127 42.5 239t118 194t185 129.5t238.5 47.5q232 0 368 -142.5t136 -375.5q0 -171 -72 -310.5t-206.5 -221t-305.5 -81.5q-231 0 -367.5 143.5t-136.5 377.5zM328 487q0 -129 62 -211.5t177 -82.5q95 0 167.5 59t108.5 149t36 193q0 129 -61.5 212t-176.5 83 q-71 0 -131.5 -34.5t-99.5 -91.5t-60.5 -128.5t-21.5 -147.5zM467 1511l202 84l140 -385h-176z" />
<glyph unicode="&#xf3;" horiz-adv-x="1226" d="M59 496q0 127 42.5 239t118 194t185 129.5t238.5 47.5q232 0 368 -142.5t136 -375.5q0 -171 -72 -310.5t-206.5 -221t-305.5 -81.5q-231 0 -367.5 143.5t-136.5 377.5zM328 487q0 -129 62 -211.5t177 -82.5q95 0 167.5 59t108.5 149t36 193q0 129 -61.5 212t-176.5 83 q-71 0 -131.5 -34.5t-99.5 -91.5t-60.5 -128.5t-21.5 -147.5zM553 1210l288 385l195 -104l-289 -281h-194z" />
<glyph unicode="&#xf4;" horiz-adv-x="1226" d="M59 496q0 127 42.5 239t118 194t185 129.5t238.5 47.5q232 0 368 -142.5t136 -375.5q0 -171 -72 -310.5t-206.5 -221t-305.5 -81.5q-231 0 -367.5 143.5t-136.5 377.5zM307 1210l336 367h242l180 -367h-176l-156 199l-237 -199h-189zM328 487q0 -129 62 -211.5t177 -82.5 q95 0 167.5 59t108.5 149t36 193q0 129 -61.5 212t-176.5 83q-71 0 -131.5 -34.5t-99.5 -91.5t-60.5 -128.5t-21.5 -147.5z" />
<glyph unicode="&#xf5;" horiz-adv-x="1226" d="M59 496q0 127 42.5 239t118 194t185 129.5t238.5 47.5q232 0 368 -142.5t136 -375.5q0 -171 -72 -310.5t-206.5 -221t-305.5 -81.5q-231 0 -367.5 143.5t-136.5 377.5zM315 1284q80 215 267 215q74 0 168 -51q82 -45 133 -45q87 0 123 96l116 -63q-75 -215 -266 -215 q-76 0 -164 51q-85 45 -133 45q-49 0 -80.5 -29t-46.5 -67zM328 487q0 -129 62 -211.5t177 -82.5q95 0 167.5 59t108.5 149t36 193q0 129 -61.5 212t-176.5 83q-71 0 -131.5 -34.5t-99.5 -91.5t-60.5 -128.5t-21.5 -147.5z" />
<glyph unicode="&#xf6;" horiz-adv-x="1226" d="M59 496q0 127 42.5 239t118 194t185 129.5t238.5 47.5q232 0 368 -142.5t136 -375.5q0 -171 -72 -310.5t-206.5 -221t-305.5 -81.5q-231 0 -367.5 143.5t-136.5 377.5zM328 487q0 -129 62 -211.5t177 -82.5q95 0 167.5 59t108.5 149t36 193q0 129 -61.5 212t-176.5 83 q-71 0 -131.5 -34.5t-99.5 -91.5t-60.5 -128.5t-21.5 -147.5zM356 1235l45 213h211l-45 -213h-211zM770 1235l45 213h213l-45 -213h-213z" />
<glyph unicode="&#xf7;" d="M8 432l45 215h1084l-47 -215h-1082zM328 137q0 65 45.5 111.5t111.5 46.5q64 0 110 -46.5t46 -111.5q0 -63 -46 -109t-110 -46q-65 0 -111 46t-46 109zM498 942q0 65 45.5 111.5t111.5 46.5q64 0 110 -46.5t46 -111.5t-46 -111.5t-112 -46.5q-64 0 -109.5 46.5 t-45.5 111.5z" />
<glyph unicode="&#xf8;" horiz-adv-x="1226" d="M59 496q0 127 42.5 239t118 194t185 129.5t238.5 47.5q162 0 289 -78l59 72l88 -74l-59 -74q127 -136 127 -364q0 -171 -72 -310.5t-206.5 -221t-305.5 -81.5q-167 0 -289 78l-57 -73l-92 75l59 74q-125 141 -125 367zM328 487q0 -82 32 -151l416 512q-57 41 -135 41 q-71 0 -131.5 -34.5t-99.5 -91.5t-60.5 -128.5t-21.5 -147.5zM430 236q52 -43 137 -43q95 0 167.5 59t108.5 149t36 193q0 83 -33 151z" />
<glyph unicode="&#xf9;" horiz-adv-x="1185" d="M66 276q0 64 14 125l145 680h254l-137 -641q-12 -66 -12 -88q0 -68 41 -108.5t114 -40.5q105 0 184.5 74t104.5 198l129 606h254l-231 -1081h-252l26 129q-142 -154 -333 -154q-142 0 -221.5 87.5t-79.5 213.5zM459 1511l202 84l140 -385h-176z" />
<glyph unicode="&#xfa;" horiz-adv-x="1185" d="M66 276q0 64 14 125l145 680h254l-137 -641q-12 -66 -12 -88q0 -68 41 -108.5t114 -40.5q105 0 184.5 74t104.5 198l129 606h254l-231 -1081h-252l26 129q-142 -154 -333 -154q-142 0 -221.5 87.5t-79.5 213.5zM609 1210l288 385l195 -104l-289 -281h-194z" />
<glyph unicode="&#xfb;" horiz-adv-x="1185" d="M66 276q0 64 14 125l145 680h254l-137 -641q-12 -66 -12 -88q0 -68 41 -108.5t114 -40.5q105 0 184.5 74t104.5 198l129 606h254l-231 -1081h-252l26 129q-142 -154 -333 -154q-142 0 -221.5 87.5t-79.5 213.5zM331 1210l336 367h242l180 -367h-176l-156 199l-237 -199 h-189z" />
<glyph unicode="&#xfc;" horiz-adv-x="1185" d="M66 276q0 64 14 125l145 680h254l-137 -641q-12 -66 -12 -88q0 -68 41 -108.5t114 -40.5q105 0 184.5 74t104.5 198l129 606h254l-231 -1081h-252l26 129q-142 -154 -333 -154q-142 0 -221.5 87.5t-79.5 213.5zM389 1235l45 213h211l-45 -213h-211zM803 1235l45 213h213 l-45 -213h-213z" />
<glyph unicode="&#xfd;" horiz-adv-x="1050" d="M-119 -315l113 172q25 -25 67 -25q56 0 99 34.5t84 98.5l41 64l-207 1052h274l115 -749l399 749h283l-645 -1120q-50 -87 -90 -143.5t-90 -104t-108 -69t-130 -21.5q-123 0 -205 62zM492 1210l288 385l195 -104l-289 -281h-194z" />
<glyph unicode="&#xfe;" horiz-adv-x="1273" d="M-68 -356l385 1818h256l-110 -501q126 145 317 145q186 0 300 -141.5t114 -358.5q0 -169 -71.5 -313.5t-199.5 -231t-284 -86.5q-233 0 -344 189l-109 -520h-254zM369 481q0 -124 62 -203t179 -79q96 0 169.5 58t109 147t35.5 192q0 126 -58 206.5t-174 80.5 q-98 0 -173.5 -60t-112.5 -150.5t-37 -191.5z" />
<glyph unicode="&#xff;" horiz-adv-x="1050" d="M-119 -315l113 172q25 -25 67 -25q56 0 99 34.5t84 98.5l41 64l-207 1052h274l115 -749l399 749h283l-645 -1120q-50 -87 -90 -143.5t-90 -104t-108 -69t-130 -21.5q-123 0 -205 62zM293 1235l45 213h211l-45 -213h-211zM707 1235l45 213h213l-45 -213h-213z" />
<glyph unicode="&#x152;" horiz-adv-x="2252" d="M106 664q0 169 58.5 321t160.5 263t247 176t311 65q94 0 194 -27h1239l-51 -241h-868q112 -143 127 -353h585l-45 -221h-551q-35 -246 -194 -405h760l-54 -242h-1069q-111 -27 -202 -27q-149 0 -272.5 54.5t-205 148.5t-126 219.5t-44.5 268.5zM387 659 q0 -199 97.5 -322.5t279.5 -123.5q145 0 257.5 80t172 213.5t59.5 294.5q0 199 -97 322.5t-279 123.5q-144 0 -257 -79.5t-173 -213t-60 -295.5z" />
<glyph unicode="&#x153;" horiz-adv-x="2023" d="M59 496q0 127 42.5 239t118 194t185 129.5t238.5 47.5q131 0 232.5 -52t162.5 -145q79 93 189.5 145t242.5 52q113 0 205 -35.5t152 -97t92.5 -143.5t32.5 -177q0 -86 -29 -170h-776q-2 -10 -2 -34q0 -116 69.5 -186t188.5 -70q170 0 280 133l170 -140 q-89 -103 -209.5 -157t-261.5 -54q-135 0 -236 49.5t-163 139.5q-138 -154 -354 -180q-90 -7 -148 0q-197 23 -309.5 161.5t-112.5 350.5zM328 487q0 -129 62 -211.5t177 -82.5q95 0 167.5 59t108.5 149t36 193q0 129 -61.5 212t-176.5 83q-71 0 -131.5 -34.5t-99.5 -91.5 t-60.5 -128.5t-21.5 -147.5zM1167 653h531v25q0 105 -65 168t-171 63q-110 0 -189.5 -68t-105.5 -188z" />
<glyph unicode="&#x178;" horiz-adv-x="1277" d="M135 1462h297l211 -628l479 628h322l-707 -874l-125 -588h-268l125 590zM471 1579l45 213h211l-45 -213h-211zM885 1579l45 213h213l-45 -213h-213z" />
<glyph unicode="&#x2c6;" horiz-adv-x="712" d="M59 1210l336 367h242l180 -367h-176l-156 199l-237 -199h-189z" />
<glyph unicode="&#x2dc;" horiz-adv-x="649" d="M113 1284q80 215 266 215q74 0 168 -51q82 -45 133 -45q87 0 123 96l117 -63q-75 -215 -267 -215q-76 0 -164 51q-85 45 -133 45q-49 0 -80.5 -29t-46.5 -67z" />
<glyph unicode="&#x2000;" horiz-adv-x="969" />
<glyph unicode="&#x2001;" horiz-adv-x="1939" />
<glyph unicode="&#x2002;" horiz-adv-x="969" />
<glyph unicode="&#x2003;" horiz-adv-x="1939" />
<glyph unicode="&#x2004;" horiz-adv-x="646" />
<glyph unicode="&#x2005;" horiz-adv-x="484" />
<glyph unicode="&#x2006;" horiz-adv-x="323" />
<glyph unicode="&#x2007;" horiz-adv-x="323" />
<glyph unicode="&#x2008;" horiz-adv-x="242" />
<glyph unicode="&#x2009;" horiz-adv-x="387" />
<glyph unicode="&#x200a;" horiz-adv-x="107" />
<glyph unicode="&#x2010;" horiz-adv-x="792" d="M84 432l45 215h569l-45 -215h-569z" />
<glyph unicode="&#x2011;" horiz-adv-x="792" d="M84 432l45 215h569l-45 -215h-569z" />
<glyph unicode="&#x2012;" horiz-adv-x="792" d="M84 432l45 215h569l-45 -215h-569z" />
<glyph unicode="&#x2013;" d="M8 432l45 215h1084l-47 -215h-1082z" />
<glyph unicode="&#x2014;" horiz-adv-x="1884" d="M63 432l46 215h1673l-45 -215h-1674z" />
<glyph unicode="&#x2018;" horiz-adv-x="495" d="M154 870l51 244q27 131 97.5 222t197.5 153l55 -115q-68 -29 -116.5 -81.5t-61.5 -112.5l-12 -58h129l-56 -252h-284z" />
<glyph unicode="&#x2019;" horiz-adv-x="464" d="M158 956q67 29 115.5 82.5t62.5 112.5l12 59h-129l53 252h287l-51 -243q-27 -131 -97.5 -223t-197.5 -152z" />
<glyph unicode="&#x201a;" horiz-adv-x="526" d="M-59 -209q72 35 120.5 87t61.5 114l6 26h-129l55 258h285l-49 -233q-25 -122 -93.5 -208t-199.5 -154z" />
<glyph unicode="&#x201c;" horiz-adv-x="919" d="M154 870l51 244q27 131 97.5 222t197.5 153l55 -115q-68 -29 -116.5 -81.5t-61.5 -112.5l-12 -58h129l-54 -252h-286zM578 870l51 244q27 131 97.5 222t197.5 153l55 -115q-68 -29 -116.5 -81.5t-61.5 -112.5l-13 -58h130l-56 -252h-284z" />
<glyph unicode="&#x201d;" horiz-adv-x="886" d="M158 956q67 29 115.5 82.5t62.5 112.5l12 59h-129l53 252h287l-51 -243q-27 -131 -97.5 -223t-197.5 -152zM580 956q68 29 117 82.5t63 112.5l12 59h-127l51 252h285l-49 -243q-27 -131 -97.5 -223t-197.5 -152z" />
<glyph unicode="&#x201e;" horiz-adv-x="921" d="M-59 -209q73 34 121 86.5t63 114.5l4 26h-129l55 258h285l-49 -233q-25 -122 -93.5 -208t-199.5 -154zM336 -209q73 34 121 86.5t61 114.5l6 26h-129l56 258h284l-47 -233q-27 -122 -95 -208t-198 -154z" />
<glyph unicode="&#x2022;" horiz-adv-x="802" d="M92 731q0 135 94.5 230.5t227.5 95.5q135 0 230 -95.5t95 -230.5t-95 -229t-230 -94q-134 0 -228 94t-94 229z" />
<glyph unicode="&#x2026;" horiz-adv-x="1517" d="M-12 0l59 279h283l-60 -279h-282zM496 0l59 279h285l-62 -279h-282zM1004 0l59 279h285l-60 -279h-284z" />
<glyph unicode="&#x202f;" horiz-adv-x="387" />
<glyph unicode="&#x2039;" horiz-adv-x="602" d="M33 543l18 92l414 430l123 -115l-338 -389l164 -377l-152 -73z" />
<glyph unicode="&#x203a;" horiz-adv-x="602" d="M-10 227l340 389l-168 375l155 76l228 -434l-19 -90l-413 -432z" />
<glyph unicode="&#x205f;" horiz-adv-x="484" />
<glyph unicode="&#x20ac;" d="M-53 535l24 122h133v48q0 47 9 94h-111l27 125h110q67 253 254 409t436 156q255 0 414 -166l-164 -186q-95 116 -252 116q-145 0 -249 -85.5t-154 -243.5h475l-27 -125h-481q-10 -59 -10 -142h463l-27 -122h-430q15 -152 96 -240t203 -88q151 0 260 121l135 -185 q-167 -170 -411 -170q-235 0 -384 151.5t-177 410.5h-162z" />
<glyph unicode="&#x2122;" horiz-adv-x="1482" d="M256 1333l27 129h505l-28 -129h-189l-96 -452h-133l96 452h-182zM727 881l123 581h186l43 -426l228 426h182l-123 -581h-129l90 424l-227 -424h-109l-45 424l-92 -424h-127z" />
<glyph unicode="&#xe000;" horiz-adv-x="1085" d="M0 0v1085h1085v-1085h-1085z" />
</font>
</defs>
</svg>
