<?xml version="1.0" standalone="no"?>
<!DOCTYPE svg PUBLIC "-//W3C//DTD SVG 1.1//EN" "http://www.w3.org/Graphics/SVG/1.1/DTD/svg11.dtd" >
<svg xmlns="http://www.w3.org/2000/svg">
<metadata></metadata>
<defs>
<font id="sq_marketregular" horiz-adv-x="1179" >
<font-face units-per-em="2048" ascent="1638" descent="-410" />
<missing-glyph horiz-adv-x="552" />
<glyph unicode="&#xfb01;" horiz-adv-x="1155" d="M49 913v150h178v182q0 72 25.5 122t69 74t87.5 34t95 10q78 0 153 -23l-24 -143q-40 20 -109 20q-125 0 -125 -106v-170h244v-150h-244v-913h-172v913h-178zM823 0v1063h172v-1063h-172zM823 1278v184h172v-184h-172z" />
<glyph unicode="&#xfb02;" horiz-adv-x="1159" d="M49 913v150h178v182q0 72 25.5 122t69 74t87.5 34t95 10q78 0 153 -23l-24 -143q-40 20 -109 20q-125 0 -125 -106v-170h244v-150h-244v-913h-172v913h-178zM827 0v1462h172v-1462h-172z" />
<glyph horiz-adv-x="0" />
<glyph horiz-adv-x="682" />
<glyph horiz-adv-x="0" />
<glyph horiz-adv-x="0" />
<glyph horiz-adv-x="552" />
<glyph unicode="&#xd;" horiz-adv-x="124" />
<glyph unicode=" "  horiz-adv-x="552" />
<glyph unicode="&#x09;" horiz-adv-x="552" />
<glyph unicode="&#xa0;" horiz-adv-x="552" />
<glyph unicode="!" horiz-adv-x="532" d="M160 0v215h213v-215h-213zM172 1149v313h188v-313l-47 -717h-92z" />
<glyph unicode="&#x22;" horiz-adv-x="798" d="M154 915v547h143v-547h-143zM500 915v547h143v-547h-143z" />
<glyph unicode="#" d="M80 416v112h180l70 406h-250v110h268l72 418h121l-72 -418h346l74 418h119l-72 -418h160v-110h-178l-70 -406h248v-112h-267l-73 -416h-119l74 416h-349l-73 -416h-121l74 416h-162zM381 528h348l70 406h-348z" />
<glyph unicode="$" d="M78 242l145 92q107 -177 318 -199v535q-47 13 -83.5 24.5t-82.5 31t-80 40.5t-68 52t-56 67t-36 84t-14 104q0 177 119.5 283t300.5 117v94h110v-99q124 -11 228 -68t174 -155l-129 -92q-104 131 -273 158v-488q71 -20 124.5 -39.5t114.5 -54.5t100 -77t65 -106t26 -143 q0 -175 -116.5 -294t-313.5 -132v-100h-110v103q-151 12 -271.5 80.5t-191.5 181.5zM295 1085q0 -51 19.5 -90t57 -66t76.5 -44t93 -33v463q-108 -6 -177 -66.5t-69 -163.5zM651 133q121 9 190.5 78t69.5 182q0 102 -62.5 155t-197.5 93v-508z" />
<glyph unicode="%" horiz-adv-x="1591" d="M102 1155q0 141 89.5 236.5t230.5 95.5t230 -95t89 -237q0 -146 -89 -241t-230 -95t-230.5 95t-89.5 241zM223 1155q0 -93 54.5 -154t144.5 -61q89 0 142.5 61t53.5 154q0 91 -54 150t-142 59q-91 0 -145 -59t-54 -150zM258 0l940 1462h137l-940 -1462h-137zM850 311 q0 142 90.5 237t230.5 95q141 0 230.5 -94.5t89.5 -237.5q0 -144 -89.5 -240t-230.5 -96q-140 0 -230.5 96t-90.5 240zM975 311q0 -91 54 -152t142 -61q89 0 143 61t54 152t-54.5 151t-142.5 60t-142 -60t-54 -151z" />
<glyph unicode="&#x26;" horiz-adv-x="1351" d="M98 381q0 60 14 110.5t37.5 90.5t68 82.5t90.5 77t120 85.5q-79 96 -117.5 171t-38.5 167q0 148 97 236t243 88q141 0 230.5 -83t89.5 -210q0 -109 -71 -200t-208 -189l359 -430q75 89 114 176l134 -72q-55 -112 -150 -221l219 -260h-221l-119 143q-203 -170 -442 -170 q-214 0 -331.5 117t-117.5 291zM281 393q0 -115 73 -189.5t213 -74.5q173 0 328 131l-375 455q-128 -87 -183.5 -155.5t-55.5 -166.5zM440 1169q0 -61 28.5 -117t92.5 -134q114 79 159.5 134.5t45.5 129.5q0 73 -41.5 117t-114.5 44q-74 0 -122 -44.5t-48 -129.5z" />
<glyph unicode="'" horiz-adv-x="452" d="M154 915v547h143v-547h-143z" />
<glyph unicode="(" horiz-adv-x="593" d="M88 682q0 555 358 965l111 -88q-311 -365 -311 -877t311 -877l-111 -88q-358 407 -358 965z" />
<glyph unicode=")" horiz-adv-x="593" d="M37 -195q309 366 309 877t-309 877l110 88q357 -409 357 -965q0 -559 -357 -965z" />
<glyph unicode="*" horiz-adv-x="735" d="M88 1075q57 34 99 52t126 44q-82 26 -124.5 44.5t-100.5 52.5l55 98q59 -34 97.5 -62.5t99.5 -86.5q-19 86 -25 133t-6 112h115q0 -69 -5.5 -116t-25.5 -129q61 58 99.5 86.5t97.5 62.5l57 -98q-60 -34 -103 -52.5t-126 -44.5q85 -26 127.5 -44t101.5 -52l-57 -98 q-59 34 -97.5 62.5t-99.5 86.5q20 -82 25.5 -129t5.5 -116h-115q0 65 6 112t25 133q-61 -58 -99.5 -86.5t-97.5 -62.5z" />
<glyph unicode="+" d="M57 455v151h455v457h154v-457h454v-151h-454v-455h-154v455h-455z" />
<glyph unicode="," horiz-adv-x="512" d="M137 -215q115 100 115 211v4h-107v215h217v-164q0 -188 -161 -330z" />
<glyph unicode="-" horiz-adv-x="792" d="M127 455v151h539v-151h-539z" />
<glyph unicode="." horiz-adv-x="512" d="M147 0v215h215v-215h-215z" />
<glyph unicode="/" horiz-adv-x="716" d="M66 0l450 1462h141l-450 -1462h-141z" />
<glyph unicode="0" d="M92 731q0 119 15.5 225.5t52.5 205.5t93 170.5t143 114t196 42.5q108 0 194 -42.5t141.5 -114t92 -170.5t52 -205.5t15.5 -225.5t-15.5 -225.5t-52 -205.5t-92 -170.5t-141.5 -114t-194 -42.5q-109 0 -196 42.5t-143 114t-93 170.5t-52.5 205.5t-15.5 225.5zM283 731 q0 -129 16 -233t51 -187.5t96.5 -129.5t145.5 -46q82 0 142.5 46t94.5 129.5t50 187.5t16 233t-16 233t-50 187.5t-94.5 129.5t-142.5 46q-84 0 -145.5 -46t-96.5 -129.5t-51 -187.5t-16 -233z" />
<glyph unicode="1" horiz-adv-x="903" d="M94 1182l404 280h153v-1462h-184v1237l-283 -193z" />
<glyph unicode="2" d="M80 1206q82 133 208.5 208t289.5 75q206 0 337.5 -115t131.5 -305q0 -125 -57 -224t-163 -194q-46 -42 -175 -144.5t-216 -184.5t-123 -150h766v-172h-981v25q0 61 23.5 124.5t58.5 117.5t97 119.5t117.5 116.5t140.5 124q8 7 23 20q57 49 84 73t68 63.5t60 66t40.5 63 t29.5 72.5t8 76q0 123 -77.5 188.5t-201.5 65.5q-113 0 -199.5 -53.5t-140.5 -151.5z" />
<glyph unicode="3" d="M59 244l156 94q50 -95 136.5 -144t193.5 -49q149 0 245.5 86t96.5 234q0 129 -72.5 210t-193.5 81q-77 0 -134 -43l-88 84l383 493h-663v172h899v-127l-338 -428q174 -6 288.5 -126t114.5 -306q0 -95 -32 -182.5t-95 -160t-169 -116t-240 -43.5q-332 0 -488 271z" />
<glyph unicode="4" d="M61 348v158l639 956h203v-948h203v-166h-203v-348h-184v348h-658zM240 514h481v715z" />
<glyph unicode="5" d="M82 244l160 92q48 -95 132.5 -143t188.5 -48q143 0 234.5 82t91.5 236q0 149 -86.5 232t-237.5 83q-195 0 -311 -141l-111 55l47 770h814v-172h-660l-31 -440q117 92 297 92q205 0 339 -131.5t134 -339.5q0 -96 -30.5 -183t-91 -158.5t-162.5 -114t-234 -42.5 q-336 0 -483 271z" />
<glyph unicode="6" d="M94 696q0 360 139 566q152 227 459 227q205 0 336 -96l-74 -148q-112 78 -256 78q-110 0 -192.5 -43.5t-131 -120.5t-72 -173.5t-23.5 -211.5q52 84 148 134t216 50q198 0 330.5 -132t132.5 -347q0 -142 -60 -256.5t-174 -182t-262 -67.5q-244 0 -380 187t-136 536z M307 487q0 -146 82.5 -246t228.5 -100q135 0 215 90t80 238q0 143 -77.5 235.5t-225.5 92.5q-138 0 -220.5 -83t-82.5 -227z" />
<glyph unicode="7" d="M90 1290v172h1004v-147l-678 -1315h-201l672 1290h-797z" />
<glyph unicode="8" d="M88 408q0 125 63.5 225t192.5 155q-99 45 -155 129t-56 195q0 173 130 275t327 102t325.5 -102t128.5 -275q0 -111 -55.5 -195t-154.5 -129q131 -55 194.5 -154.5t63.5 -223.5q0 -192 -136 -314.5t-366 -122.5t-366 122.5t-136 312.5zM281 420q0 -132 80.5 -206.5 t228.5 -74.5t227.5 76.5t79.5 210.5q0 127 -75.5 199.5t-231.5 72.5q-155 0 -232 -75t-77 -203zM324 1087q0 -63 22.5 -109t61.5 -71.5t84 -37t98 -11.5q52 0 97 12t84.5 37t62 71t22.5 109q0 119 -76.5 177.5t-189.5 58.5t-189.5 -58.5t-76.5 -177.5z" />
<glyph unicode="9" d="M74 981q0 218 136 363t359 145q243 0 379.5 -188.5t136.5 -544.5t-137 -557q-156 -226 -456 -226q-103 0 -194 27t-153 68l84 151q107 -80 258 -80q109 0 190 44t128.5 122t70.5 176.5t23 216.5q-49 -86 -147 -140t-222 -54q-197 0 -326.5 131t-129.5 346zM266 991 q0 -144 78 -234.5t223 -90.5q139 0 222 86t83 229q0 146 -82.5 243t-226.5 97q-137 0 -217 -92t-80 -238z" />
<glyph unicode=":" horiz-adv-x="602" d="M195 0v215h215v-215h-215zM195 848v215h215v-215h-215z" />
<glyph unicode=";" horiz-adv-x="602" d="M184 -213q115 100 115 209v4h-106v215h217v-162q0 -186 -162 -332zM193 848v215h217v-215h-217z" />
<glyph unicode="&#x3c;" d="M258 532l557 560l107 -105l-453 -455l453 -452l-107 -105z" />
<glyph unicode="=" d="M61 256v150h1055v-150h-1055zM61 655v152h1055v-152h-1055z" />
<glyph unicode="&#x3e;" d="M258 80l453 452l-453 455l102 105l562 -560l-562 -557z" />
<glyph unicode="?" horiz-adv-x="1009" d="M61 1309q196 180 433 180q189 0 307.5 -104.5t118.5 -280.5q0 -73 -22.5 -134t-58.5 -103.5t-79.5 -80.5t-87 -72.5t-79.5 -70t-58.5 -82.5t-22.5 -102v-45h-176v28q0 74 22 137.5t56.5 109t77 86t84.5 76.5t76.5 73t56.5 83.5t22 98.5q0 95 -65.5 156t-186.5 61 q-171 0 -317 -143zM319 0v215h216v-215h-216z" />
<glyph unicode="@" horiz-adv-x="1722" d="M88 715q0 159 58 301t159.5 246.5t248.5 165.5t316 61t316 -61t247.5 -164t158 -241t57.5 -290q0 -188 -88.5 -301t-235.5 -113q-168 0 -229 138q-100 -144 -277 -144q-157 0 -252.5 114t-95.5 286q0 171 96 283t256 112q148 0 242 -113v97h147v-535q0 -129 119 -129 q95 0 144 78.5t49 212.5q0 182 -81 330.5t-230.5 235.5t-338.5 87q-115 0 -218 -34t-181.5 -95t-136 -142.5t-87.5 -180.5t-30 -205q0 -179 81 -327.5t231 -237.5t339 -89q183 0 324 84l57 -102q-182 -98 -387 -98q-167 0 -313 60t-247.5 163.5t-159.5 245t-58 301.5z M627 713q0 -116 56 -190t161 -74t163 75t58 189q0 113 -59 187.5t-164 74.5q-103 0 -159 -74t-56 -188z" />
<glyph unicode="A" horiz-adv-x="1388" d="M23 0l565 1462h215l565 -1462h-211l-153 420h-629l-156 -420h-196zM434 586h508l-248 698z" />
<glyph unicode="B" horiz-adv-x="1400" d="M180 0v1462h580q225 0 348 -93t123 -259q0 -108 -50 -188.5t-137 -128.5q121 -50 183.5 -146.5t62.5 -224.5q0 -89 -30 -164.5t-89 -133.5t-153.5 -91t-214.5 -33h-623zM365 170h432q144 0 222.5 68.5t78.5 193.5q0 115 -70.5 185.5t-206.5 70.5h-456v-518zM365 852h411 q132 0 200 61t68 168q0 109 -71 160t-217 51h-391v-440z" />
<glyph unicode="C" horiz-adv-x="1419" d="M96 731q0 218 85 390t243.5 270t363.5 98q178 0 319 -74.5t236 -212.5l-145 -102q-68 104 -173 160.5t-237 56.5q-228 0 -362.5 -160.5t-134.5 -425.5t137 -425.5t369 -160.5q251 0 407 220l148 -103q-204 -289 -555 -289q-209 0 -369 97t-246 269t-86 392z" />
<glyph unicode="D" horiz-adv-x="1519" d="M180 0v1462h551q162 0 292.5 -55t217 -153t132.5 -231.5t46 -291.5q0 -157 -46 -290.5t-132 -231.5t-217 -153.5t-293 -55.5h-551zM365 172h366q237 0 365.5 151t128.5 408q0 258 -128.5 408.5t-365.5 150.5h-366v-1118z" />
<glyph unicode="E" horiz-adv-x="1296" d="M180 0v1462h987v-172h-802v-438h714v-164h-714v-516h823v-172h-1008z" />
<glyph unicode="F" horiz-adv-x="1224" d="M180 0v1462h983v-172h-798v-438h712v-164h-712v-688h-185z" />
<glyph unicode="G" horiz-adv-x="1531" d="M96 733q0 218 86 389.5t247 269t370 97.5q179 0 320 -75t235 -210l-152 -100q-65 103 -168.5 158t-236.5 55q-234 0 -370 -160.5t-136 -423.5q0 -266 135.5 -427t364.5 -161q198 0 327 122.5t139 336.5h-389v166h574q10 -45 10 -102q0 -142 -44.5 -267.5t-127 -221 t-209 -151t-280.5 -55.5q-207 0 -366 99.5t-244 272t-85 388.5z" />
<glyph unicode="H" horiz-adv-x="1529" d="M180 0v1462h185v-604h800v604h185v-1462h-185v688h-800v-688h-185z" />
<glyph unicode="I" horiz-adv-x="544" d="M180 0v1462h185v-1462h-185z" />
<glyph unicode="J" horiz-adv-x="1013" d="M23 180l145 99q44 -72 108.5 -105t135.5 -33q252 0 252 314v1007h184v-968q0 -231 -78 -344q-112 -177 -360 -177q-126 0 -227.5 53.5t-159.5 153.5z" />
<glyph unicode="K" horiz-adv-x="1357" d="M180 0v1462h185v-800l704 800h231l-544 -606l602 -856h-234l-497 719l-262 -303v-416h-185z" />
<glyph unicode="L" horiz-adv-x="1159" d="M180 0v1462h185v-1290h768v-172h-953z" />
<glyph unicode="M" horiz-adv-x="1820" d="M180 0v1462h277l454 -1210l461 1210h268v-1462h-182v1235l-471 -1235h-153l-474 1237v-1237h-180z" />
<glyph unicode="N" horiz-adv-x="1519" d="M180 0v1462h228l751 -1167v1167h180v-1462h-202l-775 1208v-1208h-182z" />
<glyph unicode="O" horiz-adv-x="1581" d="M94 731q0 216 85 388t244.5 271t367.5 99q156 0 287 -57.5t220.5 -158.5t139 -240.5t49.5 -301.5q0 -215 -84.5 -386.5t-244 -271.5t-367.5 -100t-367.5 100t-244.5 271.5t-85 386.5zM291 731q0 -261 134.5 -421t365.5 -160t366 160t135 421t-135 421.5t-366 160.5 t-365.5 -160.5t-134.5 -421.5z" />
<glyph unicode="P" horiz-adv-x="1308" d="M180 0v1462h570q240 0 370.5 -117.5t130.5 -316.5t-130.5 -316.5t-370.5 -117.5h-385v-594h-185zM365 766h387q153 0 230 69.5t77 192.5q0 122 -77.5 192t-229.5 70h-387v-524z" />
<glyph unicode="Q" horiz-adv-x="1581" d="M94 731q0 216 85 387.5t244.5 271t367.5 99.5t367.5 -99.5t244 -271t84.5 -387.5q0 -180 -61 -331t-173 -255l109 -133l-125 -106l-119 147q-142 -80 -327 -80q-208 0 -367.5 100t-244.5 271.5t-85 386.5zM291 731q0 -261 134.5 -421t365.5 -160q121 0 210 45l-170 213 l125 100l177 -223q159 162 159 446q0 262 -135 422t-366 160t-365.5 -160t-134.5 -422z" />
<glyph unicode="R" horiz-adv-x="1368" d="M180 0v1462h623q217 0 345 -114t128 -306q0 -155 -81 -260t-232 -151l331 -631h-211l-313 602h-405v-602h-185zM365 766h428q135 0 212.5 71.5t77.5 190.5q0 120 -77.5 191t-208.5 71h-432v-524z" />
<glyph unicode="S" horiz-adv-x="1249" d="M70 252l149 104q70 -113 182 -164t234 -51q154 0 245 70.5t91 189.5q0 41 -11 73.5t-36 57.5t-51.5 43t-73 34.5t-84 27.5t-99.5 27q-61 14 -104.5 25.5t-99.5 31.5t-95.5 41t-80.5 53t-66 69t-41 88t-16 111q0 128 70 222t182 139t249 45q158 0 289.5 -62t220.5 -180 l-141 -104q-65 84 -162.5 131t-214.5 47q-132 0 -219.5 -60t-87.5 -165q0 -70 44.5 -116t127.5 -77q41 -16 109.5 -34.5t127.5 -35t128.5 -40t123.5 -55.5t100.5 -75.5t71.5 -106t25 -140.5q0 -194 -144.5 -318.5t-387.5 -124.5q-181 0 -326 73.5t-229 205.5z" />
<glyph unicode="T" horiz-adv-x="1271" d="M49 1290v172h1172v-172h-494v-1290h-184v1290h-494z" />
<glyph unicode="U" horiz-adv-x="1458" d="M164 530v932h184v-932q0 -173 101.5 -276.5t277.5 -103.5q174 0 277.5 104t103.5 276v932h184v-932q0 -125 -42.5 -230t-117.5 -176.5t-179.5 -111t-225.5 -39.5q-250 0 -406.5 152t-156.5 405z" />
<glyph unicode="V" horiz-adv-x="1292" d="M20 1462h203l422 -1249l432 1249h193l-522 -1462h-203z" />
<glyph unicode="W" horiz-adv-x="1951" d="M51 1462h197l291 -1183l352 1183h172l352 -1188l291 1188h195l-383 -1462h-195l-348 1184l-348 -1184h-197z" />
<glyph unicode="X" horiz-adv-x="1331" d="M12 0l537 760l-496 702h226l387 -561l389 561h223l-496 -702l535 -760h-227l-426 621l-428 -621h-224z" />
<glyph unicode="Y" horiz-adv-x="1255" d="M12 1462h219l402 -671l397 671h215l-522 -852v-610h-188v610z" />
<glyph unicode="Z" horiz-adv-x="1271" d="M82 0v166l844 1124h-811v172h1050v-162l-846 -1128h865v-172h-1102z" />
<glyph unicode="[" horiz-adv-x="579" d="M158 -274v1912h397v-141h-238v-1630h238v-141h-397z" />
<glyph unicode="\" horiz-adv-x="716" d="M61 1462h142l450 -1462h-141z" />
<glyph unicode="]" horiz-adv-x="581" d="M25 -133h239v1630h-239v141h399v-1912h-399v141z" />
<glyph unicode="^" d="M47 993l469 469h146l468 -469l-104 -106l-434 438l-440 -438z" />
<glyph unicode="_" horiz-adv-x="1189" d="M-16 -154h1222v-102h-1222v102z" />
<glyph unicode="`" horiz-adv-x="663" d="M61 1503l132 76l235 -362h-145z" />
<glyph unicode="a" horiz-adv-x="1099" d="M86 299q0 52 13 95.5t33 73.5t52 55t60 39.5t68.5 26.5t66 17.5t63.5 11.5q15 2 48 7t49 7.5t45.5 8t45.5 10t39.5 12t36.5 15.5t29 19.5t24 24.5t13.5 29.5t5.5 36.5q0 76 -67 111t-162 35q-85 0 -177 -28.5t-159 -82.5l-78 131q84 62 194.5 97.5t229.5 35.5 q180 0 285.5 -82t105.5 -241v-764h-168v131q-112 -156 -327 -156q-169 0 -269 86.5t-100 237.5zM262 309q0 -93 61 -137.5t158 -44.5q125 0 211 73t86 218v157q-11 -8 -24 -15t-24.5 -12.5t-29.5 -11.5t-29 -9.5t-32.5 -8.5t-30.5 -7.5t-33.5 -7t-32 -5.5t-34 -5.5 t-31.5 -5.5q-53 -10 -86.5 -20.5t-66 -30t-47.5 -51t-15 -76.5z" />
<glyph unicode="b" horiz-adv-x="1263" d="M158 0v1462h172v-565q62 96 157 143t205 47q144 0 254.5 -73t169 -199t58.5 -283q0 -240 -133 -398.5t-349 -158.5q-110 0 -205 48t-157 143v-166h-172zM330 530q0 -172 89 -283.5t247 -111.5q105 0 180 53.5t110 141t35 200.5q0 174 -84 287t-241 113q-158 0 -247 -114 t-89 -286z" />
<glyph unicode="c" horiz-adv-x="1087" d="M90 532q0 240 141 397.5t369 157.5q137 0 243.5 -59t174.5 -160l-129 -90q-47 72 -118.5 112t-160.5 40q-154 0 -246 -111t-92 -287q0 -177 91.5 -287t246.5 -110q182 0 285 152l127 -97q-71 -100 -178.5 -157.5t-243.5 -57.5q-152 0 -269 73t-179 199.5t-62 284.5z" />
<glyph unicode="d" horiz-adv-x="1263" d="M90 530q0 157 58 283.5t168 200t253 73.5q111 0 206 -47.5t159 -142.5v565h172v-1462h-172v166q-64 -96 -159 -143.5t-206 -47.5q-217 0 -348 157t-131 398zM272 532q0 -173 84 -285t240 -112q107 0 185 54t115.5 143t37.5 200q0 173 -89.5 285.5t-248.5 112.5 q-155 0 -239.5 -112t-84.5 -286z" />
<glyph unicode="e" horiz-adv-x="1167" d="M90 528q0 158 59.5 284t175.5 200.5t271 74.5q221 0 354 -141.5t133 -361.5q0 -42 -4 -82h-807q1 -169 98.5 -268t250.5 -99q189 0 303 144l116 -107q-163 -197 -430 -197q-161 0 -280 73t-179.5 197t-60.5 283zM276 637h629q-9 148 -96 224.5t-215 76.5 q-135 0 -221 -83.5t-97 -217.5z" />
<glyph unicode="f" horiz-adv-x="694" d="M49 913v150h178v182q0 72 25.5 122t69 74t87.5 34t95 10q78 0 153 -23l-24 -143q-40 20 -109 20q-125 0 -125 -106v-170h244v-150h-244v-913h-172v913h-178z" />
<glyph unicode="g" horiz-adv-x="1265" d="M94 561q0 228 135.5 377t341.5 149q116 0 214 -49.5t151 -140.5v166h174v-913q0 -223 -109 -355q-145 -172 -423 -172q-258 0 -428 129l94 135q128 -106 331 -106q172 0 266.5 88t94.5 250v112q-52 -91 -153 -140.5t-218 -49.5q-206 0 -338.5 147.5t-132.5 372.5z M276 567q0 -160 84.5 -265t241.5 -105t245.5 105t88.5 265q0 158 -87.5 261.5t-246.5 103.5q-158 0 -242 -103.5t-84 -261.5z" />
<glyph unicode="h" horiz-adv-x="1193" d="M158 0v1462h172v-559q59 86 149.5 135t204.5 49q168 0 266.5 -105.5t98.5 -293.5v-688h-172v649q0 279 -232 279q-137 0 -226 -93.5t-89 -242.5v-592h-172z" />
<glyph unicode="i" horiz-adv-x="487" d="M158 0v1063h172v-1063h-172zM158 1278v184h172v-184h-172z" />
<glyph unicode="j" horiz-adv-x="487" d="M-72 -350l31 141q32 -18 82 -18q55 0 86 32t31 119v1139h172v-1155q0 -68 -17 -120t-43 -82t-63 -48.5t-71 -24.5t-73 -6q-82 0 -135 23zM158 1280v182h172v-182h-172z" />
<glyph unicode="k" horiz-adv-x="1130" d="M158 0v1462h172v-954l520 555h217l-418 -436l471 -627h-217l-375 514l-198 -209v-305h-172z" />
<glyph unicode="l" horiz-adv-x="497" d="M162 0v1462h172v-1462h-172z" />
<glyph unicode="m" horiz-adv-x="1830" d="M158 0v1063h172v-154q55 84 141 131t191 47q111 0 192 -52t117 -150q58 89 153 145.5t209 56.5q161 0 255.5 -102t94.5 -285v-700h-172v659q0 269 -217 269q-124 0 -205 -90t-81 -232v-606h-172v659q0 56 -10.5 102t-34.5 85t-68 60.5t-105 21.5q-125 0 -206.5 -90 t-81.5 -232v-606h-172z" />
<glyph unicode="n" horiz-adv-x="1193" d="M158 0v1063h172v-160q59 86 149.5 135t204.5 49q168 0 266.5 -105.5t98.5 -293.5v-688h-172v649q0 279 -232 279q-137 0 -226 -93.5t-89 -242.5v-592h-172z" />
<glyph unicode="o" horiz-adv-x="1196" d="M90 530q0 245 138 401t368 156q154 0 270.5 -72t178 -198t61.5 -287q0 -158 -61.5 -284t-178.5 -198.5t-270 -72.5q-229 0 -367.5 156.5t-138.5 398.5zM272 530q0 -173 87 -286t237 -113q151 0 238.5 113t87.5 286q0 175 -87.5 288.5t-238.5 113.5q-150 0 -237 -113.5 t-87 -288.5z" />
<glyph unicode="p" horiz-adv-x="1263" d="M158 -356v1419h172v-166q62 96 157 143t205 47q144 0 254.5 -73t169 -199t58.5 -283q0 -240 -133 -398.5t-349 -158.5q-110 0 -205 48t-157 143v-522h-172zM330 530q0 -172 89 -283.5t247 -111.5q156 0 240.5 111t84.5 284q0 175 -84 287.5t-241 112.5 q-158 0 -247 -113.5t-89 -286.5z" />
<glyph unicode="q" horiz-adv-x="1263" d="M90 530q0 157 58 283.5t168 200t253 73.5q111 0 206 -47.5t159 -142.5v166h172v-1419h-172v522q-64 -96 -159 -143.5t-206 -47.5q-217 0 -348 157t-131 398zM272 532q0 -173 84 -285t240 -112q107 0 185 54t115.5 143t37.5 200q0 173 -89.5 285.5t-248.5 112.5 q-155 0 -239.5 -112t-84.5 -286z" />
<glyph unicode="r" horiz-adv-x="784" d="M158 0v1063h172v-156q45 78 129 127t180 49q89 0 143 -36l-41 -158q-50 29 -127 29q-121 0 -202.5 -96.5t-81.5 -274.5v-547h-172z" />
<glyph unicode="s" horiz-adv-x="1013" d="M80 139l106 113q119 -125 322 -125q115 0 181.5 44t66.5 130q0 32 -12 55t-30 38t-60 29.5t-79.5 23.5t-111.5 24q-62 13 -107 26t-95.5 37t-81.5 55t-52 78.5t-21 108.5q0 63 21.5 115.5t59 88t88 60t108.5 36t121 11.5q249 0 405 -163l-104 -113q-52 58 -131.5 92.5 t-175.5 34.5q-95 0 -161.5 -35.5t-66.5 -109.5q0 -49 39.5 -82.5t77.5 -45.5t123 -31l12 -3q75 -15 125 -28.5t107.5 -39t91.5 -56.5t57 -80.5t23 -113.5q0 -153 -113 -245.5t-309 -92.5q-260 0 -424 164z" />
<glyph unicode="t" horiz-adv-x="751" d="M41 913v150h199v399h172v-399h280v-150h-280v-608q0 -91 35.5 -131.5t105.5 -40.5q73 0 119 33l43 -143q-68 -46 -191 -46q-284 0 -284 304v632h-199z" />
<glyph unicode="u" horiz-adv-x="1191" d="M143 375v688h174v-647q0 -279 230 -279q137 0 226 92.5t89 241.5v592h172v-1063h-172v160q-57 -86 -148.5 -135.5t-205.5 -49.5q-167 0 -266 106.5t-99 293.5z" />
<glyph unicode="v" horiz-adv-x="1058" d="M27 1063h194l311 -862l312 862h188l-409 -1063h-185z" />
<glyph unicode="w" horiz-adv-x="1560" d="M53 1063h183l215 -840l251 840h164l250 -838l213 838h178l-286 -1063h-191l-250 834l-252 -834h-190z" />
<glyph unicode="x" horiz-adv-x="1064" d="M29 0l397 555l-365 508h211l267 -389l260 389h205l-361 -508l393 -555h-209l-295 436l-294 -436h-209z" />
<glyph unicode="y" horiz-adv-x="1060" d="M25 1063h194l313 -844l312 844h188l-430 -1090q-77 -197 -148 -273.5t-188 -76.5q-81 0 -127 23l39 143q32 -16 68 -16q61 0 102.5 48.5t93.5 182.5z" />
<glyph unicode="z" horiz-adv-x="1011" d="M82 0v141l602 768h-578v154h801v-145l-596 -764h615v-154h-844z" />
<glyph unicode="{" horiz-adv-x="630" d="M47 614v136h33q162 0 162 206v332q0 165 81 257.5t214 92.5h69v-137h-43q-166 0 -166 -207v-327q0 -223 -166 -285q166 -62 166 -285v-327q0 -207 166 -207h43v-137h-69q-133 0 -214 92.5t-81 257.5v332q0 206 -162 206h-33z" />
<glyph unicode="|" horiz-adv-x="446" d="M158 -98v1659h131v-1659h-131z" />
<glyph unicode="}" horiz-adv-x="634" d="M25 -137h26q176 0 176 207v327q0 221 172 285q-172 64 -172 285v327q0 207 -176 207h-26v137h49q141 0 226 -92t85 -258v-332q0 -206 170 -206h35v-136h-35q-170 0 -170 -206v-332q0 -166 -85 -258t-226 -92h-49v137z" />
<glyph unicode="~" d="M70 512q28 36 53 63.5t61.5 57.5t80.5 46.5t91 16.5q51 0 100.5 -15.5t137.5 -53.5q62 -27 90.5 -38.5t67 -21.5t71.5 -10q110 0 217 100l70 -69q-27 -37 -53 -65t-62.5 -58.5t-81 -47t-92.5 -16.5q-35 0 -75 10t-68 21t-92 39q-83 37 -133 52.5t-99 15.5 q-110 0 -215 -101z" />
<glyph unicode="&#xa1;" horiz-adv-x="520" d="M154 848v215h213v-215h-213zM166 -45l49 686h92l47 -686v-311h-188v311z" />
<glyph unicode="&#xa2;" d="M123 532q0 226 125 379t334 172v170h110v-168q117 -13 209 -70t152 -147l-135 -92q-83 131 -226 152v-795q145 22 234 156l129 -99q-62 -89 -154.5 -145t-208.5 -68v-170h-110v173q-210 19 -334.5 172t-124.5 380zM301 532q0 -161 75 -267t206 -128v791 q-130 -22 -205.5 -129.5t-75.5 -266.5z" />
<glyph unicode="&#xa3;" d="M68 0v139q95 47 156 134t61 184q0 67 -37 180h-180v133h133q-33 92 -47.5 150t-14.5 116q0 209 131.5 331t347.5 122q307 0 476 -266l-154 -95q-49 87 -129.5 136t-187.5 49q-130 0 -210.5 -73.5t-80.5 -217.5q0 -104 59 -252h443v-133h-406q25 -81 25 -162 q0 -50 -9.5 -95t-20 -73t-32.5 -61t-30.5 -43t-30.5 -35h743v-168h-1005z" />
<glyph unicode="&#xa4;" d="M121 264l145 144q-63 99 -63 215q0 114 63 213l-145 147l108 109l146 -150q91 66 215 66q120 0 211 -66l147 150l107 -109l-146 -147q66 -98 66 -213q0 -118 -66 -213l146 -146l-107 -110l-147 147q-94 -65 -211 -65q-121 0 -215 65l-146 -147zM338 623q0 -106 73 -179 t179 -73q104 0 177 73t73 179q0 104 -73 176.5t-177 72.5q-106 0 -179 -72.5t-73 -176.5z" />
<glyph unicode="&#xa5;" d="M51 1464h213l330 -700l321 700h213l-360 -702h301v-111h-358l-31 -55v-137h389v-111h-389v-348h-184v348h-392v111h392v137l-33 55h-359v111h304z" />
<glyph unicode="&#xa6;" horiz-adv-x="620" d="M248 -123v643h121v-643h-121zM248 918v643h121v-643h-121z" />
<glyph unicode="&#xa7;" horiz-adv-x="1075" d="M78 967q0 148 63.5 266t185.5 187t281 69q214 0 353 -115l-101 -129q-99 90 -254 90q-203 0 -299 -153q39 -25 100 -61.5t101 -61t94.5 -60t91 -62.5t81 -64.5t73 -70.5t58.5 -76t47 -85.5t27.5 -94t10.5 -106.5q0 -150 -62.5 -269t-184 -189t-281.5 -70q-206 0 -352 115 l98 131q107 -92 258 -92q201 0 297 155q-27 18 -86.5 53.5t-87.5 53.5q-178 108 -251 165q-212 166 -251 370q-10 50 -10 104zM244 981q0 -51 8.5 -95t22 -79.5t41.5 -72.5t53.5 -64t74 -65t87 -65t106.5 -73l180 -123q12 56 12 94q0 47 -9.5 89t-24 76t-44 71t-56 64 t-74.5 65t-84.5 64.5t-100.5 70.5l-180 123q-12 -35 -12 -80z" />
<glyph unicode="&#xa8;" horiz-adv-x="724" d="M88 1266v161h160v-161h-160zM479 1266v161h158v-161h-158z" />
<glyph unicode="&#xa9;" horiz-adv-x="1703" d="M82 731q0 157 61 299.5t164 245.5t245.5 164t299.5 61t299.5 -61t245.5 -164t164 -245.5t61 -299.5t-61 -299.5t-164 -245.5t-245.5 -164t-299.5 -61t-299.5 61t-245.5 164t-164 245.5t-61 299.5zM184 731q0 -182 89.5 -335.5t243 -243t335.5 -89.5t335.5 89.5t243 243 t89.5 335.5t-89.5 335.5t-243 243t-335.5 89.5t-335.5 -89.5t-243 -243t-89.5 -335.5zM426 731q0 180 124.5 306t301.5 126q114 0 208.5 -54.5t153.5 -152.5l-106 -71q-40 70 -108 110.5t-146 40.5q-124 0 -211.5 -89.5t-87.5 -215.5q0 -125 87.5 -214t211.5 -89 q78 0 146 41t110 111l109 -70q-59 -99 -155.5 -154t-211.5 -55q-177 0 -301.5 125.5t-124.5 304.5z" />
<glyph unicode="&#xaa;" horiz-adv-x="819" d="M94 987q0 60 25.5 100.5t66.5 59.5t90 29t98.5 15t90.5 12.5t66.5 25.5t25.5 49q0 47 -44 68.5t-112 21.5q-117 0 -215 -70l-63 93q131 92 287 92q125 0 200.5 -55t75.5 -164v-478h-123v91q-79 -105 -225 -105q-111 0 -177.5 57t-66.5 158zM223 989q0 -54 38 -79t99 -25 q82 0 139.5 43t57.5 127v94q-28 -27 -63 -37t-111 -18q-39 -5 -62.5 -9.5t-48.5 -15.5t-37 -31t-12 -49z" />
<glyph unicode="&#xab;" horiz-adv-x="1011" d="M102 559v57l306 420l106 -84l-264 -364l264 -365l-106 -82zM500 559v57l305 420l104 -84l-264 -364l264 -365l-104 -82z" />
<glyph unicode="&#xac;" d="M96 547v151h971v-561h-149v410h-822z" />
<glyph unicode="&#xad;" horiz-adv-x="782" d="M127 473v150h526v-150h-526z" />
<glyph unicode="&#xae;" horiz-adv-x="794" d="M86 1174q0 130 91 221.5t220 91.5t220.5 -91.5t91.5 -221.5q0 -128 -91.5 -219t-220.5 -91t-220 91t-91 219zM129 1174q0 -111 78 -189t190 -78q110 0 189.5 78.5t79.5 188.5q0 113 -79 191.5t-190 78.5q-113 0 -190.5 -78t-77.5 -192zM268 1006v344h158q50 0 82.5 -30 t32.5 -79q0 -36 -19 -61.5t-51 -36.5l80 -137h-70l-71 127h-78v-127h-64zM332 1186h92q22 0 36.5 15t14.5 38q0 24 -14.5 39.5t-36.5 15.5h-92v-108z" />
<glyph unicode="&#xaf;" horiz-adv-x="710" d="M78 1284v125h551v-125h-551z" />
<glyph unicode="&#xb0;" horiz-adv-x="772" d="M80 1180q0 126 90 216.5t217 90.5q126 0 215.5 -90.5t89.5 -216.5t-89.5 -217t-215.5 -91q-127 0 -217 91t-90 217zM197 1180q0 -77 56 -134t134 -57q77 0 134 57.5t57 133.5t-57 133t-134 57q-78 0 -134 -56.5t-56 -133.5z" />
<glyph unicode="&#xb1;" d="M66 0v152h1046v-152h-1046zM66 698v152h446v448h154v-448h446v-152h-446v-446h-154v446h-446z" />
<glyph unicode="&#xb2;" horiz-adv-x="925" d="M109 1470q120 201 354 201q140 0 228.5 -71t88.5 -191q0 -78 -39 -137t-114 -117q-41 -32 -118 -81.5t-129 -88.5t-75 -74h494v-133h-676v19q0 88 72.5 170.5t220.5 193.5q10 8 29 22q52 40 76 59.5t53 49.5t40 57t11 58q0 64 -47.5 99.5t-122.5 35.5q-77 0 -136.5 -36 t-93.5 -103z" />
<glyph unicode="&#xb3;" horiz-adv-x="925" d="M111 954l114 70q35 -62 95.5 -97.5t138.5 -35.5q91 0 148 46t57 124q0 69 -47 112.5t-123 43.5q-52 0 -88 -25l-66 61l250 271h-438v131h618v-94l-219 -236q116 -9 190 -80t74 -182q0 -58 -22 -110.5t-64 -96t-111.5 -69t-156.5 -25.5q-240 0 -350 192z" />
<glyph unicode="&#xb4;" horiz-adv-x="663" d="M236 1217l235 362l131 -76l-221 -286h-145z" />
<glyph unicode="&#xb6;" horiz-adv-x="1130" d="M72 1044q0 187 120 302.5t297 115.5h484v-1648h-103v1540h-133v-1540h-125v815h-123q-181 0 -299 114.5t-118 300.5z" />
<glyph unicode="&#xb7;" horiz-adv-x="522" d="M133 530q0 52 38.5 90.5t90.5 38.5q51 0 89 -38.5t38 -90.5t-38 -89.5t-89 -37.5q-53 0 -91 37.5t-38 89.5z" />
<glyph unicode="&#xb8;" horiz-adv-x="663" d="M135 -258q45 -29 133 -29q58 0 88.5 22.5t30.5 57.5q0 26 -25 43h-96v109q27 18 88 18q70 0 123 -43.5t53 -118.5q0 -84 -66.5 -135t-174.5 -51q-83 0 -154 23v104z" />
<glyph unicode="&#xb9;" horiz-adv-x="751" d="M121 1483l280 172h121v-877h-143v707l-186 -109z" />
<glyph unicode="&#xba;" horiz-adv-x="858" d="M82 1130q0 156 94.5 255.5t251.5 99.5q158 0 253 -99.5t95 -255.5q0 -155 -95.5 -255.5t-252.5 -100.5t-251.5 100.5t-94.5 255.5zM215 1130q0 -101 58 -168t155 -67q98 0 155.5 66.5t57.5 168.5q0 101 -57 167.5t-156 66.5q-97 0 -155 -66.5t-58 -167.5z" />
<glyph unicode="&#xbb;" horiz-adv-x="1011" d="M102 223l265 365l-265 364l107 84l303 -420v-57l-303 -418zM498 223l264 365l-264 364l106 84l305 -420v-57l-305 -418z" />
<glyph unicode="&#xbc;" horiz-adv-x="2138" d="M121 1290l280 172h121v-876h-143v706l-186 -108zM487 0l988 1462h131l-988 -1462h-131zM1315 199v114l428 564h158v-555h129v-123h-129v-199h-148v199h-438zM1452 322h305v383z" />
<glyph unicode="&#xbd;" horiz-adv-x="2220" d="M121 1290l280 172h121v-876h-143v706l-186 -108zM487 0l988 1462h131l-988 -1462h-131zM1403 692q120 201 354 201q140 0 229 -71t89 -191q0 -77 -39.5 -136t-114.5 -118q-41 -32 -118 -81.5t-129 -88.5t-75 -74h494v-133h-676v18q0 88 72.5 171t220.5 194q10 8 29 22 q52 40 76 59.5t53 49.5t40 57t11 58q0 64 -47.5 99.5t-122.5 35.5q-77 0 -136 -36t-93 -103z" />
<glyph unicode="&#xbe;" horiz-adv-x="2265" d="M111 762l114 69q35 -62 95.5 -97.5t138.5 -35.5q91 0 148 46t57 124q0 69 -47 112.5t-123 43.5q-52 0 -88 -25l-66 62l250 270h-438v131h618v-94l-219 -235q116 -9 190 -80.5t74 -182.5q0 -58 -22 -110.5t-64 -96t-111.5 -69t-156.5 -25.5q-239 0 -350 193zM594 0 l987 1462h131l-987 -1462h-131zM1442 199v114l428 564h158v-555h129v-123h-129v-199h-148v199h-438zM1579 322h305v383z" />
<glyph unicode="&#xbf;" horiz-adv-x="1011" d="M109 8q0 72 23 133t59.5 104.5t80.5 81.5t88.5 72.5t81 70t59.5 82t23 99.5v39h168v-28q0 -73 -22 -135.5t-57 -107.5t-77 -84.5t-84.5 -75.5t-77.5 -72.5t-57 -82.5t-22 -98q0 -95 66.5 -156t187.5 -61q171 0 317 143l99 -129q-192 -180 -430 -180q-190 0 -308 104.5 t-118 280.5zM475 834v229h230v-229h-230z" />
<glyph unicode="&#xc0;" horiz-adv-x="1388" d="M23 0l565 1462h215l565 -1462h-211l-153 420h-629l-156 -420h-196zM411 1847l132 76l235 -362h-145zM434 586h508l-248 698z" />
<glyph unicode="&#xc1;" horiz-adv-x="1388" d="M23 0l565 1462h215l565 -1462h-211l-153 420h-629l-156 -420h-196zM434 586h508l-248 698zM596 1561l235 362l131 -76l-221 -286h-145z" />
<glyph unicode="&#xc2;" horiz-adv-x="1388" d="M23 0l565 1462h215l565 -1462h-211l-153 420h-629l-156 -420h-196zM369 1575l250 346h154l249 -346h-143l-184 213l-181 -213h-145zM434 586h508l-248 698z" />
<glyph unicode="&#xc3;" horiz-adv-x="1388" d="M23 0l565 1462h215l565 -1462h-211l-153 420h-629l-156 -420h-196zM326 1642q30 78 92 127.5t150 49.5q68 0 151 -45q78 -44 121 -44q84 0 127 89l104 -50q-28 -76 -90 -125t-149 -49q-75 0 -156 45q-74 43 -119 43q-46 0 -78 -26.5t-49 -61.5zM434 586h508l-248 698z " />
<glyph unicode="&#xc4;" horiz-adv-x="1388" d="M23 0l565 1462h215l565 -1462h-211l-153 420h-629l-156 -420h-196zM420 1610v162h160v-162h-160zM434 586h508l-248 698zM811 1610v162h158v-162h-158z" />
<glyph unicode="&#xc5;" horiz-adv-x="1388" d="M23 0l546 1415q-71 58 -71 150q0 82 57.5 140t140.5 58q82 0 139.5 -58t57.5 -140q0 -91 -72 -150l547 -1415h-211l-153 420h-629l-156 -420h-196zM434 586h508l-248 698zM594 1565q0 -43 29.5 -73t72.5 -30q42 0 72.5 30.5t30.5 72.5t-30.5 72t-72.5 30 q-43 0 -72.5 -29.5t-29.5 -72.5z" />
<glyph unicode="&#xc6;" horiz-adv-x="1918" d="M-20 0l860 1462h950v-172h-670v-436h586v-164h-586v-518h690v-172h-878v420h-510l-244 -420h-198zM518 586h414v714z" />
<glyph unicode="&#xc7;" horiz-adv-x="1419" d="M96 731q0 218 85 390t243.5 270t363.5 98q178 0 319 -74.5t236 -212.5l-145 -102q-68 104 -173 160.5t-237 56.5q-228 0 -362.5 -160.5t-134.5 -425.5t137 -425.5t369 -160.5q251 0 407 220l148 -103q-204 -289 -555 -289q-209 0 -369 97t-246 269t-86 392zM549 -258 q45 -29 133 -29q58 0 88.5 22.5t30.5 57.5q0 26 -25 43h-96v109q27 18 88 18q70 0 123 -43.5t53 -118.5q0 -84 -66.5 -135t-174.5 -51q-83 0 -154 23v104z" />
<glyph unicode="&#xc8;" horiz-adv-x="1296" d="M180 0v1462h987v-172h-802v-438h714v-164h-714v-516h823v-172h-1008zM438 1847l131 76l236 -362h-146z" />
<glyph unicode="&#xc9;" horiz-adv-x="1296" d="M180 0v1462h987v-172h-802v-438h714v-164h-714v-516h823v-172h-1008zM576 1561l235 362l131 -76l-221 -286h-145z" />
<glyph unicode="&#xca;" horiz-adv-x="1296" d="M180 0v1462h987v-172h-802v-438h714v-164h-714v-516h823v-172h-1008zM340 1579l250 346h153l250 -346h-143l-184 213l-181 -213h-145z" />
<glyph unicode="&#xcb;" horiz-adv-x="1296" d="M180 0v1462h987v-172h-802v-438h714v-164h-714v-516h823v-172h-1008zM393 1610v161h160v-161h-160zM784 1610v161h158v-161h-158z" />
<glyph unicode="&#xcc;" horiz-adv-x="544" d="M-13 1847l132 76l235 -362h-145zM180 0v1462h185v-1462h-185z" />
<glyph unicode="&#xcd;" horiz-adv-x="544" d="M180 0v1462h185v-1462h-185zM191 1553l235 362l131 -76l-221 -286h-145z" />
<glyph unicode="&#xce;" horiz-adv-x="544" d="M-53 1561l250 346h154l249 -346h-143l-184 213l-181 -213h-145zM180 0v1462h185v-1462h-185z" />
<glyph unicode="&#xcf;" horiz-adv-x="544" d="M-2 1610v162h160v-162h-160zM180 0v1462h185v-1462h-185zM389 1610v162h158v-162h-158z" />
<glyph unicode="&#xd0;" horiz-adv-x="1556" d="M90 674v151h125v637h563q162 0 291.5 -54t214 -151t129.5 -231t45 -295q0 -160 -45 -294t-129.5 -231.5t-214 -151.5t-291.5 -54h-563v674h-125zM401 172h375q228 0 356 147t128 412t-128 412t-356 147h-375v-465h404v-151h-404v-502z" />
<glyph unicode="&#xd1;" horiz-adv-x="1519" d="M180 0v1462h228l751 -1167v1167h180v-1462h-202l-775 1208v-1208h-182zM391 1642q30 78 92 127.5t150 49.5q68 0 151 -45q77 -43 121 -43q84 0 127 88l105 -50q-28 -76 -90.5 -125t-149.5 -49q-75 0 -156 45q-74 43 -118 43q-46 0 -78 -26.5t-49 -61.5z" />
<glyph unicode="&#xd2;" horiz-adv-x="1581" d="M94 731q0 216 85 388t244.5 271t367.5 99q156 0 287 -57.5t220.5 -158.5t139 -240.5t49.5 -301.5q0 -215 -84.5 -386.5t-244 -271.5t-367.5 -100t-367.5 100t-244.5 271.5t-85 386.5zM291 731q0 -261 134.5 -421t365.5 -160t366 160t135 421t-135 421.5t-366 160.5 t-365.5 -160.5t-134.5 -421.5zM534 1847l132 76l235 -362h-145z" />
<glyph unicode="&#xd3;" horiz-adv-x="1581" d="M94 731q0 216 85 388t244.5 271t367.5 99q156 0 287 -57.5t220.5 -158.5t139 -240.5t49.5 -301.5q0 -215 -84.5 -386.5t-244 -271.5t-367.5 -100t-367.5 100t-244.5 271.5t-85 386.5zM291 731q0 -261 134.5 -421t365.5 -160t366 160t135 421t-135 421.5t-366 160.5 t-365.5 -160.5t-134.5 -421.5zM658 1561l235 362l131 -76l-221 -286h-145z" />
<glyph unicode="&#xd4;" horiz-adv-x="1581" d="M94 731q0 216 85 388t244.5 271t367.5 99q156 0 287 -57.5t220.5 -158.5t139 -240.5t49.5 -301.5q0 -215 -84.5 -386.5t-244 -271.5t-367.5 -100t-367.5 100t-244.5 271.5t-85 386.5zM291 731q0 -261 134.5 -421t365.5 -160t366 160t135 421t-135 421.5t-366 160.5 t-365.5 -160.5t-134.5 -421.5zM465 1579l250 346h154l249 -346h-143l-184 213l-181 -213h-145z" />
<glyph unicode="&#xd5;" horiz-adv-x="1581" d="M94 731q0 216 85 388t244.5 271t367.5 99q156 0 287 -57.5t220.5 -158.5t139 -240.5t49.5 -301.5q0 -215 -84.5 -386.5t-244 -271.5t-367.5 -100t-367.5 100t-244.5 271.5t-85 386.5zM291 731q0 -261 134.5 -421t365.5 -160t366 160t135 421t-135 421.5t-366 160.5 t-365.5 -160.5t-134.5 -421.5zM420 1642q30 78 92 127.5t150 49.5q68 0 151 -45q77 -43 121 -43q84 0 127 88l104 -50q-28 -76 -90 -125t-149 -49q-75 0 -156 45q-74 43 -119 43q-46 0 -78 -26.5t-49 -61.5z" />
<glyph unicode="&#xd6;" horiz-adv-x="1581" d="M94 731q0 216 85 388t244.5 271t367.5 99q156 0 287 -57.5t220.5 -158.5t139 -240.5t49.5 -301.5q0 -215 -84.5 -386.5t-244 -271.5t-367.5 -100t-367.5 100t-244.5 271.5t-85 386.5zM291 731q0 -261 134.5 -421t365.5 -160t366 160t135 421t-135 421.5t-366 160.5 t-365.5 -160.5t-134.5 -421.5zM516 1610v162h160v-162h-160zM907 1610v162h158v-162h-158z" />
<glyph unicode="&#xd7;" d="M53 104l430 426l-430 428l109 109l428 -430l426 430l108 -109l-428 -428l428 -426l-108 -110l-426 430l-428 -430z" />
<glyph unicode="&#xd8;" horiz-adv-x="1581" d="M94 731q0 216 85 388t244.5 271t367.5 99q215 0 383 -111l71 105l94 -66l-75 -110q107 -101 165 -250t58 -326q0 -215 -84.5 -386.5t-244 -271.5t-367.5 -100q-217 0 -385 111l-72 -104l-94 65l77 109q-107 104 -165 252.5t-58 324.5zM291 731q0 -267 133 -422l645 920 q-120 84 -278 84q-231 0 -365.5 -160.5t-134.5 -421.5zM510 231q116 -81 281 -81q231 0 366 160t135 421q0 262 -139 420z" />
<glyph unicode="&#xd9;" horiz-adv-x="1458" d="M164 530v932h184v-932q0 -173 101.5 -276.5t277.5 -103.5q174 0 277.5 104t103.5 276v932h184v-932q0 -125 -42.5 -230t-117.5 -176.5t-179.5 -111t-225.5 -39.5q-250 0 -406.5 152t-156.5 405zM454 1847l132 76l235 -362h-145z" />
<glyph unicode="&#xda;" horiz-adv-x="1458" d="M164 530v932h184v-932q0 -173 101.5 -276.5t277.5 -103.5q174 0 277.5 104t103.5 276v932h184v-932q0 -125 -42.5 -230t-117.5 -176.5t-179.5 -111t-225.5 -39.5q-250 0 -406.5 152t-156.5 405zM617 1561l235 362l131 -76l-221 -286h-145z" />
<glyph unicode="&#xdb;" horiz-adv-x="1458" d="M164 530v932h184v-932q0 -173 101.5 -276.5t277.5 -103.5q174 0 277.5 104t103.5 276v932h184v-932q0 -125 -42.5 -230t-117.5 -176.5t-179.5 -111t-225.5 -39.5q-250 0 -406.5 152t-156.5 405zM401 1579l250 346h154l249 -346h-143l-184 213l-181 -213h-145z" />
<glyph unicode="&#xdc;" horiz-adv-x="1458" d="M164 530v932h184v-932q0 -173 101.5 -276.5t277.5 -103.5q174 0 277.5 104t103.5 276v932h184v-932q0 -125 -42.5 -230t-117.5 -176.5t-179.5 -111t-225.5 -39.5q-250 0 -406.5 152t-156.5 405zM453 1610v162h159v-162h-159zM844 1610v162h157v-162h-157z" />
<glyph unicode="&#xdd;" horiz-adv-x="1255" d="M12 1462h219l402 -671l397 671h215l-522 -852v-610h-188v610zM525 1561l235 362l131 -76l-221 -286h-145z" />
<glyph unicode="&#xde;" horiz-adv-x="1308" d="M180 0v1462h185v-198h385q240 0 370.5 -118t130.5 -317t-130.5 -316.5t-370.5 -117.5h-385v-395h-185zM365 567h387q153 0 230 69.5t77 192.5q0 122 -77.5 192.5t-229.5 70.5h-387v-525z" />
<glyph unicode="&#xdf;" horiz-adv-x="1234" d="M162 0v1053q0 199 128.5 315.5t336.5 116.5q191 0 319.5 -98.5t128.5 -270.5q0 -205 -203 -319q53 -18 98 -47t84 -73t61 -109.5t22 -145.5q0 -199 -129 -320.5t-340 -121.5q-145 0 -226 43l50 149q67 -39 172 -39q135 0 213.5 81t78.5 216q0 141 -89 210t-246 69h-107 v149h111q119 0 197.5 63t78.5 179q0 61 -23.5 108t-63.5 74t-87.5 40t-101.5 13q-130 0 -210.5 -74t-80.5 -208v-1053h-172z" />
<glyph unicode="&#xe0;" horiz-adv-x="1099" d="M86 299q0 52 13 95.5t33 73.5t52 55t60 39.5t68.5 26.5t66 17.5t63.5 11.5q15 2 48 7t49 7.5t45.5 8t45.5 10t39.5 12t36.5 15.5t29 19.5t24 24.5t13.5 29.5t5.5 36.5q0 76 -67 111t-162 35q-85 0 -177 -28.5t-159 -82.5l-78 131q84 62 194.5 97.5t229.5 35.5 q180 0 285.5 -82t105.5 -241v-764h-168v131q-112 -156 -327 -156q-169 0 -269 86.5t-100 237.5zM262 309q0 -93 61 -137.5t158 -44.5q125 0 211 73t86 218v157q-11 -8 -24 -15t-24.5 -12.5t-29.5 -11.5t-29 -9.5t-32.5 -8.5t-30.5 -7.5t-33.5 -7t-32 -5.5t-34 -5.5 t-31.5 -5.5q-53 -10 -86.5 -20.5t-66 -30t-47.5 -51t-15 -76.5zM266 1503l132 76l235 -362h-145z" />
<glyph unicode="&#xe1;" horiz-adv-x="1099" d="M86 299q0 52 13 95.5t33 73.5t52 55t60 39.5t68.5 26.5t66 17.5t63.5 11.5q15 2 48 7t49 7.5t45.5 8t45.5 10t39.5 12t36.5 15.5t29 19.5t24 24.5t13.5 29.5t5.5 36.5q0 76 -67 111t-162 35q-85 0 -177 -28.5t-159 -82.5l-78 131q84 62 194.5 97.5t229.5 35.5 q180 0 285.5 -82t105.5 -241v-764h-168v131q-112 -156 -327 -156q-169 0 -269 86.5t-100 237.5zM262 309q0 -93 61 -137.5t158 -44.5q125 0 211 73t86 218v157q-11 -8 -24 -15t-24.5 -12.5t-29.5 -11.5t-29 -9.5t-32.5 -8.5t-30.5 -7.5t-33.5 -7t-32 -5.5t-34 -5.5 t-31.5 -5.5q-53 -10 -86.5 -20.5t-66 -30t-47.5 -51t-15 -76.5zM418 1217l235 362l131 -76l-221 -286h-145z" />
<glyph unicode="&#xe2;" horiz-adv-x="1099" d="M86 299q0 52 13 95.5t33 73.5t52 55t60 39.5t68.5 26.5t66 17.5t63.5 11.5q15 2 48 7t49 7.5t45.5 8t45.5 10t39.5 12t36.5 15.5t29 19.5t24 24.5t13.5 29.5t5.5 36.5q0 76 -67 111t-162 35q-85 0 -177 -28.5t-159 -82.5l-78 131q84 62 194.5 97.5t229.5 35.5 q180 0 285.5 -82t105.5 -241v-764h-168v131q-112 -156 -327 -156q-169 0 -269 86.5t-100 237.5zM213 1217l250 346h154l249 -346h-143l-184 213l-181 -213h-145zM262 309q0 -93 61 -137.5t158 -44.5q125 0 211 73t86 218v157q-11 -8 -24 -15t-24.5 -12.5t-29.5 -11.5 t-29 -9.5t-32.5 -8.5t-30.5 -7.5t-33.5 -7t-32 -5.5t-34 -5.5t-31.5 -5.5q-53 -10 -86.5 -20.5t-66 -30t-47.5 -51t-15 -76.5z" />
<glyph unicode="&#xe3;" horiz-adv-x="1099" d="M86 299q0 52 13 95.5t33 73.5t52 55t60 39.5t68.5 26.5t66 17.5t63.5 11.5q15 2 48 7t49 7.5t45.5 8t45.5 10t39.5 12t36.5 15.5t29 19.5t24 24.5t13.5 29.5t5.5 36.5q0 76 -67 111t-162 35q-85 0 -177 -28.5t-159 -82.5l-78 131q84 62 194.5 97.5t229.5 35.5 q180 0 285.5 -82t105.5 -241v-764h-168v131q-112 -156 -327 -156q-169 0 -269 86.5t-100 237.5zM166 1298q30 78 92 127.5t150 49.5q68 0 151 -45q78 -44 121 -44q84 0 127 89l104 -50q-28 -76 -90 -125t-149 -49q-75 0 -156 45q-74 43 -119 43q-46 0 -78 -26.5t-49 -61.5z M262 309q0 -93 61 -137.5t158 -44.5q125 0 211 73t86 218v157q-11 -8 -24 -15t-24.5 -12.5t-29.5 -11.5t-29 -9.5t-32.5 -8.5t-30.5 -7.5t-33.5 -7t-32 -5.5t-34 -5.5t-31.5 -5.5q-53 -10 -86.5 -20.5t-66 -30t-47.5 -51t-15 -76.5z" />
<glyph unicode="&#xe4;" horiz-adv-x="1099" d="M86 299q0 52 13 95.5t33 73.5t52 55t60 39.5t68.5 26.5t66 17.5t63.5 11.5q15 2 48 7t49 7.5t45.5 8t45.5 10t39.5 12t36.5 15.5t29 19.5t24 24.5t13.5 29.5t5.5 36.5q0 76 -67 111t-162 35q-85 0 -177 -28.5t-159 -82.5l-78 131q84 62 194.5 97.5t229.5 35.5 q180 0 285.5 -82t105.5 -241v-764h-168v131q-112 -156 -327 -156q-169 0 -269 86.5t-100 237.5zM262 309q0 -93 61 -137.5t158 -44.5q125 0 211 73t86 218v157q-11 -8 -24 -15t-24.5 -12.5t-29.5 -11.5t-29 -9.5t-32.5 -8.5t-30.5 -7.5t-33.5 -7t-32 -5.5t-34 -5.5 t-31.5 -5.5q-53 -10 -86.5 -20.5t-66 -30t-47.5 -51t-15 -76.5zM262 1266v161h160v-161h-160zM653 1266v161h158v-161h-158z" />
<glyph unicode="&#xe5;" horiz-adv-x="1099" d="M86 299q0 52 13 95.5t33 73.5t52 55t60 39.5t68.5 26.5t66 17.5t63.5 11.5q15 2 48 7t49 7.5t45.5 8t45.5 10t39.5 12t36.5 15.5t29 19.5t24 24.5t13.5 29.5t5.5 36.5q0 76 -67 111t-162 35q-85 0 -177 -28.5t-159 -82.5l-78 131q84 62 194.5 97.5t229.5 35.5 q180 0 285.5 -82t105.5 -241v-764h-168v131q-112 -156 -327 -156q-169 0 -269 86.5t-100 237.5zM262 309q0 -93 61 -137.5t158 -44.5q125 0 211 73t86 218v157q-11 -8 -24 -15t-24.5 -12.5t-29.5 -11.5t-29 -9.5t-32.5 -8.5t-30.5 -7.5t-33.5 -7t-32 -5.5t-34 -5.5 t-31.5 -5.5q-53 -10 -86.5 -20.5t-66 -30t-47.5 -51t-15 -76.5zM352 1323q0 82 57.5 140.5t139.5 58.5q83 0 140.5 -58.5t57.5 -140.5q0 -83 -57.5 -141t-140.5 -58q-82 0 -139.5 58t-57.5 141zM448 1323q0 -43 30 -72.5t71 -29.5q43 0 72.5 29.5t29.5 72.5t-29.5 72.5 t-72.5 29.5q-41 0 -71 -29.5t-30 -72.5z" />
<glyph unicode="&#xe6;" horiz-adv-x="1839" d="M86 299q0 52 13 95.5t32.5 74t51.5 55t60 39t68 26.5t66.5 17.5t64.5 11.5q15 2 48 7t49 7.5t45.5 8t45.5 10t39.5 12t36.5 15.5t29 19.5t24 24.5t13.5 29.5t5.5 36.5q0 76 -67 111t-162 35q-85 0 -177 -28.5t-159 -82.5l-78 131q84 62 194.5 97.5t229.5 35.5 q126 0 216 -42.5t132 -124.5q138 167 369 167q219 0 351 -141.5t132 -361.5q0 -42 -4 -82h-805q0 -169 96.5 -268t249.5 -99q189 0 303 144l117 -107q-160 -197 -430 -197q-280 0 -416 215q-125 -215 -399 -215q-181 0 -283 86t-102 238zM262 309q0 -93 61 -137.5t158 -44.5 q125 0 211 73t86 218v157q-11 -8 -24 -15t-24.5 -12.5t-29.5 -11.5t-29 -9.5t-32.5 -8.5t-30.5 -7.5t-33.5 -7t-32 -5.5t-34 -5.5t-31.5 -5.5q-53 -10 -86.5 -20.5t-66 -30t-47.5 -51t-15 -76.5zM952 637h631q-10 148 -96.5 224.5t-214.5 76.5q-136 0 -222 -83.5t-98 -217.5 z" />
<glyph unicode="&#xe7;" horiz-adv-x="1087" d="M90 532q0 240 141 397.5t369 157.5q137 0 243.5 -59t174.5 -160l-129 -90q-47 72 -118.5 112t-160.5 40q-154 0 -246 -111t-92 -287q0 -177 91.5 -287t246.5 -110q182 0 285 152l127 -97q-71 -100 -178.5 -157.5t-243.5 -57.5q-152 0 -269 73t-179 199.5t-62 284.5z M344 -258q45 -29 133 -29q58 0 88.5 22.5t30.5 57.5q0 26 -25 43h-96v109q27 18 88 18q70 0 123 -43.5t53 -118.5q0 -84 -66.5 -135t-174.5 -51q-83 0 -154 23v104z" />
<glyph unicode="&#xe8;" horiz-adv-x="1187" d="M90 528q0 158 59.5 284t175.5 200.5t271 74.5q221 0 354 -141.5t133 -361.5q0 -42 -4 -82h-807q1 -169 98.5 -268t250.5 -99q189 0 303 144l116 -107q-163 -197 -430 -197q-161 0 -280 73t-179.5 197t-60.5 283zM276 637h629q-9 148 -96 224.5t-215 76.5 q-135 0 -221 -83.5t-97 -217.5zM322 1503l131 76l235 -362h-145z" />
<glyph unicode="&#xe9;" horiz-adv-x="1187" d="M90 528q0 158 59.5 284t175.5 200.5t271 74.5q221 0 354 -141.5t133 -361.5q0 -42 -4 -82h-807q1 -169 98.5 -268t250.5 -99q189 0 303 144l116 -107q-163 -197 -430 -197q-161 0 -280 73t-179.5 197t-60.5 283zM276 637h629q-9 148 -96 224.5t-215 76.5 q-135 0 -221 -83.5t-97 -217.5zM463 1217l235 362l131 -76l-221 -286h-145z" />
<glyph unicode="&#xea;" horiz-adv-x="1167" d="M90 528q0 158 59.5 284t175.5 200.5t271 74.5q221 0 354 -141.5t133 -361.5q0 -42 -4 -82h-807q1 -169 98.5 -268t250.5 -99q189 0 303 144l116 -107q-163 -197 -430 -197q-161 0 -280 73t-179.5 197t-60.5 283zM260 1217l250 346h154l249 -346h-143l-184 213l-180 -213 h-146zM276 637h629q-9 148 -96 224.5t-215 76.5q-135 0 -221 -83.5t-97 -217.5z" />
<glyph unicode="&#xeb;" horiz-adv-x="1167" d="M90 528q0 158 59.5 284t175.5 200.5t271 74.5q221 0 354 -141.5t133 -361.5q0 -42 -4 -82h-807q1 -169 98.5 -268t250.5 -99q189 0 303 144l116 -107q-163 -197 -430 -197q-161 0 -280 73t-179.5 197t-60.5 283zM276 637h629q-9 148 -96 224.5t-215 76.5 q-135 0 -221 -83.5t-97 -217.5zM311 1266v161h160v-161h-160zM702 1266v161h158v-161h-158z" />
<glyph unicode="&#xec;" horiz-adv-x="487" d="M-43 1503l132 76l235 -362h-145zM158 0v1063h172v-1063h-172z" />
<glyph unicode="&#xed;" horiz-adv-x="487" d="M148 1217l235 362l131 -76l-221 -286h-145zM158 0v1063h172v-1063h-172z" />
<glyph unicode="&#xee;" horiz-adv-x="487" d="M-68 1217l250 346h154l249 -346h-143l-184 213l-181 -213h-145zM158 0v1063h172v-1063h-172z" />
<glyph unicode="&#xef;" horiz-adv-x="487" d="M-35 1266v161h160v-161h-160zM158 0v1063h172v-1063h-172zM356 1266v161h158v-161h-158z" />
<glyph unicode="&#xf0;" horiz-adv-x="1208" d="M90 479q0 215 133 347t332 132q123 0 223 -50.5t150 -133.5q0 288 -131 436l-312 -170v113l230 125q-90 55 -207 55q-149 0 -264 -84l-74 144q140 96 340 96q219 0 367 -127l221 121v-113l-152 -82q81 -99 120.5 -253.5t39.5 -338.5q0 -348 -137 -535.5t-381 -187.5 q-148 0 -262.5 67.5t-175 182t-60.5 256.5zM274 469q0 -149 84 -240.5t224 -91.5q149 0 234 101.5t85 248.5q0 146 -85 230t-228 84q-153 0 -233.5 -93t-80.5 -239z" />
<glyph unicode="&#xf1;" horiz-adv-x="1193" d="M158 0v1063h172v-160q59 86 149.5 135t204.5 49q168 0 266.5 -105.5t98.5 -293.5v-688h-172v649q0 279 -232 279q-137 0 -226 -93.5t-89 -242.5v-592h-172zM246 1298q30 78 91.5 127.5t149.5 49.5q69 0 152 -45q78 -44 121 -44q84 0 127 89l104 -50q-28 -76 -90 -125 t-149 -49q-75 0 -156 45q-74 43 -119 43q-46 0 -78 -26.5t-49 -61.5z" />
<glyph unicode="&#xf2;" horiz-adv-x="1196" d="M90 530q0 245 138 401t368 156q154 0 270.5 -72t178 -198t61.5 -287q0 -158 -61.5 -284t-178.5 -198.5t-270 -72.5q-229 0 -367.5 156.5t-138.5 398.5zM272 530q0 -173 87 -286t237 -113q151 0 238.5 113t87.5 286q0 175 -87.5 288.5t-238.5 113.5q-150 0 -237 -113.5 t-87 -288.5zM319 1503l132 76l235 -362h-145z" />
<glyph unicode="&#xf3;" horiz-adv-x="1196" d="M90 530q0 245 138 401t368 156q154 0 270.5 -72t178 -198t61.5 -287q0 -158 -61.5 -284t-178.5 -198.5t-270 -72.5q-229 0 -367.5 156.5t-138.5 398.5zM272 530q0 -173 87 -286t237 -113q151 0 238.5 113t87.5 286q0 175 -87.5 288.5t-238.5 113.5q-150 0 -237 -113.5 t-87 -288.5zM459 1217l235 362l131 -76l-221 -286h-145z" />
<glyph unicode="&#xf4;" horiz-adv-x="1196" d="M90 530q0 245 138 401t368 156q154 0 270.5 -72t178 -198t61.5 -287q0 -158 -61.5 -284t-178.5 -198.5t-270 -72.5q-229 0 -367.5 156.5t-138.5 398.5zM272 530q0 -173 87 -286t237 -113q151 0 238.5 113t87.5 286q0 175 -87.5 288.5t-238.5 113.5q-150 0 -237 -113.5 t-87 -288.5zM272 1217l250 346h154l249 -346h-143l-184 213l-181 -213h-145z" />
<glyph unicode="&#xf5;" horiz-adv-x="1196" d="M90 530q0 245 138 401t368 156q154 0 270.5 -72t178 -198t61.5 -287q0 -158 -61.5 -284t-178.5 -198.5t-270 -72.5q-229 0 -367.5 156.5t-138.5 398.5zM227 1298q30 78 92 127.5t150 49.5q69 0 152 -45q78 -44 120 -44q84 0 127 89l105 -50q-28 -76 -90.5 -125 t-149.5 -49q-74 0 -155 45q-74 43 -119 43q-46 0 -78 -26.5t-49 -61.5zM272 530q0 -173 87 -286t237 -113q151 0 238.5 113t87.5 286q0 175 -87.5 288.5t-238.5 113.5q-150 0 -237 -113.5t-87 -288.5z" />
<glyph unicode="&#xf6;" horiz-adv-x="1196" d="M90 530q0 245 138 401t368 156q154 0 270.5 -72t178 -198t61.5 -287q0 -158 -61.5 -284t-178.5 -198.5t-270 -72.5q-229 0 -367.5 156.5t-138.5 398.5zM272 530q0 -173 87 -286t237 -113q151 0 238.5 113t87.5 286q0 175 -87.5 288.5t-238.5 113.5q-150 0 -237 -113.5 t-87 -288.5zM324 1266v161h159v-161h-159zM715 1266v161h157v-161h-157z" />
<glyph unicode="&#xf7;" d="M57 455v151h1063v-151h-1063zM465 117q0 53 36.5 91t88.5 38q51 0 87 -38t36 -91q0 -50 -36 -86.5t-87 -36.5q-52 0 -88.5 36.5t-36.5 86.5zM465 944q0 51 36.5 88t88.5 37q51 0 87 -37t36 -88q0 -52 -36 -88.5t-87 -36.5q-52 0 -88.5 36.5t-36.5 88.5z" />
<glyph unicode="&#xf8;" horiz-adv-x="1196" d="M90 530q0 245 138 401t368 156q154 0 270 -75l52 73l90 -63l-54 -78q73 -76 112.5 -182.5t39.5 -231.5q0 -158 -61.5 -284t-178.5 -198.5t-270 -72.5q-150 0 -270 74l-50 -69l-90 61l54 78q-72 74 -111 180t-39 231zM272 530q0 -162 72 -262l428 611q-74 55 -176 55 q-150 0 -237 -114.5t-87 -289.5zM420 184q74 -55 176 -55q152 0 240 114t88 287q0 157 -74 267z" />
<glyph unicode="&#xf9;" horiz-adv-x="1191" d="M143 375v688h174v-647q0 -279 230 -279q137 0 226 92.5t89 241.5v592h172v-1063h-172v160q-57 -86 -148.5 -135.5t-205.5 -49.5q-167 0 -266 106.5t-99 293.5zM309 1503l132 76l235 -362h-145z" />
<glyph unicode="&#xfa;" horiz-adv-x="1191" d="M143 375v688h174v-647q0 -279 230 -279q137 0 226 92.5t89 241.5v592h172v-1063h-172v160q-57 -86 -148.5 -135.5t-205.5 -49.5q-167 0 -266 106.5t-99 293.5zM478 1217l235 362l131 -76l-221 -286h-145z" />
<glyph unicode="&#xfb;" horiz-adv-x="1191" d="M143 375v688h174v-647q0 -279 230 -279q137 0 226 92.5t89 241.5v592h172v-1063h-172v160q-57 -86 -148.5 -135.5t-205.5 -49.5q-167 0 -266 106.5t-99 293.5zM262 1217l250 346h154l249 -346h-143l-184 213l-181 -213h-145z" />
<glyph unicode="&#xfc;" horiz-adv-x="1191" d="M143 375v688h174v-647q0 -279 230 -279q137 0 226 92.5t89 241.5v592h172v-1063h-172v160q-57 -86 -148.5 -135.5t-205.5 -49.5q-167 0 -266 106.5t-99 293.5zM313 1266v161h160v-161h-160zM705 1266v161h157v-161h-157z" />
<glyph unicode="&#xfd;" horiz-adv-x="1060" d="M25 1063h194l313 -844l312 844h188l-430 -1090q-77 -197 -148 -273.5t-188 -76.5q-81 0 -127 23l39 143q32 -16 68 -16q61 0 102.5 48.5t93.5 182.5zM435 1217l235 362l131 -76l-221 -286h-145z" />
<glyph unicode="&#xfe;" horiz-adv-x="1263" d="M158 -356v1818h172v-565q62 96 157 143t205 47q144 0 254.5 -73t169 -199t58.5 -283q0 -240 -133 -398.5t-349 -158.5q-110 0 -205 48t-157 143v-522h-172zM330 530q0 -172 89 -283.5t247 -111.5q156 0 240.5 111t84.5 284q0 175 -84 287.5t-241 112.5 q-158 0 -247 -113.5t-89 -286.5z" />
<glyph unicode="&#xff;" horiz-adv-x="1060" d="M25 1063h194l313 -844l312 844h188l-430 -1090q-77 -197 -148 -273.5t-188 -76.5q-81 0 -127 23l39 143q32 -16 68 -16q61 0 102.5 48.5t93.5 182.5zM256 1266v161h160v-161h-160zM647 1266v161h158v-161h-158z" />
<glyph unicode="&#x152;" horiz-adv-x="2197" d="M92 731q0 162 49.5 301.5t139 240.5t220.5 158.5t287 57.5q96 0 199 -27h1088v-172h-807q177 -171 207 -438h512v-164h-506q-6 -157 -62 -290t-153 -226h829v-172h-1108q-103 -27 -199 -27q-208 0 -367.5 100t-244 271.5t-84.5 386.5zM289 731q0 -261 134.5 -421 t364.5 -160q231 0 365.5 160t134.5 421t-134.5 421.5t-365.5 160.5q-230 0 -364.5 -160.5t-134.5 -421.5z" />
<glyph unicode="&#x153;" horiz-adv-x="2000" d="M90 530q0 245 138 401t368 156q139 0 246 -65.5t168 -181.5q62 117 169 182t251 65q221 0 354 -141.5t133 -361.5q0 -22 -6 -82h-805q1 -169 97 -268t249 -99q91 0 169.5 36.5t133.5 107.5l117 -107q-160 -197 -430 -197q-150 0 -260 64.5t-172 179.5 q-61 -113 -169 -178.5t-245 -65.5q-229 0 -367.5 156.5t-138.5 398.5zM272 530q0 -173 87 -286t237 -113q151 0 238.5 113t87.5 286q0 175 -87.5 288.5t-238.5 113.5q-150 0 -237 -113.5t-87 -288.5zM1110 637h629q-10 148 -97 224.5t-215 76.5q-136 0 -221 -83.5 t-96 -217.5z" />
<glyph unicode="&#x178;" horiz-adv-x="1255" d="M12 1462h219l402 -671l397 671h215l-522 -852v-610h-188v610zM352 1610v161h160v-161h-160zM743 1610v161h158v-161h-158z" />
<glyph unicode="&#x2c6;" horiz-adv-x="753" d="M45 1217l250 346h154l249 -346h-143l-184 213l-181 -213h-145z" />
<glyph unicode="&#x2dc;" horiz-adv-x="829" d="M43 1298q30 78 92 127.5t150 49.5q68 0 151 -45q78 -44 121 -44q84 0 127 89l104 -50q-28 -76 -90 -125t-149 -49q-75 0 -156 45q-74 43 -119 43q-46 0 -78 -26.5t-49 -61.5z" />
<glyph unicode="&#x2000;" horiz-adv-x="962" />
<glyph unicode="&#x2001;" horiz-adv-x="1925" />
<glyph unicode="&#x2002;" horiz-adv-x="962" />
<glyph unicode="&#x2003;" horiz-adv-x="1925" />
<glyph unicode="&#x2004;" horiz-adv-x="641" />
<glyph unicode="&#x2005;" horiz-adv-x="481" />
<glyph unicode="&#x2006;" horiz-adv-x="320" />
<glyph unicode="&#x2007;" horiz-adv-x="320" />
<glyph unicode="&#x2008;" horiz-adv-x="240" />
<glyph unicode="&#x2009;" horiz-adv-x="385" />
<glyph unicode="&#x200a;" horiz-adv-x="106" />
<glyph unicode="&#x2010;" horiz-adv-x="792" d="M127 455v151h539v-151h-539z" />
<glyph unicode="&#x2011;" horiz-adv-x="792" d="M127 455v151h539v-151h-539z" />
<glyph unicode="&#x2012;" horiz-adv-x="792" d="M127 455v151h539v-151h-539z" />
<glyph unicode="&#x2013;" d="M53 463v149h1071v-149h-1071z" />
<glyph unicode="&#x2014;" horiz-adv-x="1884" d="M121 463v149h1642v-149h-1642z" />
<glyph unicode="&#x2018;" horiz-adv-x="460" d="M121 965v163q0 107 40.5 193.5t121.5 167.5l63 -66q-115 -115 -115 -245v-23h107v-190h-217z" />
<glyph unicode="&#x2019;" horiz-adv-x="430" d="M109 1004q114 114 114 245v23h-106v190h217v-164q0 -107 -40.5 -193t-121.5 -167z" />
<glyph unicode="&#x201a;" horiz-adv-x="509" d="M137 -211q115 100 115 213v4h-107v199h217v-150q0 -187 -161 -329z" />
<glyph unicode="&#x201c;" horiz-adv-x="837" d="M121 965v159q0 203 162 365l63 -66q-115 -112 -115 -245v-23h105v-190h-215zM496 965v163q0 107 40 193.5t121 167.5l64 -66q-115 -115 -115 -245v-23h107v-190h-217z" />
<glyph unicode="&#x201d;" horiz-adv-x="804" d="M109 1004q114 114 114 245v23h-106v190h217v-164q0 -107 -40.5 -193t-121.5 -167zM483 1004q115 112 115 245v23h-106v190h217v-159q0 -203 -162 -365z" />
<glyph unicode="&#x201e;" horiz-adv-x="835" d="M137 -211q115 100 115 213v4h-107v199h217v-150q0 -187 -161 -329zM463 -211q117 99 117 213v4h-105v199h213v-150q0 -184 -158 -329z" />
<glyph unicode="&#x2022;" horiz-adv-x="753" d="M96 731q0 118 82.5 201.5t198.5 83.5q117 0 198.5 -83t81.5 -202q0 -117 -81.5 -199.5t-198.5 -82.5q-116 0 -198.5 82.5t-82.5 199.5z" />
<glyph unicode="&#x2026;" horiz-adv-x="1404" d="M137 0v211h213v-211h-213zM596 0v211h213v-211h-213zM1055 0v211h213v-211h-213z" />
<glyph unicode="&#x202f;" horiz-adv-x="385" />
<glyph unicode="&#x2039;" horiz-adv-x="616" d="M102 559v57l306 420l106 -84l-264 -364l264 -365l-106 -82z" />
<glyph unicode="&#x203a;" horiz-adv-x="614" d="M102 223l265 365l-265 364l107 84l303 -420v-57l-303 -418z" />
<glyph unicode="&#x205f;" horiz-adv-x="481" />
<glyph unicode="&#x20ac;" d="M0 545v106h131q-2 16 -2 74q0 66 4 86h-133v104h147q50 264 214.5 419t398.5 155q215 0 360 -119l-98 -135q-110 84 -254 84q-163 0 -275.5 -107.5t-152.5 -296.5h539v-104h-555q-7 -47 -7 -82q0 -33 5 -78h557v-106h-541q39 -191 150.5 -296.5t265.5 -105.5 q167 0 272 113l111 -121q-145 -162 -387 -162q-234 0 -396 154t-209 418h-145z" />
<glyph unicode="&#x2122;" horiz-adv-x="1335" d="M86 1368v94h471v-94h-186v-453h-103v453h-182zM616 915v547h150l147 -444l152 444h145v-547h-98v435l-145 -435h-109l-145 435v-435h-97z" />
<glyph unicode="&#xe000;" horiz-adv-x="1064" d="M0 0v1065h1065v-1065h-1065z" />
</font>
</defs>
</svg>
