<?xml version="1.0" standalone="no"?>
<!DOCTYPE svg PUBLIC "-//W3C//DTD SVG 1.1//EN" "http://www.w3.org/Graphics/SVG/1.1/DTD/svg11.dtd" >
<svg xmlns="http://www.w3.org/2000/svg">
<metadata></metadata>
<defs>
<font id="sq_market_lightbold" horiz-adv-x="1179" >
<font-face units-per-em="2048" ascent="1638" descent="-410" />
<missing-glyph horiz-adv-x="552" />
<glyph unicode="&#xfb01;" horiz-adv-x="1230" d="M43 872v209h164v123q0 151 84 217t239 66q90 0 181 -25l-31 -198q-48 18 -102 18q-111 0 -111 -90v-111h227v-209h-227v-872h-260v872h-164zM838 0v1081h260v-1081h-260zM838 1235v227h260v-227h-260z" />
<glyph unicode="&#xfb02;" horiz-adv-x="1230" d="M43 872v209h164v123q0 151 84 217t239 66q90 0 181 -25l-31 -198q-48 18 -102 18q-111 0 -111 -90v-111h227v-209h-227v-872h-260v872h-164zM840 0v1462h260v-1462h-260z" />
<glyph horiz-adv-x="0" />
<glyph horiz-adv-x="682" />
<glyph horiz-adv-x="0" />
<glyph horiz-adv-x="0" />
<glyph horiz-adv-x="552" />
<glyph unicode="&#xd;" horiz-adv-x="387" />
<glyph unicode=" "  horiz-adv-x="552" />
<glyph unicode="&#x09;" horiz-adv-x="552" />
<glyph unicode="&#xa0;" horiz-adv-x="552" />
<glyph unicode="!" horiz-adv-x="563" d="M137 0v289h289v-289h-289zM141 1147v315h281v-315l-72 -690h-135z" />
<glyph unicode="&#x22;" horiz-adv-x="860" d="M135 872v590h205v-590h-205zM520 872v590h205v-590h-205z" />
<glyph unicode="#" horiz-adv-x="1177" d="M66 406v151h178l61 350h-239v152h266l74 403h167l-71 -403h286l72 403h168l-72 -403h154v-152h-182l-60 -350h242v-151h-268l-72 -406h-168l72 406h-285l-72 -406h-170l70 406h-151zM416 557h284l62 350h-287z" />
<glyph unicode="$" d="M45 268l201 125q96 -178 293 -200v430q-64 15 -117 33t-116.5 53.5t-107 79.5t-73 113t-29.5 153q0 184 123.5 295.5t319.5 119.5v97h116v-101q128 -14 236.5 -76.5t181.5 -172.5l-186 -115q-90 117 -232 147v-393q57 -15 105 -31.5t101.5 -42t94.5 -59.5t75 -77 t52.5 -101.5t18.5 -126.5q0 -177 -119.5 -300t-327.5 -138v-101h-116v98q-165 12 -293.5 87.5t-200.5 203.5zM342 1075q0 -78 51 -121t146 -69v372q-86 -6 -141.5 -52.5t-55.5 -129.5zM655 188q99 9 153 64.5t54 142.5q0 82 -50.5 125.5t-156.5 73.5v-406z" />
<glyph unicode="%" horiz-adv-x="1632" d="M78 1135q0 148 97.5 248t244.5 100t244.5 -100t97.5 -248t-97.5 -248.5t-244.5 -100.5t-244.5 100.5t-97.5 248.5zM252 1135q0 -75 47 -126t121 -51t121 51t47 126t-47 125.5t-121 50.5t-121 -50.5t-47 -125.5zM256 0l924 1462h198l-923 -1462h-199zM874 330 q0 146 97.5 246t242.5 100q148 0 245 -100t97 -246q0 -150 -97 -250t-245 -100q-146 0 -243 100t-97 250zM1047 330q0 -76 47 -127t120 -51q74 0 121 51t47 127q0 74 -47 124t-121 50q-73 0 -120 -50t-47 -124z" />
<glyph unicode="&#x26;" horiz-adv-x="1396" d="M88 387q0 75 20 135t65.5 112t98.5 92.5t138 94.5q-72 89 -108 162.5t-36 161.5q0 155 108.5 249.5t270.5 94.5q154 0 258.5 -85t104.5 -226q0 -59 -20.5 -112.5t-61.5 -101t-86.5 -86.5t-112.5 -85l297 -357q76 91 111 174l184 -100q-48 -108 -160 -236l230 -274h-310 l-94 115q-201 -142 -424 -142t-348 115t-125 299zM352 412q0 -99 65 -161.5t177 -62.5q127 0 258 88l-315 390q-99 -67 -142 -122.5t-43 -131.5zM508 1153q0 -92 94 -211q95 64 135.5 112t40.5 109q0 63 -37 99t-94 36q-60 0 -99.5 -38t-39.5 -107z" />
<glyph unicode="'" horiz-adv-x="475" d="M135 872v590h205v-590h-205z" />
<glyph unicode="(" horiz-adv-x="626" d="M82 682q0 523 362 965l156 -107q-161 -214 -229 -422.5t-68 -435.5t68 -435.5t229 -422.5l-156 -107q-362 442 -362 965z" />
<glyph unicode=")" horiz-adv-x="626" d="M27 -176q161 214 228 422t67 436t-67 436t-228 422l153 107q365 -442 365 -965t-365 -965z" />
<glyph unicode="*" horiz-adv-x="790" d="M76 1047q64 36 113.5 53.5t144.5 38.5q-95 21 -144.5 38.5t-113.5 53.5l80 139q61 -36 102.5 -71.5t106.5 -106.5q-31 95 -41.5 146.5t-10.5 123.5h160q0 -76 -9 -129t-38 -141q65 71 106.5 106.5t102.5 71.5l80 -139q-63 -36 -113.5 -53.5t-146.5 -38.5 q96 -21 146.5 -38.5t113.5 -53.5l-80 -140q-61 36 -102.5 71.5t-106.5 106.5q29 -88 38 -141t9 -129h-160q0 72 10.5 123.5t41.5 146.5q-65 -71 -106.5 -106.5t-102.5 -71.5z" />
<glyph unicode="+" d="M47 430v219h432v432h219v-432h432v-219h-432v-430h-219v430h-432z" />
<glyph unicode="," horiz-adv-x="512" d="M102 -233q65 50 102.5 109.5t37.5 117.5v6h-133v289h292v-213q0 -126 -50.5 -223.5t-162.5 -186.5z" />
<glyph unicode="-" horiz-adv-x="792" d="M109 430v219h573v-219h-573z" />
<glyph unicode="." horiz-adv-x="512" d="M111 0v289h290v-289h-290z" />
<glyph unicode="/" horiz-adv-x="780" d="M59 0l451 1462h213l-451 -1462h-213z" />
<glyph unicode="0" d="M72 729q0 122 16.5 229.5t55 206.5t96.5 169.5t147.5 112.5t202.5 42q112 0 201.5 -42t147.5 -112.5t97 -169.5t55.5 -206.5t16.5 -229.5q0 -121 -16.5 -228.5t-55.5 -205.5t-97 -168.5t-147.5 -112t-201.5 -41.5q-113 0 -202.5 41.5t-147.5 112t-96.5 168.5t-55 205.5 t-16.5 228.5zM346 731q0 -534 244 -534q241 0 241 534q0 533 -241 533q-244 0 -244 -533z" />
<glyph unicode="1" horiz-adv-x="952" d="M70 1171l426 291h233v-1462h-270v1145l-256 -176z" />
<glyph unicode="2" d="M47 1176q77 143 213.5 228t319.5 85q222 0 359.5 -121.5t137.5 -323.5q0 -133 -60.5 -230.5t-178.5 -195.5q-52 -44 -156 -121.5t-175.5 -138.5t-107.5 -112h695v-246h-1024v35q0 144 99 283t318 333l42 36q137 119 182 173q77 93 77 184q0 96 -64.5 149.5t-164.5 53.5 q-97 0 -176 -51.5t-121 -144.5z" />
<glyph unicode="3" d="M41 281l211 125q44 -89 121 -141t178 -52q124 0 203.5 72.5t79.5 193.5q0 105 -62 171.5t-160 66.5q-67 0 -123 -39l-114 110l334 426h-600v248h938v-172l-297 -379q159 -22 259.5 -138t100.5 -292q0 -79 -21 -152t-66 -138t-109 -113.5t-156 -76.5t-201 -28 q-350 0 -516 308z" />
<glyph unicode="4" d="M49 322v208l606 932h289v-913h176v-227h-176v-322h-270v322h-625zM299 549h381v584z" />
<glyph unicode="5" d="M68 281l225 116q35 -85 105.5 -134.5t166.5 -49.5q120 0 195.5 71.5t75.5 196.5q0 122 -75 192t-202 70q-172 0 -287 -135l-147 72l49 782h860v-248h-645l-29 -331q49 38 122 58t149 20q208 0 345.5 -131.5t137.5 -344.5q0 -100 -34 -190t-98.5 -163t-170.5 -116 t-240 -43q-183 0 -310.5 79.5t-192.5 228.5z" />
<glyph unicode="6" d="M68 702q0 362 147 568q161 217 475 217q220 0 361 -98l-101 -207q-103 71 -245 71q-178 0 -272.5 -112.5t-94.5 -306.5q42 56 124.5 95.5t194.5 39.5q204 0 338.5 -132.5t134.5 -347.5q0 -106 -36 -199.5t-101.5 -164t-166 -111.5t-222.5 -41q-253 0 -394.5 189 t-141.5 540zM352 496q0 -119 67.5 -204t192.5 -85q114 0 178 74t64 194t-63.5 198.5t-186.5 78.5q-112 0 -182 -69t-70 -187z" />
<glyph unicode="7" d="M76 1214v248h1038v-196l-647 -1266h-297l637 1214h-731z" />
<glyph unicode="8" d="M72 414q0 126 61.5 222.5t175.5 143.5q-91 46 -145.5 127.5t-54.5 194.5q0 120 65.5 209.5t173 133.5t240.5 44q134 0 242 -44t173.5 -133.5t65.5 -209.5q0 -113 -55 -195t-148 -127q116 -46 178 -142.5t62 -221.5q0 -194 -138 -318.5t-380 -124.5q-241 0 -378.5 124.5 t-137.5 316.5zM350 430q0 -116 64 -176.5t174 -60.5q111 0 174 62t63 177q0 113 -61 174.5t-176 61.5q-114 0 -176 -63t-62 -175zM381 1069q0 -102 59.5 -149.5t147.5 -47.5q89 0 149 47.5t60 149.5q0 103 -59.5 153t-149.5 50t-148.5 -50t-58.5 -153z" />
<glyph unicode="9" d="M49 973q0 106 35.5 200t101.5 164t166 111t221 41q255 0 397 -189t142 -544q0 -362 -147 -563q-162 -218 -473 -218q-217 0 -365 97l104 209q103 -72 246 -72q176 0 270.5 114t94.5 310q-40 -57 -124.5 -98t-199.5 -41q-203 0 -336 132t-133 347zM326 985 q0 -120 63.5 -197t185.5 -77q114 0 183 70t69 190q0 118 -68 201t-192 83q-115 0 -178 -74.5t-63 -195.5z" />
<glyph unicode=":" horiz-adv-x="602" d="M156 0v289h293v-289h-293zM156 793v288h293v-288h-293z" />
<glyph unicode=";" horiz-adv-x="602" d="M150 -229q65 50 102 109.5t37 117.5v2h-135v289h295v-209q0 -125 -51 -222.5t-162 -185.5zM154 793v288h295v-288h-295z" />
<glyph unicode="&#x3c;" d="M229 541l568 567l151 -154l-409 -413l409 -412l-151 -154z" />
<glyph unicode="=" d="M63 221v217h1051v-217h-1051zM63 643v217h1051v-217h-1051z" />
<glyph unicode="&#x3e;" d="M229 129l412 412l-412 413l152 154l567 -567l-567 -566z" />
<glyph unicode="?" horiz-adv-x="1079" d="M59 1313q196 176 457 176q212 0 342.5 -111.5t130.5 -302.5q0 -71 -21 -131.5t-55 -102.5t-75.5 -78.5t-82.5 -67.5t-75 -61t-55 -68t-21 -81v-36h-268v24q0 67 20.5 125t54 99.5t73.5 78.5t79.5 70t73 65.5t54 73.5t20.5 86q0 86 -61.5 135t-166.5 49q-154 0 -288 -127z M330 0v289h291v-289h-291z" />
<glyph unicode="@" horiz-adv-x="1740" d="M84 715q0 161 58 303t161 246t254 164.5t328 60.5q174 0 322.5 -60t249.5 -163t157.5 -243t56.5 -298q0 -192 -93.5 -308t-250.5 -116q-76 0 -141.5 31.5t-100.5 103.5q-91 -139 -266 -139q-162 0 -259 117.5t-97 296.5q0 180 97.5 295.5t260.5 115.5q131 0 219 -104v88 h205v-551q0 -129 111 -129q85 0 130.5 80.5t45.5 210.5q0 139 -44.5 257.5t-126 204.5t-203 134.5t-269.5 48.5q-146 0 -269 -52t-205 -140.5t-127.5 -206t-45.5 -248.5q0 -132 46 -250t128 -205.5t205 -138.5t268 -51q189 0 328 90l59 -113q-183 -104 -395 -104 q-176 0 -326 59.5t-253 163t-160.5 245.5t-57.5 304zM676 711q0 -104 46.5 -172t131.5 -68q90 0 138 68t48 172q0 102 -49 170.5t-137 68.5q-85 0 -131.5 -68t-46.5 -171z" />
<glyph unicode="A" horiz-adv-x="1421" d="M8 0l543 1462h321l541 -1462h-305l-123 362h-559l-123 -362h-295zM494 590h421l-206 635z" />
<glyph unicode="B" horiz-adv-x="1402" d="M150 0v1462h634q230 0 357 -97.5t127 -270.5q0 -103 -50 -185.5t-137 -130.5q118 -46 179 -139t61 -215q0 -191 -129 -307.5t-367 -116.5h-675zM422 240h387q109 0 171 53t62 149q0 93 -56.5 148t-162.5 55h-401v-405zM422 870h358q103 0 158 49t55 136q0 168 -223 168 h-348v-353z" />
<glyph unicode="C" horiz-adv-x="1429" d="M72 733q0 221 89 393t250.5 267.5t368.5 95.5q188 0 341.5 -82.5t254.5 -245.5l-215 -133q-132 217 -377 217q-197 0 -313.5 -141.5t-116.5 -370.5q0 -231 117.5 -373.5t316.5 -142.5q244 0 377 225l219 -127q-210 -342 -598 -342q-211 0 -373.5 95.5t-251.5 268.5 t-89 396z" />
<glyph unicode="D" horiz-adv-x="1513" d="M150 0v1462h575q169 0 305.5 -55.5t225.5 -153.5t136.5 -231.5t47.5 -290.5t-47.5 -290t-136.5 -231.5t-225.5 -154t-305.5 -55.5h-575zM422 246h303q209 0 320.5 130t111.5 355t-111.5 354t-320.5 129h-303v-968z" />
<glyph unicode="E" horiz-adv-x="1300" d="M150 0v1462h1036v-248h-764v-344h680v-225h-680v-399h784v-246h-1056z" />
<glyph unicode="F" horiz-adv-x="1239" d="M150 0v1462h1034v-248h-762v-344h680v-225h-680v-645h-272z" />
<glyph unicode="G" horiz-adv-x="1525" d="M72 735q0 223 89 394t253.5 265.5t378.5 94.5q194 0 345.5 -84.5t245.5 -237.5l-227 -127q-118 205 -366 205q-205 0 -321 -140.5t-116 -369.5q0 -238 117.5 -378t316.5 -140q165 0 273 90.5t123 255.5h-357v225h631q12 -47 12 -116q0 -145 -45.5 -271t-131 -222 t-217 -151t-292.5 -55q-211 0 -373.5 96.5t-250.5 269.5t-88 396z" />
<glyph unicode="H" horiz-adv-x="1529" d="M150 0v1462h272v-571h686v571h272v-1462h-272v645h-686v-645h-272z" />
<glyph unicode="I" horiz-adv-x="573" d="M150 0v1462h272v-1462h-272z" />
<glyph unicode="J" horiz-adv-x="1083" d="M8 252l217 117q62 -156 230 -156q219 0 219 260v989h272v-956q0 -239 -104 -371q-63 -79 -161 -120.5t-220 -41.5q-161 0 -278.5 72.5t-174.5 206.5z" />
<glyph unicode="K" horiz-adv-x="1411" d="M150 0v1462h272v-712l610 712h332l-518 -596l573 -866h-327l-437 664l-233 -273v-391h-272z" />
<glyph unicode="L" horiz-adv-x="1183" d="M150 0v1462h272v-1216h721v-246h-993z" />
<glyph unicode="M" horiz-adv-x="1839" d="M150 0v1462h382l390 -1054l391 1054h377v-1462h-269v1085l-405 -1085h-195l-407 1083v-1083h-264z" />
<glyph unicode="N" horiz-adv-x="1525" d="M150 0v1462h329l635 -1034v1034h262v-1462h-297l-665 1085v-1085h-264z" />
<glyph unicode="O" horiz-adv-x="1572" d="M70 731q0 160 50.5 299t141.5 240.5t226.5 160t297.5 58.5q216 0 380.5 -100.5t250.5 -272t86 -385.5q0 -213 -86 -384.5t-250.5 -272.5t-380.5 -101q-162 0 -297.5 58.5t-226.5 160.5t-141.5 241t-50.5 298zM354 731q0 -223 115.5 -362.5t316.5 -139.5 q202 0 318.5 139.5t116.5 362.5t-116.5 362.5t-318.5 139.5q-201 0 -316.5 -139.5t-115.5 -362.5z" />
<glyph unicode="P" horiz-adv-x="1333" d="M150 0v1462h620q246 0 385 -127t139 -340q0 -215 -138 -341t-386 -126h-348v-528h-272zM422 776h346q121 0 185.5 57.5t64.5 163.5q0 105 -64.5 161t-185.5 56h-346v-438z" />
<glyph unicode="Q" horiz-adv-x="1572" d="M70 733q0 159 50.5 297t141.5 240t226.5 160.5t297.5 58.5q216 0 380.5 -101t250.5 -271.5t86 -383.5q0 -171 -56 -317.5t-161 -249.5l113 -131l-178 -148l-123 154q-139 -68 -312 -68q-162 0 -297.5 58.5t-226.5 161t-141.5 241.5t-50.5 299zM354 733 q0 -225 115.5 -366.5t316.5 -141.5q71 0 140 29l-154 190l166 136l168 -205q115 141 115 358q0 221 -116.5 360.5t-318.5 139.5q-201 0 -316.5 -139t-115.5 -361z" />
<glyph unicode="R" horiz-adv-x="1380" d="M150 0v1462h651q239 0 373.5 -121t134.5 -323q0 -154 -78.5 -260.5t-216.5 -159.5l313 -598h-301l-287 551h-317v-551h-272zM422 776h369q109 0 174 60t65 161t-64.5 159t-170.5 58h-373v-438z" />
<glyph unicode="S" horiz-adv-x="1286" d="M49 276l211 144q62 -109 170.5 -162t228.5 -53q134 0 212.5 56t78.5 151q0 99 -108 149q-58 27 -219 62q-73 14 -130.5 29.5t-122.5 40t-112 57t-87 76t-60.5 103.5t-20.5 132q0 133 72 231.5t192.5 147.5t272.5 49q171 0 318 -66.5t243 -201.5l-203 -140 q-57 82 -153 129t-211 47q-111 0 -185 -47t-74 -131q0 -64 53.5 -102t155.5 -66q27 -7 76.5 -19t84.5 -20t85.5 -22.5t87 -28.5t81 -35t75.5 -44t63 -55t51.5 -68t31.5 -82t12 -99q0 -203 -154 -334t-416 -131q-201 0 -357.5 80.5t-242.5 222.5z" />
<glyph unicode="T" horiz-adv-x="1308" d="M51 1214v248h1204v-248h-467v-1214h-270v1214h-467z" />
<glyph unicode="U" horiz-adv-x="1452" d="M137 549v913h271v-913q0 -153 83 -238.5t234 -85.5t235 86t84 238v913h273v-913q0 -267 -163.5 -421.5t-428.5 -154.5q-267 0 -427.5 154t-160.5 422z" />
<glyph unicode="V" horiz-adv-x="1329" d="M2 1462h293l369 -1120l368 1120h293l-518 -1462h-285z" />
<glyph unicode="W" horiz-adv-x="1980" d="M37 1462h293l239 -1056l303 1056h232l303 -1059l240 1059h297l-385 -1462h-283l-291 1032l-291 -1032h-284z" />
<glyph unicode="X" horiz-adv-x="1368" d="M-4 0l514 762l-475 700h323l328 -508l324 508h321l-473 -700l512 -762h-330l-358 561l-358 -561h-328z" />
<glyph unicode="Y" horiz-adv-x="1312" d="M-2 1462h315l346 -596l345 596h313l-524 -854v-608h-275v608z" />
<glyph unicode="Z" horiz-adv-x="1316" d="M76 0v221l770 993h-740v248h1113v-211l-779 -1005h797v-246h-1161z" />
<glyph unicode="[" horiz-adv-x="610" d="M121 -274v1912h454v-178h-231v-1556h231v-178h-454z" />
<glyph unicode="\" horiz-adv-x="780" d="M55 1462h215l451 -1462h-215z" />
<glyph unicode="]" horiz-adv-x="612" d="M37 -96h229v1556h-229v178h455v-1912h-455v178z" />
<glyph unicode="^" d="M23 989l473 473h188l473 -473l-151 -151l-416 413l-416 -413z" />
<glyph unicode="_" horiz-adv-x="1200" d="M-12 -154h1222v-102h-1222v102z" />
<glyph unicode="`" horiz-adv-x="663" d="M41 1495l197 100l198 -385h-180z" />
<glyph unicode="a" horiz-adv-x="1116" d="M63 309q0 55 14 100.5t35.5 77t55.5 57t65 40.5t72.5 27t71 17.5t67.5 10.5q151 22 189 33q92 28 99 89q1 6 1 13q0 61 -56.5 88t-135.5 27q-82 0 -174.5 -27t-163.5 -76l-94 191q89 59 208.5 94t243.5 35q201 0 316.5 -87.5t115.5 -268.5v-750h-245v115 q-107 -140 -310 -140q-169 0 -272 88.5t-103 245.5zM322 322q0 -70 46 -106t124 -36q102 0 171.5 59t69.5 173v123q-23 -17 -67 -30.5t-70 -18.5t-98 -17q-41 -8 -68 -16.5t-54 -24.5t-40.5 -42.5t-13.5 -63.5z" />
<glyph unicode="b" horiz-adv-x="1280" d="M131 0v1462h260v-518q55 81 142.5 121.5t191.5 40.5q144 0 255.5 -74t170.5 -202t59 -287q0 -161 -59 -289.5t-170.5 -203.5t-255.5 -75q-104 0 -191 41.5t-143 122.5v-139h-260zM391 539q0 -146 72.5 -241t204.5 -95q131 0 200.5 94.5t69.5 241.5q0 96 -29 171t-91 122 t-150 47q-130 0 -203.5 -97t-73.5 -243z" />
<glyph unicode="c" horiz-adv-x="1101" d="M66 541q0 160 65.5 288.5t188.5 202.5t282 74q156 0 270.5 -70t182.5 -180l-189 -123q-87 146 -245 146q-130 0 -205.5 -93t-75.5 -243q0 -154 77 -247t208 -93q158 0 258 143l176 -143q-168 -228 -453 -228q-161 0 -284.5 74t-189.5 202t-66 290z" />
<glyph unicode="d" horiz-adv-x="1280" d="M70 539q0 161 59 289.5t170.5 203t255.5 74.5q104 0 190.5 -41.5t143.5 -122.5v520h260v-1462h-260v139q-57 -82 -144 -123t-190 -41q-218 0 -351.5 159.5t-133.5 404.5zM342 541q0 -96 28.5 -170.5t90 -121t149.5 -46.5q133 0 206 96t73 242t-73.5 242t-205.5 96 q-129 0 -198.5 -96t-69.5 -242z" />
<glyph unicode="e" d="M66 537q0 248 143.5 408.5t390.5 160.5q237 0 375.5 -148t138.5 -383q0 -21 -6 -96h-764q1 -130 81 -201t206 -71q174 0 280 133l166 -158q-173 -207 -461 -207q-129 0 -234 42.5t-173.5 118t-105.5 178t-37 223.5zM346 662h510q-9 118 -78.5 180.5t-173.5 62.5 q-109 0 -179 -66.5t-79 -176.5z" />
<glyph unicode="f" horiz-adv-x="735" d="M43 872v209h164v123q0 151 84 217t239 66q90 0 181 -25l-31 -198q-48 18 -102 18q-111 0 -111 -90v-111h227v-209h-227v-872h-260v872h-164z" />
<glyph unicode="g" horiz-adv-x="1280" d="M72 575q0 149 61 270.5t172 191t250 69.5q108 0 196.5 -42t139.5 -122v139h260v-895q0 -253 -115 -385q-156 -178 -461 -178q-276 0 -456 131l123 195q134 -105 325 -105q157 0 240.5 72.5t83.5 216.5v80q-52 -77 -142.5 -119.5t-197.5 -42.5q-210 0 -344.5 149.5 t-134.5 374.5zM346 582q0 -137 70 -225.5t198 -88.5q130 0 203.5 88.5t73.5 225.5q0 132 -73 218.5t-204 86.5q-130 0 -199 -85.5t-69 -219.5z" />
<glyph unicode="h" horiz-adv-x="1204" d="M131 0v1462h260v-516q54 74 139.5 117t190.5 43q168 0 264 -108.5t96 -284.5v-713h-260v653q0 219 -184 219q-107 0 -176.5 -71t-69.5 -191v-610h-260z" />
<glyph unicode="i" horiz-adv-x="522" d="M131 0v1081h260v-1081h-260zM131 1235v227h260v-227h-260z" />
<glyph unicode="j" horiz-adv-x="520" d="M-98 -348l39 198q36 -18 79 -18q57 0 84 30t27 113v1106h258v-1122q0 -334 -317 -334q-103 0 -170 27zM131 1239v223h258v-223h-258z" />
<glyph unicode="k" horiz-adv-x="1189" d="M131 0v1462h260v-874l440 493h312l-402 -430l449 -651h-311l-314 479l-174 -190v-289h-260z" />
<glyph unicode="l" horiz-adv-x="526" d="M133 0v1462h260v-1462h-260z" />
<glyph unicode="m" horiz-adv-x="1837" d="M131 0v1081h260v-131q53 74 134.5 115t179.5 41q109 0 187 -49.5t114 -138.5q60 89 153.5 138.5t200.5 49.5q167 0 260.5 -106t93.5 -281v-719h-258v657q0 215 -178 215q-99 0 -162 -68.5t-63 -185.5v-618h-258v657q0 215 -179 215q-100 0 -162.5 -68t-62.5 -186v-618 h-260z" />
<glyph unicode="n" horiz-adv-x="1204" d="M131 0v1081h260v-135q54 74 139.5 117t190.5 43q168 0 264 -108.5t96 -284.5v-713h-260v653q0 219 -184 219q-107 0 -176.5 -71t-69.5 -191v-610h-260z" />
<glyph unicode="o" horiz-adv-x="1220" d="M66 539q0 253 148.5 410t395.5 157t396 -157t149 -410q0 -251 -149 -407.5t-396 -156.5t-395.5 156.5t-148.5 407.5zM342 541q0 -152 71 -248t197 -96q127 0 199 96t72 248q0 153 -72 248.5t-199 95.5q-126 0 -197 -95.5t-71 -248.5z" />
<glyph unicode="p" horiz-adv-x="1280" d="M131 -356v1437h260v-137q55 81 142.5 121.5t191.5 40.5q144 0 255.5 -74t170.5 -202t59 -287q0 -161 -59 -289.5t-170.5 -203.5t-255.5 -75q-104 0 -191 41.5t-143 122.5v-495h-260zM391 543q0 -147 73.5 -243.5t205.5 -96.5q129 0 198.5 96.5t69.5 243.5 q0 146 -69.5 241t-198.5 95q-133 0 -206 -95t-73 -241z" />
<glyph unicode="q" horiz-adv-x="1280" d="M70 539q0 161 59 289.5t170.5 203t255.5 74.5q104 0 190.5 -41.5t143.5 -122.5v139h260v-1437h-260v495q-57 -82 -144 -123t-190 -41q-218 0 -351.5 159.5t-133.5 404.5zM342 541q0 -96 28.5 -170.5t90 -121t149.5 -46.5q133 0 206 96t73 242t-73.5 242t-205.5 96 q-129 0 -198.5 -96t-69.5 -242z" />
<glyph unicode="r" horiz-adv-x="831" d="M131 0v1081h260v-143q48 75 127 119.5t168 44.5q42 0 81.5 -11t59.5 -26l-45 -234q-47 29 -127 29q-116 0 -190 -90.5t-74 -263.5v-506h-260z" />
<glyph unicode="s" horiz-adv-x="1050" d="M45 154l139 163q132 -135 348 -135q92 0 146.5 31.5t54.5 95.5q0 57 -54 80t-212 51q-67 12 -118 26t-105 39.5t-88.5 59t-57 85.5t-22.5 118q0 86 35 152.5t97 106t139 59.5t167 20q269 0 449 -168l-140 -162q-48 55 -134.5 90t-184.5 35q-81 0 -133 -25.5t-52 -80.5 q0 -20 7.5 -36t27 -28t35.5 -20t50 -16t51.5 -11t58.5 -10q4 -1 6.5 -1.5t5.5 -0.5q104 -18 176 -41.5t130.5 -61t87 -94.5t28.5 -135q0 -169 -125.5 -267t-339.5 -98q-294 0 -473 179z" />
<glyph unicode="t" horiz-adv-x="825" d="M35 872v209h196v381h261v-381h266v-209h-266v-524q0 -82 33 -115.5t93 -33.5q68 0 115 34l55 -202q-81 -56 -231 -56q-160 0 -243 80t-83 252v565h-196z" />
<glyph unicode="u" horiz-adv-x="1202" d="M119 369v712h260v-651q0 -221 186 -221q108 0 178 71t70 191v610h258v-1081h-258v135q-54 -74 -140.5 -117t-191.5 -43q-168 0 -265 109t-97 285z" />
<glyph unicode="v" horiz-adv-x="1101" d="M6 1081h291l258 -780l256 780h285l-410 -1081h-268z" />
<glyph unicode="w" horiz-adv-x="1609" d="M37 1081h278l172 -727l209 727h224l208 -727l170 727h277l-293 -1081h-270l-207 731l-211 -731h-266z" />
<glyph unicode="x" horiz-adv-x="1128" d="M10 0l383 565l-350 516h307l219 -358l211 358h305l-350 -516l381 -565h-313l-240 395l-239 -395h-314z" />
<glyph unicode="y" horiz-adv-x="1101" d="M4 1081h293l260 -751l258 751h279l-416 -1095q-80 -210 -165 -286.5t-224 -76.5q-106 0 -166 29l57 207q31 -19 76 -19q58 0 93.5 38.5t72.5 137.5z" />
<glyph unicode="z" horiz-adv-x="1048" d="M70 0v193l528 663h-504v225h860v-188l-528 -668h545v-225h-901z" />
<glyph unicode="{" horiz-adv-x="684" d="M39 596v172h51q77 0 108 46.5t31 129.5v350q0 162 85 253t225 91h96v-174h-31q-153 0 -153 -178v-319q0 -222 -181 -285q181 -63 181 -283v-321q0 -87 35.5 -132.5t117.5 -45.5h31v-174h-96q-140 0 -225 91t-85 253v350q0 83 -31 129.5t-108 46.5h-51z" />
<glyph unicode="|" horiz-adv-x="440" d="M121 -98v1659h198v-1659h-198z" />
<glyph unicode="}" horiz-adv-x="692" d="M47 -100h25q88 0 124.5 45.5t36.5 132.5v319q0 222 187 285q-187 63 -187 283v321q0 86 -37 132t-124 46h-25v174h84q149 0 236.5 -90.5t87.5 -253.5v-350q0 -84 34 -130t117 -46h49v-172h-49q-151 0 -151 -176v-350q0 -163 -87.5 -253.5t-236.5 -90.5h-84v174z" />
<glyph unicode="~" d="M53 571q32 42 59 71t67.5 62t88 50.5t99.5 17.5q35 0 75.5 -10.5t67.5 -21t94 -38.5q81 -35 126 -50t87 -15q106 0 221 92l86 -108q-32 -41 -58.5 -70t-67 -62.5t-88.5 -51t-101 -17.5q-35 0 -74.5 10t-68 20.5t-93.5 38.5q-137 64 -215 64q-107 0 -221 -94z" />
<glyph unicode="&#xa1;" horiz-adv-x="559" d="M135 793v288h289v-288h-289zM139 -51l74 680h135l72 -680v-305h-281v305z" />
<glyph unicode="&#xa2;" d="M92 541q0 231 133.5 387.5t354.5 173.5v170h118v-172q129 -14 225.5 -80.5t155.5 -163.5l-188 -121q-73 124 -193 144v-680q128 22 211 147l174 -143q-144 -199 -385 -223v-173h-118v173q-222 17 -355 173t-133 388zM350 543q0 -137 61.5 -227.5t168.5 -112.5v676 q-106 -22 -168 -112t-62 -224z" />
<glyph unicode="&#xa3;" d="M39 0v207q213 96 213 272q0 65 -25 133h-188v172h125q-29 83 -41 135t-12 111q0 209 137.5 334t363.5 125q350 0 512 -307l-225 -119q-38 82 -106 129t-162 47q-106 0 -171 -59.5t-65 -173.5q0 -83 54 -222h387v-172h-342q12 -55 12 -92q0 -154 -113 -276h703v-244h-1057 z" />
<glyph unicode="&#xa4;" horiz-adv-x="1177" d="M78 268l155 154q-53 86 -53 199q0 114 53 200l-155 156l153 156l158 -158q92 53 199 53q106 0 196 -55l158 160l154 -156l-156 -158q53 -92 53 -198q0 -105 -53 -197l156 -156l-154 -155l-156 155q-92 -53 -198 -53t-201 53l-156 -155zM362 621q0 -94 66 -159t160 -65 q92 0 157.5 65.5t65.5 158.5q0 94 -65.5 159.5t-157.5 65.5q-94 0 -160 -65.5t-66 -159.5z" />
<glyph unicode="&#xa5;" d="M20 1462h312l260 -622l256 622h307l-338 -690h283v-129h-348l-29 -55v-117h377v-129h-377v-342h-272v342h-379v129h379v115l-29 57h-350v129h286z" />
<glyph unicode="&#xa6;" horiz-adv-x="532" d="M182 -123v651h166v-651h-166zM182 909v652h166v-652h-166z" />
<glyph unicode="&#xa7;" horiz-adv-x="1165" d="M82 940q0 156 67.5 280t196.5 196.5t299 72.5q250 0 428 -158l-141 -180q-122 119 -289 119q-152 0 -237 -105q38 -25 106.5 -66t115 -69.5t111 -73t108 -82.5t91 -91.5t76 -106.5t47 -121t18.5 -141q0 -238 -152.5 -393.5t-406.5 -155.5q-249 0 -430 158l141 180 q122 -119 289 -119q156 0 238 104q-83 52 -131 80q-177 107 -247 159q-237 178 -285 391q-13 59 -13 122zM311 946q0 -37 5.5 -70t13 -60t25 -56t31 -49.5t43 -48t49 -45.5t59.5 -47.5t65.5 -47.5t75.5 -53l168 -117q6 46 6 70q0 50 -10 93t-36 84t-51 71t-75.5 71t-87 68 t-107.5 76l-166 116q-8 -33 -8 -55z" />
<glyph unicode="&#xa8;" horiz-adv-x="745" d="M59 1235v213h211v-213h-211zM473 1235v213h213v-213h-213z" />
<glyph unicode="&#xa9;" horiz-adv-x="1695" d="M78 731q0 157 61 299.5t164 245.5t245.5 164t299.5 61t299.5 -61t245.5 -164t164 -245.5t61 -299.5t-61 -299.5t-164 -245.5t-245.5 -164t-299.5 -61t-299.5 61t-245.5 164t-164 245.5t-61 299.5zM188 731q0 -179 89 -331t241 -240t330 -88q134 0 256.5 52t210.5 140 t140 210.5t52 256.5q0 178 -88 330t-240 241t-331 89q-178 0 -330 -89t-241 -241t-89 -330zM416 731q0 183 127 309.5t307 126.5q117 0 215 -56.5t164 -168.5l-158 -102q-37 68 -94 102.5t-125 34.5q-100 0 -170 -72.5t-70 -173.5q0 -100 70.5 -173t169.5 -73q139 0 221 142 l160 -105q-65 -111 -165 -169t-218 -58q-180 0 -307 127.5t-127 308.5z" />
<glyph unicode="&#xaa;" horiz-adv-x="827" d="M74 975q0 61 24.5 103t64 62.5t87 32t95 16.5t87 10.5t64 19t24.5 38.5q0 36 -38.5 53t-90.5 17q-117 0 -223 -70l-70 140q136 86 314 86q142 0 221.5 -61t79.5 -187v-467h-185v78q-70 -92 -202 -92q-112 0 -182 58.5t-70 162.5zM260 981q0 -42 29.5 -62t75.5 -20 q67 0 111 35t44 102v70q-16 -13 -37 -20.5t-39 -10.5t-59 -8q-32 -5 -49.5 -9t-37.5 -13t-29 -24.5t-9 -39.5z" />
<glyph unicode="&#xab;" horiz-adv-x="1079" d="M84 541v94l328 434l135 -104l-252 -377l252 -377l-135 -102zM530 541v94l330 434l135 -104l-252 -377l252 -377l-135 -102z" />
<glyph unicode="&#xac;" d="M70 512v219h1026v-620h-217v401h-809z" />
<glyph unicode="&#xad;" horiz-adv-x="759" d="M113 485v217h534v-217h-534z" />
<glyph unicode="&#xae;" horiz-adv-x="831" d="M76 1147q0 141 99.5 240.5t240.5 99.5q140 0 240 -99.5t100 -240.5t-100 -240.5t-240 -99.5q-141 0 -240.5 99.5t-99.5 240.5zM129 1147q0 -119 83.5 -203t203.5 -84q118 0 202 84t84 203q0 120 -83.5 203.5t-202.5 83.5q-120 0 -203.5 -83.5t-83.5 -203.5zM266 961v376 h180q64 0 101 -32.5t37 -87.5q0 -40 -20.5 -69t-51.5 -42l80 -145h-98l-70 126h-66v-126h-92zM358 1163h80q21 0 34 12t13 35t-13.5 37.5t-33.5 14.5h-80v-99z" />
<glyph unicode="&#xaf;" horiz-adv-x="710" d="M59 1249v174h588v-174h-588z" />
<glyph unicode="&#xb0;" horiz-adv-x="745" d="M51 1163q0 133 95 228.5t227 95.5t226.5 -95.5t94.5 -228.5q0 -131 -94.5 -225t-226.5 -94t-227 94t-95 225zM211 1163q0 -65 48 -112t114 -47q67 0 115.5 47t48.5 112q0 67 -48.5 115.5t-115.5 48.5q-66 0 -114 -48.5t-48 -115.5z" />
<glyph unicode="&#xb1;" d="M76 0v217h1026v-217h-1026zM76 727v217h403v404h219v-404h404v-217h-404v-403h-219v403h-403z" />
<glyph unicode="&#xb2;" horiz-adv-x="925" d="M88 1456q55 100 151 157.5t226 57.5q150 0 242 -75.5t92 -204.5q0 -81 -40.5 -139.5t-123.5 -114.5q-33 -22 -94.5 -59.5t-107 -67.5t-68.5 -54h444v-178h-705v25q0 92 68 179t213 194q17 13 48 36t45 33.5t36 28.5t32 29.5t21.5 27.5t16 31t4.5 31q0 49 -37.5 76.5 t-101.5 27.5q-67 0 -121 -32.5t-82 -96.5z" />
<glyph unicode="&#xb3;" horiz-adv-x="925" d="M98 969l152 92q75 -127 211 -127q78 0 124 36.5t46 98.5q0 56 -39 89.5t-100 33.5q-44 0 -84 -21l-82 76l219 230h-400v178h646v-121l-195 -207q108 -21 173 -89.5t65 -170.5q0 -127 -98 -216t-273 -89q-136 0 -222.5 54.5t-142.5 152.5z" />
<glyph unicode="&#xb4;" horiz-adv-x="663" d="M227 1210l199 385l197 -100l-215 -285h-181z" />
<glyph unicode="&#xb6;" horiz-adv-x="1142" d="M66 1026q0 129 59.5 230t159 153.5t219.5 52.5h502v-1648h-107v1489h-125v-1489h-174v774h-96q-189 0 -313.5 121t-124.5 317z" />
<glyph unicode="&#xb7;" horiz-adv-x="522" d="M90 539q0 70 50.5 121t119.5 51t119.5 -51t50.5 -121q0 -69 -50.5 -119.5t-119.5 -50.5t-119.5 50.5t-50.5 119.5z" />
<glyph unicode="&#xb8;" horiz-adv-x="663" d="M135 -250q45 -33 127 -33q50 0 77.5 19t27.5 47q0 21 -15 29h-96v120q34 27 106 27q84 0 145.5 -45.5t61.5 -124.5q0 -86 -77 -137t-201 -51q-99 0 -156 26v123z" />
<glyph unicode="&#xb9;" horiz-adv-x="780" d="M106 1477l293 178h172v-877h-198v647l-170 -98z" />
<glyph unicode="&#xba;" horiz-adv-x="872" d="M61 1118q0 163 102.5 264t272.5 101q171 0 274 -101.5t103 -263.5q0 -161 -103.5 -262.5t-273.5 -101.5t-272.5 101.5t-102.5 262.5zM262 1118q0 -87 46.5 -142.5t127.5 -55.5q84 0 130 55t46 143q0 90 -46 145.5t-130 55.5q-82 0 -128 -55.5t-46 -145.5z" />
<glyph unicode="&#xbb;" horiz-adv-x="1079" d="M84 211l252 377l-252 377l135 104l328 -434v-94l-328 -432zM530 211l252 377l-252 377l136 104l329 -434v-94l-329 -432z" />
<glyph unicode="&#xbc;" horiz-adv-x="2138" d="M106 1284l293 178h172v-876h-198v647l-170 -98zM477 0l948 1462h193l-948 -1462h-193zM1307 180v148l405 549h211v-533h117v-164h-117v-180h-197v180h-419zM1491 344h238v309z" />
<glyph unicode="&#xbd;" horiz-adv-x="2220" d="M106 1284l293 178h172v-876h-198v647l-170 -98zM477 0l948 1462h193l-948 -1462h-193zM1382 678q55 100 151 157.5t226 57.5q150 0 242 -76t92 -205q0 -81 -40.5 -139.5t-123.5 -114.5q-33 -23 -94.5 -59.5t-107 -66.5t-68.5 -54h444v-178h-704v25q0 92 67.5 178.5 t212.5 193.5q17 13 48 36t45 33.5t36 28.5t32 29.5t21.5 27.5t16 31t4.5 31q0 49 -37.5 77t-101.5 28q-67 0 -121 -32.5t-82 -96.5z" />
<glyph unicode="&#xbe;" horiz-adv-x="2265" d="M98 776l152 92q75 -127 211 -127q78 0 124 37t46 99q0 56 -39 89t-100 33q-46 0 -84 -20l-82 76l219 229h-400v178h646v-121l-195 -206q108 -21 173 -90t65 -171q0 -127 -98 -216t-273 -89q-136 0 -222.5 54.5t-142.5 152.5zM584 0l948 1462h192l-948 -1462h-192z M1434 180v148l405 549h211v-533h117v-164h-117v-180h-197v180h-419zM1618 344h237v309z" />
<glyph unicode="&#xbf;" horiz-adv-x="1081" d="M96 37q0 70 21.5 129t56 100t76 77t82.5 66t75.5 59.5t56 66.5t21.5 79v35h267v-24q0 -65 -21 -121.5t-54 -97t-73 -77t-80.5 -69t-73.5 -64.5t-54 -72t-21 -85q0 -84 62 -133t165 -49q159 0 289 127l137 -185q-199 -176 -457 -176q-213 0 -344 111.5t-131 302.5z M461 786v295h295v-295h-295z" />
<glyph unicode="&#xc0;" horiz-adv-x="1421" d="M8 0l543 1462h321l541 -1462h-305l-123 362h-559l-123 -362h-295zM422 1839l197 100l198 -385h-180zM494 590h421l-206 635z" />
<glyph unicode="&#xc1;" horiz-adv-x="1421" d="M8 0l543 1462h321l541 -1462h-305l-123 362h-559l-123 -362h-295zM494 590h421l-206 635zM581 1554l199 385l197 -100l-215 -285h-181z" />
<glyph unicode="&#xc2;" horiz-adv-x="1421" d="M8 0l543 1462h321l541 -1462h-305l-123 362h-559l-123 -362h-295zM334 1560l256 367h242l258 -367h-181l-198 195l-197 -195h-180zM494 590h421l-206 635z" />
<glyph unicode="&#xc3;" horiz-adv-x="1421" d="M8 0l543 1462h321l541 -1462h-305l-123 362h-559l-123 -362h-295zM301 1628q80 215 268 215q78 0 164 -47q88 -45 133 -45q48 0 79.5 27t45.5 65l137 -63q-75 -215 -266 -215q-80 0 -166 45q-82 45 -131 45t-81 -26.5t-46 -63.5zM494 590h421l-206 635z" />
<glyph unicode="&#xc4;" horiz-adv-x="1421" d="M8 0l543 1462h321l541 -1462h-305l-123 362h-559l-123 -362h-295zM397 1579v213h211v-213h-211zM494 590h421l-206 635zM811 1579v213h213v-213h-213z" />
<glyph unicode="&#xc5;" horiz-adv-x="1421" d="M8 0l529 1427q-50 56 -50 136q0 94 66 160.5t160 66.5q92 0 158.5 -66.5t66.5 -160.5q0 -77 -51 -138l526 -1425h-305l-123 362h-559l-123 -362h-295zM494 590h421l-206 635zM612 1563q0 -40 30 -70.5t71 -30.5q40 0 70 30.5t30 70.5q0 42 -30 72t-70 30q-41 0 -71 -29.5 t-30 -72.5z" />
<glyph unicode="&#xc6;" horiz-adv-x="2000" d="M-20 0l841 1462h1065v-248h-655v-335h573v-226h-573v-407h676v-246h-949v362h-479l-205 -362h-294zM602 590h356v651z" />
<glyph unicode="&#xc7;" horiz-adv-x="1429" d="M72 733q0 221 89 393t250.5 267.5t368.5 95.5q188 0 341.5 -82.5t254.5 -245.5l-215 -133q-132 217 -377 217q-197 0 -313.5 -141.5t-116.5 -370.5q0 -231 117.5 -373.5t316.5 -142.5q244 0 377 225l219 -127q-210 -342 -598 -342q-211 0 -373.5 95.5t-251.5 268.5 t-89 396zM530 -250q45 -33 127 -33q50 0 77.5 19t27.5 47q0 21 -15 29h-96v120q35 27 106 27q84 0 145.5 -45.5t61.5 -124.5q0 -86 -77 -137t-201 -51q-99 0 -156 26v123z" />
<glyph unicode="&#xc8;" horiz-adv-x="1300" d="M150 0v1462h1036v-248h-764v-344h680v-225h-680v-399h784v-246h-1056zM420 1839l196 100l199 -385h-180z" />
<glyph unicode="&#xc9;" horiz-adv-x="1300" d="M150 0v1462h1036v-248h-764v-344h680v-225h-680v-399h784v-246h-1056zM561 1554l199 385l197 -100l-215 -285h-181z" />
<glyph unicode="&#xca;" horiz-adv-x="1300" d="M150 0v1462h1036v-248h-764v-344h680v-225h-680v-399h784v-246h-1056zM289 1573l256 366h241l258 -366h-180l-198 194l-197 -194h-180z" />
<glyph unicode="&#xcb;" horiz-adv-x="1300" d="M150 0v1462h1036v-248h-764v-344h680v-225h-680v-399h784v-246h-1056zM358 1579v213h211v-213h-211zM772 1579v213h213v-213h-213z" />
<glyph unicode="&#xcc;" horiz-adv-x="573" d="M-4 1839l197 100l198 -385h-180zM150 0v1462h272v-1462h-272z" />
<glyph unicode="&#xcd;" horiz-adv-x="573" d="M150 0v1462h272v-1462h-272zM182 1550l199 385l197 -100l-215 -285h-181z" />
<glyph unicode="&#xce;" horiz-adv-x="573" d="M-90 1554l256 367h242l258 -367h-181l-198 195l-197 -195h-180zM150 0v1462h272v-1462h-272z" />
<glyph unicode="&#xcf;" horiz-adv-x="573" d="M-27 1579v213h211v-213h-211zM150 0v1462h272v-1462h-272zM387 1579v213h213v-213h-213z" />
<glyph unicode="&#xd0;" horiz-adv-x="1560" d="M63 635v219h132v608h581q225 0 387 -95.5t242 -259t80 -376.5t-80 -376.5t-242 -259t-387 -95.5h-581v635h-132zM469 246h307q202 0 313 128t111 357t-111 356t-313 127h-307v-360h360v-219h-360v-389z" />
<glyph unicode="&#xd1;" horiz-adv-x="1525" d="M150 0v1462h329l635 -1034v1034h262v-1462h-297l-665 1085v-1085h-264zM346 1628q80 215 268 215q78 0 164 -47q88 -45 133 -45q48 0 79.5 27t45.5 65l138 -63q-75 -215 -267 -215q-80 0 -166 45q-82 45 -131 45t-81 -26.5t-46 -63.5z" />
<glyph unicode="&#xd2;" horiz-adv-x="1572" d="M70 731q0 160 50.5 299t141.5 240.5t226.5 160t297.5 58.5q216 0 380.5 -100.5t250.5 -272t86 -385.5q0 -213 -86 -384.5t-250.5 -272.5t-380.5 -101q-162 0 -297.5 58.5t-226.5 160.5t-141.5 241t-50.5 298zM354 731q0 -223 115.5 -362.5t316.5 -139.5 q202 0 318.5 139.5t116.5 362.5t-116.5 362.5t-318.5 139.5q-201 0 -316.5 -139.5t-115.5 -362.5zM520 1839l197 100l198 -385h-180z" />
<glyph unicode="&#xd3;" horiz-adv-x="1572" d="M70 731q0 160 50.5 299t141.5 240.5t226.5 160t297.5 58.5q216 0 380.5 -100.5t250.5 -272t86 -385.5q0 -213 -86 -384.5t-250.5 -272.5t-380.5 -101q-162 0 -297.5 58.5t-226.5 160.5t-141.5 241t-50.5 298zM354 731q0 -223 115.5 -362.5t316.5 -139.5 q202 0 318.5 139.5t116.5 362.5t-116.5 362.5t-318.5 139.5q-201 0 -316.5 -139.5t-115.5 -362.5zM643 1554l199 385l197 -100l-215 -285h-181z" />
<glyph unicode="&#xd4;" horiz-adv-x="1572" d="M70 731q0 160 50.5 299t141.5 240.5t226.5 160t297.5 58.5q216 0 380.5 -100.5t250.5 -272t86 -385.5q0 -213 -86 -384.5t-250.5 -272.5t-380.5 -101q-162 0 -297.5 58.5t-226.5 160.5t-141.5 241t-50.5 298zM354 731q0 -223 115.5 -362.5t316.5 -139.5 q202 0 318.5 139.5t116.5 362.5t-116.5 362.5t-318.5 139.5q-201 0 -316.5 -139.5t-115.5 -362.5zM410 1572l256 367h242l258 -367h-181l-198 195l-197 -195h-180z" />
<glyph unicode="&#xd5;" horiz-adv-x="1572" d="M70 731q0 160 50.5 299t141.5 240.5t226.5 160t297.5 58.5q216 0 380.5 -100.5t250.5 -272t86 -385.5q0 -213 -86 -384.5t-250.5 -272.5t-380.5 -101q-162 0 -297.5 58.5t-226.5 160.5t-141.5 241t-50.5 298zM354 731q0 -223 115.5 -362.5t316.5 -139.5 q202 0 318.5 139.5t116.5 362.5t-116.5 362.5t-318.5 139.5q-201 0 -316.5 -139.5t-115.5 -362.5zM373 1628q80 215 268 215q78 0 164 -47q88 -45 133 -45q48 0 79.5 27t45.5 65l137 -63q-75 -215 -266 -215q-80 0 -166 45q-82 45 -131 45t-81 -26.5t-46 -63.5z" />
<glyph unicode="&#xd6;" horiz-adv-x="1572" d="M70 731q0 160 50.5 299t141.5 240.5t226.5 160t297.5 58.5q216 0 380.5 -100.5t250.5 -272t86 -385.5q0 -213 -86 -384.5t-250.5 -272.5t-380.5 -101q-162 0 -297.5 58.5t-226.5 160.5t-141.5 241t-50.5 298zM354 731q0 -223 115.5 -362.5t316.5 -139.5 q202 0 318.5 139.5t116.5 362.5t-116.5 362.5t-318.5 139.5q-201 0 -316.5 -139.5t-115.5 -362.5zM473 1579v213h211v-213h-211zM887 1579v213h213v-213h-213z" />
<glyph unicode="&#xd7;" d="M41 147l395 394l-395 393l154 156l395 -396l393 396l154 -156l-394 -393l394 -394l-154 -155l-393 395l-395 -395z" />
<glyph unicode="&#xd8;" horiz-adv-x="1572" d="M70 731q0 160 50.5 299t141.5 240.5t226.5 160t297.5 58.5q210 0 375 -100l70 102l117 -82l-72 -104q110 -102 168.5 -251t58.5 -323q0 -213 -86 -384.5t-250.5 -272.5t-380.5 -101q-209 0 -374 97l-70 -99l-117 82l72 103q-109 103 -168 252t-59 323zM354 731 q0 -216 103 -346l553 791q-101 61 -224 61q-201 0 -316.5 -141t-115.5 -365zM563 285q91 -60 223 -60q201 0 318 141.5t117 364.5q0 206 -107 344z" />
<glyph unicode="&#xd9;" horiz-adv-x="1452" d="M137 549v913h271v-913q0 -153 83 -238.5t234 -85.5t235 86t84 238v913h273v-913q0 -267 -163.5 -421.5t-428.5 -154.5q-267 0 -427.5 154t-160.5 422zM444 1839l197 100l198 -385h-180z" />
<glyph unicode="&#xda;" horiz-adv-x="1452" d="M137 549v913h271v-913q0 -153 83 -238.5t234 -85.5t235 86t84 238v913h273v-913q0 -267 -163.5 -421.5t-428.5 -154.5q-267 0 -427.5 154t-160.5 422zM602 1554l199 385l197 -100l-215 -285h-181z" />
<glyph unicode="&#xdb;" horiz-adv-x="1452" d="M137 549v913h271v-913q0 -153 83 -238.5t234 -85.5t235 86t84 238v913h273v-913q0 -267 -163.5 -421.5t-428.5 -154.5q-267 0 -427.5 154t-160.5 422zM350 1572l256 367h242l258 -367h-181l-198 195l-197 -195h-180z" />
<glyph unicode="&#xdc;" horiz-adv-x="1452" d="M137 549v913h271v-913q0 -153 83 -238.5t234 -85.5t235 86t84 238v913h273v-913q0 -267 -163.5 -421.5t-428.5 -154.5q-267 0 -427.5 154t-160.5 422zM414 1579v213h211v-213h-211zM827 1579v213h213v-213h-213z" />
<glyph unicode="&#xdd;" horiz-adv-x="1312" d="M-2 1462h315l346 -596l345 596h313l-524 -854v-608h-275v608zM546 1554l199 385l197 -100l-215 -285h-181z" />
<glyph unicode="&#xde;" horiz-adv-x="1333" d="M150 0v1462h272v-184h348q246 0 385 -127t139 -340q0 -215 -138 -341t-386 -126h-348v-344h-272zM422 592h346q121 0 185.5 57t64.5 162t-64.5 162t-185.5 57h-346v-438z" />
<glyph unicode="&#xdf;" horiz-adv-x="1269" d="M133 0v1018q0 219 136.5 344t377.5 125q143 0 254.5 -43.5t177.5 -131.5t66 -210q0 -102 -50 -183.5t-143 -132.5q108 -41 178 -130t70 -236q0 -201 -134 -320.5t-351 -119.5q-148 0 -226 38l46 226q65 -37 157 -37q107 0 171.5 62t64.5 171q0 115 -75.5 169.5 t-209.5 54.5h-96v215h106q102 0 167 50t65 144q0 66 -35 111.5t-87.5 64.5t-117.5 19q-118 0 -185 -65t-67 -187v-1016h-260z" />
<glyph unicode="&#xe0;" horiz-adv-x="1116" d="M63 309q0 55 14 100.5t35.5 77t55.5 57t65 40.5t72.5 27t71 17.5t67.5 10.5q151 22 189 33q92 28 99 89q1 6 1 13q0 61 -56.5 88t-135.5 27q-82 0 -174.5 -27t-163.5 -76l-94 191q89 59 208.5 94t243.5 35q201 0 316.5 -87.5t115.5 -268.5v-750h-245v115 q-107 -140 -310 -140q-169 0 -272 88.5t-103 245.5zM264 1495l197 100l198 -385h-180zM322 322q0 -70 46 -106t124 -36q102 0 171.5 59t69.5 173v123q-23 -17 -67 -30.5t-70 -18.5t-98 -17q-41 -8 -68 -16.5t-54 -24.5t-40.5 -42.5t-13.5 -63.5z" />
<glyph unicode="&#xe1;" horiz-adv-x="1116" d="M63 309q0 55 14 100.5t35.5 77t55.5 57t65 40.5t72.5 27t71 17.5t67.5 10.5q151 22 189 33q92 28 99 89q1 6 1 13q0 61 -56.5 88t-135.5 27q-82 0 -174.5 -27t-163.5 -76l-94 191q89 59 208.5 94t243.5 35q201 0 316.5 -87.5t115.5 -268.5v-750h-245v115 q-107 -140 -310 -140q-169 0 -272 88.5t-103 245.5zM322 322q0 -70 46 -106t124 -36q102 0 171.5 59t69.5 173v123q-23 -17 -67 -30.5t-70 -18.5t-98 -17q-41 -8 -68 -16.5t-54 -24.5t-40.5 -42.5t-13.5 -63.5zM420 1210l199 385l197 -100l-215 -285h-181z" />
<glyph unicode="&#xe2;" horiz-adv-x="1116" d="M63 309q0 55 14 100.5t35.5 77t55.5 57t65 40.5t72.5 27t71 17.5t67.5 10.5q151 22 189 33q92 28 99 89q1 6 1 13q0 61 -56.5 88t-135.5 27q-82 0 -174.5 -27t-163.5 -76l-94 191q89 59 208.5 94t243.5 35q201 0 316.5 -87.5t115.5 -268.5v-750h-245v115 q-107 -140 -310 -140q-169 0 -272 88.5t-103 245.5zM164 1210l256 367h242l258 -367h-181l-198 195l-197 -195h-180zM322 322q0 -70 46 -106t124 -36q102 0 171.5 59t69.5 173v123q-23 -17 -67 -30.5t-70 -18.5t-98 -17q-41 -8 -68 -16.5t-54 -24.5t-40.5 -42.5t-13.5 -63.5 z" />
<glyph unicode="&#xe3;" horiz-adv-x="1116" d="M63 309q0 55 14 100.5t35.5 77t55.5 57t65 40.5t72.5 27t71 17.5t67.5 10.5q151 22 189 33q92 28 99 89q1 6 1 13q0 61 -56.5 88t-135.5 27q-82 0 -174.5 -27t-163.5 -76l-94 191q89 59 208.5 94t243.5 35q201 0 316.5 -87.5t115.5 -268.5v-750h-245v115 q-107 -140 -310 -140q-169 0 -272 88.5t-103 245.5zM129 1284q80 215 268 215q78 0 164 -47q88 -45 133 -45q48 0 79.5 27t45.5 65l137 -63q-75 -215 -266 -215q-80 0 -166 45q-82 45 -131 45t-81 -26.5t-46 -63.5zM322 322q0 -70 46 -106t124 -36q102 0 171.5 59t69.5 173 v123q-23 -17 -67 -30.5t-70 -18.5t-98 -17q-41 -8 -68 -16.5t-54 -24.5t-40.5 -42.5t-13.5 -63.5z" />
<glyph unicode="&#xe4;" horiz-adv-x="1116" d="M63 309q0 55 14 100.5t35.5 77t55.5 57t65 40.5t72.5 27t71 17.5t67.5 10.5q151 22 189 33q92 28 99 89q1 6 1 13q0 61 -56.5 88t-135.5 27q-82 0 -174.5 -27t-163.5 -76l-94 191q89 59 208.5 94t243.5 35q201 0 316.5 -87.5t115.5 -268.5v-750h-245v115 q-107 -140 -310 -140q-169 0 -272 88.5t-103 245.5zM227 1235v213h211v-213h-211zM322 322q0 -70 46 -106t124 -36q102 0 171.5 59t69.5 173v123q-23 -17 -67 -30.5t-70 -18.5t-98 -17q-41 -8 -68 -16.5t-54 -24.5t-40.5 -42.5t-13.5 -63.5zM641 1235v213h213v-213h-213z " />
<glyph unicode="&#xe5;" horiz-adv-x="1116" d="M63 309q0 55 14 100.5t35.5 77t55.5 57t65 40.5t72.5 27t71 17.5t67.5 10.5q151 22 189 33q92 28 99 89q1 6 1 13q0 61 -56.5 88t-135.5 27q-82 0 -174.5 -27t-163.5 -76l-94 191q89 59 208.5 94t243.5 35q201 0 316.5 -87.5t115.5 -268.5v-750h-245v115 q-107 -140 -310 -140q-169 0 -272 88.5t-103 245.5zM317 1360q0 94 66.5 160.5t159.5 66.5q94 0 159.5 -66.5t65.5 -160.5q0 -93 -66 -159t-159 -66q-92 0 -159 66.5t-67 158.5zM322 322q0 -70 46 -106t124 -36q102 0 171.5 59t69.5 173v123q-23 -17 -67 -30.5t-70 -18.5 t-98 -17q-41 -8 -68 -16.5t-54 -24.5t-40.5 -42.5t-13.5 -63.5zM444 1360q0 -40 29.5 -70t69.5 -30q41 0 70.5 30t29.5 70q0 43 -29.5 72.5t-70.5 29.5q-40 0 -69.5 -30t-29.5 -72z" />
<glyph unicode="&#xe6;" horiz-adv-x="1826" d="M63 307q0 55 14 101t35.5 77.5t55 57.5t64.5 41t73 27t71.5 17.5t67.5 10.5q151 22 189 33q92 28 99 89q1 6 1 13q0 61 -56.5 88t-135.5 27q-82 0 -174.5 -27t-163.5 -76l-94 191q89 59 208.5 94t245.5 35q242 0 346 -137q140 137 351 137q229 0 365 -148.5t136 -382.5 q0 -46 -4 -96h-764q1 -130 81 -201t206 -71q175 0 281 133l163 -158q-173 -207 -458 -207q-260 0 -404 177q-131 -177 -395 -177q-192 0 -298 87t-106 245zM322 322q0 -70 46 -106t124 -36q102 0 171.5 59t69.5 173v123q-23 -17 -67 -30.5t-70 -18.5t-98 -17 q-41 -8 -68 -16.5t-54 -24.5t-40.5 -42.5t-13.5 -63.5zM993 662h510q-7 118 -76 180.5t-174 62.5q-110 0 -180.5 -67t-79.5 -176z" />
<glyph unicode="&#xe7;" horiz-adv-x="1101" d="M66 541q0 160 65.5 288.5t188.5 202.5t282 74q156 0 270.5 -70t182.5 -180l-189 -123q-87 146 -245 146q-130 0 -205.5 -93t-75.5 -243q0 -154 77 -247t208 -93q158 0 258 143l176 -143q-168 -228 -453 -228q-161 0 -284.5 74t-189.5 202t-66 290zM342 -250 q45 -33 127 -33q50 0 77.5 19t27.5 47q0 21 -15 29h-96v120q35 27 106 27q84 0 145.5 -45.5t61.5 -124.5q0 -86 -77 -137t-201 -51q-99 0 -156 26v123z" />
<glyph unicode="&#xe8;" horiz-adv-x="1187" d="M66 537q0 248 143.5 408.5t390.5 160.5q237 0 375.5 -148t138.5 -383q0 -21 -6 -96h-764q1 -130 81 -201t206 -71q174 0 280 133l166 -158q-173 -207 -461 -207q-129 0 -234 42.5t-173.5 118t-105.5 178t-37 223.5zM313 1495l197 100l199 -385h-181zM346 662h510 q-9 118 -78.5 180.5t-173.5 62.5q-109 0 -179 -66.5t-79 -176.5z" />
<glyph unicode="&#xe9;" horiz-adv-x="1187" d="M66 537q0 248 143.5 408.5t390.5 160.5q237 0 375.5 -148t138.5 -383q0 -21 -6 -96h-764q1 -130 81 -201t206 -71q174 0 280 133l166 -158q-173 -207 -461 -207q-129 0 -234 42.5t-173.5 118t-105.5 178t-37 223.5zM346 662h510q-9 118 -78.5 180.5t-173.5 62.5 q-109 0 -179 -66.5t-79 -176.5zM455 1210l198 385l197 -100l-215 -285h-180z" />
<glyph unicode="&#xea;" d="M66 537q0 248 143.5 408.5t390.5 160.5q237 0 375.5 -148t138.5 -383q0 -21 -6 -96h-764q1 -130 81 -201t206 -71q174 0 280 133l166 -158q-173 -207 -461 -207q-129 0 -234 42.5t-173.5 118t-105.5 178t-37 223.5zM213 1210l256 367h242l258 -367h-181l-198 195 l-197 -195h-180zM346 662h510q-9 118 -78.5 180.5t-173.5 62.5q-109 0 -179 -66.5t-79 -176.5z" />
<glyph unicode="&#xeb;" d="M66 537q0 248 143.5 408.5t390.5 160.5q237 0 375.5 -148t138.5 -383q0 -21 -6 -96h-764q1 -130 81 -201t206 -71q174 0 280 133l166 -158q-173 -207 -461 -207q-129 0 -234 42.5t-173.5 118t-105.5 178t-37 223.5zM276 1235v213h211v-213h-211zM346 662h510 q-9 118 -78.5 180.5t-173.5 62.5q-109 0 -179 -66.5t-79 -176.5zM690 1235v213h213v-213h-213z" />
<glyph unicode="&#xec;" horiz-adv-x="522" d="M-25 1495l197 100l198 -385h-180zM131 0v1081h260v-1081h-260z" />
<glyph unicode="&#xed;" horiz-adv-x="522" d="M131 0v1081h260v-1081h-260zM139 1210l199 385l197 -100l-215 -285h-181z" />
<glyph unicode="&#xee;" horiz-adv-x="522" d="M-117 1210l256 367h242l258 -367h-181l-198 195l-197 -195h-180zM131 0v1081h260v-1081h-260z" />
<glyph unicode="&#xef;" horiz-adv-x="522" d="M-53 1235v213h211v-213h-211zM131 0v1081h260v-1081h-260zM360 1235v213h213v-213h-213z" />
<glyph unicode="&#xf0;" horiz-adv-x="1226" d="M70 492q0 214 135 345.5t342 131.5q113 0 197.5 -39.5t125.5 -95.5q0 217 -92 331l-305 -153v133l193 98q-69 29 -146 29q-156 0 -266 -88l-100 207q146 98 362 98q236 0 387 -129l221 110v-133l-135 -67q154 -203 154 -570q0 -350 -144.5 -538.5t-404.5 -188.5 q-120 0 -220 41.5t-165.5 112t-102 165t-36.5 200.5zM346 475q0 -120 65 -195t181 -75q85 0 146.5 43t89.5 107.5t28 140.5q0 120 -70 189t-186 69q-124 0 -189 -79t-65 -200z" />
<glyph unicode="&#xf1;" horiz-adv-x="1204" d="M131 0v1081h260v-135q54 74 139.5 117t190.5 43q168 0 264 -108.5t96 -284.5v-713h-260v653q0 219 -184 219q-107 0 -176.5 -71t-69.5 -191v-610h-260zM209 1284q80 215 268 215q78 0 164 -47q88 -45 133 -45q48 0 79.5 27t45.5 65l137 -63q-75 -215 -266 -215 q-80 0 -166 45q-82 45 -131 45t-81 -26.5t-46 -63.5z" />
<glyph unicode="&#xf2;" horiz-adv-x="1220" d="M66 539q0 253 148.5 410t395.5 157t396 -157t149 -410q0 -251 -149 -407.5t-396 -156.5t-395.5 156.5t-148.5 407.5zM324 1495l197 100l198 -385h-180zM342 541q0 -152 71 -248t197 -96q127 0 199 96t72 248q0 153 -72 248.5t-199 95.5q-126 0 -197 -95.5t-71 -248.5z " />
<glyph unicode="&#xf3;" horiz-adv-x="1220" d="M66 539q0 253 148.5 410t395.5 157t396 -157t149 -410q0 -251 -149 -407.5t-396 -156.5t-395.5 156.5t-148.5 407.5zM342 541q0 -152 71 -248t197 -96q127 0 199 96t72 248q0 153 -72 248.5t-199 95.5q-126 0 -197 -95.5t-71 -248.5zM460 1210l199 385l197 -100 l-215 -285h-181z" />
<glyph unicode="&#xf4;" horiz-adv-x="1220" d="M66 539q0 253 148.5 410t395.5 157t396 -157t149 -410q0 -251 -149 -407.5t-396 -156.5t-395.5 156.5t-148.5 407.5zM233 1210l256 367h242l258 -367h-181l-198 195l-197 -195h-180zM342 541q0 -152 71 -248t197 -96q127 0 199 96t72 248q0 153 -72 248.5t-199 95.5 q-126 0 -197 -95.5t-71 -248.5z" />
<glyph unicode="&#xf5;" horiz-adv-x="1220" d="M66 539q0 253 148.5 410t395.5 157t396 -157t149 -410q0 -251 -149 -407.5t-396 -156.5t-395.5 156.5t-148.5 407.5zM197 1284q80 215 268 215q78 0 164 -47q88 -45 133 -45q48 0 79.5 27t45.5 65l137 -63q-75 -215 -266 -215q-80 0 -166 45q-82 45 -131 45t-81 -26.5 t-46 -63.5zM342 541q0 -152 71 -248t197 -96q127 0 199 96t72 248q0 153 -72 248.5t-199 95.5q-126 0 -197 -95.5t-71 -248.5z" />
<glyph unicode="&#xf6;" horiz-adv-x="1220" d="M66 539q0 253 148.5 410t395.5 157t396 -157t149 -410q0 -251 -149 -407.5t-396 -156.5t-395.5 156.5t-148.5 407.5zM297 1235v213h211v-213h-211zM342 541q0 -152 71 -248t197 -96q127 0 199 96t72 248q0 153 -72 248.5t-199 95.5q-126 0 -197 -95.5t-71 -248.5z M711 1235v213h213v-213h-213z" />
<glyph unicode="&#xf7;" d="M47 430v219h1083v-219h-1083zM434 137q0 65 45.5 111.5t110.5 46.5q64 0 109.5 -46.5t45.5 -111.5q0 -63 -45.5 -109t-109.5 -46q-65 0 -110.5 45.5t-45.5 109.5zM434 942q0 65 45.5 111.5t110.5 46.5q64 0 109.5 -46.5t45.5 -111.5t-45.5 -111.5t-109.5 -46.5 q-65 0 -110.5 46.5t-45.5 111.5z" />
<glyph unicode="&#xf8;" horiz-adv-x="1220" d="M66 539q0 253 148.5 410t395.5 157q145 0 271 -66l47 68l108 -72l-49 -69q168 -162 168 -428q0 -251 -149 -407.5t-396 -156.5q-152 0 -272 66l-47 -68l-107 72l47 68q-80 75 -122.5 184.5t-42.5 241.5zM338 541q0 -126 49 -205l361 516q-64 41 -138 41 q-127 0 -199.5 -98t-72.5 -254zM469 231q62 -43 141 -43q128 0 200.5 98.5t72.5 254.5q0 120 -49 207z" />
<glyph unicode="&#xf9;" horiz-adv-x="1202" d="M119 369v712h260v-651q0 -221 186 -221q108 0 178 71t70 191v610h258v-1081h-258v135q-54 -74 -140.5 -117t-191.5 -43q-168 0 -265 109t-97 285zM295 1495l197 100l198 -385h-180z" />
<glyph unicode="&#xfa;" horiz-adv-x="1202" d="M119 369v712h260v-651q0 -221 186 -221q108 0 178 71t70 191v610h258v-1081h-258v135q-54 -74 -140.5 -117t-191.5 -43q-168 0 -265 109t-97 285zM473 1210l199 385l197 -100l-215 -285h-181z" />
<glyph unicode="&#xfb;" horiz-adv-x="1202" d="M119 369v712h260v-651q0 -221 186 -221q108 0 178 71t70 191v610h258v-1081h-258v135q-54 -74 -140.5 -117t-191.5 -43q-168 0 -265 109t-97 285zM217 1210l256 367h242l258 -367h-181l-198 195l-197 -195h-180z" />
<glyph unicode="&#xfc;" horiz-adv-x="1202" d="M119 369v712h260v-651q0 -221 186 -221q108 0 178 71t70 191v610h258v-1081h-258v135q-54 -74 -140.5 -117t-191.5 -43q-168 0 -265 109t-97 285zM281 1235v213h211v-213h-211zM694 1235v213h213v-213h-213z" />
<glyph unicode="&#xfd;" horiz-adv-x="1101" d="M4 1081h293l260 -751l258 751h279l-416 -1095q-80 -210 -165 -286.5t-224 -76.5q-106 0 -166 29l57 207q31 -19 76 -19q58 0 93.5 38.5t72.5 137.5zM444 1210l199 385l197 -100l-215 -285h-181z" />
<glyph unicode="&#xfe;" horiz-adv-x="1280" d="M131 -356v1818h260v-518q55 81 142.5 121.5t191.5 40.5q144 0 255.5 -74t170.5 -202t59 -287q0 -161 -59 -289.5t-170.5 -203.5t-255.5 -75q-104 0 -191 41.5t-143 122.5v-495h-260zM391 543q0 -147 73.5 -243.5t205.5 -96.5q129 0 198.5 96.5t69.5 243.5 q0 146 -69.5 241t-198.5 95q-133 0 -206 -95t-73 -241z" />
<glyph unicode="&#xff;" horiz-adv-x="1101" d="M4 1081h293l260 -751l258 751h279l-416 -1095q-80 -210 -165 -286.5t-224 -76.5q-106 0 -166 29l57 207q31 -19 76 -19q58 0 93.5 38.5t72.5 137.5zM241 1235v213h211v-213h-211zM655 1235v213h213v-213h-213z" />
<glyph unicode="&#x152;" horiz-adv-x="2187" d="M63 731q0 214 85.5 385.5t249.5 272t380 100.5q100 0 203 -27h1112v-248h-766q127 -140 152 -344h532v-225h-526q-15 -239 -156 -399h785v-246h-1133q-103 -27 -203 -27q-216 0 -380 101t-249.5 272t-85.5 385zM348 731q0 -224 114.5 -365t315.5 -141q202 0 318 141 t116 365t-116 365t-318 141q-201 0 -315.5 -141t-114.5 -365z" />
<glyph unicode="&#x153;" horiz-adv-x="1994" d="M66 539q0 253 148.5 410t395.5 157q129 0 232.5 -53.5t169.5 -149.5q66 96 168.5 149.5t232.5 53.5q238 0 376 -148t138 -383q0 -46 -4 -96h-764q1 -130 81 -201t206 -71q174 0 280 133l164 -158q-173 -207 -458 -207q-278 0 -420 201q-66 -95 -169.5 -148t-232.5 -53 q-247 0 -395.5 156.5t-148.5 407.5zM342 541q0 -152 71 -248t197 -96q127 0 199 96t72 248q0 153 -72 248.5t-199 95.5q-126 0 -197 -95.5t-71 -248.5zM1159 662h510q-7 118 -76 180.5t-174 62.5q-110 0 -180.5 -67t-79.5 -176z" />
<glyph unicode="&#x178;" horiz-adv-x="1312" d="M-2 1462h315l346 -596l345 596h313l-524 -854v-608h-275v608zM342 1579v213h211v-213h-211zM756 1579v213h213v-213h-213z" />
<glyph unicode="&#x2c6;" horiz-adv-x="845" d="M43 1210l256 367h242l258 -367h-181l-198 195l-197 -195h-180z" />
<glyph unicode="&#x2dc;" horiz-adv-x="909" d="M41 1284q80 215 268 215q78 0 164 -47q88 -45 133 -45q48 0 79.5 27t45.5 65l137 -63q-75 -215 -266 -215q-80 0 -166 45q-82 45 -131 45t-81 -26.5t-46 -63.5z" />
<glyph unicode="&#x2000;" horiz-adv-x="969" />
<glyph unicode="&#x2001;" horiz-adv-x="1939" />
<glyph unicode="&#x2002;" horiz-adv-x="969" />
<glyph unicode="&#x2003;" horiz-adv-x="1939" />
<glyph unicode="&#x2004;" horiz-adv-x="646" />
<glyph unicode="&#x2005;" horiz-adv-x="484" />
<glyph unicode="&#x2006;" horiz-adv-x="323" />
<glyph unicode="&#x2007;" horiz-adv-x="323" />
<glyph unicode="&#x2008;" horiz-adv-x="242" />
<glyph unicode="&#x2009;" horiz-adv-x="387" />
<glyph unicode="&#x200a;" horiz-adv-x="107" />
<glyph unicode="&#x2010;" horiz-adv-x="792" d="M109 430v219h573v-219h-573z" />
<glyph unicode="&#x2011;" horiz-adv-x="792" d="M109 430v219h573v-219h-573z" />
<glyph unicode="&#x2012;" horiz-adv-x="792" d="M109 430v219h573v-219h-573z" />
<glyph unicode="&#x2013;" d="M39 453v217h1100v-217h-1100z" />
<glyph unicode="&#x2014;" horiz-adv-x="1884" d="M111 453v217h1663v-217h-1663z" />
<glyph unicode="&#x2018;" horiz-adv-x="512" d="M106 862v211q0 129 50 223.5t163 192.5l87 -103q-140 -111 -140 -251v-17h133v-256h-293z" />
<glyph unicode="&#x2019;" horiz-adv-x="475" d="M96 936q137 112 137 254v16h-133v256h295v-211q0 -129 -50 -223.5t-165 -191.5z" />
<glyph unicode="&#x201a;" horiz-adv-x="550" d="M123 -219q137 100 137 233v4h-133v263h295v-193q0 -124 -51 -221t-164 -186z" />
<glyph unicode="&#x201c;" horiz-adv-x="935" d="M106 862v197q0 131 51 232.5t162 197.5l87 -103q-142 -112 -142 -251v-17h135v-256h-293zM528 862v211q0 128 50.5 223t164.5 193l86 -103q-141 -111 -141 -251v-17h135v-256h-295z" />
<glyph unicode="&#x201d;" horiz-adv-x="897" d="M96 936q137 112 137 254v16h-133v256h295v-211q0 -129 -50 -223.5t-165 -191.5zM518 936q141 112 141 254v16h-135v256h293v-196q0 -132 -50.5 -232.5t-160.5 -197.5z" />
<glyph unicode="&#x201e;" horiz-adv-x="954" d="M123 -219q137 100 137 233v4h-133v263h295v-193q0 -124 -51 -221t-164 -186zM526 -219q142 102 142 233v4h-136v263h293v-193q0 -123 -50.5 -220t-160.5 -187z" />
<glyph unicode="&#x2022;" horiz-adv-x="774" d="M63 731q0 136 95 232t227 96q135 0 230.5 -96t95.5 -232q0 -135 -95.5 -230t-230.5 -95q-132 0 -227 95t-95 230z" />
<glyph unicode="&#x2026;" horiz-adv-x="1540" d="M106 0v285h289v-285h-289zM625 0v285h288v-285h-288zM1145 0v285h289v-285h-289z" />
<glyph unicode="&#x202f;" horiz-adv-x="387" />
<glyph unicode="&#x2039;" horiz-adv-x="630" d="M84 541v94l328 434l135 -104l-252 -377l252 -377l-135 -102z" />
<glyph unicode="&#x203a;" horiz-adv-x="630" d="M84 211l252 377l-252 377l135 104l328 -434v-94l-328 -432z" />
<glyph unicode="&#x205f;" horiz-adv-x="484" />
<glyph unicode="&#x20ac;" d="M0 537v125h121q-4 36 -4 67q0 36 4 68h-121v123h135q51 268 223 418.5t406 150.5q223 0 371 -131l-142 -187q-90 78 -217 78q-135 0 -228.5 -85.5t-131.5 -243.5h456v-123h-477q-2 -20 -2 -66q0 -51 2 -69h477v-125h-454q36 -154 130 -239t220 -85q146 0 246 104 l143 -180q-157 -164 -397 -164q-236 0 -403 148.5t-222 415.5h-135z" />
<glyph unicode="&#x2122;" horiz-adv-x="1419" d="M74 1331v131h514v-131h-191v-452h-137v452h-186zM653 879v583h189l139 -426l137 426h189v-583h-133v424l-140 -424h-110l-140 424v-424h-131z" />
<glyph unicode="&#xe000;" horiz-adv-x="1085" d="M0 0v1085h1085v-1085h-1085z" />
</font>
</defs>
</svg>
